<svg id="Layer_1" data-name="Layer 1" xmlns="http://www.w3.org/2000/svg" viewBox="0 0 800 200"><defs><style>.cls-1{fill:none;stroke:#000;stroke-miterlimit:10;}</style></defs><title>Pattern Exp1</title><polygon class="cls-1" points="658.5 150.5 707.5 150.5 649.5 90.5 600.5 90.5 658.5 150.5"/><polygon class="cls-1" points="600.5 89.5 551.5 89.5 609.5 29.5 658.5 29.5 600.5 89.5"/><line class="cls-1" x1="422.75" y1="23.97" x2="391.57" y2="5.97"/><line class="cls-1" x1="465.2" y1="19.93" x2="460.81" y2="-15.8"/><line class="cls-1" x1="493.97" y1="51.4" x2="519.86" y2="26.4"/><line class="cls-1" x1="486.15" y1="93.32" x2="521.7" y2="98.95"/><line class="cls-1" x1="447.96" y1="112.3" x2="464.87" y2="144.09"/><line class="cls-1" x1="409.83" y1="93.23" x2="394.61" y2="125.86"/><line class="cls-1" x1="402.11" y1="51.29" x2="366.89" y2="58.78"/><line class="cls-1" x1="201.06" y1="109.63" x2="176.97" y2="136.38"/><line class="cls-1" x1="205.94" y1="67.27" x2="170.08" y2="64.13"/><line class="cls-1" x1="242.71" y1="45.67" x2="223.63" y2="15.14"/><line class="cls-1" x1="282.08" y1="62.03" x2="294.98" y2="28.42"/><line class="cls-1" x1="292.71" y1="103.33" x2="327.31" y2="93.41"/><line class="cls-1" x1="266.12" y1="136.67" x2="294.88" y2="158.33"/><line class="cls-1" x1="223.5" y1="135.5" x2="223.5" y2="171.5"/><path class="cls-1" d="M99.5,151c-28.74,0-52-23.71-52-53s23.26-53,52-53,52,23.71,52,53S128.24,151,99.5,151Z"/><path class="cls-1" d="M142.83,98c0-24.41-19.38-44.17-43.33-44.17S56.17,73.59,56.17,98s19.38,44.17,43.33,44.17S142.83,122.41,142.83,98Z"/><path class="cls-1" d="M99.5,133.33c-19.16,0-34.67-15.8-34.67-35.33S80.34,62.67,99.5,62.67,134.17,78.47,134.17,98,118.66,133.33,99.5,133.33Z"/><path class="cls-1" d="M125.5,98a26,26,0,1,0-26,26.5A26.24,26.24,0,0,0,125.5,98Z"/><path class="cls-1" d="M99.5,115.67A17.67,17.67,0,1,1,116.83,98,17.49,17.49,0,0,1,99.5,115.67Z"/><ellipse class="cls-1" cx="99.5" cy="98" rx="8.67" ry="8.83"/><line class="cls-1" x1="99.5" y1="98" x2="99.5" y2="151"/><line class="cls-1" x1="99.5" y1="98" x2="148.95" y2="114.38"/><line class="cls-1" x1="99.5" y1="98" x2="130.06" y2="55.12"/><line class="cls-1" x1="99.5" y1="98" x2="68.94" y2="55.12"/><line class="cls-1" x1="99.5" y1="98" x2="50.05" y2="114.38"/></svg>