<svg id="Layer_1" data-name="Layer 1" xmlns="http://www.w3.org/2000/svg" viewBox="0 0 800 200"><defs><style>.cls-1{fill:none;stroke:#000;stroke-miterlimit:10;}</style></defs><title>Pattern Exp1</title><path class="cls-1" d="M685.24,15.36a76.92,76.92,0,0,1,35.7,102.76,61.54,61.54,0,0,1-82.21,28.56,49.23,49.23,0,0,1-22.85-65.77,39.38,39.38,0,0,1,52.61-18.28,31.51,31.51,0,0,1,14.62,42.09,25.21,25.21,0,0,1-33.67,11.7,20.16,20.16,0,0,1-9.36-26.94A16.13,16.13,0,0,1,661.64,82a12.91,12.91,0,0,1,6,17.24A10.32,10.32,0,0,1,653.83,104"/><path class="cls-1" d="M648.56,170.8a76.92,76.92,0,0,1-28.44-105,61.54,61.54,0,0,1,84-22.75,49.23,49.23,0,0,1,18.2,67.2,39.38,39.38,0,0,1-53.76,14.56,31.51,31.51,0,0,1-11.65-43,25.21,25.21,0,0,1,34.41-9.32A20.16,20.16,0,0,1,698.77,100a16.13,16.13,0,0,1-22,6A12.91,12.91,0,0,1,672,88.36a10.32,10.32,0,0,1,14.09-3.82"/><path class="cls-1" d="M696,18.29A76.92,76.92,0,0,1,717,125a61.54,61.54,0,0,1-85.38,16.84,49.23,49.23,0,0,1-13.47-68.31,39.38,39.38,0,0,1,54.64-10.78,31.51,31.51,0,0,1,8.62,43.72,25.21,25.21,0,0,1-35,6.9,20.16,20.16,0,0,1-5.52-28A16.13,16.13,0,0,1,663.35,81a12.91,12.91,0,0,1,3.53,17.91,10.32,10.32,0,0,1-14.32,2.83"/><path class="cls-1" d="M638,167.12A76.92,76.92,0,0,1,624.48,59.19a61.54,61.54,0,0,1,86.35-10.84,49.23,49.23,0,0,1,8.67,69.08,39.38,39.38,0,0,1-55.26,6.94,31.51,31.51,0,0,1-5.55-44.21,25.21,25.21,0,0,1,35.37-4.44A20.16,20.16,0,0,1,697.61,104,16.13,16.13,0,0,1,675,106.85a12.91,12.91,0,0,1-2.27-18.11,10.32,10.32,0,0,1,14.49-1.82"/><path class="cls-1" d="M706.23,22.7a76.92,76.92,0,0,1,6,108.62,61.54,61.54,0,0,1-86.9,4.79,49.23,49.23,0,0,1-3.83-69.52,39.38,39.38,0,0,1,55.61-3.07A31.51,31.51,0,0,1,679.56,108,25.21,25.21,0,0,1,644,110a20.16,20.16,0,0,1-1.57-28.47,16.13,16.13,0,0,1,22.78-1.26,12.91,12.91,0,0,1,1,18.22,10.32,10.32,0,0,1-14.58.8"/><path class="cls-1" d="M628.13,162a76.92,76.92,0,0,1,1.6-108.77,61.54,61.54,0,0,1,87,1.28,49.23,49.23,0,0,1-1,69.61,39.38,39.38,0,0,1-55.69-.82,31.51,31.51,0,0,1,.66-44.55,25.21,25.21,0,0,1,35.64.52,20.16,20.16,0,0,1-.42,28.51,16.13,16.13,0,0,1-22.81-.34,12.91,12.91,0,0,1,.27-18.25,10.32,10.32,0,0,1,14.6.21"/><path class="cls-1" d="M715.76,28.49a76.92,76.92,0,0,1-9.18,108.4,61.54,61.54,0,0,1-86.72-7.35,49.23,49.23,0,0,1,5.88-69.37,39.38,39.38,0,0,1,55.5,4.7,31.51,31.51,0,0,1-3.76,44.4,25.21,25.21,0,0,1-35.52-3,20.16,20.16,0,0,1,2.41-28.42,16.13,16.13,0,0,1,22.73,1.93A12.91,12.91,0,0,1,665.55,98,10.32,10.32,0,0,1,651,96.72"/><path class="cls-1" d="M619,155.58A76.92,76.92,0,0,1,635.75,48.08a61.54,61.54,0,0,1,86,13.38A49.23,49.23,0,0,1,711,130.26a39.38,39.38,0,0,1-55-8.56,31.51,31.51,0,0,1,6.85-44,25.21,25.21,0,0,1,35.22,5.48,20.16,20.16,0,0,1-4.38,28.18,16.13,16.13,0,0,1-22.54-3.51,12.91,12.91,0,0,1,2.81-18A10.32,10.32,0,0,1,688.39,92"/><path class="cls-1" d="M724.39,35.54a76.92,76.92,0,0,1-24.18,106.06,61.54,61.54,0,0,1-84.85-19.34,49.23,49.23,0,0,1,15.48-67.88,39.38,39.38,0,0,1,54.3,12.38,31.51,31.51,0,0,1-9.9,43.44,25.21,25.21,0,0,1-34.75-7.92,20.16,20.16,0,0,1,6.34-27.8,16.13,16.13,0,0,1,22.24,5.07A12.91,12.91,0,0,1,665,97.34a10.32,10.32,0,0,1-14.24-3.25"/><path class="cls-1" d="M610.91,147.93A76.92,76.92,0,0,1,642.43,43.82,61.54,61.54,0,0,1,725.73,69a49.23,49.23,0,0,1-20.17,66.64,39.38,39.38,0,0,1-53.31-16.14,31.51,31.51,0,0,1,12.91-42.65,25.21,25.21,0,0,1,34.12,10.33A20.16,20.16,0,0,1,691,114.51a16.13,16.13,0,0,1-21.84-6.61,12.91,12.91,0,0,1,5.29-17.47,10.32,10.32,0,0,1,14,4.23"/><path class="cls-1" d="M732,43.73A76.92,76.92,0,0,1,693.25,145.4a61.54,61.54,0,0,1-81.33-31,49.23,49.23,0,0,1,24.77-65.07,39.38,39.38,0,0,1,52.05,19.82,31.51,31.51,0,0,1-15.85,41.64,25.21,25.21,0,0,1-33.31-12.68,20.16,20.16,0,0,1,10.15-26.65A16.13,16.13,0,0,1,671,79.61a12.91,12.91,0,0,1-6.49,17.06,10.32,10.32,0,0,1-13.65-5.2"/><path class="cls-1" d="M603.94,139.24a76.92,76.92,0,0,1,45.7-98.72,61.54,61.54,0,0,1,79,36.56,49.23,49.23,0,0,1-29.25,63.18,39.38,39.38,0,0,1-50.54-23.4,31.51,31.51,0,0,1,18.72-40.43,25.21,25.21,0,0,1,32.35,15,20.16,20.16,0,0,1-12,25.88,16.13,16.13,0,0,1-20.7-9.58,12.91,12.91,0,0,1,7.67-16.56,10.32,10.32,0,0,1,13.25,6.13"/><path class="cls-1" d="M738.3,52.9a76.92,76.92,0,0,1-52.48,95.29,61.54,61.54,0,0,1-76.23-42,49.23,49.23,0,0,1,33.59-61A39.38,39.38,0,0,1,692,72.09a31.51,31.51,0,0,1-21.5,39,25.21,25.21,0,0,1-31.22-17.2,20.16,20.16,0,0,1,13.76-25,16.13,16.13,0,0,1,20,11,12.91,12.91,0,0,1-8.8,16,10.32,10.32,0,0,1-12.79-7"/><path class="cls-1" d="M598.24,129.65a76.92,76.92,0,0,1,59-91.4,61.54,61.54,0,0,1,73.12,47.2,49.23,49.23,0,0,1-37.76,58.49,39.38,39.38,0,0,1-46.79-30.21A31.51,31.51,0,0,1,670,76.31a25.21,25.21,0,0,1,29.95,19.33,20.16,20.16,0,0,1-15.47,24,16.13,16.13,0,0,1-19.17-12.37,12.91,12.91,0,0,1,9.9-15.33,10.32,10.32,0,0,1,12.27,7.92"/><path class="cls-1" d="M743.32,62.85a76.92,76.92,0,0,1-65.23,87.06,61.54,61.54,0,0,1-69.65-52.18A49.23,49.23,0,0,1,650.19,42a39.38,39.38,0,0,1,44.57,33.4A31.51,31.51,0,0,1,668,111.07a25.21,25.21,0,0,1-28.53-21.37,20.16,20.16,0,0,1,17.1-22.82,16.13,16.13,0,0,1,18.26,13.68,12.91,12.91,0,0,1-10.94,14.61,10.32,10.32,0,0,1-11.68-8.75"/><path class="cls-1" d="M593.94,119.37a76.92,76.92,0,0,1,71.14-82.3A61.54,61.54,0,0,1,730.92,94a49.23,49.23,0,0,1-45.53,52.67,39.38,39.38,0,0,1-42.14-36.43,31.51,31.51,0,0,1,29.14-33.71,25.21,25.21,0,0,1,27,23.31,20.16,20.16,0,0,1-18.65,21.57,16.13,16.13,0,0,1-17.26-14.92,12.91,12.91,0,0,1,11.94-13.81,10.32,10.32,0,0,1,11,9.55"/><path class="cls-1" d="M746.9,73.41a76.92,76.92,0,0,1-76.71,77.13,61.54,61.54,0,0,1-61.71-61.37,49.23,49.23,0,0,1,49.1-49.36,39.38,39.38,0,0,1,39.49,39.28,31.51,31.51,0,0,1-31.42,31.59,25.21,25.21,0,0,1-25.27-25.14,20.16,20.16,0,0,1,20.11-20.22,16.13,16.13,0,0,1,16.18,16.09,12.91,12.91,0,0,1-12.87,12.94,10.32,10.32,0,0,1-10.35-10.3"/><path class="cls-1" d="M591.1,108.59A76.92,76.92,0,0,1,673,37a61.54,61.54,0,0,1,57.27,65.52,49.23,49.23,0,0,1-52.42,45.82,39.38,39.38,0,0,1-36.66-41.94,31.51,31.51,0,0,1,33.55-29.32,25.21,25.21,0,0,1,23.46,26.84,20.16,20.16,0,0,1-21.47,18.77,16.13,16.13,0,0,1-15-17.18,12.91,12.91,0,0,1,13.74-12,10.32,10.32,0,0,1,9.61,11"/><path class="cls-1" d="M749,84.36a76.92,76.92,0,0,1-86.7,65.71,61.54,61.54,0,0,1-52.56-69.36,49.23,49.23,0,0,1,55.49-42.05A39.38,39.38,0,0,1,698.84,83,31.51,31.51,0,0,1,663.32,110a25.21,25.21,0,0,1-21.53-28.41,20.16,20.16,0,0,1,22.73-17.22A16.13,16.13,0,0,1,678.3,82.51a12.91,12.91,0,0,1-14.55,11,10.32,10.32,0,0,1-8.82-11.64"/><path class="cls-1" d="M589.8,97.52A76.92,76.92,0,0,1,680.87,38a61.54,61.54,0,0,1,47.6,72.86A49.23,49.23,0,0,1,670.18,149a39.38,39.38,0,0,1-30.46-46.63A31.51,31.51,0,0,1,677,78a25.21,25.21,0,0,1,19.5,29.84,20.16,20.16,0,0,1-23.87,15.6,16.13,16.13,0,0,1-12.48-19.1,12.91,12.91,0,0,1,15.28-10,10.32,10.32,0,0,1,8,12.22"/><path class="cls-1" d="M749.5,95.5a76.92,76.92,0,0,1-95,53,61.54,61.54,0,0,1-42.4-76,49.23,49.23,0,0,1,60.8-33.92A39.38,39.38,0,0,1,700,87.22a31.51,31.51,0,0,1-38.91,21.71A25.21,25.21,0,0,1,643.76,77.8a20.16,20.16,0,0,1,24.9-13.89,16.13,16.13,0,0,1,11.11,19.92,12.91,12.91,0,0,1-15.94,8.89A10.32,10.32,0,0,1,656.72,80"/><path class="cls-1" d="M554.06,112.41a90,90,0,0,0-126.79-11.09"/><path class="cls-1" d="M555.28,98.37a90,90,0,0,0-126.79,11.09"/><path class="cls-1" d="M554.05,84.34a90,90,0,0,0-122.94,32.94"/><path class="cls-1" d="M550.4,70.73A90,90,0,0,0,435,124.52"/><path class="cls-1" d="M544.44,58a90,90,0,0,0-104.26,73"/><path class="cls-1" d="M536.36,46.43a90,90,0,0,0-90,90"/><path class="cls-1" d="M526.4,36.47a90,90,0,0,0-73,104.26"/><path class="cls-1" d="M514.85,28.39a90,90,0,0,0-53.79,115.35"/><path class="cls-1" d="M502.09,22.44a90,90,0,0,0-32.94,122.94"/><path class="cls-1" d="M488.48,18.8A90,90,0,0,0,477.38,145.6"/><path class="cls-1" d="M474.44,17.58a90,90,0,0,0,11.09,126.79"/><path class="cls-1" d="M460.41,18.81a90,90,0,0,0,32.94,122.94"/><path class="cls-1" d="M446.8,22.46a90,90,0,0,0,53.79,115.35"/><path class="cls-1" d="M434,28.42a90,90,0,0,0,73,104.26"/><path class="cls-1" d="M422.5,36.5a90,90,0,0,0,90,90"/><path class="cls-1" d="M412.54,46.46a90,90,0,0,0,104.26,73"/><path class="cls-1" d="M404.46,58A90,90,0,0,0,519.82,111.8"/><path class="cls-1" d="M398.51,70.77a90,90,0,0,0,122.94,32.94"/><path class="cls-1" d="M394.87,84.38A90,90,0,0,0,521.67,95.48"/><path class="cls-1" d="M393.65,98.42A90,90,0,0,0,520.44,87.32"/><path class="cls-1" d="M394.88,112.45A90,90,0,0,0,517.82,79.51"/><path class="cls-1" d="M398.53,126.06A90,90,0,0,0,513.88,72.27"/><path class="cls-1" d="M404.49,138.82a90,90,0,0,0,104.26-73"/><path class="cls-1" d="M412.57,150.36a90,90,0,0,0,90-90"/><path class="cls-1" d="M422.53,160.32a90,90,0,0,0,73-104.26"/><path class="cls-1" d="M434.08,168.4A90,90,0,0,0,487.87,53"/><path class="cls-1" d="M446.84,174.35A90,90,0,0,0,479.79,51.4"/><path class="cls-1" d="M460.45,178A90,90,0,0,0,471.55,51.19"/><path class="cls-1" d="M474.49,179.21A90,90,0,0,0,463.39,52.42"/><path class="cls-1" d="M488.52,178A90,90,0,0,0,455.58,55"/><path class="cls-1" d="M502.13,174.33A90,90,0,0,0,448.34,59"/><path class="cls-1" d="M514.89,168.37a90,90,0,0,0-73-104.26"/><path class="cls-1" d="M526.43,160.29a90,90,0,0,0-90-90"/><path class="cls-1" d="M536.39,150.33a90,90,0,0,0-104.26-73"/><path class="cls-1" d="M544.47,138.78A90,90,0,0,0,429.11,85"/><path class="cls-1" d="M550.42,126A90,90,0,0,0,427.47,93.07"/><path class="cls-1" d="M554.06,112.41a90,90,0,0,0-126.79-11.09"/><path class="cls-1" d="M555.28,98.37a90,90,0,0,0-126.79,11.09"/><path class="cls-1" d="M554.05,84.34a90,90,0,0,0-122.94,32.94"/><path class="cls-1" d="M550.4,70.73A90,90,0,0,0,435,124.52"/><path class="cls-1" d="M544.44,58a90,90,0,0,0-104.26,73"/><path class="cls-1" d="M536.36,46.43a90,90,0,0,0-90,90"/><path class="cls-1" d="M526.4,36.47a90,90,0,0,0-73,104.26"/><path class="cls-1" d="M514.85,28.39a90,90,0,0,0-53.79,115.35"/><path class="cls-1" d="M502.09,22.44a90,90,0,0,0-32.94,122.94"/><path class="cls-1" d="M488.48,18.8A90,90,0,0,0,477.38,145.6"/><path class="cls-1" d="M474.44,17.58a90,90,0,0,0,11.09,126.79"/><path class="cls-1" d="M460.41,18.81a90,90,0,0,0,32.94,122.94"/><path class="cls-1" d="M446.8,22.46a90,90,0,0,0,53.79,115.35"/><path class="cls-1" d="M434,28.42a90,90,0,0,0,73,104.26"/><path class="cls-1" d="M422.5,36.5a90,90,0,0,0,90,90"/><line class="cls-1" x1="370.5" y1="96.51" x2="370.5" y2="98.49"/><line class="cls-1" x1="352.5" y1="96.26" x2="352.5" y2="98.74"/><line class="cls-1" x1="334.5" y1="95.95" x2="334.5" y2="99.05"/><line class="cls-1" x1="316.5" y1="95.56" x2="316.5" y2="99.44"/><line class="cls-1" x1="298.5" y1="95.08" x2="298.5" y2="99.92"/><line class="cls-1" x1="280.5" y1="94.47" x2="280.5" y2="100.53"/><line class="cls-1" x1="262.5" y1="93.72" x2="262.5" y2="101.28"/><line class="cls-1" x1="244.5" y1="92.77" x2="244.5" y2="102.23"/><line class="cls-1" x1="226.5" y1="91.59" x2="226.5" y2="103.41"/><line class="cls-1" x1="208.5" y1="90.11" x2="208.5" y2="104.89"/><line class="cls-1" x1="190.5" y1="88.27" x2="190.5" y2="106.73"/><line class="cls-1" x1="172.5" y1="85.96" x2="172.5" y2="109.04"/><line class="cls-1" x1="154.5" y1="83.07" x2="154.5" y2="111.93"/><line class="cls-1" x1="136.5" y1="79.46" x2="136.5" y2="115.54"/><line class="cls-1" x1="118.5" y1="74.96" x2="118.5" y2="120.04"/><line class="cls-1" x1="100.5" y1="69.32" x2="100.5" y2="125.68"/><line class="cls-1" x1="82.5" y1="62.27" x2="82.5" y2="132.73"/><line class="cls-1" x1="64.5" y1="53.47" x2="64.5" y2="141.53"/><line class="cls-1" x1="46.5" y1="42.46" x2="46.5" y2="152.54"/><line class="cls-1" x1="28.5" y1="28.7" x2="28.5" y2="166.3"/><line class="cls-1" x1="10.5" y1="11.5" x2="10.5" y2="183.5"/></svg>