<svg id="Layer_1" data-name="Layer 1" xmlns="http://www.w3.org/2000/svg" viewBox="0 0 3200 800"><defs><style>.cls-1{fill:none;stroke:#000;stroke-miterlimit:10;}</style></defs><title>Pattern Exp1</title><path class="cls-1" d="M124.82,179A15.81,15.81,0,0,1,119,199.87l-7.53,4.46a14.31,14.31,0,0,1-20-5.58L17.78,61.59a15.81,15.81,0,0,1,5.81-20.85l7.53-4.46a14.31,14.31,0,0,1,20,5.58Z"/><path class="cls-1" d="M99.32,187.38c-4,7.22-2.93,15.73,2.36,18.92s12.9-.11,16.9-7.33L194,62.82c4-7.22,2.93-15.73-2.36-18.92s-12.9.11-16.9,7.33Z"/><path class="cls-1" d="M275.55,187.38c4,7.22,2.93,15.73-2.36,18.92s-12.9-.11-16.9-7.33L180.87,62.82c-4-7.22-2.93-15.73,2.36-18.92s12.9.11,16.9,7.33Z"/><path class="cls-1" d="M266.25,186.38c-4,7.22-2.93,15.73,2.36,18.92s12.9-.11,16.9-7.33L360.93,61.82c4-7.22,2.93-15.73-2.36-18.92s-12.9.11-16.9,7.33Z"/><path class="cls-1" d="M443,187.88c4,7.22,2.93,15.73-2.36,18.92s-12.9-.11-16.9-7.33L348.28,63.32c-4-7.22-2.93-15.73,2.36-18.92s12.9.11,16.9,7.33Z"/><path class="cls-1" d="M433.67,186.88c-4,7.22-2.93,15.73,2.36,18.92s12.9-.11,16.9-7.33L528.35,62.32c4-7.22,2.93-15.73-2.36-18.92s-12.9.11-16.9,7.33Z"/><path class="cls-1" d="M609.9,186.88c4,7.22,2.93,15.73-2.36,18.92s-12.9-.11-16.9-7.33L515.22,62.32c-4-7.22-2.93-15.73,2.36-18.92s12.9.11,16.9,7.33Z"/><path class="cls-1" d="M600.61,185.88c-4,7.22-2.93,15.73,2.36,18.92s12.9-.11,16.9-7.33L695.29,61.32c4-7.22,2.93-15.73-2.36-18.92s-12.9.11-16.9,7.33Z"/><path class="cls-1" d="M781.16,188.38c4,7.22,2.93,15.73-2.36,18.92s-12.9-.11-16.9-7.33L686.47,63.82c-4-7.22-2.93-15.73,2.36-18.92s12.9.11,16.9,7.33Z"/><path class="cls-1" d="M771.86,187.38c-4,7.22-2.93,15.73,2.36,18.92s12.9-.11,16.9-7.33L866.54,62.82c4-7.22,2.93-15.73-2.36-18.92s-12.9.11-16.9,7.33Z"/><path class="cls-1" d="M948.09,187.38c4,7.22,2.93,15.73-2.36,18.92s-12.9-.11-16.9-7.33L853.41,62.82c-4-7.22-2.93-15.73,2.36-18.92s12.9.11,16.9,7.33Z"/><path class="cls-1" d="M938.8,186.38c-4,7.22-2.93,15.73,2.36,18.92s12.9-.11,16.9-7.33l75.42-136.15c4-7.22,2.93-15.73-2.36-18.92s-12.9.11-16.9,7.33Z"/><path class="cls-1" d="M1115.51,187.88c4,7.22,2.93,15.73-2.36,18.92s-12.9-.11-16.9-7.33L1020.83,63.32c-4-7.22-2.93-15.73,2.36-18.92s12.9.11,16.9,7.33Z"/><path class="cls-1" d="M1106.21,186.88c-4,7.22-2.93,15.73,2.36,18.92s12.9-.11,16.9-7.33L1200.9,62.32c4-7.22,2.93-15.73-2.36-18.92s-12.9.11-16.9,7.33Z"/><path class="cls-1" d="M1282.45,186.88c4,7.22,2.93,15.73-2.36,18.92s-12.9-.11-16.9-7.33L1187.76,62.32c-4-7.22-2.93-15.73,2.36-18.92s12.9.11,16.9,7.33Z"/><path class="cls-1" d="M1273.15,185.88c-4,7.22-2.93,15.73,2.36,18.92s12.9-.11,16.9-7.33l75.42-136.15c4-7.22,2.93-15.73-2.36-18.92s-12.9.11-16.9,7.33Z"/><path class="cls-1" d="M1452.74,188.38c4,7.22,2.93,15.73-2.36,18.92s-12.9-.11-16.9-7.33L1358.06,63.82c-4-7.22-2.93-15.73,2.36-18.92s12.9.11,16.9,7.33Z"/><path class="cls-1" d="M1443.45,187.38c-4,7.22-2.93,15.73,2.36,18.92s12.9-.11,16.9-7.33l75.42-136.15c4-7.22,2.93-15.73-2.36-18.92s-12.9.11-16.9,7.33Z"/><path class="cls-1" d="M1619.68,187.38c4,7.22,2.93,15.73-2.36,18.92s-12.9-.11-16.9-7.33L1525,62.82c-4-7.22-2.93-15.73,2.36-18.92s12.9.11,16.9,7.33Z"/><path class="cls-1" d="M1610.38,186.38c-4,7.22-2.93,15.73,2.36,18.92s12.9-.11,16.9-7.33l75.42-136.15c4-7.22,2.93-15.73-2.36-18.92s-12.9.11-16.9,7.33Z"/><path class="cls-1" d="M1787.09,187.88c4,7.22,2.93,15.73-2.36,18.92s-12.9-.11-16.9-7.33L1692.41,63.32c-4-7.22-2.93-15.73,2.36-18.92s12.9.11,16.9,7.33Z"/><path class="cls-1" d="M1777.8,186.88c-4,7.22-2.93,15.73,2.36,18.92s12.9-.11,16.9-7.33l75.42-136.15c4-7.22,2.93-15.73-2.36-18.92s-12.9.11-16.9,7.33Z"/><path class="cls-1" d="M1954,186.88c4,7.22,2.93,15.73-2.36,18.92s-12.9-.11-16.9-7.33L1859.35,62.32c-4-7.22-2.93-15.73,2.36-18.92s12.9.11,16.9,7.33Z"/><path class="cls-1" d="M1944.74,185.88c-4,7.22-2.93,15.73,2.36,18.92s12.9-.11,16.9-7.33l75.42-136.15c4-7.22,2.93-15.73-2.36-18.92s-12.9.11-16.9,7.33Z"/><path class="cls-1" d="M2125.28,188.38c4,7.22,2.93,15.73-2.36,18.92s-12.9-.11-16.9-7.33L2030.6,63.82c-4-7.22-2.93-15.73,2.36-18.92s12.9.11,16.9,7.33Z"/><path class="cls-1" d="M2116,187.38c-4,7.22-2.93,15.73,2.36,18.92s12.9-.11,16.9-7.33l75.42-136.15c4-7.22,2.93-15.73-2.36-18.92s-12.9.11-16.9,7.33Z"/><path class="cls-1" d="M2292.22,187.38c4,7.22,2.93,15.73-2.36,18.92s-12.9-.11-16.9-7.33L2197.54,62.82c-4-7.22-2.93-15.73,2.36-18.92s12.9.11,16.9,7.33Z"/><path class="cls-1" d="M2282.93,186.38c-4,7.22-2.93,15.73,2.36,18.92s12.9-.11,16.9-7.33l75.42-136.15c4-7.22,2.93-15.73-2.36-18.92s-12.9.11-16.9,7.33Z"/><path class="cls-1" d="M2459.64,187.88c4,7.22,2.93,15.73-2.36,18.92s-12.9-.11-16.9-7.33L2365,63.32c-4-7.22-2.93-15.73,2.36-18.92s12.9.11,16.9,7.33Z"/><path class="cls-1" d="M2450.34,186.88c-4,7.22-2.93,15.73,2.36,18.92s12.9-.11,16.9-7.33L2545,62.32c4-7.22,2.93-15.73-2.36-18.92s-12.9.11-16.9,7.33Z"/><path class="cls-1" d="M2626.57,186.88c4,7.22,2.93,15.73-2.36,18.92s-12.9-.11-16.9-7.33L2531.89,62.32c-4-7.22-2.93-15.73,2.36-18.92s12.9.11,16.9,7.33Z"/><path class="cls-1" d="M2617.28,185.88c-4,7.22-2.93,15.73,2.36,18.92s12.9-.11,16.9-7.33L2712,61.32c4-7.22,2.93-15.73-2.36-18.92s-12.9.11-16.9,7.33Z"/><path class="cls-1" d="M2794,188.38c4,7.22,2.93,15.73-2.36,18.92s-12.9-.11-16.9-7.33L2699.31,63.82c-4-7.22-2.93-15.73,2.36-18.92s12.9.11,16.9,7.33Z"/><path class="cls-1" d="M2784.7,187.38c-4,7.22-2.93,15.73,2.36,18.92s12.9-.11,16.9-7.33l75.42-136.15c4-7.22,2.93-15.73-2.36-18.92s-12.9.11-16.9,7.33Z"/><path class="cls-1" d="M2960.93,187.38c4,7.22,2.93,15.73-2.36,18.92s-12.9-.11-16.9-7.33L2866.25,62.82c-4-7.22-2.93-15.73,2.36-18.92s12.9.11,16.9,7.33Z"/><path class="cls-1" d="M2951.63,186.38c-4,7.22-2.93,15.73,2.36,18.92s12.9-.11,16.9-7.33l75.42-136.15c4-7.22,2.93-15.73-2.36-18.92s-12.9.11-16.9,7.33Z"/><path class="cls-1" d="M3128.34,187.88c4,7.22,2.93,15.73-2.36,18.92s-12.9-.11-16.9-7.33L3033.66,63.32c-4-7.22-2.93-15.73,2.36-18.92s12.9.11,16.9,7.33Z"/><path class="cls-1" d="M3119.05,186.88c-4,7.22-2.93,15.73,2.36,18.92s12.9-.11,16.9-7.33l75.42-136.15c4-7.22,2.93-15.73-2.36-18.92s-12.9.11-16.9,7.33Z"/><path class="cls-1" d="M108.61,432.38c4,7.22,2.93,15.73-2.36,18.92s-12.9-.11-16.9-7.33L13.93,307.82c-4-7.22-2.93-15.73,2.36-18.92s12.9.11,16.9,7.33Z"/><path class="cls-1" d="M99.32,431.38c-4,7.22-2.93,15.73,2.36,18.92s12.9-.11,16.9-7.33L194,306.82c4-7.22,2.93-15.73-2.36-18.92s-12.9.11-16.9,7.33Z"/><path class="cls-1" d="M275.55,431.38c4,7.22,2.93,15.73-2.36,18.92s-12.9-.11-16.9-7.33L180.87,306.82c-4-7.22-2.93-15.73,2.36-18.92s12.9.11,16.9,7.33Z"/><path class="cls-1" d="M266.25,430.38c-4,7.22-2.93,15.73,2.36,18.92s12.9-.11,16.9-7.33l75.42-136.15c4-7.22,2.93-15.73-2.36-18.92s-12.9.11-16.9,7.33Z"/><path class="cls-1" d="M443,431.88c4,7.22,2.93,15.73-2.36,18.92s-12.9-.11-16.9-7.33L348.28,307.32c-4-7.22-2.93-15.73,2.36-18.92s12.9.11,16.9,7.33Z"/><path class="cls-1" d="M433.67,430.88c-4,7.22-2.93,15.73,2.36,18.92s12.9-.11,16.9-7.33l75.42-136.15c4-7.22,2.93-15.73-2.36-18.92s-12.9.11-16.9,7.33Z"/><path class="cls-1" d="M609.9,430.88c4,7.22,2.93,15.73-2.36,18.92s-12.9-.11-16.9-7.33L515.22,306.32c-4-7.22-2.93-15.73,2.36-18.92s12.9.11,16.9,7.33Z"/><path class="cls-1" d="M600.61,429.88c-4,7.22-2.93,15.73,2.36,18.92s12.9-.11,16.9-7.33l75.42-136.15c4-7.22,2.93-15.73-2.36-18.92s-12.9.11-16.9,7.33Z"/><path class="cls-1" d="M781.16,432.38c4,7.22,2.93,15.73-2.36,18.92s-12.9-.11-16.9-7.33L686.47,307.82c-4-7.22-2.93-15.73,2.36-18.92s12.9.11,16.9,7.33Z"/><path class="cls-1" d="M771.86,431.38c-4,7.22-2.93,15.73,2.36,18.92s12.9-.11,16.9-7.33l75.42-136.15c4-7.22,2.93-15.73-2.36-18.92s-12.9.11-16.9,7.33Z"/><path class="cls-1" d="M948.09,431.38c4,7.22,2.93,15.73-2.36,18.92s-12.9-.11-16.9-7.33L853.41,306.82c-4-7.22-2.93-15.73,2.36-18.92s12.9.11,16.9,7.33Z"/><path class="cls-1" d="M938.8,430.38c-4,7.22-2.93,15.73,2.36,18.92s12.9-.11,16.9-7.33l75.42-136.15c4-7.22,2.93-15.73-2.36-18.92s-12.9.11-16.9,7.33Z"/><path class="cls-1" d="M1115.51,431.88c4,7.22,2.93,15.73-2.36,18.92s-12.9-.11-16.9-7.33l-75.42-136.15c-4-7.22-2.93-15.73,2.36-18.92s12.9.11,16.9,7.33Z"/><path class="cls-1" d="M1106.21,430.88c-4,7.22-2.93,15.73,2.36,18.92s12.9-.11,16.9-7.33l75.42-136.15c4-7.22,2.93-15.73-2.36-18.92s-12.9.11-16.9,7.33Z"/><path class="cls-1" d="M1282.45,430.88c4,7.22,2.93,15.73-2.36,18.92s-12.9-.11-16.9-7.33l-75.42-136.15c-4-7.22-2.93-15.73,2.36-18.92s12.9.11,16.9,7.33Z"/><path class="cls-1" d="M1273.15,429.88c-4,7.22-2.93,15.73,2.36,18.92s12.9-.11,16.9-7.33l75.42-136.15c4-7.22,2.93-15.73-2.36-18.92s-12.9.11-16.9,7.33Z"/><path class="cls-1" d="M1452.74,432.38c4,7.22,2.93,15.73-2.36,18.92s-12.9-.11-16.9-7.33l-75.42-136.15c-4-7.22-2.93-15.73,2.36-18.92s12.9.11,16.9,7.33Z"/><path class="cls-1" d="M1443.45,431.38c-4,7.22-2.93,15.73,2.36,18.92s12.9-.11,16.9-7.33l75.42-136.15c4-7.22,2.93-15.73-2.36-18.92s-12.9.11-16.9,7.33Z"/><path class="cls-1" d="M1619.68,431.38c4,7.22,2.93,15.73-2.36,18.92s-12.9-.11-16.9-7.33L1525,306.82c-4-7.22-2.93-15.73,2.36-18.92s12.9.11,16.9,7.33Z"/><path class="cls-1" d="M1610.38,430.38c-4,7.22-2.93,15.73,2.36,18.92s12.9-.11,16.9-7.33l75.42-136.15c4-7.22,2.93-15.73-2.36-18.92s-12.9.11-16.9,7.33Z"/><path class="cls-1" d="M1787.09,431.88c4,7.22,2.93,15.73-2.36,18.92s-12.9-.11-16.9-7.33l-75.42-136.15c-4-7.22-2.93-15.73,2.36-18.92s12.9.11,16.9,7.33Z"/><path class="cls-1" d="M1777.8,430.88c-4,7.22-2.93,15.73,2.36,18.92s12.9-.11,16.9-7.33l75.42-136.15c4-7.22,2.93-15.73-2.36-18.92s-12.9.11-16.9,7.33Z"/><path class="cls-1" d="M1954,430.88c4,7.22,2.93,15.73-2.36,18.92s-12.9-.11-16.9-7.33l-75.42-136.15c-4-7.22-2.93-15.73,2.36-18.92s12.9.11,16.9,7.33Z"/><path class="cls-1" d="M1944.74,429.88c-4,7.22-2.93,15.73,2.36,18.92s12.9-.11,16.9-7.33l75.42-136.15c4-7.22,2.93-15.73-2.36-18.92s-12.9.11-16.9,7.33Z"/><path class="cls-1" d="M2125.28,432.38c4,7.22,2.93,15.73-2.36,18.92s-12.9-.11-16.9-7.33L2030.6,307.82c-4-7.22-2.93-15.73,2.36-18.92s12.9.11,16.9,7.33Z"/><path class="cls-1" d="M2116,431.38c-4,7.22-2.93,15.73,2.36,18.92s12.9-.11,16.9-7.33l75.42-136.15c4-7.22,2.93-15.73-2.36-18.92s-12.9.11-16.9,7.33Z"/><path class="cls-1" d="M2292.22,431.38c4,7.22,2.93,15.73-2.36,18.92s-12.9-.11-16.9-7.33l-75.42-136.15c-4-7.22-2.93-15.73,2.36-18.92s12.9.11,16.9,7.33Z"/><path class="cls-1" d="M2282.93,430.38c-4,7.22-2.93,15.73,2.36,18.92s12.9-.11,16.9-7.33l75.42-136.15c4-7.22,2.93-15.73-2.36-18.92s-12.9.11-16.9,7.33Z"/><path class="cls-1" d="M2459.64,431.88c4,7.22,2.93,15.73-2.36,18.92s-12.9-.11-16.9-7.33L2365,307.32c-4-7.22-2.93-15.73,2.36-18.92s12.9.11,16.9,7.33Z"/><path class="cls-1" d="M2450.34,430.88c-4,7.22-2.93,15.73,2.36,18.92s12.9-.11,16.9-7.33L2545,306.32c4-7.22,2.93-15.73-2.36-18.92s-12.9.11-16.9,7.33Z"/><path class="cls-1" d="M2626.57,430.88c4,7.22,2.93,15.73-2.36,18.92s-12.9-.11-16.9-7.33l-75.42-136.15c-4-7.22-2.93-15.73,2.36-18.92s12.9.11,16.9,7.33Z"/><path class="cls-1" d="M2617.28,429.88c-4,7.22-2.93,15.73,2.36,18.92s12.9-.11,16.9-7.33L2712,305.32c4-7.22,2.93-15.73-2.36-18.92s-12.9.11-16.9,7.33Z"/><path class="cls-1" d="M2794,432.38c4,7.22,2.93,15.73-2.36,18.92s-12.9-.11-16.9-7.33l-75.42-136.15c-4-7.22-2.93-15.73,2.36-18.92s12.9.11,16.9,7.33Z"/><path class="cls-1" d="M2784.7,431.38c-4,7.22-2.93,15.73,2.36,18.92s12.9-.11,16.9-7.33l75.42-136.15c4-7.22,2.93-15.73-2.36-18.92s-12.9.11-16.9,7.33Z"/><path class="cls-1" d="M2960.93,431.38c4,7.22,2.93,15.73-2.36,18.92s-12.9-.11-16.9-7.33l-75.42-136.15c-4-7.22-2.93-15.73,2.36-18.92s12.9.11,16.9,7.33Z"/><path class="cls-1" d="M2951.63,430.38c-4,7.22-2.93,15.73,2.36,18.92s12.9-.11,16.9-7.33l75.42-136.15c4-7.22,2.93-15.73-2.36-18.92s-12.9.11-16.9,7.33Z"/><path class="cls-1" d="M3128.34,431.88c4,7.22,2.93,15.73-2.36,18.92s-12.9-.11-16.9-7.33l-75.42-136.15c-4-7.22-2.93-15.73,2.36-18.92s12.9.11,16.9,7.33Z"/><path class="cls-1" d="M3119.05,430.88c-4,7.22-2.93,15.73,2.36,18.92s12.9-.11,16.9-7.33l75.42-136.15c4-7.22,2.93-15.73-2.36-18.92s-12.9.11-16.9,7.33Z"/><path class="cls-1" d="M108.61,671.38c4,7.22,2.93,15.73-2.36,18.92s-12.9-.11-16.9-7.33L13.93,546.82c-4-7.22-2.93-15.73,2.36-18.92s12.9.11,16.9,7.33Z"/><path class="cls-1" d="M99.32,670.38c-4,7.22-2.93,15.73,2.36,18.92s12.9-.11,16.9-7.33L194,545.82c4-7.22,2.93-15.73-2.36-18.92s-12.9.11-16.9,7.33Z"/><path class="cls-1" d="M275.55,670.38c4,7.22,2.93,15.73-2.36,18.92s-12.9-.11-16.9-7.33L180.87,545.82c-4-7.22-2.93-15.73,2.36-18.92s12.9.11,16.9,7.33Z"/><path class="cls-1" d="M266.25,669.38c-4,7.22-2.93,15.73,2.36,18.92s12.9-.11,16.9-7.33l75.42-136.15c4-7.22,2.93-15.73-2.36-18.92s-12.9.11-16.9,7.33Z"/><path class="cls-1" d="M443,670.88c4,7.22,2.93,15.73-2.36,18.92s-12.9-.11-16.9-7.33L348.28,546.32c-4-7.22-2.93-15.73,2.36-18.92s12.9.11,16.9,7.33Z"/><path class="cls-1" d="M433.67,669.88c-4,7.22-2.93,15.73,2.36,18.92s12.9-.11,16.9-7.33l75.42-136.15c4-7.22,2.93-15.73-2.36-18.92s-12.9.11-16.9,7.33Z"/><path class="cls-1" d="M609.9,669.88c4,7.22,2.93,15.73-2.36,18.92s-12.9-.11-16.9-7.33L515.22,545.32c-4-7.22-2.93-15.73,2.36-18.92s12.9.11,16.9,7.33Z"/><path class="cls-1" d="M600.61,668.88c-4,7.22-2.93,15.73,2.36,18.92s12.9-.11,16.9-7.33l75.42-136.15c4-7.22,2.93-15.73-2.36-18.92s-12.9.11-16.9,7.33Z"/><path class="cls-1" d="M781.16,671.38c4,7.22,2.93,15.73-2.36,18.92s-12.9-.11-16.9-7.33L686.47,546.82c-4-7.22-2.93-15.73,2.36-18.92s12.9.11,16.9,7.33Z"/><path class="cls-1" d="M771.86,670.38c-4,7.22-2.93,15.73,2.36,18.92s12.9-.11,16.9-7.33l75.42-136.15c4-7.22,2.93-15.73-2.36-18.92s-12.9.11-16.9,7.33Z"/><path class="cls-1" d="M948.09,670.38c4,7.22,2.93,15.73-2.36,18.92s-12.9-.11-16.9-7.33L853.41,545.82c-4-7.22-2.93-15.73,2.36-18.92s12.9.11,16.9,7.33Z"/><path class="cls-1" d="M938.8,669.38c-4,7.22-2.93,15.73,2.36,18.92s12.9-.11,16.9-7.33l75.42-136.15c4-7.22,2.93-15.73-2.36-18.92s-12.9.11-16.9,7.33Z"/><path class="cls-1" d="M1115.51,670.88c4,7.22,2.93,15.73-2.36,18.92s-12.9-.11-16.9-7.33l-75.42-136.15c-4-7.22-2.93-15.73,2.36-18.92s12.9.11,16.9,7.33Z"/><path class="cls-1" d="M1106.21,669.88c-4,7.22-2.93,15.73,2.36,18.92s12.9-.11,16.9-7.33l75.42-136.15c4-7.22,2.93-15.73-2.36-18.92s-12.9.11-16.9,7.33Z"/><path class="cls-1" d="M1282.45,669.88c4,7.22,2.93,15.73-2.36,18.92s-12.9-.11-16.9-7.33l-75.42-136.15c-4-7.22-2.93-15.73,2.36-18.92s12.9.11,16.9,7.33Z"/><path class="cls-1" d="M1273.15,668.88c-4,7.22-2.93,15.73,2.36,18.92s12.9-.11,16.9-7.33l75.42-136.15c4-7.22,2.93-15.73-2.36-18.92s-12.9.11-16.9,7.33Z"/><path class="cls-1" d="M1452.74,671.38c4,7.22,2.93,15.73-2.36,18.92s-12.9-.11-16.9-7.33l-75.42-136.15c-4-7.22-2.93-15.73,2.36-18.92s12.9.11,16.9,7.33Z"/><path class="cls-1" d="M1443.45,670.38c-4,7.22-2.93,15.73,2.36,18.92s12.9-.11,16.9-7.33l75.42-136.15c4-7.22,2.93-15.73-2.36-18.92s-12.9.11-16.9,7.33Z"/><path class="cls-1" d="M1619.68,670.38c4,7.22,2.93,15.73-2.36,18.92s-12.9-.11-16.9-7.33L1525,545.82c-4-7.22-2.93-15.73,2.36-18.92s12.9.11,16.9,7.33Z"/><path class="cls-1" d="M1610.38,669.38c-4,7.22-2.93,15.73,2.36,18.92s12.9-.11,16.9-7.33l75.42-136.15c4-7.22,2.93-15.73-2.36-18.92s-12.9.11-16.9,7.33Z"/><path class="cls-1" d="M1787.09,670.88c4,7.22,2.93,15.73-2.36,18.92s-12.9-.11-16.9-7.33l-75.42-136.15c-4-7.22-2.93-15.73,2.36-18.92s12.9.11,16.9,7.33Z"/><path class="cls-1" d="M1777.8,669.88c-4,7.22-2.93,15.73,2.36,18.92s12.9-.11,16.9-7.33l75.42-136.15c4-7.22,2.93-15.73-2.36-18.92s-12.9.11-16.9,7.33Z"/><path class="cls-1" d="M1954,669.88c4,7.22,2.93,15.73-2.36,18.92s-12.9-.11-16.9-7.33l-75.42-136.15c-4-7.22-2.93-15.73,2.36-18.92s12.9.11,16.9,7.33Z"/><path class="cls-1" d="M1944.74,668.88c-4,7.22-2.93,15.73,2.36,18.92s12.9-.11,16.9-7.33l75.42-136.15c4-7.22,2.93-15.73-2.36-18.92s-12.9.11-16.9,7.33Z"/><path class="cls-1" d="M2125.28,671.38c4,7.22,2.93,15.73-2.36,18.92s-12.9-.11-16.9-7.33L2030.6,546.82c-4-7.22-2.93-15.73,2.36-18.92s12.9.11,16.9,7.33Z"/><path class="cls-1" d="M2116,670.38c-4,7.22-2.93,15.73,2.36,18.92s12.9-.11,16.9-7.33l75.42-136.15c4-7.22,2.93-15.73-2.36-18.92s-12.9.11-16.9,7.33Z"/><path class="cls-1" d="M2292.22,670.38c4,7.22,2.93,15.73-2.36,18.92s-12.9-.11-16.9-7.33l-75.42-136.15c-4-7.22-2.93-15.73,2.36-18.92s12.9.11,16.9,7.33Z"/><path class="cls-1" d="M2282.93,669.38c-4,7.22-2.93,15.73,2.36,18.92s12.9-.11,16.9-7.33l75.42-136.15c4-7.22,2.93-15.73-2.36-18.92s-12.9.11-16.9,7.33Z"/><path class="cls-1" d="M2459.64,670.88c4,7.22,2.93,15.73-2.36,18.92s-12.9-.11-16.9-7.33L2365,546.32c-4-7.22-2.93-15.73,2.36-18.92s12.9.11,16.9,7.33Z"/><path class="cls-1" d="M2450.34,669.88c-4,7.22-2.93,15.73,2.36,18.92s12.9-.11,16.9-7.33L2545,545.32c4-7.22,2.93-15.73-2.36-18.92s-12.9.11-16.9,7.33Z"/><path class="cls-1" d="M2626.57,669.88c4,7.22,2.93,15.73-2.36,18.92s-12.9-.11-16.9-7.33l-75.42-136.15c-4-7.22-2.93-15.73,2.36-18.92s12.9.11,16.9,7.33Z"/><path class="cls-1" d="M2617.28,668.88c-4,7.22-2.93,15.73,2.36,18.92s12.9-.11,16.9-7.33L2712,544.32c4-7.22,2.93-15.73-2.36-18.92s-12.9.11-16.9,7.33Z"/><path class="cls-1" d="M2794,671.38c4,7.22,2.93,15.73-2.36,18.92s-12.9-.11-16.9-7.33l-75.42-136.15c-4-7.22-2.93-15.73,2.36-18.92s12.9.11,16.9,7.33Z"/><path class="cls-1" d="M2784.7,670.38c-4,7.22-2.93,15.73,2.36,18.92s12.9-.11,16.9-7.33l75.42-136.15c4-7.22,2.93-15.73-2.36-18.92s-12.9.11-16.9,7.33Z"/><path class="cls-1" d="M2960.93,670.38c4,7.22,2.93,15.73-2.36,18.92s-12.9-.11-16.9-7.33l-75.42-136.15c-4-7.22-2.93-15.73,2.36-18.92s12.9.11,16.9,7.33Z"/><path class="cls-1" d="M2951.63,669.38c-4,7.22-2.93,15.73,2.36,18.92s12.9-.11,16.9-7.33l75.42-136.15c4-7.22,2.93-15.73-2.36-18.92s-12.9.11-16.9,7.33Z"/><path class="cls-1" d="M3128.34,670.88c4,7.22,2.93,15.73-2.36,18.92s-12.9-.11-16.9-7.33l-75.42-136.15c-4-7.22-2.93-15.73,2.36-18.92s12.9.11,16.9,7.33Z"/><path class="cls-1" d="M3119.05,669.88c-4,7.22-2.93,15.73,2.36,18.92s12.9-.11,16.9-7.33l75.42-136.15c4-7.22,2.93-15.73-2.36-18.92s-12.9.11-16.9,7.33Z"/></svg>