<svg id="Layer_1" data-name="Layer 1" xmlns="http://www.w3.org/2000/svg" viewBox="0 0 3200 800"><defs><style>.cls-1{fill:none;stroke:#000;stroke-miterlimit:10;}</style></defs><title>Pattern Exp1</title><path class="cls-1" d="M3151.72,728.17,3238.4,495.7h2L3329,728.17H3151.72Zm-80.78,0h179.28L3161.57,495.7h-2l-86.69,232.48Zm-78.81,0h179.28L3082.76,495.7h-2L2994.1,728.17Zm-78.81,0h179.28L3004,495.7h-2L2915.3,728.17Zm-78.81,0h179.28L2925.15,495.7h-2l-86.69,232.48Zm-78.81,0H2935L2846.34,495.7h-2l-86.69,232.48Zm-78.81,0h179.28L2767.54,495.7h-2l-86.69,232.48Zm-78.81,0h179.28L2688.73,495.7h-2l-86.69,232.48Zm-78.81,0h179.28L2609.92,495.7h-2l-86.69,232.48Zm-78.81,0h179.28L2531.12,495.7h-2l-86.69,232.48Zm-78.81,0H2541L2452.31,495.7h-2l-86.69,232.48Zm-78.81,0h179.28L2373.51,495.7h-2l-86.69,232.48Zm-78.81,0h179.28L2294.7,495.7h-2L2206,728.17Zm-78.81,0h179.28L2215.89,495.7h-2l-86.69,232.48Zm-78.81,0h179.28L2137.09,495.7h-2l-86.69,232.48Zm-78.81,0h179.28L2058.28,495.7h-2l-86.69,232.48Zm-78.81,0h179.28L1979.47,495.7h-2l-86.69,232.48Zm-78.81,0h179.28L1900.67,495.7h-2L1812,728.17Zm-78.81,0h179.28L1821.86,495.7h-2l-86.69,232.48Zm-78.81,0h179.28L1743.06,495.7h-2L1654.4,728.17Zm-78.81,0h179.28L1664.25,495.7h-2l-86.69,232.48Zm-78.81,0H1674.1L1585.44,495.7h-2l-86.69,232.48Zm-78.81,0h179.28L1506.64,495.7h-2L1418,728.17Zm-78.81,0h179.28L1427.83,495.7h-2l-86.69,232.48Zm-78.81,0h179.28L1349,495.7h-2l-86.69,232.48Zm-78.81,0h179.28L1270.22,495.7h-2l-86.69,232.48Zm-78.81,0h179.28L1191.41,495.7h-2l-86.69,232.48Zm-78.81,0h179.28L1112.61,495.7h-2L1024,728.17Zm-78.81,0h179.28L1033.8,495.7h-2L945.14,728.17Zm-78.81,0h179.28L955,495.7h-2L866.34,728.17Zm-78.81,0H964.85L876.19,495.7h-2L787.53,728.17Zm-78.81,0H886L797.38,495.7h-2L708.73,728.17Zm-78.81,0H807.23L718.58,495.7h-2L629.92,728.17Zm-78.81,0H728.43L639.77,495.7h-2L551.11,728.17Zm-78.81,0H649.62L561,495.7h-2L472.31,728.17Zm-78.81,0H570.81L482.16,495.7h-2L393.5,728.17Zm-78.81,0H492L403.35,495.7h-2L314.69,728.17Zm-78.81,0H413.2L324.55,495.7h-2L235.89,728.17Zm-78.81,0H334.4L245.74,495.7h-2L157.08,728.17Zm-78.81,0H255.59L166.93,495.7h-2L78.28,728.17Zm-78.81,0H176.78L88.13,495.7h-2L-.53,728.17ZM3151.72,46.5,3238.4,279h2L3329,46.5H3151.72Zm-78.81,0L3159.6,279h2L3250.22,46.5H3072.91Zm-78.81,0L3080.79,279h2L3171.42,46.5H2994.1Zm-78.81,0L3002,279h2L3092.61,46.5H2915.3Zm-78.81,0L2923.18,279h2L3013.81,46.5H2836.49Zm-78.81,0L2844.37,279h2L2935,46.5H2757.69Zm-78.81,0L2765.57,279h2L2856.19,46.5H2678.88Zm-78.81,0L2686.76,279h2L2777.39,46.5H2600.07Zm-78.81,0L2608,279h2L2698.58,46.5H2521.27Zm-78.81,0L2529.15,279h2L2619.77,46.5H2442.46Zm-78.81,0L2450.34,279h2L2541,46.5H2363.65Zm-78.81,0L2371.54,279h2L2462.16,46.5H2284.85Zm-78.81,0L2292.73,279h2L2383.36,46.5H2206Zm-78.81,0L2213.92,279h2L2304.55,46.5H2127.24Zm-78.81,0L2135.12,279h2L2225.74,46.5H2048.43Zm-78.81,0L2056.31,279h2L2146.94,46.5H1969.62Zm-78.81,0L1977.5,279h2L2068.13,46.5H1890.82Zm-78.81,0L1898.7,279h2L1989.33,46.5H1812Zm-78.81,0L1819.89,279h2L1910.52,46.5H1733.21Zm-78.81,0L1741.09,279h2L1831.71,46.5H1654.4Zm-78.81,0L1662.28,279h2L1752.91,46.5H1575.59Zm-78.81,0L1583.47,279h2L1674.1,46.5H1496.79Zm-78.81,0L1504.67,279h2L1595.29,46.5H1418Zm-78.81,0L1425.86,279h2L1516.49,46.5H1339.17Zm-78.81,0L1347.06,279h2L1437.68,46.5H1260.37Zm-78.81,0L1268.25,279h2L1358.88,46.5H1181.56Zm-78.81,0L1189.44,279h2L1280.07,46.5H1102.76Zm-78.81,0L1110.64,279h2L1201.26,46.5H1024Zm-78.81,0L1031.83,279h2L1122.46,46.5H945.14Zm-78.81,0L953,279h2L1043.65,46.5H866.34Zm-78.81,0L874.22,279h2L964.85,46.5H787.53Zm-78.81,0L795.41,279h2L886,46.5H708.73Zm-78.81,0L716.61,279h2L807.23,46.5H629.92Zm-78.81,0L637.8,279h2L728.43,46.5H551.11Zm-78.81,0L559,279h2L649.62,46.5H472.31Zm-78.81,0L480.19,279h2L570.81,46.5H393.5Zm-78.81,0L401.38,279h2L492,46.5H314.69Zm-78.81,0L322.58,279h2L413.2,46.5H235.89Zm-78.81,0L243.77,279h2L334.4,46.5H157.08Zm-78.81,0L165,279h2L255.59,46.5H78.28Zm-78.81,0L86.16,279h2L176.78,46.5H-.53Z"/></svg>