<?xml version="1.0" encoding="utf-8"?>
<!-- Generator: Adobe Illustrator 22.0.1, SVG Export Plug-In . SVG Version: 6.00 Build 0)  -->
<svg version="1.0" id="Calque_1" xmlns="http://www.w3.org/2000/svg" xmlns:xlink="http://www.w3.org/1999/xlink" x="0px" y="0px"
	 viewBox="0 0 760 340" style="enable-background:new 0 0 760 340;" xml:space="preserve">
<style type="text/css">
	.st0{stroke:#000000;stroke-miterlimit:10;}
</style>
<g>
	<g>
		<path class="st0" d="M740,0l20,20"/>
	</g>
	<path class="st0" d="M720,0l40,40"/>
	<path class="st0" d="M700,0l60,60"/>
	<path class="st0" d="M680,0l80,80"/>
	<path class="st0" d="M660,0l40,40"/>
	<path class="st0" d="M720,60l40,40"/>
	<path class="st0" d="M640,0l20,20"/>
	<path class="st0" d="M720,80l40,40"/>
	<path class="st0" d="M620,0l20,20"/>
	<path class="st0" d="M720,100l40,40"/>
	<path class="st0" d="M600,0l20,20"/>
	<path class="st0" d="M660,60l20,20"/>
	<path class="st0" d="M720,120l40,40"/>
	<path class="st0" d="M580,0l20,20"/>
	<path class="st0" d="M640,60l40,40"/>
	<path class="st0" d="M720,140l40,40"/>
	<path class="st0" d="M560,0l40,40"/>
	<path class="st0" d="M620,60l60,60"/>
	<path class="st0" d="M700,140l60,60"/>
	<path class="st0" d="M540,0l40,40"/>
	<path class="st0" d="M600,60l80,80"/>
	<path class="st0" d="M700,160l60,60"/>
	<path class="st0" d="M520,0l60,60"/>
	<path class="st0" d="M600,80l60,60"/>
	<path class="st0" d="M720,200l40,40"/>
	<path class="st0" d="M500,0l60,60"/>
	<path class="st0" d="M600,100l40,40"/>
	<path class="st0" d="M720,220l40,40"/>
	<path class="st0" d="M480,0l80,80"/>
	<path class="st0" d="M660,180l20,20"/>
	<path class="st0" d="M720,240l40,40"/>
	<path class="st0" d="M460,0l20,20"/>
	<path class="st0" d="M500,40l60,60"/>
	<path class="st0" d="M640,180l40,40"/>
	<path class="st0" d="M720,260l40,40"/>
	<path class="st0" d="M440,0l40,40"/>
	<path class="st0" d="M500,60l100,100"/>
	<path class="st0" d="M620,180l60,60"/>
	<path class="st0" d="M720,280l40,40"/>
	<path class="st0" d="M420,0l40,40"/>
	<path class="st0" d="M500,80l80,80"/>
	<path class="st0" d="M600,180l80,80"/>
	<path class="st0" d="M700,280l60,60"/>
	<path class="st0" d="M400,0l40,40"/>
	<path class="st0" d="M500,100l80,80"/>
	<path class="st0" d="M600,200l60,60"/>
	<path class="st0" d="M700,300l40,40"/>
	<path class="st0" d="M380,0l60,60"/>
	<path class="st0" d="M500,120l60,60"/>
	<path class="st0" d="M600,220l60,60"/>
	<path class="st0" d="M680,300l40,40"/>
	<path class="st0" d="M360,0l60,60"/>
	<path class="st0" d="M440,80l20,20"/>
	<path class="st0" d="M500,140l60,60"/>
	<path class="st0" d="M600,240l40,40"/>
	<path class="st0" d="M660,300l40,40"/>
	<path class="st0" d="M340,0l120,120"/>
	<path class="st0" d="M500,160l60,60"/>
	<path class="st0" d="M640,300l40,40"/>
	<path class="st0" d="M320,0l140,140"/>
	<path class="st0" d="M500,180l60,60"/>
	<path class="st0" d="M620,300l40,40"/>
	<path class="st0" d="M300,0l20,20"/>
	<path class="st0" d="M380,80l80,80"/>
	<path class="st0" d="M500,200l140,140"/>
	<path class="st0" d="M280,0l20,20"/>
	<path class="st0" d="M380,100l80,80"/>
	<path class="st0" d="M500,220l120,120"/>
	<path class="st0" d="M260,0l20,20"/>
	<path class="st0" d="M320,60l20,20"/>
	<path class="st0" d="M380,120l80,80"/>
	<path class="st0" d="M500,240l100,100"/>
	<path class="st0" d="M240,0l20,20"/>
	<path class="st0" d="M300,60l40,40"/>
	<path class="st0" d="M380,140l80,80"/>
	<path class="st0" d="M500,260l80,80"/>
	<path class="st0" d="M220,0l40,40"/>
	<path class="st0" d="M280,60l60,60"/>
	<path class="st0" d="M380,160l80,80"/>
	<path class="st0" d="M500,280l60,60"/>
	<path class="st0" d="M200,0l40,40"/>
	<path class="st0" d="M260,60l80,80"/>
	<path class="st0" d="M380,180l80,80"/>
	<path class="st0" d="M500,300l40,40"/>
	<path class="st0" d="M180,0l60,60"/>
	<path class="st0" d="M260,80l80,80"/>
	<path class="st0" d="M380,200l80,80"/>
	<path class="st0" d="M480,300l40,40"/>
	<path class="st0" d="M160,0l80,80"/>
	<path class="st0" d="M260,100l80,80"/>
	<path class="st0" d="M380,220l120,120"/>
	<path class="st0" d="M140,0l80,80"/>
	<path class="st0" d="M260,120l80,80"/>
	<path class="st0" d="M380,240l100,100"/>
	<path class="st0" d="M120,0l40,40"/>
	<path class="st0" d="M180,60l40,40"/>
	<path class="st0" d="M260,140l80,80"/>
	<path class="st0" d="M380,260l80,80"/>
	<path class="st0" d="M100,0l20,20"/>
	<path class="st0" d="M180,80l40,40"/>
	<path class="st0" d="M260,160l80,80"/>
	<path class="st0" d="M380,280l60,60"/>
	<path class="st0" d="M80,0l20,20"/>
	<path class="st0" d="M180,100l40,40"/>
	<path class="st0" d="M260,180l80,80"/>
	<path class="st0" d="M360,280l60,60"/>
	<path class="st0" d="M60,0l20,20"/>
	<path class="st0" d="M120,60l40,40"/>
	<path class="st0" d="M180,120l40,40"/>
	<path class="st0" d="M260,200l60,60"/>
	<path class="st0" d="M360,300l40,40"/>
	<path class="st0" d="M40,0l40,40"/>
	<path class="st0" d="M100,60l40,40"/>
	<path class="st0" d="M180,140l40,40"/>
	<path class="st0" d="M260,220l60,60"/>
	<path class="st0" d="M340,300l40,40"/>
	<path class="st0" d="M20,0l40,40"/>
	<path class="st0" d="M80,60l60,60"/>
	<path class="st0" d="M160,140l60,60"/>
	<path class="st0" d="M260,240l40,40"/>
	<path class="st0" d="M320,300l40,40"/>
	<path class="st0" d="M0,0l40,40"/>
	<path class="st0" d="M80,80l60,60"/>
	<path class="st0" d="M160,160l60,60"/>
	<path class="st0" d="M300,300l40,40"/>
	<path class="st0" d="M20,0"/>
	<path class="st0" d="M0,20l40,40"/>
	<path class="st0" d="M80,100l40,40"/>
	<path class="st0" d="M140,160l80,80"/>
	<path class="st0" d="M280,300l40,40"/>
	<path class="st0" d="M40,0"/>
	<path class="st0" d="M0,40l40,40"/>
	<path class="st0" d="M80,120l40,40"/>
	<path class="st0" d="M140,180l160,160"/>
	<path class="st0" d="M60,0"/>
	<path class="st0" d="M0,60l40,40"/>
	<path class="st0" d="M60,120l40,40"/>
	<path class="st0" d="M120,180l160,160"/>
	<path class="st0" d="M80,0"/>
	<path class="st0" d="M0,80l100,100"/>
	<path class="st0" d="M120,200l140,140"/>
	<path class="st0" d="M40,60l20-20"/>
	<path class="st0" d="M100,0"/>
	<path class="st0" d="M0,100l80,80"/>
	<path class="st0" d="M100,200l140,140"/>
	<path class="st0" d="M40,80l60-60"/>
	<path class="st0" d="M120,0"/>
	<path class="st0" d="M0,120l80,80"/>
	<path class="st0" d="M100,220l60,60"/>
	<path class="st0" d="M180,300l40,40"/>
	<path class="st0" d="M40,100l80-80"/>
	<path class="st0" d="M140,0"/>
	<path class="st0" d="M0,140l60,60"/>
	<path class="st0" d="M80,220l60,60"/>
	<path class="st0" d="M160,300l40,40"/>
	<path class="st0" d="M40,120l40-40"/>
	<path class="st0" d="M100,60l40-40"/>
	<path class="st0" d="M160,0"/>
	<path class="st0" d="M0,160l60,60"/>
	<path class="st0" d="M80,240l40,40"/>
	<path class="st0" d="M140,300l40,40"/>
	<path class="st0" d="M60,120l20-20"/>
	<path class="st0" d="M120,60l20-20"/>
	<path class="st0" d="M180,0"/>
	<path class="st0" d="M0,180l40,40"/>
	<path class="st0" d="M80,260l20,20"/>
	<path class="st0" d="M120,300l40,40"/>
	<path class="st0" d="M140,60l20-20"/>
	<path class="st0" d="M200,0"/>
	<path class="st0" d="M0,200l40,40"/>
	<path class="st0" d="M100,300l40,40"/>
	<path class="st0" d="M140,80l40-40"/>
	<path class="st0" d="M220,0"/>
	<path class="st0" d="M0,220l40,40"/>
	<path class="st0" d="M80,300l40,40"/>
	<path class="st0" d="M160,80l20-20"/>
	<path class="st0" d="M240,0"/>
	<path class="st0" d="M0,240l40,40"/>
	<path class="st0" d="M60,300l40,40"/>
	<path class="st0" d="M140,120l40-40"/>
	<path class="st0" d="M260,0"/>
	<path class="st0" d="M0,260l80,80"/>
	<path class="st0" d="M40,240l140-140"/>
	<path class="st0" d="M280,0"/>
	<path class="st0" d="M0,280l60,60"/>
	<path class="st0" d="M40,260l140-140"/>
	<path class="st0" d="M240,60l40-40"/>
	<path class="st0" d="M300,0"/>
	<path class="st0" d="M0,300l40,40"/>
	<path class="st0" d="M40,280l40-40"/>
	<path class="st0" d="M220,100l80-80"/>
	<path class="st0" d="M320,0"/>
	<path class="st0" d="M0,320l20,20"/>
	<path class="st0" d="M40,300l40-40"/>
	<path class="st0" d="M220,120l40-40"/>
	<path class="st0" d="M280,60l40-40"/>
	<path class="st0" d="M340,0"/>
	<path class="st0" d="M60,300l20-20"/>
	<path class="st0" d="M220,140l40-40"/>
	<path class="st0" d="M300,60l40-40"/>
	<path class="st0" d="M360,0"/>
	<path class="st0" d="M80,300l20-20"/>
	<path class="st0" d="M220,160l40-40"/>
	<path class="st0" d="M320,60l20-20"/>
	<path class="st0" d="M380,0"/>
	<path class="st0" d="M100,300l20-20"/>
	<path class="st0" d="M220,180l40-40"/>
	<path class="st0" d="M340,60l20-20"/>
	<path class="st0" d="M400,0"/>
	<path class="st0" d="M120,300l20-20"/>
	<path class="st0" d="M220,200l40-40"/>
	<path class="st0" d="M340,80l20-20"/>
	<path class="st0" d="M420,0"/>
	<path class="st0" d="M140,300l20-20"/>
	<path class="st0" d="M220,220l40-40"/>
	<path class="st0" d="M340,100l40-40"/>
	<path class="st0" d="M440,0"/>
	<path class="st0" d="M160,300l20-20"/>
	<path class="st0" d="M220,240l40-40"/>
	<path class="st0" d="M340,120l40-40"/>
	<path class="st0" d="M460,0"/>
	<path class="st0" d="M220,260l40-40"/>
	<path class="st0" d="M340,140l40-40"/>
	<path class="st0" d="M480,0"/>
	<path class="st0" d="M240,260l20-20"/>
	<path class="st0" d="M340,160l40-40"/>
	<path class="st0" d="M420,80l40-40"/>
	<path class="st0" d="M500,0"/>
	<path class="st0" d="M240,280l20-20"/>
	<path class="st0" d="M340,180l40-40"/>
	<path class="st0" d="M440,80l60-60"/>
	<path class="st0" d="M520,0"/>
	<path class="st0" d="M260,280l20-20"/>
	<path class="st0" d="M340,200l40-40"/>
	<path class="st0" d="M460,80l40-40"/>
	<path class="st0" d="M540,0"/>
	<path class="st0" d="M260,300l20-20"/>
	<path class="st0" d="M340,220l40-40"/>
	<path class="st0" d="M460,100l40-40"/>
	<path class="st0" d="M560,0"/>
	<path class="st0" d="M280,300l20-20"/>
	<path class="st0" d="M340,240l40-40"/>
	<path class="st0" d="M460,120l40-40"/>
	<path class="st0" d="M580,0"/>
	<path class="st0" d="M300,300l80-80"/>
	<path class="st0" d="M460,140l40-40"/>
	<path class="st0" d="M600,0"/>
	<path class="st0" d="M320,300l60-60"/>
	<path class="st0" d="M460,160l40-40"/>
	<path class="st0" d="M620,0"/>
	<path class="st0" d="M340,300l40-40"/>
	<path class="st0" d="M460,180l40-40"/>
	<path class="st0" d="M560,80l60-60"/>
	<path class="st0" d="M640,0"/>
	<path class="st0" d="M460,200l40-40"/>
	<path class="st0" d="M560,100l80-80"/>
	<path class="st0" d="M660,0"/>
	<path class="st0" d="M460,220l40-40"/>
	<path class="st0" d="M560,120l40-40"/>
	<path class="st0" d="M620,60l40-40"/>
	<path class="st0" d="M680,0"/>
	<path class="st0" d="M460,240l40-40"/>
	<path class="st0" d="M580,120l20-20"/>
	<path class="st0" d="M640,60l40-40"/>
	<path class="st0" d="M700,0"/>
	<path class="st0" d="M460,260l40-40"/>
	<path class="st0" d="M580,140l20-20"/>
	<path class="st0" d="M660,60l20-20"/>
	<path class="st0" d="M720,0"/>
	<path class="st0" d="M460,280l40-40"/>
	<path class="st0" d="M600,140l20-20"/>
	<path class="st0" d="M680,60l20-20"/>
	<path class="st0" d="M740,0"/>
	<path class="st0" d="M460,300l40-40"/>
	<path class="st0" d="M560,200l60-60"/>
	<path class="st0" d="M680,80l40-40"/>
	<path class="st0" d="M480,300l20-20"/>
	<path class="st0" d="M560,220l80-80"/>
	<path class="st0" d="M680,100l40-40"/>
	<path class="st0" d="M560,240l40-40"/>
	<path class="st0" d="M620,180l40-40"/>
	<path class="st0" d="M680,120l40-40"/>
	<path class="st0" d="M560,260l40-40"/>
	<path class="st0" d="M640,180l80-80"/>
	<path class="st0" d="M580,260l20-20"/>
	<path class="st0" d="M660,180l60-60"/>
	<path class="st0" d="M580,280l20-20"/>
	<path class="st0" d="M680,180l20-20"/>
	<path class="st0" d="M600,280l20-20"/>
	<path class="st0" d="M680,200l20-20"/>
	<path class="st0" d="M600,300l20-20"/>
	<path class="st0" d="M680,220l40-40"/>
	<path class="st0" d="M620,300l20-20"/>
	<path class="st0" d="M680,240l40-40"/>
	<path class="st0" d="M640,300l80-80"/>
	<path class="st0" d="M660,300l60-60"/>
	<path class="st0" d="M680,300l40-40"/>
</g>
</svg>
