<?xml version="1.0" encoding="utf-8"?>
<!-- Generator: Adobe Illustrator 21.0.0, SVG Export Plug-In . SVG Version: 6.00 Build 0)  -->
<svg version="1.1" id="Layer_1" xmlns="http://www.w3.org/2000/svg" xmlns:xlink="http://www.w3.org/1999/xlink" x="0px" y="0px"
	 viewBox="0 0 800 200" style="enable-background:new 0 0 800 200;" xml:space="preserve">
<style type="text/css">
	.st0{fill:none;stroke:#000000;stroke-miterlimit:10;}
</style>
<polygon class="st0" points="498.1,70.4 499.5,57.8 498.2,54.7 493.2,53.3 491.6,53.7 485.1,67.1 489.2,74.2 "/>
<polygon class="st0" points="501.1,52.5 507.2,42.3 503.6,34.4 493.2,38.3 493.2,53.3 498.2,54.7 "/>
<polygon class="st0" points="517,57 516.1,55.9 501.1,52.5 498.2,54.7 499.5,57.8 514.4,64.9 "/>
<polygon class="st0" points="23.6,67.3 28.7,61.8 54.8,25.8 62.6,-0.9 -3,-0.9 -3,59.4 22.6,67.7 "/>
<polygon class="st0" points="121.1,22.5 137.3,29.6 140.9,30.1 149,20.9 155.5,7.5 157.2,-0.9 107.9,-0.9 110.9,11.4 "/>
<polygon class="st0" points="74.5,14.1 54.8,25.8 28.7,61.8 85.9,22.6 "/>
<polygon class="st0" points="74.5,14.1 74.5,-0.9 62.6,-0.9 54.8,25.8 "/>
<polygon class="st0" points="85.9,22.6 87.2,22.6 90.2,-0.9 74.5,-0.9 74.5,14.1 "/>
<polygon class="st0" points="251.1,147 252.9,158.5 264.6,158.5 275.3,143.5 252.9,143.5 "/>
<polygon class="st0" points="217.2,147 218.4,154.8 221.7,161.3 223.1,161.8 251.2,161.8 252.9,158.5 251.1,147 "/>
<polygon class="st0" points="252.9,143.5 251.1,132 227.7,132 213.2,136.1 213.8,139.9 217.2,147 251.1,147 "/>
<polygon class="st0" points="428.2,172.5 428,172.3 415.9,183.5 422.5,200 428,200 431.6,190 "/>
<polygon class="st0" points="431.6,190 447.3,186.9 450.7,180.7 450.7,180.5 428.2,172.5 "/>
<polygon class="st0" points="430.4,157.6 427.3,168.8 428,172.3 428.2,172.5 450.7,180.5 455.4,174.1 455.7,166.6 "/>
<polygon class="st0" points="601.9,174.3 579.3,182.2 579.8,183.4 605.9,200 612.2,200 606.5,179.6 "/>
<polygon class="st0" points="579.8,200 605.9,200 579.8,183.4 "/>
<polygon class="st0" points="630.8,179 613.6,200 636.1,200 644.2,182.7 "/>
<polygon class="st0" points="702.2,140.8 692.5,135.4 679.3,133.2 663.2,136.1 660.8,137.3 659.7,141.2 659.7,144.3 661.4,150.8 
	666.4,158.7 676.4,165.8 689.2,167.2 700.3,161.4 705.3,154.5 706.4,150.5 706,145.2 "/>
<polygon class="st0" points="666.4,158.7 658.7,184.9 669.7,189 674.9,186.9 676.4,165.8 "/>
<polygon class="st0" points="676.4,165.8 674.9,186.9 683.5,189.8 690.8,186.6 689.2,167.2 "/>
<polygon class="st0" points="401.3,62.5 402.7,50 401.6,48 388.2,48 389,62.5 "/>
<polygon class="st0" points="379.6,43.8 380.1,45.3 388.2,48 401.6,48 402.4,35.3 397.3,26.5 393.3,25.2 393,25.3 385.2,30.1 "/>
<polygon class="st0" points="386.6,63.3 389,62.5 388.2,48 380.1,45.3 374.8,58 375.3,59.5 "/>
<polygon class="st0" points="326.2,142.5 330.2,152.3 341.9,156.2 347.1,143.9 346.6,142.2 329,136.3 "/>
<polygon class="st0" points="351.8,129.9 346.6,142.2 347.1,143.9 370.4,151.7 373.4,149.7 375,137.6 "/>
<polygon class="st0" points="341.9,156.2 342.5,157.9 362.6,164.6 370.4,151.7 347.1,143.9 "/>
<polygon class="st0" points="299.7,116.5 288.6,126.9 306,133.7 303.6,119 "/>
<polygon class="st0" points="306,133.7 288.6,126.9 278.3,130.4 279,137.6 292.6,141.2 305.4,136.8 306.1,133.8 "/>
<polygon class="st0" points="299.7,116.5 295.9,108.8 278.9,114.6 277.1,127.3 277.2,128.8 278.3,130.4 288.6,126.9 "/>
<polygon class="st0" points="92.8,168 92.8,168.7 113.9,182.6 119.7,168.6 101.2,156.5 "/>
<polygon class="st0" points="71.9,153.4 51.1,156.9 79.9,177 85.9,178.4 92.8,168.7 92.8,168 "/>
<polygon class="st0" points="71.9,153.4 92.8,168 101.2,156.5 101.2,155.8 84.3,144 "/>
<polygon class="st0" points="303.5,168.9 320.3,175.4 318.2,160.9 313.7,158 "/>
<polygon class="st0" points="320.3,175.4 303.5,168.9 294.3,172 297.9,180.1 303.5,184.5 321.8,178.2 "/>
<polygon class="st0" points="337.1,170.4 324.1,158.9 318.2,160.9 320.3,175.4 321.8,178.2 323.6,179.2 329.7,179.6 337,171.7 "/>
<polygon class="st0" points="402.5,94.1 400.1,107 402.5,111.4 416.8,109.5 406.5,94.5 "/>
<polygon class="st0" points="416.8,109.5 425.6,109.5 427.2,94.5 406.5,94.5 "/>
<polygon class="st0" points="432.4,124.3 425.6,109.5 416.8,109.5 402.5,111.4 401.3,121.8 402.7,124.2 402.8,124.3 "/>
<polygon class="st0" points="313.7,158 310.2,150.8 296.8,155.3 287.3,166.8 287.3,167 294.3,172 303.5,168.9 "/>
<polygon class="st0" points="715.9,26.2 732.1,-0.9 711.3,-0.9 704.3,21.9 "/>
<polygon class="st0" points="719.1,31.6 724.8,33.9 763,-0.9 732.1,-0.9 715.9,26.2 "/>
<polygon class="st0" points="303.5,184.5 297.9,180.1 281.6,200 299.5,200 304.5,190.4 "/>
<polygon class="st0" points="294.3,172 287.3,167 277.3,172.3 276.6,173.3 273.8,188.6 277.4,200 281.6,200 297.9,180.1 "/>
<polygon class="st0" points="68.1,186.8 69.3,189 82.8,189.1 86.6,182 85.9,178.4 79.9,177 "/>
<polygon class="st0" points="92.8,168.7 85.9,178.4 86.6,182 113.9,200 115.3,200 113.9,182.6 "/>
<polygon class="st0" points="344,31.9 360.8,21.9 371.5,6.2 372.9,-0.9 320.6,-0.9 330.1,35.9 "/>
<polygon class="st0" points="393,25.3 393.3,25.2 393.3,-0.9 372.9,-0.9 371.5,6.2 "/>
<polygon class="st0" points="397.3,26.5 405.4,20.5 408.8,-0.9 393.3,-0.9 393.3,25.2 "/>
<polygon class="st0" points="712.6,109.2 716.5,113 723.7,114.3 739.5,86.5 738.5,85.8 721.3,81.8 "/>
<polygon class="st0" points="716.5,113 702.2,140.8 706,145.2 706.8,144.9 731.9,123.9 731.5,122.1 723.7,114.3 "/>
<polygon class="st0" points="692.5,135.4 702.2,140.8 716.5,113 712.6,109.2 701.5,107.1 "/>
<polygon class="st0" points="316.3,196.5 317.4,200 329,200 320.5,187.4 "/>
<polygon class="st0" points="329.7,179.6 323.6,179.2 320.5,187.4 329,200 332.5,200 332.5,184.1 "/>
<polygon class="st0" points="303.5,184.5 304.5,190.4 316.3,196.5 320.5,187.4 323.6,179.2 321.8,178.2 "/>
<polygon class="st0" points="149,89.5 139.5,94.3 138.1,103 149.6,112.2 165.6,101.1 "/>
<polygon class="st0" points="149.6,112.2 138.1,103 137.4,103.4 126,118.9 126.1,119.6 138.2,127.5 150.5,115.2 "/>
<polygon class="st0" points="139.5,94.3 133.9,87.6 127.5,83.9 106,98.6 137.4,103.4 138.1,103 "/>
<polygon class="st0" points="505.9,27.2 509,24.6 495.3,-0.9 483.6,-0.9 480,18 "/>
<polygon class="st0" points="515.8,23 515.8,-0.9 495.3,-0.9 509,24.6 "/>
<polygon class="st0" points="507.2,42.3 512.8,44.3 526.9,38.7 524.9,28.7 520.3,24.5 515.8,23 509,24.6 505.9,27.2 503.6,34.4 "/>
<polygon class="st0" points="220.4,102.5 202.4,98.1 201.2,100.1 202.3,111.9 207.1,126.6 213.2,136.1 227.7,132 242.4,117.3 "/>
<polygon class="st0" points="242.4,117.3 227.7,132 251.1,132 252.8,128.8 251.2,117.3 "/>
<polygon class="st0" points="251.2,87.9 253.5,84.3 252.4,70.4 237.4,72.8 247.8,87.5 "/>
<polygon class="st0" points="269.4,84.3 268.8,71 266,69.5 252.9,69.5 252.4,70.4 253.5,84.3 "/>
<polygon class="st0" points="237.4,72.8 252.4,70.4 252.9,69.5 251.1,58 215.6,58 212.6,63.7 210.8,72.8 "/>
<polygon class="st0" points="402.2,125.6 392,136.5 401.7,148.3 405.6,142.7 "/>
<polygon class="st0" points="401.7,148.3 392,136.5 375.7,136.5 375,137.6 373.4,149.7 376.5,151.5 401.3,151.5 "/>
<polygon class="st0" points="402.7,124.2 401.3,121.8 378,121.8 377.4,122.6 375.7,136.5 392,136.5 402.2,125.6 "/>
<polygon class="st0" points="529.6,172.5 529.5,166 527.7,162.9 523.5,158.1 511.8,147.7 497,147.3 488.4,154.6 488.6,170.1 
	496.1,188.4 504.2,200 520.6,200 525.3,189.7 "/>
<polygon class="st0" points="455.4,174.1 450.7,180.5 450.7,180.7 470,200 504.2,200 496.1,188.4 "/>
<polygon class="st0" points="573,172.9 525.3,189.7 520.6,200 554.4,200 577.4,181 "/>
<polygon class="st0" points="455,150.7 456,166.1 466.8,162.4 468.7,147.4 465.4,143.3 "/>
<polygon class="st0" points="468.7,147.4 466.8,162.4 488.6,170.1 488.4,154.6 487.8,154.1 "/>
<polygon class="st0" points="456,166.1 455.7,166.6 455.4,174.1 496.1,188.4 488.6,170.1 466.8,162.4 "/>
<polygon class="st0" points="520.3,24.5 539.3,-0.9 515.8,-0.9 515.8,23 "/>
<polygon class="st0" points="524.9,28.7 566.7,14 573.4,10.7 576.7,-0.9 539.3,-0.9 520.3,24.5 "/>
<polygon class="st0" points="648.5,10.3 644.5,-0.9 623.8,-0.9 639.5,23.8 "/>
<polygon class="st0" points="579.3,182.2 577.4,181 554.4,200 579.8,200 579.8,183.4 "/>
<polygon class="st0" points="658.7,184.9 656.7,185.6 653.2,200 668.7,200 669.7,189 "/>
<polygon class="st0" points="523.3,127.4 520.4,128.6 523.5,158.1 527.7,162.9 529.5,129.5 "/>
<polygon class="st0" points="541.5,143.2 541.5,130.3 536.8,128.2 529.5,129.5 527.7,162.9 529.5,166 539.7,153.2 "/>
<polygon class="st0" points="523.3,105.9 523.3,127.4 529.5,129.5 536.8,128.2 536.8,113.2 "/>
<polygon class="st0" points="402.7,168.8 401.3,180.5 405.6,183.5 415.9,183.5 428,172.3 427.3,168.8 "/>
<polygon class="st0" points="405.6,183.5 408.3,200 422.5,200 415.9,183.5 "/>
<polygon class="st0" points="326.5,105.7 337.7,117.2 354.9,113.8 327.4,96.6 "/>
<polygon class="st0" points="326.5,105.7 322.9,112.4 323.2,128 328.6,134.5 341.4,124.9 337.7,117.2 "/>
<polygon class="st0" points="322.9,112.4 326.5,105.7 327.4,96.6 327.2,95.4 296.5,105.8 295.9,108.8 299.7,116.5 303.6,119 "/>
<polygon class="st0" points="687.3,103.2 699.1,104.7 707.7,74.3 695.2,64 684.7,100.8 "/>
<polygon class="st0" points="701.5,107.1 712.6,109.2 721.3,81.8 713.3,76.3 707.7,74.3 699.1,104.7 "/>
<polygon class="st0" points="699.1,104.7 687.3,103.2 679.3,133.2 692.5,135.4 701.5,107.1 "/>
<polygon class="st0" points="693.4,61.6 730.4,47 730.6,43.9 724.8,33.9 719.1,31.6 692.7,61.1 "/>
<polygon class="st0" points="730.6,43.9 802,9.4 802,-0.9 763,-0.9 724.8,33.9 "/>
<polygon class="st0" points="232.4,20.3 243.4,16.1 236.3,-0.9 225.6,-0.9 224.4,9.7 "/>
<polygon class="st0" points="218.7,46.1 223.8,43 234,28.3 232.4,20.3 224.4,9.7 222.6,11.7 214.2,28.7 "/>
<polygon class="st0" points="257,28.3 253,20.4 243.4,16.1 232.4,20.3 234,28.3 "/>
<polygon class="st0" points="123.6,74 139.7,63.4 142,51.8 140.4,45.3 115.2,61.7 119.4,71.5 "/>
<polygon class="st0" points="143.3,70.4 139.7,63.4 123.6,74 127.5,83.9 133.9,87.6 "/>
<polygon class="st0" points="156.1,78.7 156.3,78.7 164.4,66.4 142,51.8 139.7,63.4 143.3,70.4 "/>
<polygon class="st0" points="486.8,82.1 485.7,83 481.9,96 504.4,104.2 508.5,103.2 514.3,98.4 514,91.9 "/>
<polygon class="st0" points="480.8,96.9 476.8,109.8 493.5,114.5 504.4,104.2 481.9,96 "/>
<polygon class="st0" points="504.4,104.2 493.5,114.5 493.5,128 497,130 508.5,128 508.5,103.2 "/>
<polygon class="st0" points="447.3,186.9 447.3,200 470,200 450.7,180.7 "/>
<polygon class="st0" points="674.9,186.9 669.7,189 668.7,200 683.7,200 683.5,189.8 "/>
<polygon class="st0" points="695.2,64 707.7,74.3 713.3,76.3 734.4,53.6 730.4,47 693.4,61.6 "/>
<polygon class="st0" points="493.5,128 480.2,130.3 487.8,154.1 488.4,154.6 497,147.3 497,130 "/>
<polygon class="st0" points="476.8,109.8 475.8,110.8 472.7,125.7 473.5,128 480.2,130.3 493.5,128 493.5,114.5 "/>
<polygon class="st0" points="303.6,119 306,133.7 306.1,133.8 323.2,128 322.9,112.4 "/>
<polygon class="st0" points="328.6,134.5 323.2,128 306.1,133.8 305.4,136.8 310.9,147.8 326.2,142.5 329,136.3 "/>
<polygon class="st0" points="630.7,164.9 628,165.4 630.8,179 644.2,182.7 646.1,181.7 646,172.9 "/>
<polygon class="st0" points="628,165.4 627.7,165.3 606.5,179.6 612.2,200 613.6,200 630.8,179 "/>
<polygon class="st0" points="401.3,77.3 402.7,65 401.3,62.5 389,62.5 386.6,63.3 385.8,77.3 "/>
<polygon class="st0" points="221.7,161.3 218.4,154.8 192,173.3 192.4,176.7 196.6,181.5 203.4,183.4 219.7,172 "/>
<polygon class="st0" points="203.4,183.4 206.8,189.5 225.5,188.4 219.7,172 "/>
<polygon class="st0" points="203.4,183.4 196.6,181.5 190.3,200 206.8,200 206.8,189.5 "/>
<polygon class="st0" points="370.2,72 375.3,59.5 374.8,58 328,42.4 327.3,48.2 328,57.9 "/>
<polygon class="st0" points="374.8,58 380.1,45.3 379.6,43.8 344,31.9 330.1,35.9 328,42.2 328,42.4 "/>
<polygon class="st0" points="401.6,48 402.7,50 448.1,50 449.3,44.7 438.1,35.3 402.4,35.3 "/>
<polygon class="st0" points="402.7,65 445.5,65 448.1,53.9 448.1,50 402.7,50 401.3,62.5 "/>
<polygon class="st0" points="448.1,53.9 485.1,67.1 491.6,53.7 456.4,41.1 451.1,43.2 449.3,44.7 448.1,50 "/>
<polygon class="st0" points="92.7,113.7 102.8,102.7 104.1,99.1 99.3,85.2 88.5,74.7 71.7,68.2 49,65.8 23.6,67.3 22.6,67.7 
	43.9,106.1 86.4,116.9 "/>
<polygon class="st0" points="127.5,83.9 123.6,74 119.4,71.5 99.3,85.2 104.1,99.1 106,98.6 "/>
<polygon class="st0" points="115.2,61.7 111,59.2 88.5,74.7 99.3,85.2 119.4,71.5 "/>
<polygon class="st0" points="650.3,127 635.6,119.7 621.3,146.8 622.5,149 659.7,141.2 660.8,137.3 "/>
<polygon class="st0" points="659.7,144.3 659.7,141.2 622.5,149 621.8,155.6 627.7,165.3 628,165.4 630.7,164.9 "/>
<polygon class="st0" points="456.4,41.1 471.4,30.5 480,18 483.6,-0.9 452.8,-0.9 451.1,43.2 "/>
<polygon class="st0" points="493.2,53.3 493.2,38.3 471.4,30.5 456.4,41.1 491.6,53.7 "/>
<polygon class="st0" points="503.6,34.4 505.9,27.2 480,18 471.4,30.5 493.2,38.3 "/>
<polygon class="st0" points="709.9,185 714.3,200 732,200 721.3,180.2 "/>
<polygon class="st0" points="707.3,184.3 697.1,188.7 698.6,200 714.3,200 709.9,185 "/>
<polygon class="st0" points="700.3,161.4 707.3,184.3 709.9,185 721.3,180.2 723.4,176.5 705.3,154.5 "/>
<polygon class="st0" points="41.9,156.2 43.9,106.1 22.6,67.7 -3,59.4 -3,199 35.8,164.3 "/>
<polygon class="st0" points="192.4,176.7 157,200 190.3,200 196.6,181.5 "/>
<polygon class="st0" points="82.8,189.1 82.8,200 113.9,200 86.6,182 "/>
<polygon class="st0" points="530.3,42.5 532.9,41.6 566.7,14 524.9,28.7 526.9,38.7 "/>
<polygon class="st0" points="222.6,11.7 224.4,9.7 225.6,-0.9 202.5,-0.9 202.5,16 "/>
<polygon class="st0" points="253,20.4 253,-0.9 236.3,-0.9 243.4,16.1 "/>
<polygon class="st0" points="465.5,138.8 465.4,143.3 468.7,147.4 487.8,154.1 480.2,130.3 473.5,128 "/>
<polygon class="st0" points="432.5,139 432.9,142.8 455,150.7 465.4,143.3 465.5,138.8 435.4,128 "/>
<polygon class="st0" points="441,122.8 435.3,127.2 435.4,128 465.5,138.8 473.5,128 472.7,125.7 451.8,118.2 "/>
<polygon class="st0" points="253.5,185.4 253.5,200 277.4,200 273.8,188.6 "/>
<polygon class="st0" points="149.5,169.4 140.6,158.1 133,159.6 119.7,168.6 113.9,182.6 115.3,200 155.1,200 154.5,183.8 "/>
<polygon class="st0" points="108.1,145.9 101.2,155.8 101.2,156.5 119.7,168.6 133,159.6 121,151.7 "/>
<polygon class="st0" points="438.1,35.3 449.3,44.7 451.1,43.2 452.8,-0.9 425.4,-0.9 428.2,20.5 "/>
<polygon class="st0" points="438.1,35.3 428.2,20.5 405.4,20.5 397.3,26.5 402.4,35.3 "/>
<polygon class="st0" points="594,145.4 590.9,131.2 563.5,140.8 563.2,144.9 568.5,154.7 593.9,145.8 "/>
<polygon class="st0" points="568.5,154.7 568.1,158.9 573.3,168.7 597.3,160.2 593.9,145.8 "/>
<polygon class="st0" points="568.5,154.7 563.2,144.9 539.7,153.2 529.5,166 529.6,172.5 568.1,158.9 "/>
<polygon class="st0" points="723.4,176.5 721.3,180.2 732,200 759.3,200 730.1,173.4 "/>
<polygon class="st0" points="629.5,67.9 625.4,54.8 618.8,55.7 613.1,70 628.3,71.7 "/>
<polygon class="st0" points="593.4,98.6 629.6,77.7 628.3,71.7 613.1,70 585.1,74.4 587.2,85.4 "/>
<polygon class="st0" points="585.1,74.4 613.1,70 618.8,55.7 607.2,54.5 582.6,65.6 583.5,70.8 "/>
<polygon class="st0" points="332.5,184.1 332.5,200 366.3,200 365.9,195.4 "/>
<polygon class="st0" points="354.9,113.8 337.7,117.2 341.4,124.9 351.3,128.2 356.6,115.6 356.2,114.3 "/>
<polygon class="st0" points="328.3,89.4 327.2,95.4 327.4,96.6 354.9,113.8 356.2,114.3 361.1,101.5 360.7,100.2 "/>
<polygon class="st0" points="628.3,71.7 629.6,77.7 636.6,84.7 639.9,85.4 660.6,57.9 660.1,57.9 629.5,67.9 "/>
<polygon class="st0" points="593.4,98.9 597.3,107.3 611.9,111.8 615.9,112 636.6,84.7 629.6,77.7 593.4,98.6 "/>
<polygon class="st0" points="431.6,190 428,200 447.3,200 447.3,186.9 "/>
<polygon class="st0" points="658.8,95.2 670.9,97.3 681.9,58.3 674,56.7 668.7,57 656.4,92.8 "/>
<polygon class="st0" points="670.9,97.3 658.8,95.2 650.3,127 660.8,137.3 663.2,136.1 673,99.3 "/>
<polygon class="st0" points="656.4,92.8 646,91.1 635.3,119.4 635.6,119.7 650.3,127 658.8,95.2 "/>
<polygon class="st0" points="416.2,139 405.6,142.7 401.7,148.3 401.3,151.5 402.7,154 429.8,154 432.9,142.8 432.5,139 "/>
<polygon class="st0" points="401.3,151.5 376.5,151.5 385.6,166.3 401.3,166.3 402.7,154 "/>
<polygon class="st0" points="684.7,100.8 673,99.3 663.2,136.1 679.3,133.2 687.3,103.2 "/>
<polygon class="st0" points="628.5,48.2 660.1,57.9 660.6,57.9 664.2,56.7 638.5,32.8 633.3,35.3 628.1,45.2 "/>
<polygon class="st0" points="629.5,67.9 660.1,57.9 628.5,48.2 625.4,54.8 "/>
<polygon class="st0" points="625.4,54.8 628.5,48.2 628.1,45.2 613.4,39.3 607.2,54.5 618.8,55.7 "/>
<polygon class="st0" points="735.7,162.5 730.1,173.4 759.3,200 802,200 802,198.3 "/>
<polygon class="st0" points="616.3,143.4 594,145.4 593.9,145.8 597.3,160.2 599.3,162.4 621.8,155.6 622.5,149 621.3,146.8 "/>
<polygon class="st0" points="597.3,107.3 593.8,114.4 590.9,131.2 594,145.4 616.3,143.4 611.9,111.8 "/>
<polygon class="st0" points="376.5,151.5 373.4,149.7 370.4,151.7 362.6,164.6 362.6,180.2 366.7,190 379.7,181 385.6,166.3 "/>
<polygon class="st0" points="379.7,181 366.7,190 365.9,195.4 366.3,200 391.8,200 400.4,181 "/>
<polygon class="st0" points="337,171.7 329.7,179.6 332.5,184.1 365.9,195.4 366.7,190 362.6,180.2 "/>
<polygon class="st0" points="593.4,98.6 587.2,85.4 549.6,98.6 550.7,108.5 554.3,112.7 593.4,98.9 "/>
<polygon class="st0" points="597.3,107.3 593.4,98.9 554.3,112.7 556,126 557.6,127.2 593.8,114.4 "/>
<polygon class="st0" points="673,99.3 684.7,100.8 695.2,64 693.4,61.6 692.7,61.1 690.1,59.8 683.1,58.3 681.9,58.3 670.9,97.3 "/>
<polygon class="st0" points="341.4,124.9 328.6,134.5 329,136.3 346.6,142.2 351.8,129.9 351.3,128.2 "/>
<polygon class="st0" points="326.2,142.5 310.9,147.8 310.2,150.8 313.7,158 318.2,160.9 324.1,158.9 330.2,152.3 "/>
<polygon class="st0" points="341.9,156.2 330.2,152.3 324.1,158.9 337.1,170.4 342.5,157.9 "/>
<polygon class="st0" points="217.2,147 213.8,139.9 183.6,161.1 184,164.5 192,173.3 218.4,154.8 "/>
<polygon class="st0" points="192,173.3 184,164.5 154.5,183.8 155.1,200 157,200 192.4,176.7 "/>
<polygon class="st0" points="175.8,152.1 149.5,169.4 154.5,183.8 184,164.5 183.6,161.1 "/>
<polygon class="st0" points="276.7,52.7 277.4,49.5 270.7,36.2 269.5,35.5 261.5,54.8 267.4,55.9 "/>
<polygon class="st0" points="277.4,49.5 306.6,39.6 287.7,30.4 270.7,36.2 "/>
<polygon class="st0" points="276.7,52.7 282.1,63.6 327.3,48.2 328,42.4 328,42.2 306.6,39.6 277.4,49.5 "/>
<polygon class="st0" points="721.3,81.8 738.5,85.8 738.5,62.8 735.8,54.5 734.4,53.6 713.3,76.3 "/>
<polygon class="st0" points="615.9,112 611.9,111.8 616.3,143.4 621.3,146.8 635.6,119.7 635.3,119.4 "/>
<polygon class="st0" points="635.3,119.4 646,91.1 639.9,85.4 636.6,84.7 615.9,112 "/>
<polygon class="st0" points="738.5,85.8 739.5,86.5 764.2,92.4 802,92.9 802,60.8 738.5,62.8 "/>
<polygon class="st0" points="731.5,122.1 731.9,123.9 738.2,130.2 802,103.9 802,92.9 764.2,92.4 "/>
<polygon class="st0" points="740.1,140.7 802,136.1 802,103.9 738.2,130.2 "/>
<polygon class="st0" points="68.1,186.8 35.8,164.3 -3,199 -3,200 68.6,200 69.3,189 "/>
<polygon class="st0" points="51.1,156.9 41.9,156.2 35.8,164.3 68.1,186.8 79.9,177 "/>
<polygon class="st0" points="402.7,154 401.3,166.3 402.7,168.8 427.3,168.8 430.4,157.6 429.8,154 "/>
<polygon class="st0" points="432.9,142.8 429.8,154 430.4,157.6 455.7,166.6 456,166.1 455,150.7 "/>
<polygon class="st0" points="573.7,43.7 575.7,49 613.3,39.1 606.7,12.1 599.2,-0.9 576.7,-0.9 573.4,10.7 "/>
<polygon class="st0" points="633.3,35.3 638.5,32.8 641.1,28.1 639.5,23.8 623.8,-0.9 599.2,-0.9 606.7,12.1 "/>
<polygon class="st0" points="511.8,129.9 511.8,147.7 523.5,158.1 520.4,128.6 "/>
<polygon class="st0" points="508.5,128 497,130 497,147.3 511.8,147.7 511.8,129.9 "/>
<polygon class="st0" points="735.6,161.7 735.7,162.5 802,198.3 802,165 740.3,151.9 "/>
<polygon class="st0" points="706.4,150.5 705.3,154.5 723.4,176.5 730.1,173.4 735.7,162.5 735.6,161.7 "/>
<polygon class="st0" points="731.5,122.1 764.2,92.4 739.5,86.5 723.7,114.3 "/>
<polygon class="st0" points="356.6,115.6 351.3,128.2 351.8,129.9 375,137.6 375.7,136.5 377.4,122.6 "/>
<polygon class="st0" points="444.3,73.8 437.1,79.8 427.2,94.5 425.6,109.5 432.4,124.3 435.3,127.2 441,122.8 448.6,81.6 "/>
<polygon class="st0" points="402.8,124.3 416.2,139 432.5,139 435.4,128 435.3,127.2 432.4,124.3 "/>
<polygon class="st0" points="385.2,30.1 360.8,21.9 344,31.9 379.6,43.8 "/>
<polygon class="st0" points="393,25.3 371.5,6.2 360.8,21.9 385.2,30.1 "/>
<polygon class="st0" points="527.5,53.4 530.4,68.3 540,71.5 541.1,70.1 540.5,54.6 530.9,49.2 "/>
<polygon class="st0" points="515.4,73.4 530.4,68.3 527.5,53.4 517,57 514.4,64.9 "/>
<polygon class="st0" points="517,57 527.5,53.4 530.9,49.2 530.3,42.5 526.9,38.7 512.8,44.3 516.1,55.9 "/>
<polygon class="st0" points="453.1,87 459,104.8 475.8,110.8 476.8,109.8 480.8,96.9 "/>
<polygon class="st0" points="448.6,81.6 453.1,87 480.8,96.9 481.9,96 485.7,83 445.5,68.6 444.3,73.8 "/>
<polygon class="st0" points="304.5,190.4 299.5,200 317.4,200 316.3,196.5 "/>
<polygon class="st0" points="259.2,114 252.9,114 251.2,117.3 252.8,128.8 277.2,128.8 277.1,127.3 "/>
<polygon class="st0" points="220.4,102.5 242.4,117.3 251.2,117.3 252.9,114 251.1,102.5 "/>
<polygon class="st0" points="599.3,162.4 601.9,174.3 606.5,179.6 627.7,165.3 621.8,155.6 "/>
<polygon class="st0" points="428.2,20.5 425.4,-0.9 408.8,-0.9 405.4,20.5 "/>
<polygon class="st0" points="276.4,143 275.3,143.5 264.6,158.5 277.3,172.3 287.3,167 287.3,166.8 "/>
<polygon class="st0" points="252.9,158.5 251.2,161.8 252.8,173.3 276.6,173.3 277.3,172.3 264.6,158.5 "/>
<polygon class="st0" points="337.1,170.4 337,171.7 362.6,180.2 362.6,164.6 342.5,157.9 "/>
<polygon class="st0" points="400.1,107 380.6,107 379.9,107.8 378,121.8 401.3,121.8 402.5,111.4 "/>
<polygon class="st0" points="554.3,112.7 550.7,108.5 536.8,113.2 536.8,128.2 541.5,130.3 556,126 "/>
<polygon class="st0" points="240.1,176.5 251.1,176.5 252.8,173.3 251.2,161.8 223.1,161.8 "/>
<polygon class="st0" points="156.1,78.7 143.3,70.4 133.9,87.6 139.5,94.3 149,89.5 "/>
<polygon class="st0" points="692.7,61.1 719.1,31.6 715.9,26.2 704.3,21.9 703.5,22.1 690.1,59.8 "/>
<polygon class="st0" points="257,28.3 258.6,29.5 261,29.3 267,21.9 267.8,-0.9 253,-0.9 253,20.4 "/>
<polygon class="st0" points="690.1,59.8 703.5,22.1 691.7,17.9 686.8,19.7 683.1,58.3 "/>
<polygon class="st0" points="686.8,19.7 691.7,17.9 693.9,-0.9 678.2,-0.9 678.4,16.9 "/>
<polygon class="st0" points="703.5,22.1 704.3,21.9 711.3,-0.9 693.9,-0.9 691.7,17.9 "/>
<polygon class="st0" points="628.1,45.2 633.3,35.3 606.7,12.1 613.3,39.1 613.4,39.3 "/>
<polygon class="st0" points="287.7,30.4 306.6,39.6 328,42.2 330.1,35.9 320.6,-0.9 293.1,-0.9 283.4,16.3 "/>
<polygon class="st0" points="202.3,111.9 167,136.6 167.3,139.9 175.4,148.8 207.1,126.6 "/>
<polygon class="st0" points="207.1,126.6 175.4,148.8 175.8,152.1 183.6,161.1 213.8,139.9 213.2,136.1 "/>
<polygon class="st0" points="175.4,148.8 167.3,139.9 140.7,157.4 140.6,158.1 149.5,169.4 175.8,152.1 "/>
<polygon class="st0" points="259.2,114 277.1,127.3 278.9,114.6 274,106.6 "/>
<polygon class="st0" points="291.1,94.9 280.4,98.5 273.7,102 274,106.6 278.9,114.6 295.9,108.8 296.5,105.8 "/>
<polygon class="st0" points="597.3,160.2 573.3,168.7 573,172.9 577.4,181 579.3,182.2 601.9,174.3 599.3,162.4 "/>
<polygon class="st0" points="568.1,158.9 529.6,172.5 525.3,189.7 573,172.9 573.3,168.7 "/>
<polygon class="st0" points="402.7,124.2 402.2,125.6 405.6,142.7 416.2,139 402.8,124.3 "/>
<polygon class="st0" points="656.3,21.7 648.5,10.3 639.5,23.8 641.1,28.1 654.7,24.3 "/>
<polygon class="st0" points="656.3,21.7 665.1,17.8 662.2,-0.9 644.5,-0.9 648.5,10.3 "/>
<polygon class="st0" points="164.4,66.4 164.6,66.4 172.7,54.1 141.6,33.8 140.4,45.3 142,51.8 "/>
<polygon class="st0" points="203.4,93.4 206.1,87.5 208.1,78.6 172.9,54.1 172.7,54.1 164.6,66.4 "/>
<polygon class="st0" points="185.8,99.2 192.7,100.5 201.2,100.1 202.4,98.1 203.4,93.4 164.6,66.4 164.4,66.4 156.3,78.7 "/>
<polygon class="st0" points="296.5,105.8 327.2,95.4 328.3,89.4 327.2,79.7 291.8,91.8 291.1,94.9 "/>
<polygon class="st0" points="646.1,181.7 644.2,182.7 636.1,200 653.2,200 656.7,185.6 "/>
<polygon class="st0" points="441,122.8 451.8,118.2 459,104.8 453.1,87 448.6,81.6 "/>
<polygon class="st0" points="181.1,41.8 189.3,29.6 155.5,7.5 149,20.9 181,41.9 "/>
<polygon class="st0" points="212.6,63.7 215.6,58 217.2,48.9 189.4,29.5 189.3,29.6 181.1,41.8 "/>
<polygon class="st0" points="210.8,72.8 212.6,63.7 181.1,41.8 181,41.9 172.9,54.1 208.1,78.6 "/>
<polygon class="st0" points="279,137.6 276.4,143 287.3,166.8 296.8,155.3 292.6,141.2 "/>
<polygon class="st0" points="305.4,136.8 292.6,141.2 296.8,155.3 310.2,150.8 310.9,147.8 "/>
<polygon class="st0" points="568.3,44.8 573.7,43.7 573.4,10.7 566.7,14 532.9,41.6 "/>
<polygon class="st0" points="540.5,54.6 568.3,44.8 532.9,41.6 530.3,42.5 530.9,49.2 "/>
<polygon class="st0" points="667.1,56.6 668.7,57 674,56.7 670.8,19.7 665.1,17.8 656.3,21.7 654.7,24.3 "/>
<polygon class="st0" points="667.1,56.6 654.7,24.3 641.1,28.1 638.5,32.8 664.2,56.7 "/>
<polygon class="st0" points="251.1,176.5 252.2,183.7 253.5,185.4 273.8,188.6 276.6,173.3 252.8,173.3 "/>
<polygon class="st0" points="252.2,183.7 230,196 230,200 253.5,200 253.5,185.4 "/>
<polygon class="st0" points="240.1,176.5 229,192.9 230,196 252.2,183.7 251.1,176.5 "/>
<polygon class="st0" points="165.6,101.1 149.6,112.2 150.5,115.2 158.8,124.2 192.7,100.5 185.8,99.2 "/>
<polygon class="st0" points="165.6,101.1 185.8,99.2 156.3,78.7 156.1,78.7 149,89.5 "/>
<polygon class="st0" points="402.5,94.1 406.5,94.5 427.2,94.5 437.1,79.8 402.7,79.8 401.3,92 "/>
<polygon class="st0" points="273.7,102 280.4,98.5 277.4,83.7 270.2,84.9 270.5,99 "/>
<polygon class="st0" points="270.2,84.9 269.4,84.3 253.5,84.3 251.2,87.9 252.9,99 270.5,99 "/>
<polygon class="st0" points="273.7,102 270.5,99 252.9,99 251.1,102.5 252.9,114 259.2,114 274,106.6 "/>
<polygon class="st0" points="69.3,189 68.6,200 82.8,200 82.8,189.1 "/>
<polygon class="st0" points="201.1,19.6 202.5,16 202.5,-0.9 180.9,-0.9 194.1,22.4 "/>
<polygon class="st0" points="222.6,11.7 202.5,16 201.1,19.6 214.2,28.7 "/>
<polygon class="st0" points="218.7,46.1 214.2,28.7 201.1,19.6 194.1,22.4 189.4,29.5 217.2,48.9 "/>
<polygon class="st0" points="252.9,69.5 266,69.5 267.4,55.9 261.5,54.8 252.8,54.8 251.1,58 "/>
<polygon class="st0" points="252.8,54.8 251.2,43 223.8,43 218.7,46.1 217.2,48.9 215.6,58 251.1,58 "/>
<polygon class="st0" points="90.5,24.7 110.9,11.4 107.9,-0.9 90.2,-0.9 87.2,22.6 "/>
<polygon class="st0" points="98.7,37.1 121.1,22.5 110.9,11.4 90.5,24.7 94.6,34.6 "/>
<polygon class="st0" points="630.7,164.9 646,172.9 661.4,150.8 659.7,144.3 "/>
<polygon class="st0" points="582.6,65.6 607.2,54.5 613.4,39.3 613.3,39.1 575.7,49 577.9,57.1 "/>
<polygon class="st0" points="540.5,54.6 541.1,70.1 577.9,57.1 575.7,49 573.7,43.7 568.3,44.8 "/>
<polygon class="st0" points="541.1,80.3 544.7,84.4 583.5,70.8 582.6,65.6 577.9,57.1 541.1,70.1 540,71.5 "/>
<polygon class="st0" points="252.8,54.8 261.5,54.8 269.5,35.5 261,29.3 258.6,29.5 251.2,43 "/>
<polygon class="st0" points="223.8,43 251.2,43 258.6,29.5 257,28.3 234,28.3 "/>
<polygon class="st0" points="401.3,180.5 400.4,181 391.8,200 408.3,200 405.6,183.5 "/>
<polygon class="st0" points="706,145.2 706.4,150.5 735.6,161.7 740.3,151.9 738.9,143.6 706.8,144.9 "/>
<polygon class="st0" points="71.9,153.4 84.3,144 88.7,129 86.4,116.9 43.9,106.1 41.9,156.2 51.1,156.9 "/>
<polygon class="st0" points="189.3,29.6 189.4,29.5 194.1,22.4 180.9,-0.9 157.2,-0.9 155.5,7.5 "/>
<polygon class="st0" points="402.7,79.8 437.1,79.8 444.3,73.8 445.5,68.6 445.5,65 402.7,65 401.3,77.3 "/>
<polygon class="st0" points="445.5,68.6 485.7,83 486.8,82.1 489.2,74.2 485.1,67.1 448.1,53.9 445.5,65 "/>
<polygon class="st0" points="94.6,34.6 90.5,24.7 87.2,22.6 85.9,22.6 28.7,61.8 23.6,67.3 49,65.8 "/>
<polygon class="st0" points="111,59.2 115.2,61.7 140.4,45.3 141.6,33.8 140.9,30.1 137.3,29.6 107.1,49.3 "/>
<polygon class="st0" points="286.9,77.5 327.3,63.8 328,57.9 327.3,48.2 282.1,63.6 281.5,66.7 "/>
<polygon class="st0" points="365.4,86 370.6,73.5 370.2,72 328,57.9 327.3,63.8 328.2,73.6 "/>
<polygon class="st0" points="545.8,94.3 521.1,102.6 523.3,105.9 536.8,113.2 550.7,108.5 549.6,98.6 "/>
<polygon class="st0" points="544.7,84.4 541.1,80.3 514.9,89.1 514,91.9 514.3,98.4 521.1,102.6 545.8,94.3 "/>
<polygon class="st0" points="521.1,102.6 514.3,98.4 508.5,103.2 508.5,128 511.8,129.9 520.4,128.6 523.3,127.4 523.3,105.9 "/>
<polygon class="st0" points="117.9,131.3 108.2,142.6 108.1,145.9 121,151.7 121.2,134.1 117.9,131.3 "/>
<polygon class="st0" points="139.1,145.9 121.2,134.1 121,151.7 133,159.6 140.6,158.1 140.7,157.4 "/>
<polygon class="st0" points="283.4,16.3 293.1,-0.9 267.8,-0.9 267,21.9 "/>
<polygon class="st0" points="270.7,36.2 287.7,30.4 283.4,16.3 267,21.9 261,29.3 269.5,35.5 "/>
<polygon class="st0" points="223.1,161.8 221.7,161.3 219.7,172 225.5,188.4 229,192.9 240.1,176.5 "/>
<polygon class="st0" points="229,192.9 225.5,188.4 206.8,189.5 206.8,200 230,200 230,196 "/>
<polygon class="st0" points="690.8,186.6 683.5,189.8 683.7,200 698.6,200 697.1,188.7 "/>
<polygon class="st0" points="88.7,129 84.3,144 101.2,155.8 108.1,145.9 108.2,142.6 "/>
<polygon class="st0" points="117.9,131.3 92.7,113.7 86.4,116.9 88.7,129 108.2,142.6 "/>
<polygon class="st0" points="192.7,100.5 158.8,124.2 159.1,127.6 167,136.6 202.3,111.9 201.2,100.1 "/>
<polygon class="st0" points="150.5,115.2 138.2,127.5 141.3,139.3 159.1,127.6 158.8,124.2 "/>
<polygon class="st0" points="278.3,130.4 277.2,128.8 252.8,128.8 251.1,132 252.9,143.5 275.3,143.5 276.4,143 279,137.6 "/>
<polygon class="st0" points="514,76.2 514.9,89.1 541.1,80.3 540,71.5 530.4,68.3 515.4,73.4 "/>
<polygon class="st0" points="515.4,73.4 514.4,64.9 499.5,57.8 498.1,70.4 514,76.2 "/>
<polygon class="st0" points="514.9,89.1 514,76.2 498.1,70.4 489.2,74.2 486.8,82.1 514,91.9 "/>
<polygon class="st0" points="220.4,102.5 251.1,102.5 252.9,99 251.2,87.9 247.8,87.5 206.1,87.5 203.4,93.4 202.4,98.1 "/>
<polygon class="st0" points="270.2,84.9 277.4,83.7 286.2,80.7 286.9,77.5 281.5,66.7 268.8,71 269.4,84.3 "/>
<polygon class="st0" points="291.8,91.8 327.2,79.7 328.2,73.6 327.3,63.8 286.9,77.5 286.2,80.7 "/>
<polygon class="st0" points="401.3,92 383.2,92 382.1,93 380.6,107 400.1,107 402.5,94.1 "/>
<polygon class="st0" points="401.3,92 402.7,79.8 401.3,77.3 385.8,77.3 384.4,78.2 383.2,92 "/>
<polygon class="st0" points="384.4,78.2 385.8,77.3 386.6,63.3 375.3,59.5 370.2,72 370.6,73.5 "/>
<polygon class="st0" points="557.6,127.2 556,126 541.5,130.3 541.5,143.2 561.1,136.3 "/>
<polygon class="st0" points="689.2,167.2 690.8,186.6 697.1,188.7 707.3,184.3 700.3,161.4 "/>
<polygon class="st0" points="670.8,19.7 678.4,16.9 678.2,-0.9 662.2,-0.9 665.1,17.8 "/>
<polygon class="st0" points="561.1,136.3 541.5,143.2 539.7,153.2 563.2,144.9 563.5,140.8 "/>
<polygon class="st0" points="730.4,47 734.4,53.6 735.8,54.5 802,42.7 802,9.4 730.6,43.9 "/>
<polygon class="st0" points="549.6,98.6 587.2,85.4 585.1,74.4 583.5,70.8 544.7,84.4 545.8,94.3 "/>
<polygon class="st0" points="681.9,58.3 683.1,58.3 686.8,19.7 678.4,16.9 670.8,19.7 674,56.7 "/>
<polygon class="st0" points="661.4,150.8 646,172.9 646.1,181.7 656.7,185.6 658.7,184.9 666.4,158.7 "/>
<polygon class="st0" points="172.7,54.1 172.9,54.1 181,41.9 149,20.9 140.9,30.1 141.6,33.8 "/>
<polygon class="st0" points="738.9,143.6 740.3,151.9 802,165 802,136.1 740.1,140.7 "/>
<polygon class="st0" points="738.5,62.8 802,60.8 802,42.7 735.8,54.5 "/>
<polygon class="st0" points="646,91.1 656.4,92.8 668.7,57 667.1,56.6 664.2,56.7 660.6,57.9 639.9,85.4 "/>
<polygon class="st0" points="266,69.5 268.8,71 281.5,66.7 282.1,63.6 276.7,52.7 267.4,55.9 "/>
<polygon class="st0" points="361.1,101.5 356.2,114.3 356.6,115.6 377.4,122.6 378,121.8 379.9,107.8 "/>
<polygon class="st0" points="159.1,127.6 141.3,139.3 139.1,145.9 140.7,157.4 167.3,139.9 167,136.6 "/>
<polygon class="st0" points="291.1,94.9 291.8,91.8 286.2,80.7 277.4,83.7 280.4,98.5 "/>
<polygon class="st0" points="237.4,72.8 210.8,72.8 208.1,78.6 206.1,87.5 247.8,87.5 "/>
<polygon class="st0" points="138.2,127.5 126.1,119.6 117.9,131.3 121.2,134.1 139.1,145.9 141.3,139.3 "/>
<polygon class="st0" points="117.9,131.3 126.1,119.6 126,118.9 102.8,102.7 92.7,113.7 117.9,131.3 "/>
<polygon class="st0" points="137.4,103.4 106,98.6 104.1,99.1 102.8,102.7 126,118.9 "/>
<polygon class="st0" points="451.8,118.2 472.7,125.7 475.8,110.8 459,104.8 "/>
<polygon class="st0" points="365.9,87.6 360.7,100.2 361.1,101.5 379.9,107.8 380.6,107 382.1,93 "/>
<polygon class="st0" points="401.3,166.3 385.6,166.3 379.7,181 400.4,181 401.3,180.5 402.7,168.8 "/>
<polygon class="st0" points="360.7,100.2 365.9,87.6 365.4,86 328.2,73.6 327.2,79.7 328.3,89.4 "/>
<polygon class="st0" points="382.1,93 383.2,92 384.4,78.2 370.6,73.5 365.4,86 365.9,87.6 "/>
<polygon class="st0" points="107.1,49.3 102.9,46.8 71.7,68.2 88.5,74.7 111,59.2 "/>
<polygon class="st0" points="98.7,37.1 94.6,34.6 49,65.8 71.7,68.2 102.9,46.8 "/>
<polygon class="st0" points="738.9,143.6 740.1,140.7 738.2,130.2 731.9,123.9 706.8,144.9 "/>
<polygon class="st0" points="102.9,46.8 107.1,49.3 137.3,29.6 121.1,22.5 98.7,37.1 "/>
<polygon class="st0" points="557.6,127.2 561.1,136.3 563.5,140.8 590.9,131.2 593.8,114.4 "/>
<polygon class="st0" points="516.1,55.9 512.8,44.3 507.2,42.3 501.1,52.5 "/>
</svg>
