<svg id="Layer_1" data-name="Layer 1" xmlns="http://www.w3.org/2000/svg" viewBox="0 0 2945.71 275.45"><defs><style>.cls-1{fill:#fff;stroke:#000;stroke-miterlimit:10;}</style></defs><title>penguin</title><path class="cls-1" d="M244.71,537.54H20.21V506.93c1.33-.14,2.74-.38,4.15-.41,20.47-.42,33.14-13.18,33.19-33.8.09-38.66,0-77.33,0-116a93.57,93.57,0,0,1,97.78-93.56c40.75,1.74,76.9,31.37,86.32,71.08,1,4.07,2.89,5.91,6.6,7.53,10.35,4.51,20.57,9.35,30.54,14.63a44.9,44.9,0,0,1,10.81,8.76c7.31,7.59,6.74,16.67-2.4,21.78-7.86,4.39-16.74,7.08-25.39,9.85-5.34,1.71-11.08,2.16-17.13,3.26Zm-81.89-12.37a15.56,15.56,0,0,0,.36-2.06c0-27.16,0-54.32.15-81.48,0-3.74-2.28-3.85-4.64-4.44-28.6-7.19-47.9-28.64-52.38-58.23-4-26.59,9.48-54.33,33.43-68.69s54.06-12.66,77.06,4.31c1.19.87,2.42,1.68,4.49,3.12a21.81,21.81,0,0,0-.87-2.71c-15.66-27.38-50.3-43.75-81.36-38.46-41.45,7.06-69.3,40-69.31,82.08q0,58.24,0,116.48c0,20.38-13.11,37.69-32.73,42.54-4.8,1.18-5.46,3.26-4.16,7.54Zm69.09,0c.13-1.41.32-2.53.32-3.66q0-75,0-150c0-32.79-24.06-56.06-53-58.27-25.91-2-50,14.5-58.07,39.21-8,24.45,1.83,51.41,23.75,65.46,9.34,6,19.72,8.46,31.06,9.35v97.9ZM283,375.29c-11.43-10.79-24.83-15.7-38.1-21.64v33.57C257.94,384.64,270.94,383.44,283,375.29Z" transform="translate(-19.71 -262.59)"/><path class="cls-1" d="M162.82,525.17h-130c-1.3-4.29-.64-6.36,4.16-7.54,19.63-4.84,32.72-22.16,32.73-42.54q0-58.24,0-116.48c0-42.05,27.86-75,69.31-82.08,31.06-5.29,65.7,11.08,81.36,38.46a21.81,21.81,0,0,1,.87,2.71c-2.08-1.44-3.31-2.24-4.49-3.12-23-17-53.12-18.66-77.06-4.31s-37.46,42.1-33.43,68.69c4.48,29.6,23.78,51,52.38,58.23,2.36.59,4.67.7,4.64,4.44-.18,27.16-.12,54.32-.15,81.48A15.56,15.56,0,0,1,162.82,525.17Z" transform="translate(-19.71 -262.59)"/><path class="cls-1" d="M231.91,525.15H176v-97.9c-11.34-.89-21.72-3.36-31.06-9.35-21.93-14-31.77-41-23.75-65.46,8.1-24.71,32.16-41.19,58.07-39.21,29,2.21,53.05,25.48,53,58.27q0,75,0,150C232.23,522.62,232,523.74,231.91,525.15Zm-59.51-131c15.92.12,28.43-12.06,28.52-27.75a28.08,28.08,0,1,0-28.52,27.75Z" transform="translate(-19.71 -262.59)"/><path class="cls-1" d="M283,375.29c-12.08,8.15-25.09,9.36-38.1,11.93V353.65C258.2,359.59,271.59,364.5,283,375.29Z" transform="translate(-19.71 -262.59)"/><path class="cls-1" d="M172.4,394.17A27.86,27.86,0,0,1,144.76,366a28.08,28.08,0,1,1,56.16.4C200.83,382.11,188.32,394.28,172.4,394.17Zm.27-43.5a15.56,15.56,0,0,0-15.35,15.68,15.84,15.84,0,0,0,15.73,15.45c8.36-.13,15.57-7.53,15.43-15.82A15.76,15.76,0,0,0,172.67,350.67Z" transform="translate(-19.71 -262.59)"/><path class="cls-1" d="M172.67,350.67A15.76,15.76,0,0,1,188.48,366c.14,8.29-7.07,15.68-15.43,15.82a15.84,15.84,0,0,1-15.73-15.45A15.56,15.56,0,0,1,172.67,350.67Z" transform="translate(-19.71 -262.59)"/><path class="cls-1" d="M778.77,537.54H554.27V506.93c1.33-.14,2.74-.38,4.15-.41,20.47-.42,33.14-13.18,33.19-33.8.09-38.66,0-77.33,0-116a93.57,93.57,0,0,1,97.78-93.56c40.75,1.74,76.9,31.37,86.32,71.08,1,4.07,2.89,5.91,6.6,7.53,10.35,4.51,20.57,9.35,30.54,14.63a44.9,44.9,0,0,1,10.81,8.76c7.31,7.59,6.74,16.67-2.4,21.78-7.86,4.39-16.74,7.08-25.39,9.85-5.34,1.71-11.08,2.16-17.13,3.26Zm-81.89-12.37a15.56,15.56,0,0,0,.36-2.06c0-27.16,0-54.32.15-81.48,0-3.74-2.28-3.85-4.64-4.44-28.6-7.19-47.9-28.64-52.38-58.23-4-26.59,9.48-54.33,33.43-68.69s54.06-12.66,77.06,4.31c1.19.87,2.42,1.68,4.49,3.12a21.81,21.81,0,0,0-.87-2.71c-15.66-27.38-50.3-43.75-81.36-38.46-41.45,7.06-69.3,40-69.31,82.08q0,58.24,0,116.48c0,20.38-13.11,37.69-32.73,42.54-4.8,1.18-5.46,3.26-4.16,7.54Zm69.09,0c.13-1.41.32-2.53.32-3.66q0-75,0-150c0-32.79-24.06-56.06-53-58.27-25.91-2-50,14.5-58.07,39.21-8,24.45,1.83,51.41,23.75,65.46,9.34,6,19.72,8.46,31.06,9.35v97.9Zm51.11-149.87c-11.43-10.79-24.83-15.7-38.1-21.64v33.57C792,384.64,805,383.44,817.08,375.29Z" transform="translate(-19.71 -262.59)"/><path class="cls-1" d="M696.88,525.17h-130c-1.3-4.29-.64-6.36,4.16-7.54,19.63-4.84,32.72-22.16,32.73-42.54q0-58.24,0-116.48c0-42.05,27.86-75,69.31-82.08,31.06-5.29,65.7,11.08,81.36,38.46a21.81,21.81,0,0,1,.87,2.71c-2.08-1.44-3.31-2.24-4.49-3.12-23-17-53.12-18.66-77.06-4.31s-37.46,42.1-33.43,68.69c4.48,29.6,23.78,51,52.38,58.23,2.36.59,4.67.7,4.64,4.44-.18,27.16-.12,54.32-.15,81.48A15.56,15.56,0,0,1,696.88,525.17Z" transform="translate(-19.71 -262.59)"/><path class="cls-1" d="M766,525.15H710v-97.9c-11.34-.89-21.72-3.36-31.06-9.35-21.93-14-31.77-41-23.75-65.46,8.1-24.71,32.16-41.19,58.07-39.21,29,2.21,53.05,25.48,53,58.27q0,75,0,150C766.28,522.62,766.09,523.74,766,525.15Zm-59.51-131c15.92.12,28.43-12.06,28.52-27.75a28.08,28.08,0,1,0-28.52,27.75Z" transform="translate(-19.71 -262.59)"/><path class="cls-1" d="M817.08,375.29C805,383.44,792,384.64,779,387.22V353.65C792.25,359.59,805.65,364.5,817.08,375.29Z" transform="translate(-19.71 -262.59)"/><path class="cls-1" d="M706.45,394.17A27.86,27.86,0,0,1,678.81,366a28.08,28.08,0,1,1,56.16.4C734.88,382.11,722.37,394.28,706.45,394.17Zm.27-43.5a15.56,15.56,0,0,0-15.35,15.68A15.84,15.84,0,0,0,707.1,381.8c8.36-.13,15.57-7.53,15.43-15.82A15.76,15.76,0,0,0,706.72,350.67Z" transform="translate(-19.71 -262.59)"/><path class="cls-1" d="M706.72,350.67A15.76,15.76,0,0,1,722.53,366c.14,8.29-7.07,15.68-15.43,15.82a15.84,15.84,0,0,1-15.73-15.45A15.56,15.56,0,0,1,706.72,350.67Z" transform="translate(-19.71 -262.59)"/><path class="cls-1" d="M1312.82,537.54h-224.5V506.93c1.33-.14,2.74-.38,4.15-.41,20.47-.42,33.14-13.18,33.19-33.8.09-38.66,0-77.33,0-116a93.57,93.57,0,0,1,97.78-93.56c40.75,1.74,76.9,31.37,86.32,71.08,1,4.07,2.89,5.91,6.6,7.53,10.35,4.51,20.57,9.35,30.54,14.63a44.9,44.9,0,0,1,10.81,8.76c7.31,7.59,6.74,16.67-2.4,21.78-7.86,4.39-16.74,7.08-25.39,9.85-5.34,1.71-11.08,2.16-17.13,3.26Zm-81.89-12.37a15.56,15.56,0,0,0,.36-2.06c0-27.16,0-54.32.15-81.48,0-3.74-2.28-3.85-4.64-4.44-28.6-7.19-47.9-28.64-52.38-58.23-4-26.59,9.48-54.33,33.43-68.69s54.06-12.66,77.06,4.31c1.19.87,2.42,1.68,4.49,3.12a21.81,21.81,0,0,0-.87-2.71c-15.66-27.38-50.3-43.75-81.36-38.46-41.45,7.06-69.3,40-69.31,82.08q0,58.24,0,116.48c0,20.38-13.11,37.69-32.73,42.54-4.8,1.18-5.46,3.26-4.16,7.54Zm69.09,0c.13-1.41.32-2.53.32-3.66q0-75,0-150c0-32.79-24.06-56.06-53-58.27-25.91-2-50,14.5-58.07,39.21-8,24.45,1.83,51.41,23.75,65.46,9.34,6,19.72,8.46,31.06,9.35v97.9Zm51.11-149.87c-11.43-10.79-24.83-15.7-38.1-21.64v33.57C1326,384.64,1339,383.44,1351.13,375.29Z" transform="translate(-19.71 -262.59)"/><path class="cls-1" d="M1230.93,525.17H1101c-1.3-4.29-.64-6.36,4.16-7.54,19.63-4.84,32.72-22.16,32.73-42.54q0-58.24,0-116.48c0-42.05,27.86-75,69.31-82.08,31.06-5.29,65.7,11.08,81.36,38.46a21.81,21.81,0,0,1,.87,2.71c-2.08-1.44-3.31-2.24-4.49-3.12-23-17-53.12-18.66-77.06-4.31s-37.46,42.1-33.43,68.69c4.48,29.6,23.78,51,52.38,58.23,2.36.59,4.67.7,4.64,4.44-.18,27.16-.12,54.32-.15,81.48A15.56,15.56,0,0,1,1230.93,525.17Z" transform="translate(-19.71 -262.59)"/><path class="cls-1" d="M1300,525.15h-56v-97.9c-11.34-.89-21.72-3.36-31.06-9.35-21.93-14-31.77-41-23.75-65.46,8.1-24.71,32.16-41.19,58.07-39.21,29,2.21,53.05,25.48,53,58.27q0,75,0,150C1300.34,522.62,1300.15,523.74,1300,525.15Zm-59.51-131c15.92.12,28.43-12.06,28.52-27.75a28.08,28.08,0,1,0-28.52,27.75Z" transform="translate(-19.71 -262.59)"/><path class="cls-1" d="M1351.13,375.29c-12.08,8.15-25.09,9.36-38.1,11.93V353.65C1326.3,359.59,1339.7,364.5,1351.13,375.29Z" transform="translate(-19.71 -262.59)"/><path class="cls-1" d="M1240.51,394.17A27.86,27.86,0,0,1,1212.86,366a28.08,28.08,0,1,1,56.16.4C1268.94,382.11,1256.43,394.28,1240.51,394.17Zm.27-43.5a15.56,15.56,0,0,0-15.35,15.68,15.84,15.84,0,0,0,15.73,15.45c8.36-.13,15.57-7.53,15.43-15.82A15.76,15.76,0,0,0,1240.78,350.67Z" transform="translate(-19.71 -262.59)"/><path class="cls-1" d="M1240.78,350.67A15.76,15.76,0,0,1,1256.59,366c.14,8.29-7.07,15.68-15.43,15.82a15.84,15.84,0,0,1-15.73-15.45A15.56,15.56,0,0,1,1240.78,350.67Z" transform="translate(-19.71 -262.59)"/><path class="cls-1" d="M1846.87,537.54h-224.5V506.93c1.33-.14,2.74-.38,4.15-.41,20.47-.42,33.14-13.18,33.19-33.8.09-38.66,0-77.33,0-116a93.57,93.57,0,0,1,97.78-93.56c40.75,1.74,76.9,31.37,86.32,71.08,1,4.07,2.89,5.91,6.6,7.53,10.35,4.51,20.57,9.35,30.54,14.63a44.9,44.9,0,0,1,10.81,8.76c7.31,7.59,6.74,16.67-2.4,21.78-7.86,4.39-16.74,7.08-25.39,9.85-5.34,1.71-11.08,2.16-17.13,3.26ZM1765,525.17a15.56,15.56,0,0,0,.36-2.06c0-27.16,0-54.32.15-81.48,0-3.74-2.28-3.85-4.64-4.44-28.6-7.19-47.9-28.64-52.38-58.23-4-26.59,9.48-54.33,33.43-68.69s54.06-12.66,77.06,4.31c1.19.87,2.42,1.68,4.49,3.12a21.81,21.81,0,0,0-.87-2.71c-15.66-27.38-50.3-43.75-81.36-38.46-41.45,7.06-69.3,40-69.31,82.08q0,58.24,0,116.48c0,20.38-13.11,37.69-32.73,42.54-4.8,1.18-5.46,3.26-4.16,7.54Zm69.09,0c.13-1.41.32-2.53.32-3.66q0-75,0-150c0-32.79-24.06-56.06-53-58.27-25.91-2-50,14.5-58.07,39.21-8,24.45,1.83,51.41,23.75,65.46,9.34,6,19.72,8.46,31.06,9.35v97.9Zm51.11-149.87c-11.43-10.79-24.83-15.7-38.1-21.64v33.57C1860.1,384.64,1873.1,383.44,1885.18,375.29Z" transform="translate(-19.71 -262.59)"/><path class="cls-1" d="M1765,525.17H1635c-1.3-4.29-.64-6.36,4.16-7.54,19.63-4.84,32.72-22.16,32.73-42.54q0-58.24,0-116.48c0-42.05,27.86-75,69.31-82.08,31.06-5.29,65.7,11.08,81.36,38.46a21.81,21.81,0,0,1,.87,2.71c-2.08-1.44-3.31-2.24-4.49-3.12-23-17-53.12-18.66-77.06-4.31s-37.46,42.1-33.43,68.69c4.48,29.6,23.78,51,52.38,58.23,2.36.59,4.67.7,4.64,4.44-.18,27.16-.12,54.32-.15,81.48A15.56,15.56,0,0,1,1765,525.17Z" transform="translate(-19.71 -262.59)"/><path class="cls-1" d="M1834.07,525.15h-56v-97.9c-11.34-.89-21.72-3.36-31.06-9.35-21.93-14-31.77-41-23.75-65.46,8.1-24.71,32.16-41.19,58.07-39.21,29,2.21,53.05,25.48,53,58.27q0,75,0,150C1834.39,522.62,1834.2,523.74,1834.07,525.15Zm-59.51-131c15.92.12,28.43-12.06,28.52-27.75a28.08,28.08,0,1,0-28.52,27.75Z" transform="translate(-19.71 -262.59)"/><path class="cls-1" d="M1885.18,375.29c-12.08,8.15-25.09,9.36-38.1,11.93V353.65C1860.36,359.59,1873.75,364.5,1885.18,375.29Z" transform="translate(-19.71 -262.59)"/><path class="cls-1" d="M1774.56,394.17A27.86,27.86,0,0,1,1746.92,366a28.08,28.08,0,1,1,56.16.4C1803,382.11,1790.48,394.28,1774.56,394.17Zm.27-43.5a15.56,15.56,0,0,0-15.35,15.68,15.84,15.84,0,0,0,15.73,15.45c8.36-.13,15.57-7.53,15.43-15.82A15.76,15.76,0,0,0,1774.83,350.67Z" transform="translate(-19.71 -262.59)"/><path class="cls-1" d="M1774.83,350.67A15.76,15.76,0,0,1,1790.64,366c.14,8.29-7.07,15.68-15.43,15.82a15.84,15.84,0,0,1-15.73-15.45A15.56,15.56,0,0,1,1774.83,350.67Z" transform="translate(-19.71 -262.59)"/><path class="cls-1" d="M2380.93,537.54h-224.5V506.93c1.33-.14,2.74-.38,4.15-.41,20.47-.42,33.14-13.18,33.19-33.8.09-38.66,0-77.33,0-116a93.57,93.57,0,0,1,97.78-93.56c40.75,1.74,76.9,31.37,86.32,71.08,1,4.07,2.89,5.91,6.6,7.53,10.35,4.51,20.57,9.35,30.54,14.63a44.9,44.9,0,0,1,10.81,8.76c7.31,7.59,6.74,16.67-2.4,21.78-7.86,4.39-16.74,7.08-25.39,9.85-5.34,1.71-11.08,2.16-17.13,3.26ZM2299,525.17a15.56,15.56,0,0,0,.36-2.06c0-27.16,0-54.32.15-81.48,0-3.74-2.28-3.85-4.64-4.44-28.6-7.19-47.9-28.64-52.38-58.23-4-26.59,9.48-54.33,33.43-68.69s54.06-12.66,77.06,4.31c1.19.87,2.42,1.68,4.49,3.12a21.81,21.81,0,0,0-.87-2.71c-15.66-27.38-50.3-43.75-81.36-38.46-41.45,7.06-69.3,40-69.31,82.08q0,58.24,0,116.48c0,20.38-13.11,37.69-32.73,42.54-4.8,1.18-5.46,3.26-4.16,7.54Zm69.09,0c.13-1.41.32-2.53.32-3.66q0-75,0-150c0-32.79-24.06-56.06-53-58.27-25.91-2-50,14.5-58.07,39.21-8,24.45,1.83,51.41,23.75,65.46,9.34,6,19.72,8.46,31.06,9.35v97.9Zm51.11-149.87c-11.43-10.79-24.83-15.7-38.1-21.64v33.57C2394.15,384.64,2407.15,383.44,2419.24,375.29Z" transform="translate(-19.71 -262.59)"/><path class="cls-1" d="M2299,525.17h-130c-1.3-4.29-.64-6.36,4.16-7.54,19.63-4.84,32.72-22.16,32.73-42.54q0-58.24,0-116.48c0-42.05,27.86-75,69.31-82.08,31.06-5.29,65.7,11.08,81.36,38.46a21.81,21.81,0,0,1,.87,2.71c-2.08-1.44-3.31-2.24-4.49-3.12-23-17-53.12-18.66-77.06-4.31s-37.46,42.1-33.43,68.69c4.48,29.6,23.78,51,52.38,58.23,2.36.59,4.67.7,4.64,4.44-.18,27.16-.12,54.32-.15,81.48A15.56,15.56,0,0,1,2299,525.17Z" transform="translate(-19.71 -262.59)"/><path class="cls-1" d="M2368.13,525.15h-56v-97.9c-11.34-.89-21.72-3.36-31.06-9.35-21.93-14-31.77-41-23.75-65.46,8.1-24.71,32.16-41.19,58.07-39.21,29,2.21,53.05,25.48,53,58.27q0,75,0,150C2368.44,522.62,2368.25,523.74,2368.13,525.15Zm-59.51-131c15.92.12,28.43-12.06,28.52-27.75a28.08,28.08,0,1,0-28.52,27.75Z" transform="translate(-19.71 -262.59)"/><path class="cls-1" d="M2419.24,375.29c-12.08,8.15-25.09,9.36-38.1,11.93V353.65C2394.41,359.59,2407.81,364.5,2419.24,375.29Z" transform="translate(-19.71 -262.59)"/><path class="cls-1" d="M2308.61,394.17A27.86,27.86,0,0,1,2281,366a28.08,28.08,0,1,1,56.16.4C2337,382.11,2324.53,394.28,2308.61,394.17Zm.27-43.5a15.56,15.56,0,0,0-15.35,15.68,15.84,15.84,0,0,0,15.73,15.45c8.36-.13,15.57-7.53,15.43-15.82A15.76,15.76,0,0,0,2308.88,350.67Z" transform="translate(-19.71 -262.59)"/><path class="cls-1" d="M2308.88,350.67A15.76,15.76,0,0,1,2324.69,366c.14,8.29-7.07,15.68-15.43,15.82a15.84,15.84,0,0,1-15.73-15.45A15.56,15.56,0,0,1,2308.88,350.67Z" transform="translate(-19.71 -262.59)"/><path class="cls-1" d="M2915,537.54h-224.5V506.93c1.33-.14,2.74-.38,4.15-.41,20.47-.42,33.14-13.18,33.19-33.8.09-38.66,0-77.33,0-116a93.57,93.57,0,0,1,97.78-93.56c40.75,1.74,76.9,31.37,86.32,71.08,1,4.07,2.89,5.91,6.6,7.53,10.35,4.51,20.57,9.35,30.54,14.63a44.9,44.9,0,0,1,10.81,8.76c7.31,7.59,6.74,16.67-2.4,21.78-7.86,4.39-16.74,7.08-25.39,9.85-5.34,1.71-11.08,2.16-17.13,3.26Zm-81.89-12.37a15.56,15.56,0,0,0,.36-2.06c0-27.16,0-54.32.15-81.48,0-3.74-2.28-3.85-4.64-4.44-28.6-7.19-47.9-28.64-52.38-58.23-4-26.59,9.48-54.33,33.43-68.69s54.06-12.66,77.06,4.31c1.19.87,2.42,1.68,4.49,3.12a21.81,21.81,0,0,0-.87-2.71c-15.66-27.38-50.3-43.75-81.36-38.46-41.45,7.06-69.3,40-69.31,82.08q0,58.24,0,116.48c0,20.38-13.11,37.69-32.73,42.54-4.8,1.18-5.46,3.26-4.16,7.54Zm69.09,0c.13-1.41.32-2.53.32-3.66q0-75,0-150c0-32.79-24.06-56.06-53-58.27-25.91-2-50,14.5-58.07,39.21-8,24.45,1.83,51.41,23.75,65.46,9.34,6,19.72,8.46,31.06,9.35v97.9Zm51.11-149.87c-11.43-10.79-24.83-15.7-38.1-21.64v33.57C2928.2,384.64,2941.21,383.44,2953.29,375.29Z" transform="translate(-19.71 -262.59)"/><path class="cls-1" d="M2833.09,525.17h-130c-1.3-4.29-.64-6.36,4.16-7.54,19.63-4.84,32.72-22.16,32.73-42.54q0-58.24,0-116.48c0-42.05,27.86-75,69.31-82.08,31.06-5.29,65.7,11.08,81.36,38.46a21.81,21.81,0,0,1,.87,2.71c-2.08-1.44-3.31-2.24-4.49-3.12-23-17-53.12-18.66-77.06-4.31s-37.46,42.1-33.43,68.69c4.48,29.6,23.78,51,52.38,58.23,2.36.59,4.67.7,4.64,4.44-.18,27.16-.12,54.32-.15,81.48A15.56,15.56,0,0,1,2833.09,525.17Z" transform="translate(-19.71 -262.59)"/><path class="cls-1" d="M2902.18,525.15h-56v-97.9c-11.34-.89-21.72-3.36-31.06-9.35-21.93-14-31.77-41-23.75-65.46,8.1-24.71,32.16-41.19,58.07-39.21,29,2.21,53.05,25.48,53,58.27q0,75,0,150C2902.5,522.62,2902.31,523.74,2902.18,525.15Zm-59.51-131c15.92.12,28.43-12.06,28.52-27.75a28.08,28.08,0,1,0-28.52,27.75Z" transform="translate(-19.71 -262.59)"/><path class="cls-1" d="M2953.29,375.29c-12.08,8.15-25.09,9.36-38.1,11.93V353.65C2928.46,359.59,2941.86,364.5,2953.29,375.29Z" transform="translate(-19.71 -262.59)"/><path class="cls-1" d="M2842.67,394.17A27.86,27.86,0,0,1,2815,366a28.08,28.08,0,1,1,56.16.4C2871.1,382.11,2858.59,394.28,2842.67,394.17Zm.27-43.5a15.56,15.56,0,0,0-15.35,15.68,15.84,15.84,0,0,0,15.73,15.45c8.36-.13,15.57-7.53,15.43-15.82A15.76,15.76,0,0,0,2842.94,350.67Z" transform="translate(-19.71 -262.59)"/><path class="cls-1" d="M2842.94,350.67A15.76,15.76,0,0,1,2858.75,366c.14,8.29-7.07,15.68-15.43,15.82a15.84,15.84,0,0,1-15.73-15.45A15.56,15.56,0,0,1,2842.94,350.67Z" transform="translate(-19.71 -262.59)"/></svg>