<?xml version="1.0" encoding="utf-8"?>
<!-- Generator: Adobe Illustrator 21.0.0, SVG Export Plug-In . SVG Version: 6.00 Build 0)  -->
<svg version="1.1" id="Layer_1" xmlns="http://www.w3.org/2000/svg" xmlns:xlink="http://www.w3.org/1999/xlink" x="0px" y="0px"
	 viewBox="0 0 3200 800" style="enable-background:new 0 0 3200 800;" xml:space="preserve">
<style type="text/css">
	.st0{fill:none;stroke:#000000;stroke-miterlimit:10;}
</style>
<path class="st0" d="M1003.3,44.7L988.7,0h388.5l-44.7,144.4l-20.8,16.9l-299-112L1003.3,44.7z M0,174.4l116.7,22.9l138.8-86.7
	L300.9,0H0V174.4z M2453.9,720.1l47.8-74.2l66.4-156l0.7-5.8l-99.3-149.5l-115.4-28.1l-207.1,51.7L2297,630.3L2453.9,720.1z
	 M2568.1,489.9l-66.4,156l378,67.5l5.3-83.3l-30.1-36.4L2568.1,489.9z M2501.7,646l-47.8,74.2l-1.4,79.9h460.1l-32.9-86.5
	L2501.7,646z M445.3,698.3l102.8-160.4L548,342.5l-0.3-0.2l-71.5-14.4L363.8,477.4L445.3,698.3z M177,541.4l186.8-64.1l112.4-149.4
	l-3.4-2.9l-251-26.2L177,541.4z M472.8,325l3.4,2.9l71.5,14.4l58-116.4L583.6,0H462l-32,197.3L472.8,325z M1801.4,54.5l10.3-11.6
	L1810,0h-237.3l8.2,72.4L1801.4,54.5z M1574,118.6l7-46.2L1572.7,0h-195.5l-44.7,144.4L1574,118.6z M935.9,305.2l67.4-260.5L988.7,0
	H831.9L680.6,175.6L935.9,305.2z M831.6,418.4l86.3-8.3l18-104.9L680.6,175.6l-74.9,50.3l-58,116.4l0.3,0.2L831.6,418.4z
	 M968.5,468.3l248,30.1l36.9-115.1L1012.7,49.3l-9.4-4.6l-67.4,260.5l-18,104.9L968.5,468.3z M2725,105.6l-198.7-51.7l-13.4,135.7
	l208.2-49L2725,105.6z M2721.1,140.6l80.5,177.6l141,2.4l64.1-12.6l18.3-7.7L2900.1,0h-136.2l-39,105.6L2721.1,140.6z M2725,105.6
	l39-105.6h-249.3l11.6,53.9L2725,105.6z M2568.1,489.9l286.8,103.8l87.6-273.2l-141-2.4l-232.8,165.9L2568.1,489.9z M2885,630.2
	l73.1-35.6l4.7-8l43.9-278.6l-64.1,12.6l-87.6,273.2L2885,630.2z M548,342.5l0.2,195.3l131.6,86l151.8-205.4L548,342.5z
	 M679.7,623.9l-131.6-86L445.3,698.3L425.7,800h168.4l85-133L679.7,623.9z M831.6,418.4L679.7,623.9l-0.6,43.2l252.7,44.6
	l36.7-243.4l-50.6-58.2L831.6,418.4z M1216.4,498.3l-248-30.1l-36.7,243.4l12.7,88.4h376.8l-0.9-210.8L1216.4,498.3z M1967,476.4
	l84.2,159.5l245.8-5.6l-149.9-272.2l-129-43.7l-24.4,18L1967,476.4z M2018.1,314.5l129,43.7l207.1-51.7L2240.7,0H2140l-95.8,168.7
	L2018.1,314.5z M1924.4,321.6l-69.8-61.1l-257.8-44.8l-28,140l18.2,60.5L1924.4,321.6z M1924.4,321.6L1587,416.2l-13.5,52.4
	l153,189.3L1967,476.4l26.7-144L1924.4,321.6z M1568.7,355.6l-238.3-107.6l-77.1,135.2l-36.9,115.1l104,90.9l253-120.6l13.5-52.4
	L1568.7,355.6z M1573.5,468.6l-253,120.6l0.9,210.8h416.2l-11.1-142.2L1573.5,468.6z M2297,630.3l-245.8,5.6L1989.2,800h463.3
	l1.4-79.9L2297,630.3z M1967,476.4l-240.5,181.4l11.1,142.2h251.7l61.9-164.1L1967,476.4z M679.1,667l-85,133h350.4l-12.7-88.4
	L679.1,667z M2512.9,189.5l13.4-135.7L2514.6,0h-250.2l235.5,208L2512.9,189.5z M2469.5,334.6l30.3-126.5L2264.4,0h-23.7
	l113.5,306.5L2469.5,334.6z M177,541.4l44.8-242.6L116.7,197.2L0,174.4v352l142,52.9L177,541.4z M363.8,477.4L177,541.4l-35,37.8
	L231.9,800h193.8l19.5-101.7L363.8,477.4z M0,526.4V800h231.9L142,579.3L0,526.4z M2044.2,168.7L2140,0h-330l1.8,42.9L2044.2,168.7z
	 M680.6,175.6L831.9,0H583.6l22,225.9L680.6,175.6z M430,197.3L462,0H300.9l-45.5,110.5L430,197.3z M1568.7,355.6l28-140l1-39.9
	l-23.7-57.1l-241.4,25.7l-20.8,16.9l18.7,86.8L1568.7,355.6z M1854.5,260.5l69.8,61.1l69.3,10.8l24.4-18l26.1-145.8L1811.8,42.9
	l-10.3,11.6l-31,96.7L1854.5,260.5z M2958.1,594.5L3200,770.4V536.3l-237.2,50.2L2958.1,594.5z M3006.7,308l-43.9,278.6l237.2-50.2
	V305.7l-175-5.5L3006.7,308z M2801.6,318.2l-80.5-177.6l-208.2,49l-13,18.5l-30.3,126.5l99.3,149.5L2801.6,318.2z M1770.4,151.1
	l-172.7,24.6l-1,39.9l257.8,44.8L1770.4,151.1z M1770.4,151.1l31-96.7l-220.5,18l-7,46.2l23.7,57.1L1770.4,151.1z M3200,305.7V0
	h-299.9L3025,300.3L3200,305.7z M472.8,325L430,197.3l-174.6-86.8l-138.8,86.7l105.1,101.6L472.8,325z M1330.4,248.1l-18.7-86.8
	l-299-112l240.6,333.9L1330.4,248.1z M2885,630.2l-5.3,83.3l32.9,86.5H3200v-29.6l-241.9-175.9L2885,630.2z"/>
</svg>
