<?xml version="1.0" encoding="utf-8"?>
<!-- Generator: Adobe Illustrator 21.0.0, SVG Export Plug-In . SVG Version: 6.00 Build 0)  -->
<svg version="1.1" id="Layer_1" xmlns="http://www.w3.org/2000/svg" xmlns:xlink="http://www.w3.org/1999/xlink" x="0px" y="0px"
	 viewBox="0 0 2200 800" style="enable-background:new 0 0 2200 800;" xml:space="preserve">
<style type="text/css">
	.st0{fill:none;stroke:#000000;stroke-miterlimit:10;}
</style>
<g>
	<polygon class="st0" points="304.5,127.9 368.8,20 68,20 68,166.3 179.4,193.6 	"/>
	<polygon class="st0" points="259.2,422.8 179.4,193.6 68,166.3 68,480.7 123.6,509.4 	"/>
	<polygon class="st0" points="498.4,269.8 304.5,127.9 179.4,193.6 259.2,422.8 342.2,473.6 497.9,351.7 	"/>
	<polygon class="st0" points="807.4,703.1 799.2,714.8 799.2,715.5 837.6,740.7 838.5,734.4 837.5,722.9 	"/>
	<polygon class="st0" points="718.9,658.7 698.3,658.3 692.9,658.5 790.8,727 799.2,715.5 799.2,714.8 	"/>
	<polygon class="st0" points="745,658.9 724.3,658.3 718.9,658.7 799.2,714.8 807.4,703.1 807.4,702.5 	"/>
	<polygon class="st0" points="1237.8,629.5 1278.8,615.1 1279,610.8 1277.1,600 1233.1,615.5 1234.1,625.4 	"/>
	<polygon class="st0" points="1281.5,629.8 1283.1,633.4 1325,626.9 1322.7,615.3 1279,610.8 1278.8,615.1 	"/>
	<polygon class="st0" points="1279,610.8 1322.7,615.3 1326.5,607.2 1326.1,604.2 1277.5,584.6 1277.1,600 	"/>
	<polygon class="st0" points="1146.1,609 1148.6,598.1 1148.7,594.3 1100.4,594.3 1099.6,607 1100.7,609 	"/>
	<polygon class="st0" points="1100.7,609 1099.3,621.5 1100.7,624 1143.5,624 1146.1,612.9 1146.1,609 	"/>
	<polygon class="st0" points="1099.3,621.5 1100.7,609 1099.6,607 1086.2,607 1087,621.5 	"/>
	<polygon class="st0" points="1082.4,637.2 1081.2,651 1099.3,651 1100.7,638.8 1099.3,636.3 1083.8,636.3 	"/>
	<polygon class="st0" points="1083.8,636.3 1084.6,622.3 1073.3,618.5 1068.2,631 1068.6,632.5 1082.4,637.2 	"/>
	<polygon class="st0" points="1080.1,652 1081.2,651 1082.4,637.2 1068.6,632.5 1063.4,645 1063.9,646.6 	"/>
	<polygon class="st0" points="1028.2,711.3 1022.1,717.9 1035.1,729.4 1040.5,716.9 1039.9,715.2 	"/>
	<polygon class="st0" points="1045.1,702.9 1039.9,715.2 1040.5,716.9 1068.2,726.2 1068.7,725.3 1070.7,711.4 	"/>
	<polygon class="st0" points="1040.5,716.9 1035.1,729.4 1035,730.7 1065.9,741 1066.3,740 1068.2,726.2 	"/>
	<polygon class="st0" points="1185.8,713.1 1163.3,705.2 1158.5,711.7 1158.4,719.1 1202,734.5 1195,721.8 	"/>
	<polygon class="st0" points="1212,747.1 1209.8,743.4 1202,734.5 1158.4,719.1 1153.7,725.6 1153.4,733.1 1211.9,753.7 
		1212.1,752.6 	"/>
	<polygon class="st0" points="1130.9,701.8 1127.8,713 1128.4,716.6 1153.7,725.6 1158.4,719.1 1158.5,711.7 	"/>
	<polygon class="st0" points="975.2,687.8 950.8,687.8 949.1,691 950.9,702.5 977.6,702.5 976.3,689.4 	"/>
	<polygon class="st0" points="977.6,702.5 950.9,702.5 949.1,706 950.9,717.5 980.2,717.5 978.6,704.3 	"/>
	<polygon class="st0" points="949.1,691 910.4,691 911.8,698.9 915.2,706 949.1,706 950.9,702.5 	"/>
	<polygon class="st0" points="901.4,652.4 904.1,646.5 906.1,637.6 870.9,613.1 870.7,613.1 862.6,625.4 	"/>
	<polygon class="st0" points="949.1,646.5 904.1,646.5 901.4,652.4 900.2,658.1 901.7,661.5 949.1,661.5 950.9,658 	"/>
	<polygon class="st0" points="950.8,643.3 949.2,631.8 908.8,631.8 906.1,637.6 904.1,646.5 949.1,646.5 	"/>
	<polygon class="st0" points="980.2,717.5 950.9,717.5 949.2,720.8 950.8,732.3 982.7,732.3 981.1,719 	"/>
	<polygon class="st0" points="920,720.8 920.9,728.7 924.9,735.5 949.1,735.5 950.8,732.3 949.2,720.8 	"/>
	<polygon class="st0" points="950.9,717.5 949.1,706 915.2,706 916.4,713.8 920,720.8 949.2,720.8 	"/>
	<polygon class="st0" points="1343.2,733.1 1336.6,735.3 1339.9,746.5 1354.1,747.4 1357.3,744.2 1357,742.9 	"/>
	<polygon class="st0" points="1339.9,746.5 1315.2,799.1 1315.2,800 1341,800 1354.1,747.4 	"/>
	<polygon class="st0" points="1332.4,733.7 1310.5,760.2 1310.5,763.2 1315.2,799.1 1339.9,746.5 1336.6,735.3 	"/>
	<polygon class="st0" points="1278.8,615.1 1237.8,629.5 1239.1,639.3 1242.7,643.4 1281.5,629.8 	"/>
	<polygon class="st0" points="1234.1,625.4 1213.4,632.4 1212,635.2 1212.9,648.1 1239.1,639.3 1237.8,629.5 	"/>
	<polygon class="st0" points="1099.3,725.3 1068.7,725.3 1068.2,726.2 1066.3,740 1098.4,740 1099.3,739.5 1100.7,727.8 	"/>
	<polygon class="st0" points="1393.2,623 1382.7,659.8 1385.3,662.2 1397.1,663.7 1405.7,633.3 	"/>
	<polygon class="st0" points="1397.1,663.7 1385.3,662.2 1374.1,704.1 1375.8,704.7 1385.6,706.1 1386.7,706 1399.5,666.1 	"/>
	<polygon class="st0" points="1382.7,659.8 1371,658.3 1360.4,697.9 1361.3,699.4 1362.1,700.2 1364.8,701.9 1368.6,703.3 
		1374.1,704.1 1385.3,662.2 	"/>
	<polygon class="st0" points="772.5,466.8 773,466.7 795.5,455.1 814.9,372.3 790.3,275.3 780.9,267.9 615.4,425.7 616.6,428.1 
		701.3,483.6 	"/>
	<polygon class="st0" points="795.5,455.1 860.8,493.7 866.3,493.9 949.9,435.9 959.6,381.8 950.6,377.8 814.9,372.3 	"/>
	<polygon class="st0" points="806,572.2 820.7,580.4 838.8,582.7 842.9,577.3 849,563.6 858,521.3 860.8,493.7 795.5,455.1 
		773,466.7 790.6,539.7 	"/>
	<polygon class="st0" points="698.3,658.3 792.6,593.6 788.5,583.7 785.2,581.6 783.9,581.6 680.2,652.7 679.9,658.3 692.9,658.5 	
		"/>
	<polygon class="st0" points="772.5,573.1 679.9,628.3 680.2,652.7 783.9,581.6 	"/>
	<polygon class="st0" points="773,466.7 772.5,466.8 772.5,573.1 783.9,581.6 785.2,581.6 790.6,539.7 	"/>
	<polygon class="st0" points="950.8,613.8 959.5,613.8 967.5,594.5 959,588.3 956.6,588.5 949.2,602 	"/>
	<polygon class="st0" points="955,587.3 956.6,588.5 959,588.3 965,580.9 966.8,528.2 951,530.5 951,579.4 	"/>
	<polygon class="st0" points="967.5,594.5 968.7,595.2 1015.5,579.3 1017.9,562.9 965,580.9 959,588.3 	"/>
	<polygon class="st0" points="1027.7,738.6 1021.6,738.2 998.6,800 1030.5,800 1030.5,743.1 	"/>
	<polygon class="st0" points="1035.1,729.4 1022.1,717.9 1013.6,720.8 1012.9,724 1019.8,737.2 1021.6,738.2 1027.7,738.6 
		1035,730.7 	"/>
	<polygon class="st0" points="1027.7,738.6 1030.5,743.1 1063.9,754.4 1065.9,741 1035,730.7 	"/>
	<polygon class="st0" points="1405.7,633.3 1411.3,635.3 1432.4,612.6 1428.4,606 1391.4,620.6 1393.2,623 	"/>
	<polygon class="st0" points="1391.4,620.6 1428.4,606 1428.6,602.9 1422.8,592.9 1417.1,590.6 1390.7,620.1 	"/>
	<polygon class="st0" points="1379.9,617.3 1368.9,656.3 1371,658.3 1382.7,659.8 1393.2,623 1391.4,620.6 1390.7,620.1 
		1388.1,618.8 1381.1,617.3 	"/>
	<polygon class="st0" points="799.2,715.5 790.8,727 790.8,727.7 837.7,758.5 838.4,752.2 837.6,740.7 	"/>
	<polygon class="st0" points="750.5,658.4 809,618.2 805.1,608.3 800.9,605.8 724.3,658.3 745,658.9 	"/>
	<polygon class="st0" points="724.3,658.3 800.9,605.8 796.7,596.1 792.6,593.6 698.3,658.3 718.9,658.7 	"/>
	<polygon class="st0" points="838.5,586.5 838.8,582.7 820.7,580.4 796.7,596.1 800.9,605.8 805.1,608.3 	"/>
	<polygon class="st0" points="790.8,727.7 782.6,739.3 782.6,739.7 837.7,776 838.3,770 837.7,758.5 	"/>
	<polygon class="st0" points="692.9,658.5 679.9,658.3 675.3,664.3 782.6,739.3 790.8,727.7 790.8,727 	"/>
	<polygon class="st0" points="797.5,659.4 776.7,658.3 771.2,659.1 815.9,690.3 824.1,678.6 824,677.9 	"/>
	<polygon class="st0" points="804,657.6 797.5,659.4 824,677.9 830.6,669 821.6,660.3 	"/>
	<polygon class="st0" points="804,657.6 825.5,642.9 821.6,633 817.4,630.5 776.7,658.3 797.5,659.4 	"/>
	<polygon class="st0" points="978.6,704.3 980.2,717.5 981.1,719 1008.2,709.8 1008.9,706.8 1003.4,695.8 	"/>
	<polygon class="st0" points="1024.9,685.7 1004.1,692.8 1003.4,695.8 1008.9,706.8 1024.2,701.5 1027,695.3 	"/>
	<polygon class="st0" points="1024.2,701.5 1008.9,706.8 1008.2,709.8 1013.6,720.8 1022.1,717.9 1028.2,711.3 	"/>
	<polygon class="st0" points="1338.9,548.4 1360.3,558.7 1376.2,555.4 1394.2,539 1424,493.5 1368.2,493 1329.3,539.8 	"/>
	<polygon class="st0" points="1368.8,578.7 1376.4,575.9 1376.2,555.4 1360.3,558.7 1363.1,576.8 	"/>
	<polygon class="st0" points="1384.8,578.7 1389.7,576.9 1394.2,539 1376.2,555.4 1376.4,575.9 	"/>
	<polygon class="st0" points="925.8,568 925.8,529.4 900.5,517 900.5,575 925.2,569.8 	"/>
	<polygon class="st0" points="923.2,587.3 925.2,569.8 900.5,575 899.1,578.6 919.7,593 	"/>
	<polygon class="st0" points="951,579.4 925.8,568 925.2,569.8 923.2,587.3 955,587.3 	"/>
	<polygon class="st0" points="904.2,672.8 868,693.5 865,695.6 865.3,698.9 873.4,707.8 907.2,684.1 905.7,676.3 	"/>
	<polygon class="st0" points="907.2,684.1 873.4,707.8 873.8,711.1 881.6,720.1 911.8,698.9 910.4,691 	"/>
	<polygon class="st0" points="949.2,676.3 905.7,676.3 907.2,684.1 910.4,691 949.1,691 950.8,687.8 	"/>
	<polygon class="st0" points="1148.7,594.3 1151.2,583.1 1151.3,579.5 1103.4,579.5 1095.3,585.5 1100.4,594.3 	"/>
	<polygon class="st0" points="1077.6,602.8 1078.1,604.3 1086.2,607 1099.6,607 1100.4,594.3 1095.3,585.5 1091.3,584.2 1091,584.3 
		1083.2,589.1 	"/>
	<polygon class="st0" points="1146.1,612.9 1143.5,624 1143.5,627.6 1183.7,642 1184.8,641.1 1188.8,628.1 	"/>
	<polygon class="st0" points="1148.6,598.1 1146.1,609 1146.1,612.9 1188.8,628.1 1189.9,627.2 1193.7,614.2 	"/>
	<polygon class="st0" points="1471.6,582.1 1470.9,606.9 1474,620.6 1483.6,651.7 1498.5,663.6 1544.9,691.7 1684.4,763 
		1691.5,766.3 1504.6,470.1 1481,539.9 	"/>
	<polygon class="st0" points="1471.6,582.1 1481,539.9 1422.8,592.9 1428.6,602.9 	"/>
	<polygon class="st0" points="1428.4,606 1432.4,612.6 1433.8,613.5 1470.9,606.9 1471.6,582.1 1428.6,602.9 	"/>
	<polygon class="st0" points="879.1,600.8 887.3,588.6 849,563.6 842.9,577.3 879,600.9 	"/>
	<polygon class="st0" points="887.4,588.5 892.1,581.4 858,521.3 849,563.6 887.3,588.6 	"/>
	<polygon class="st0" points="913.6,617 915.2,607.9 887.4,588.5 887.3,588.6 879.1,600.8 910.6,622.7 	"/>
	<polygon class="st0" points="911.8,698.9 881.6,720.1 882,723.5 890,732.3 916.4,713.8 915.2,706 	"/>
	<polygon class="st0" points="920,720.8 916.4,713.8 890,732.3 890.4,735.7 894.6,740.5 901.4,742.4 920.9,728.7 	"/>
	<polygon class="st0" points="1076.6,676.3 1071.5,680.3 1068.3,695 1072.1,703.8 1084.8,695.5 1083.8,680.8 	"/>
	<polygon class="st0" points="1091.3,680.8 1083.8,680.8 1084.8,695.5 1099.3,695.5 1100.7,683.3 	"/>
	<polygon class="st0" points="1078.6,666 1077.9,666.8 1076.6,676.3 1083.8,680.8 1091.3,680.8 1090.6,666 	"/>
	<polygon class="st0" points="1254,685 1239.5,689.3 1239.5,702.2 1256.9,696.1 1257.7,691.6 1255.6,686.2 	"/>
	<polygon class="st0" points="1239.5,702.2 1239.5,689.3 1234.8,687.2 1224.5,689 1224.5,728.8 1237.7,712.2 	"/>
	<polygon class="st0" points="1237.7,712.2 1256.6,705.6 1256.9,696.1 1239.5,702.2 	"/>
	<polygon class="st0" points="1083.2,589.1 1091,584.3 1027.9,528.3 1027.6,532.3 1059.6,581.2 	"/>
	<polygon class="st0" points="1091,584.3 1091.3,584.2 1091.3,475.8 1027.8,514.3 1027.9,528.3 	"/>
	<polygon class="st0" points="606.8,417.3 678.7,218.1 639,209.8 552.3,228.5 498.4,269.8 497.9,351.7 	"/>
	<polygon class="st0" points="616.6,428.1 615.4,425.7 606.8,417.3 497.9,351.7 342.2,473.6 369.8,558 483.4,579.6 549.7,532.6 	"/>
	<polygon class="st0" points="950.6,377.8 893.5,256 790.3,275.3 814.9,372.3 	"/>
	<polygon class="st0" points="950.6,377.8 959.6,381.8 1084.8,325.6 1065.8,206.8 1016.2,185.6 893.5,256 	"/>
	<polygon class="st0" points="837.7,622.4 840,610.8 838.4,604.3 813.2,620.7 817.4,630.5 821.6,633 	"/>
	<polygon class="st0" points="841.3,629.4 837.7,622.4 821.6,633 825.5,642.9 831.9,646.6 	"/>
	<polygon class="st0" points="1574.4,423.9 1548.6,426.9 1513.6,439.7 1503.7,466.9 1504.6,470.1 1691.5,766.3 1727.5,800 
		1930.4,800 1930.4,690.4 	"/>
	<polygon class="st0" points="1684.4,763 1438.3,710.9 1433.6,720.7 1433.7,721.5 1578.9,800 1727.5,800 1691.5,766.3 	"/>
	<polygon class="st0" points="1247.6,657.6 1248.7,667.5 1252.3,671.7 1291.4,657.9 1291.4,657.6 1285.2,644.4 	"/>
	<polygon class="st0" points="1252.3,671.7 1254,685 1255.6,686.2 1291.8,673.4 1295.3,666.3 1291.4,657.9 	"/>
	<polygon class="st0" points="1252.3,671.7 1248.7,667.5 1234.8,672.2 1234.8,687.2 1239.5,689.3 1254,685 	"/>
	<polygon class="st0" points="949.1,617 950.8,613.8 949.2,602 918.4,602 915.2,607.9 913.6,617 	"/>
	<polygon class="st0" points="956.6,588.5 955,587.3 923.2,587.3 919.7,593 918.4,602 949.2,602 	"/>
	<polygon class="st0" points="1026.3,648.4 1025.2,654.4 1026.4,664 1054.2,673.3 1059.1,660.5 1058.7,659.2 	"/>
	<polygon class="st0" points="1026.3,648.4 1058.7,659.2 1063.9,646.6 1063.4,645 1026.2,632.6 1025.2,638.7 	"/>
	<polygon class="st0" points="1063.9,646.6 1058.7,659.2 1059.1,660.5 1077.9,666.8 1078.6,666 1080.1,652 	"/>
	<polygon class="st0" points="1171.5,687 1163.5,697.8 1163.3,705.2 1185.8,713.1 1178.2,689.3 	"/>
	<polygon class="st0" points="1133.4,687 1130.5,698 1130.9,701.8 1158.5,711.7 1163.3,705.2 1163.5,697.8 	"/>
	<polygon class="st0" points="1135.9,672.2 1133.1,683.3 1133.4,687 1163.5,697.8 1171.5,687 1170.7,684.7 	"/>
	<polygon class="st0" points="1194.8,613.2 1193.7,614.2 1189.9,627.2 1212,635.2 1213.4,632.4 1211.9,619.4 	"/>
	<polygon class="st0" points="1189.9,627.2 1188.8,628.1 1184.8,641.1 1212,650.9 1212.9,648.1 1212,635.2 	"/>
	<polygon class="st0" points="1365.1,615.6 1352.1,581.7 1351,581.4 1339.7,586.1 1336.5,591.8 1362.2,615.7 	"/>
	<polygon class="st0" points="1351,581.4 1338.9,548.4 1329.3,539.8 1313.8,545.5 1339.7,586.1 	"/>
	<polygon class="st0" points="1352.1,581.7 1363.1,576.8 1360.3,558.7 1338.9,548.4 1351,581.4 	"/>
	<polygon class="st0" points="856.8,683.2 857.1,686.6 865,695.6 868,693.5 872.8,672 	"/>
	<polygon class="st0" points="857.1,686.6 839.3,698.3 837.1,704.9 838.7,716.4 865.3,698.9 865,695.6 	"/>
	<polygon class="st0" points="1016.2,594.7 1020.1,609 1025.7,619.8 1031.6,618.8 1052.2,610.1 1061.6,597.4 1059.6,581.2 
		1027.6,532.3 1017.9,562.9 1015.5,579.3 	"/>
	<polygon class="st0" points="1073.3,618.5 1072.8,617 1052.2,610.1 1031.6,618.8 1068.2,631 	"/>
	<polygon class="st0" points="1078.1,604.3 1077.6,602.8 1061.6,597.4 1052.2,610.1 1072.8,617 	"/>
	<polygon class="st0" points="1333.3,678.4 1313.9,671 1309.9,670.8 1314.3,702.4 1319.3,705.8 1333.6,678.7 	"/>
	<polygon class="st0" points="1333.6,678.7 1319.3,705.8 1320.5,708 1361.3,699.4 1360.4,697.9 1348.3,686 	"/>
	<polygon class="st0" points="1344,650.1 1333.3,678.4 1333.6,678.7 1348.3,686 1356.8,654.2 1354.4,651.8 	"/>
	<polygon class="st0" points="925.8,529.4 951,530.5 966.8,528.2 1018.3,511.9 949.9,435.9 866.3,493.9 900.5,517 	"/>
	<polygon class="st0" points="965,580.9 1017.9,562.9 1027.6,532.3 1027.9,528.3 1027.8,514.3 1018.3,511.9 966.8,528.2 	"/>
	<polygon class="st0" points="1356.8,654.2 1348.3,686 1360.4,697.9 1371,658.3 1368.9,656.3 	"/>
	<polygon class="st0" points="483.4,579.6 369.8,558 277.9,800 598.5,800 616,726.7 	"/>
	<polygon class="st0" points="68,480.7 68,800 69.7,800 123.6,509.4 	"/>
	<polygon class="st0" points="890.4,735.7 838.3,770 837.7,776 838.8,800 874.2,800 894.6,740.5 	"/>
	<polygon class="st0" points="882,723.5 838.4,752.2 837.7,758.5 838.3,770 890.4,735.7 890,732.3 	"/>
	<polygon class="st0" points="1242.7,643.4 1239.1,639.3 1212.9,648.1 1212,650.9 1212.3,657.4 1219.1,661.6 1243.8,653.3 	"/>
	<polygon class="st0" points="1401.5,581.1 1388.1,618.8 1390.7,620.1 1417.1,590.6 1413.9,585.2 1402.3,580.9 	"/>
	<polygon class="st0" points="1384.8,578.7 1381.1,617.3 1388.1,618.8 1401.5,581.1 1389.7,576.9 	"/>
	<polygon class="st0" points="1438.1,699.7 1436.9,702.6 1438.3,710.9 1684.4,763 1544.9,691.7 	"/>
	<polygon class="st0" points="1404.8,703.9 1397.6,706.7 1397.9,707 1433.6,720.7 1438.3,710.9 1436.9,702.6 	"/>
	<polygon class="st0" points="1429.9,682.9 1404.8,703.9 1436.9,702.6 1438.1,699.7 1436.2,689.2 	"/>
	<polygon class="st0" points="865.3,698.9 838.7,716.4 837.5,722.9 838.5,734.4 873.8,711.1 873.4,707.8 	"/>
	<polygon class="st0" points="839.6,592.8 870.7,613.1 870.9,613.1 879,600.9 842.9,577.3 838.8,582.7 838.5,586.5 	"/>
	<polygon class="st0" points="1019.8,737.2 985.4,749 985.3,749.8 989.3,800 998.6,800 1021.6,738.2 	"/>
	<polygon class="st0" points="1336.5,591.8 1339.7,586.1 1313.8,545.5 1281.8,551.1 1331.3,594.3 	"/>
	<polygon class="st0" points="915.2,607.9 918.4,602 919.7,593 899.1,578.6 892.1,581.4 887.4,588.5 	"/>
	<polygon class="st0" points="1297.3,721.4 1295.3,719.2 1271.3,727.7 1271,731.9 1275.4,740 1277.3,741.2 1299.9,733.3 	"/>
	<polygon class="st0" points="1277.3,741.2 1275.4,740 1212.3,792.2 1211.7,800 1277.8,800 1277.8,742.4 	"/>
	<polygon class="st0" points="1212.1,752.6 1211.9,753.7 1212.3,792.2 1275.4,740 1271,731.9 	"/>
	<polygon class="st0" points="1327.6,636.7 1291.4,657.6 1291.4,657.9 1295.3,666.3 1309.9,670.8 1313.9,671 1334.6,643.7 	"/>
	<polygon class="st0" points="1325,626.9 1283.1,633.4 1285.2,644.4 1291.4,657.6 1327.6,636.7 1325.6,627.5 	"/>
	<polygon class="st0" points="873.8,711.1 838.5,734.4 837.6,740.7 838.4,752.2 882,723.5 881.6,720.1 	"/>
	<polygon class="st0" points="1268.4,713 1266.3,714.9 1266.1,717.9 1271.3,727.7 1295.3,719.2 1291.9,704.8 	"/>
	<polygon class="st0" points="1222.4,733.3 1212,747.1 1212.1,752.6 1271,731.9 1271.3,727.7 1266.1,717.9 	"/>
	<polygon class="st0" points="1372.9,745.9 1367.7,748 1362.8,800 1382.3,800 1381.5,748.8 	"/>
	<polygon class="st0" points="1357.3,744.2 1354.1,747.4 1341,800 1362.8,800 1367.7,748 	"/>
	<polygon class="st0" points="1374.1,704.1 1368.6,703.3 1357,742.9 1357.3,744.2 1367.7,748 1372.9,745.9 1375.8,704.7 	"/>
	<polygon class="st0" points="1421.4,735.5 1419.3,739.2 1452.2,800 1502.4,800 1428.1,732.4 	"/>
	<polygon class="st0" points="1407.9,744 1424.1,800 1452.2,800 1419.3,739.2 	"/>
	<polygon class="st0" points="1397.6,706.7 1396.6,706.6 1394.1,706.9 1405.3,743.3 1407.9,744 1419.3,739.2 1421.4,735.5 
		1397.9,707 	"/>
	<polygon class="st0" points="1229.2,611.2 1228.3,601.5 1224.9,597.7 1210.8,603.3 1214.5,616.2 	"/>
	<polygon class="st0" points="1199.8,599.3 1210.8,603.3 1224.9,597.7 1222.9,587.7 1218.3,583.5 1213.8,582 1207,583.6 
		1203.9,586.2 	"/>
	<polygon class="st0" points="1211.9,619.4 1214.5,616.2 1210.8,603.3 1199.8,599.3 1198.9,600.1 1194.8,613.2 	"/>
	<polygon class="st0" points="1026.7,679.7 1024.9,685.7 1027,695.3 1044.6,701.2 1049.8,688.9 1049.3,687.2 	"/>
	<polygon class="st0" points="1026.4,664 1025.1,670 1026.7,679.7 1049.3,687.2 1054.6,674.6 1054.2,673.3 	"/>
	<polygon class="st0" points="1054.6,674.6 1049.3,687.2 1049.8,688.9 1068.3,695 1071.5,680.3 	"/>
	<polygon class="st0" points="966.8,630 979.5,625.7 980.1,622.6 974.7,611.7 965.4,614.9 964,628.5 	"/>
	<polygon class="st0" points="965.4,614.9 974.7,611.7 975.4,608.5 968.7,595.2 967.5,594.5 959.5,613.8 	"/>
	<polygon class="st0" points="964,628.5 965.4,614.9 959.5,613.8 950.8,613.8 949.1,617 950.9,628.5 	"/>
	<polygon class="st0" points="1211.9,619.4 1213.4,632.4 1234.1,625.4 1233.1,615.5 1229.2,611.2 1214.5,616.2 	"/>
	<polygon class="st0" points="920.9,728.7 901.4,742.4 904.8,748.5 925.4,747.3 924.9,735.5 	"/>
	<polygon class="st0" points="925.4,747.3 904.8,748.5 904.8,800 928,800 928,755 	"/>
	<polygon class="st0" points="924.9,735.5 925.4,747.3 928,755 950.2,742.7 949.1,735.5 	"/>
	<polygon class="st0" points="1509,227.4 1438.6,338.3 1513.6,439.7 1548.6,426.9 1599.3,201.9 	"/>
	<polygon class="st0" points="1599.3,201.9 1681.7,151.9 1533.4,81.7 1337.7,60.5 1509,227.4 	"/>
	<polygon class="st0" points="1599.3,201.9 1548.6,426.9 1574.4,423.9 1930.4,207.5 1930.4,117.6 1681.7,151.9 	"/>
	<polygon class="st0" points="969.3,644.8 969.9,658 971.6,659.9 989.1,653.9 989.8,650.8 984.2,639.7 	"/>
	<polygon class="st0" points="967.4,643.3 950.8,643.3 949.1,646.5 950.9,658 969.9,658 969.3,644.8 	"/>
	<polygon class="st0" points="969.9,658 950.9,658 949.1,661.5 950.9,673 972.5,673 971.6,659.9 	"/>
	<polygon class="st0" points="1365,317.9 1321.7,412.5 1464.4,480.2 1479.5,475.8 1503.7,466.9 1513.6,439.7 1438.6,338.3 	"/>
	<polygon class="st0" points="1368.2,493 1424,493.5 1429.5,492.2 1464.4,480.2 1321.7,412.5 1303.7,444.3 	"/>
	<polygon class="st0" points="1402.3,580.9 1413.9,585.2 1479.5,475.8 1464.4,480.2 1429.5,492.2 	"/>
	<polygon class="st0" points="1429.5,681.1 1421.7,673.3 1414.5,672 1396.6,706.6 1397.6,706.7 1404.8,703.9 1429.9,682.9 	"/>
	<polygon class="st0" points="1421.4,735.5 1428.1,732.4 1433.7,721.5 1433.6,720.7 1397.9,707 	"/>
	<polygon class="st0" points="982.7,732.3 950.8,732.3 949.1,735.5 950.2,742.7 951.5,744.4 985.3,749.8 985.4,749 983.6,734 	"/>
	<polygon class="st0" points="950.2,742.7 928,755 928,800 951.5,800 951.5,744.4 	"/>
	<polygon class="st0" points="1257.7,691.6 1256.9,696.1 1256.6,705.6 1266.3,714.9 1268.4,713 1270.9,696.5 	"/>
	<polygon class="st0" points="776.7,658.3 817.4,630.5 813.2,620.7 809,618.2 750.5,658.4 771.2,659.1 	"/>
	<polygon class="st0" points="950.9,628.5 949.1,617 913.6,617 910.6,622.7 908.8,631.8 949.2,631.8 	"/>
	<polygon class="st0" points="967.4,643.3 969.3,644.8 984.2,639.7 984.9,636.5 979.5,625.7 966.8,630 	"/>
	<polygon class="st0" points="979.5,625.7 984.9,636.5 1025.3,622.8 1025.7,619.8 1020.1,609 980.1,622.6 	"/>
	<polygon class="st0" points="1099.3,651 1081.2,651 1080.1,652 1078.6,666 1090.6,666 1099.6,663.6 1100.7,653.5 	"/>
	<polygon class="st0" points="838.4,604.3 839.6,592.8 838.5,586.5 805.1,608.3 809,618.2 813.2,620.7 	"/>
	<polygon class="st0" points="1156.8,476.4 1213.8,485.9 1234,487.5 1277.6,452.9 1231.5,334.6 1109.4,355.4 1124,452.3 	"/>
	<polygon class="st0" points="1018.3,511.9 1027.8,514.3 1091.3,475.8 1123.7,452.5 1124,452.3 1109.4,355.4 1084.8,325.6 
		959.6,381.8 949.9,435.9 	"/>
	<polygon class="st0" points="1109.4,355.4 1231.5,334.6 1326.8,282.6 1280.7,57 1065.8,206.8 1084.8,325.6 	"/>
	<polygon class="st0" points="342.2,473.6 259.2,422.8 123.6,509.4 69.7,800 277.9,800 369.8,558 	"/>
	<polygon class="st0" points="1083.2,589.1 1059.6,581.2 1061.6,597.4 1077.6,602.8 	"/>
	<polygon class="st0" points="1145.3,745.9 1145.3,800 1209.2,800 1148.7,739.7 	"/>
	<polygon class="st0" points="1124.6,750 1120.9,800 1145.3,800 1145.3,745.9 	"/>
	<polygon class="st0" points="679.9,658.3 680.2,652.7 679.9,628.3 678.6,610.7 549.7,532.6 483.4,579.6 616,726.7 665.6,675.6 
		675.3,664.3 	"/>
	<polygon class="st0" points="767.3,746.7 665.6,675.6 616,726.7 598.5,800 755.3,800 767.1,750.6 	"/>
	<polygon class="st0" points="1178.2,689.3 1185.8,713.1 1195,721.8 1195,689 1191.5,687 	"/>
	<polygon class="st0" points="1100.7,683.3 1100.7,683.3 1099.3,695.5 1100.7,698 1130.5,698 1133.4,687 1133.1,683.3 	"/>
	<polygon class="st0" points="772.5,466.8 701.3,483.6 678.6,610.7 679.9,628.3 772.5,573.1 	"/>
	<polygon class="st0" points="1211.9,753.7 1153.4,733.1 1148.7,739.5 1148.7,739.7 1209.2,800 1211.7,800 1212.3,792.2 	"/>
	<polygon class="st0" points="1260.6,526.8 1281,551.2 1281.8,551.1 1313.8,545.5 1329.3,539.8 1368.2,493 1303.7,444.3 
		1277.6,452.9 1234,487.5 	"/>
	<polygon class="st0" points="1218.3,583.5 1260.6,526.8 1234,487.5 1213.8,485.9 1213.8,582 	"/>
	<polygon class="st0" points="1222.9,587.7 1277.9,568.4 1281,551.2 1260.6,526.8 1218.3,583.5 	"/>
	<polygon class="st0" points="1184.8,641.1 1183.7,642 1179.9,655 1202.4,663.2 1206.5,662.2 1212.3,657.4 1212,650.9 	"/>
	<polygon class="st0" points="1436.5,644.8 1437.5,645.5 1462.2,651.4 1483.6,651.7 1474,620.6 1436.5,621.8 	"/>
	<polygon class="st0" points="1429.5,681.1 1429.9,682.9 1436.2,689.2 1498.5,663.6 1483.6,651.7 1462.2,651.4 	"/>
	<polygon class="st0" points="908.8,631.8 910.6,622.7 879.1,600.8 879,600.9 870.9,613.1 906.1,637.6 	"/>
	<polygon class="st0" points="901.4,742.4 894.6,740.5 874.2,800 904.8,800 904.8,748.5 	"/>
	<polygon class="st0" points="892.1,581.4 899.1,578.6 900.5,575 900.5,517 866.3,493.9 860.8,493.7 858,521.3 	"/>
	<polygon class="st0" points="900.2,658.1 888.7,659.1 872.8,672 868,693.5 904.2,672.8 901.7,661.5 	"/>
	<polygon class="st0" points="863.6,660.1 847.6,671.2 848.5,674.2 856.8,683.2 872.8,672 888.7,659.1 883.8,658.2 	"/>
	<polygon class="st0" points="862.6,625.4 862.4,625.4 854.3,637.7 883.8,658.2 888.7,659.1 900.2,658.1 901.4,652.4 	"/>
	<polygon class="st0" points="1366.7,616 1372,615.7 1368.8,578.7 1363.1,576.8 1352.1,581.7 1365.1,615.6 	"/>
	<polygon class="st0" points="1135.7,668.5 1135.9,672.2 1170.7,684.7 1173.8,669.8 1138.5,657.2 	"/>
	<polygon class="st0" points="1173.8,669.8 1170.7,684.7 1171.5,687 1178.2,689.3 1191.5,687 1191.5,673.5 1174.8,668.8 	"/>
	<polygon class="st0" points="1016.2,594.7 1015.5,579.3 968.7,595.2 975.4,608.5 	"/>
	<polygon class="st0" points="1193.7,614.2 1194.8,613.2 1198.9,600.1 1151.2,583.1 1148.7,594.3 1148.6,598.1 	"/>
	<polygon class="st0" points="1198.9,600.1 1199.8,599.3 1203.9,586.2 1153.7,568.3 1151.3,579.5 1151.2,583.1 	"/>
	<polygon class="st0" points="983.6,734 985.4,749 1019.8,737.2 1012.9,724 	"/>
	<polygon class="st0" points="981.1,719 982.7,732.3 983.6,734 1012.9,724 1013.6,720.8 1008.2,709.8 	"/>
	<polygon class="st0" points="767.1,750.6 780.8,756.2 780.8,742.3 767.3,746.7 	"/>
	<polygon class="st0" points="675.3,664.3 665.6,675.6 767.3,746.7 780.8,742.3 782.6,739.7 782.6,739.3 	"/>
	<polygon class="st0" points="1099.3,695.5 1084.8,695.5 1072.1,703.8 1071.2,710.5 1099.3,710.5 1100.7,698 	"/>
	<polygon class="st0" points="1068.3,695 1049.8,688.9 1044.6,701.2 1045.1,702.9 1070.7,711.4 1071.2,710.5 1072.1,703.8 	"/>
	<polygon class="st0" points="1059.1,660.5 1054.2,673.3 1054.6,674.6 1071.5,680.3 1076.6,676.3 1077.9,666.8 	"/>
	<polygon class="st0" points="1429.5,681.1 1462.2,651.4 1437.5,645.5 1421.7,673.3 	"/>
	<polygon class="st0" points="1122.5,742.5 1103.6,742.5 1113.2,800 1120.9,800 1124.6,750 	"/>
	<polygon class="st0" points="1122.5,742.5 1124.6,750 1145.3,745.9 1148.7,739.7 1148.7,739.5 1126,731.4 	"/>
	<polygon class="st0" points="841.3,629.4 854.1,637.7 854.3,637.7 862.4,625.4 840,610.8 837.7,622.4 	"/>
	<polygon class="st0" points="840,610.8 862.4,625.4 862.6,625.4 870.7,613.1 839.6,592.8 838.4,604.3 	"/>
	<polygon class="st0" points="820.7,580.4 806,572.2 788.5,583.7 792.6,593.6 796.7,596.1 	"/>
	<polygon class="st0" points="1095.3,585.5 1103.4,579.5 1123.7,452.5 1091.3,475.8 1091.3,584.2 	"/>
	<polygon class="st0" points="1099.3,636.3 1100.7,624 1099.3,621.5 1087,621.5 1084.6,622.3 1083.8,636.3 	"/>
	<polygon class="st0" points="1027,695.3 1024.2,701.5 1028.2,711.3 1039.9,715.2 1045.1,702.9 1044.6,701.2 	"/>
	<polygon class="st0" points="790.6,539.7 785.2,581.6 788.5,583.7 806,572.2 	"/>
	<polygon class="st0" points="744.8,215.5 678.7,218.1 606.8,417.3 615.4,425.7 780.9,267.9 	"/>
	<polygon class="st0" points="1930.4,690.4 1930.4,207.5 1574.4,423.9 	"/>
	<polygon class="st0" points="1365,317.9 1438.6,338.3 1509,227.4 1337.7,60.5 1288.9,39.6 1280.7,57 1326.8,282.6 	"/>
	<polygon class="st0" points="1337.7,60.5 1533.4,81.7 1540.5,20 1287.4,20 1288.9,39.6 	"/>
	<polygon class="st0" points="848.5,674.2 836.2,686.5 839.3,698.3 857.1,686.6 856.8,683.2 	"/>
	<polygon class="st0" points="824.1,678.6 815.9,690.3 815.9,690.9 837.1,704.9 839.3,698.3 836.2,686.5 	"/>
	<polygon class="st0" points="1099.3,710.5 1071.2,710.5 1070.7,711.4 1068.7,725.3 1099.3,725.3 1100.7,713 	"/>
	<polygon class="st0" points="1099.3,651 1100.7,653.5 1138.4,653.5 1141,642.4 1141,638.8 1100.7,638.8 	"/>
	<polygon class="st0" points="1099.6,663.6 1102.9,668.5 1135.7,668.5 1138.5,657.2 1138.4,653.5 1100.7,653.5 	"/>
	<polygon class="st0" points="1138.4,653.5 1138.5,657.2 1173.8,669.8 1174.8,668.8 1178.8,655.9 1141,642.4 	"/>
	<polygon class="st0" points="1283.1,633.4 1281.5,629.8 1242.7,643.4 1243.8,653.3 1247.6,657.6 1285.2,644.4 	"/>
	<polygon class="st0" points="1224.5,728.8 1224.5,689 1221.3,687.1 1209.8,688.9 1209.8,743.4 1212,747.1 1222.4,733.3 	"/>
	<polygon class="st0" points="1206.5,687 1195,689 1195,721.8 1202,734.5 1209.8,743.4 1209.8,688.9 	"/>
	<polygon class="st0" points="1219.1,661.6 1212.3,657.4 1206.5,662.2 1206.5,687 1209.8,688.9 1221.3,687.1 1221.3,664.9 	"/>
	<polygon class="st0" points="1099.3,739.5 1098.4,740 1071.4,800 1113.2,800 1103.6,742.5 	"/>
	<polygon class="st0" points="1438.1,699.7 1544.9,691.7 1498.5,663.6 1436.2,689.2 	"/>
	<polygon class="st0" points="1100.7,698 1099.3,710.5 1100.7,713 1127.8,713 1130.9,701.8 1130.5,698 	"/>
	<polygon class="st0" points="1100.7,713 1099.3,725.3 1100.7,727.8 1125.3,727.8 1128.4,716.6 1127.8,713 	"/>
	<polygon class="st0" points="1229.2,611.2 1233.1,615.5 1277.1,600 1277.5,584.6 1277.5,584.2 1228.3,601.5 	"/>
	<polygon class="st0" points="1319.8,714.6 1325.7,724.3 1327.2,725 1362.1,700.2 1361.3,699.4 1320.5,708 	"/>
	<polygon class="st0" points="1413.9,585.2 1417.1,590.6 1422.8,592.9 1481,539.9 1504.6,470.1 1503.7,466.9 1479.5,475.8 	"/>
	<polygon class="st0" points="782.6,739.7 780.8,742.3 780.8,756.2 786.6,800 838.8,800 837.7,776 	"/>
	<polygon class="st0" points="973.8,674.7 975.2,687.8 976.3,689.4 998.6,681.8 999.3,678.8 993.9,667.8 	"/>
	<polygon class="st0" points="971.6,659.9 972.5,673 973.8,674.7 993.9,667.8 994.5,664.8 989.1,653.9 	"/>
	<polygon class="st0" points="1025.2,654.4 994.5,664.8 993.9,667.8 999.3,678.8 1025.1,670 1026.4,664 	"/>
	<polygon class="st0" points="1375.8,704.7 1372.9,745.9 1381.5,748.8 1388.8,745.6 1385.6,706.1 	"/>
	<polygon class="st0" points="1386.7,706 1385.6,706.1 1388.8,745.6 1395.1,747.7 1405.3,743.3 1394.1,706.9 	"/>
	<polygon class="st0" points="1389.7,576.9 1401.5,581.1 1402.3,580.9 1429.5,492.2 1424,493.5 1394.2,539 	"/>
	<polygon class="st0" points="974.7,611.7 980.1,622.6 1020.1,609 1016.2,594.7 975.4,608.5 	"/>
	<polygon class="st0" points="1343.2,733.1 1357,742.9 1368.6,703.3 1364.8,701.9 	"/>
	<polygon class="st0" points="614.8,94.3 770.6,123.5 791.5,20 629.6,20 608.4,80.3 	"/>
	<polygon class="st0" points="1016.2,185.6 1065.8,206.8 1280.7,57 1288.9,39.6 1287.4,20 933.9,20 1013.8,182.3 	"/>
	<polygon class="st0" points="768.7,141.4 1013.8,182.3 933.9,20 791.5,20 770.6,123.5 	"/>
	<polygon class="st0" points="832.2,646.9 821.6,660.3 830.6,669 839.5,664.7 839.7,652.2 	"/>
	<polygon class="st0" points="832.2,646.9 831.9,646.6 825.5,642.9 804,657.6 821.6,660.3 	"/>
	<polygon class="st0" points="1257.7,691.6 1270.9,696.5 1288.9,690.2 1291.8,673.4 1255.6,686.2 	"/>
	<polygon class="st0" points="1405.3,743.3 1395.1,747.7 1401.8,800 1424.1,800 1407.9,744 	"/>
	<polygon class="st0" points="1388.8,745.6 1381.5,748.8 1382.3,800 1401.8,800 1395.1,747.7 	"/>
	<polygon class="st0" points="839.7,652.2 839.5,664.7 847.6,671.2 863.6,660.1 847,648.5 	"/>
	<polygon class="st0" points="839.5,664.7 830.6,669 824,677.9 824.1,678.6 836.2,686.5 848.5,674.2 847.6,671.2 	"/>
	<polygon class="st0" points="1681.7,151.9 1930.4,117.6 1930.4,20 1540.5,20 1533.4,81.7 	"/>
	<polygon class="st0" points="1151.3,579.5 1153.7,568.3 1157.1,490.7 1156.8,476.4 1124,452.3 1123.7,452.5 1103.4,579.5 	"/>
	<polygon class="st0" points="1207,583.6 1157.1,490.7 1153.7,568.3 1203.9,586.2 	"/>
	<polygon class="st0" points="1207,583.6 1213.8,582 1213.8,485.9 1156.8,476.4 1157.1,490.7 	"/>
	<polygon class="st0" points="951,579.4 951,530.5 925.8,529.4 925.8,568 	"/>
	<polygon class="st0" points="1368.8,578.7 1372,615.7 1379.9,617.3 1381.1,617.3 1384.8,578.7 1376.4,575.9 	"/>
	<polygon class="st0" points="1310.5,763.2 1277.8,742.4 1277.8,800 1315.2,800 1315.2,799.1 	"/>
	<polygon class="st0" points="1141,638.8 1141,642.4 1178.8,655.9 1179.9,655 1183.7,642 1143.5,627.6 	"/>
	<polygon class="st0" points="1178.8,655.9 1174.8,668.8 1191.5,673.5 1202.4,663.2 1179.9,655 	"/>
	<polygon class="st0" points="815.9,690.9 807.4,702.5 807.4,703.1 837.5,722.9 838.7,716.4 837.1,704.9 	"/>
	<polygon class="st0" points="771.2,659.1 750.5,658.4 745,658.9 807.4,702.5 815.9,690.9 815.9,690.3 	"/>
	<polygon class="st0" points="1325.6,627.5 1358.1,616.9 1326.5,607.2 1322.7,615.3 1325,626.9 	"/>
	<polygon class="st0" points="1358.1,616.9 1325.6,627.5 1327.6,636.7 1334.6,643.7 1337.9,644.4 1358.6,616.9 	"/>
	<polygon class="st0" points="1102.9,668.5 1100.7,683.3 1133.1,683.3 1135.9,672.2 1135.7,668.5 	"/>
	<polygon class="st0" points="1304.5,738.6 1299.9,733.3 1277.3,741.2 1277.8,742.4 1310.5,763.2 1310.5,760.2 	"/>
	<polygon class="st0" points="1325.7,724.3 1304.5,738.6 1310.5,760.2 1332.4,733.7 1327.2,725 	"/>
	<polygon class="st0" points="1319.8,714.6 1297.3,721.4 1299.9,733.3 1304.5,738.6 1325.7,724.3 	"/>
	<polygon class="st0" points="1337.9,644.4 1334.6,643.7 1313.9,671 1333.3,678.4 1344,650.1 	"/>
	<polygon class="st0" points="1025.2,638.7 989.8,650.8 989.1,653.9 994.5,664.8 1025.2,654.4 1026.3,648.4 	"/>
	<polygon class="st0" points="1410.6,668.2 1414.5,672 1421.7,673.3 1437.5,645.5 1436.5,644.8 1419.3,640.8 	"/>
	<polygon class="st0" points="1247.6,657.6 1243.8,653.3 1219.1,661.6 1221.3,664.9 1234.8,672.2 1248.7,667.5 	"/>
	<polygon class="st0" points="1410.6,668.2 1399.5,666.1 1386.7,706 1394.1,706.9 1396.6,706.6 1414.5,672 	"/>
	<polygon class="st0" points="1030.5,743.1 1030.5,800 1067.9,800 1063.9,754.4 	"/>
	<polygon class="st0" points="780.9,267.9 790.3,275.3 893.5,256 1016.2,185.6 1013.8,182.3 768.7,141.4 744.8,215.5 	"/>
	<polygon class="st0" points="678.7,218.1 744.8,215.5 768.7,141.4 770.6,123.5 614.8,94.3 639,209.8 	"/>
	<polygon class="st0" points="616.6,428.1 549.7,532.6 678.6,610.7 701.3,483.6 	"/>
	<polygon class="st0" points="1099.3,636.3 1100.7,638.8 1141,638.8 1143.5,627.6 1143.5,624 1100.7,624 	"/>
	<polygon class="st0" points="1362.2,615.7 1358.6,616.9 1337.9,644.4 1344,650.1 1354.4,651.8 1366.7,616 1365.1,615.6 	"/>
	<polygon class="st0" points="1026.2,632.6 1063.4,645 1068.6,632.5 1068.2,631 1031.6,618.8 1025.7,619.8 1025.3,622.8 	"/>
	<polygon class="st0" points="1411.3,635.3 1405.7,633.3 1397.1,663.7 1399.5,666.1 1410.6,668.2 1419.3,640.8 	"/>
	<polygon class="st0" points="1362.1,700.2 1327.2,725 1332.4,733.7 1336.6,735.3 1343.2,733.1 1364.8,701.9 	"/>
	<polygon class="st0" points="1366.7,616 1354.4,651.8 1356.8,654.2 1368.9,656.3 1379.9,617.3 1372,615.7 	"/>
	<polygon class="st0" points="1277.5,584.2 1277.5,584.6 1326.1,604.2 1331.3,594.3 1281.8,551.1 1281,551.2 1277.9,568.4 	"/>
	<polygon class="st0" points="1073.3,618.5 1084.6,622.3 1087,621.5 1086.2,607 1078.1,604.3 1072.8,617 	"/>
	<polygon class="st0" points="1419.3,640.8 1436.5,644.8 1436.5,621.8 1433.8,613.5 1432.4,612.6 1411.3,635.3 	"/>
	<polygon class="st0" points="1436.5,621.8 1474,620.6 1470.9,606.9 1433.8,613.5 	"/>
	<polygon class="st0" points="1237.7,712.2 1224.5,728.8 1222.4,733.3 1266.1,717.9 1266.3,714.9 1256.6,705.6 	"/>
	<polygon class="st0" points="1231.5,334.6 1277.6,452.9 1303.7,444.3 1321.7,412.5 1365,317.9 1326.8,282.6 	"/>
	<polygon class="st0" points="767.1,750.6 755.3,800 786.6,800 780.8,756.2 	"/>
	<polygon class="st0" points="1270.9,696.5 1268.4,713 1291.9,704.8 1292,704.4 1288.9,690.2 	"/>
	<polygon class="st0" points="951.5,744.4 951.5,800 989.3,800 985.3,749.8 	"/>
	<polygon class="st0" points="1358.1,616.9 1358.6,616.9 1362.2,615.7 1336.5,591.8 1331.3,594.3 1326.1,604.2 1326.5,607.2 	"/>
	<polygon class="st0" points="1228.3,601.5 1277.5,584.2 1277.9,568.4 1222.9,587.7 1224.9,597.7 	"/>
	<polygon class="st0" points="832.2,646.9 839.7,652.2 847,648.5 854.1,637.7 841.3,629.4 831.9,646.6 	"/>
	<polygon class="st0" points="1066.3,740 1065.9,741 1063.9,754.4 1067.9,800 1071.4,800 1098.4,740 	"/>
	<polygon class="st0" points="1202.4,663.2 1191.5,673.5 1191.5,687 1195,689 1206.5,687 1206.5,662.2 	"/>
	<polygon class="st0" points="498.4,269.8 552.3,228.5 533,104.2 414.5,20 368.8,20 304.5,127.9 	"/>
	<polygon class="st0" points="614.8,94.3 608.4,80.3 533,104.2 552.3,228.5 639,209.8 	"/>
	<polygon class="st0" points="1428.1,732.4 1502.4,800 1578.9,800 1433.7,721.5 	"/>
	<polygon class="st0" points="1125.3,727.8 1100.7,727.8 1099.3,739.5 1103.6,742.5 1122.5,742.5 1126,731.4 	"/>
	<polygon class="st0" points="1128.4,716.6 1125.3,727.8 1126,731.4 1148.7,739.5 1153.4,733.1 1153.7,725.6 	"/>
	<polygon class="st0" points="1295.3,666.3 1291.8,673.4 1288.9,690.2 1292,704.4 1314.3,702.4 1309.9,670.8 	"/>
	<polygon class="st0" points="966.8,630 964,628.5 950.9,628.5 949.2,631.8 950.8,643.3 967.4,643.3 	"/>
	<polygon class="st0" points="1025.1,670 999.3,678.8 998.6,681.8 1004.1,692.8 1024.9,685.7 1026.7,679.7 	"/>
	<polygon class="st0" points="1320.5,708 1319.3,705.8 1314.3,702.4 1292,704.4 1291.9,704.8 1295.3,719.2 1297.3,721.4 
		1319.8,714.6 	"/>
	<polygon class="st0" points="1099.6,663.6 1090.6,666 1091.3,680.8 1100.7,683.3 1100.7,683.3 1102.9,668.5 	"/>
	<polygon class="st0" points="847,648.5 863.6,660.1 883.8,658.2 854.3,637.7 854.1,637.7 	"/>
	<polygon class="st0" points="608.4,80.3 629.6,20 414.5,20 533,104.2 	"/>
	<polygon class="st0" points="989.8,650.8 1025.2,638.7 1026.2,632.6 1025.3,622.8 984.9,636.5 984.2,639.7 	"/>
	<polygon class="st0" points="949.1,661.5 901.7,661.5 904.2,672.8 905.7,676.3 949.2,676.3 950.9,673 	"/>
	<polygon class="st0" points="972.5,673 950.9,673 949.2,676.3 950.8,687.8 975.2,687.8 973.8,674.7 	"/>
	<polygon class="st0" points="976.3,689.4 977.6,702.5 978.6,704.3 1003.4,695.8 1004.1,692.8 998.6,681.8 	"/>
	<polygon class="st0" points="1234.8,672.2 1221.3,664.9 1221.3,687.1 1224.5,689 1234.8,687.2 	"/>
</g>
</svg>
