<?xml version="1.0" encoding="utf-8"?>
<!-- Generator: Adobe Illustrator 18.0.0, SVG Export Plug-In . SVG Version: 6.00 Build 0)  -->
<!DOCTYPE svg PUBLIC "-//W3C//DTD SVG 1.0//EN" "http://www.w3.org/TR/2001/REC-SVG-20010904/DTD/svg10.dtd">
<svg version="1.0" id="Layer_1" xmlns="http://www.w3.org/2000/svg" xmlns:xlink="http://www.w3.org/1999/xlink" x="0px" y="0px"
	 viewBox="0 0 850 1250" enable-background="new 0 0 850 1250" xml:space="preserve">
<g>
	<path fill="none" stroke="#000000" stroke-width="2" stroke-miterlimit="10" d="M563,616.7c14.3-14.3,30.7-27.3,42.8-41.9
		c22.4-27,32.1-61.8,32.5-89.9c0.4-25.7-6.2-58.6-21.2-77.5l-2.7-2.9c-13.7-21.7-37.9-41.5-65.6-52.6c-26.7-10.7-53.7-11.1-77-6.9
		c-35.8,6.4-62.2,28.5-91.3,56.8c-9.4,9.1-21.8,18.9-26.7,30.2c-10.7,24.8,8.2,56.4,39.2,53.7c5.1-0.5,12.3-3.2,16.6-5.8
		c19.9-12.1,31-34.9,54.1-50.3c17.2-11.4,42.7-15,68.4-0.5c1.9,1.1,4.9,3.5,5.3,4.2c1.2,2,6,4.7,7,5.8c18.3,19.1,26.9,53.9,4.6,83.3
		c-11.5,15.2-28,27.6-41.8,41.6c-41.5,41.8-85,82-125.2,122.5c-44.6,44.9-97.8,96.8-145.8,143.4c-8.5,8.2-16.9,14.8-20.6,22.6
		c-16.3,34.1,21.5,65.8,51.6,51.5c6.5-3.1,14.2-10.9,21.9-18.7c15.8-15.7,27.4-27.7,40.5-40.6c38.9-38.2,78.1-76.1,117.1-113.9
		S524.6,655,563,616.7z"/>
	<path fill="none" stroke="#000000" stroke-width="2" stroke-miterlimit="10" d="M314.5,384c-9.5,22.1,7.2,63.7,34.8,61.2
		c4.6-0.4,10.9,0,14.7-2.3c17.7-10.7,27.5-18.5,48.1-32.2c15.3-10.1,38-1.1,60.8,11.8c1.7,0.9,4.4,4.2,4.7,4.8
		c1,1.8,5.3,5.7,6.2,6.6c16.3,16.9,23.9,63.3,4.1,89.5c-10.2,13.5-24.9,34.8-37.2,47.3c-36.9,37.1-75.5,102.6-111.3,138.6
		c-39.7,39.9-86.9,120.6-129.6,162.1c-7.5,7.3-15,18.3-18.3,25.2c-14.5,30.3,32,58.5,58.8,45.8c5.8-2.8,16.5-9.7,23.5-16.6
		c14-14,32.2-24.6,43.9-36.1c34.6-34,91.9-67.6,126.5-101.3c34.7-33.6,116.5-67.3,150.6-101.4c12.7-12.7,27.3-93.7,38.1-106.7
		c19.9-24,28.5-91.8,28.9-116.7c0.4-22.8-5.5-83.3-18.9-100.1l-2.4-4c-12.2-19.3-58.2-36.9-82.9-46.7c-23.8-9.5-70.4-9.9-91.1-6.1
		c-31.8,5.7-89.8,25.3-115.6,50.5C342.6,365.3,318.9,374,314.5,384z"/>
	<path fill="none" stroke="#000000" stroke-width="2" stroke-miterlimit="10" d="M275.2,336c-8.3,19.3,6.3,71,30.5,68.8
		c4-0.4,9.5,3.3,12.9,1.3c15.5-9.4,24.1-2.1,42.1-14c13.4-8.9,33.2,12.7,53.2,24c1.5,0.8,3.8,4.9,4.1,5.4c0.9,1.5,4.6,6.7,5.4,7.5
		c14.2,14.8,20.9,72.8,3.6,95.7c-8.9,11.8-21.7,42-32.5,52.9c-32.3,32.5-66.1,123.2-97.4,154.7c-34.7,34.9-76,144.4-113.4,180.7
		c-6.6,6.4-13.1,21.8-16,27.8c-12.7,26.5,42.6,51.2,66,40c5.1-2.4,18.9-8.5,25-14.5c12.3-12.2,37-21.5,47.3-31.6
		c30.3-29.7,105.6-59.2,136-88.6c30.3-29.4,155-58.9,184.9-88.7c11.2-11.1,23.9-160.1,33.3-171.5c17.4-21,24.9-121.8,25.3-143.5
		c0.3-20-4.8-108-16.5-122.7l-2.1-5.1c-10.7-16.9-78.6-32.2-100.2-40.9c-20.8-8.3-87-8.6-105.2-5.4c-27.9,5-117.4,22.2-140,44.2
		C314.1,319.6,279,327.2,275.2,336z"/>
	<path fill="none" stroke="#000000" stroke-width="2" stroke-miterlimit="10" d="M235.9,288c-7.1,16.5,5.4,78.2,26.1,76.4
		c3.4-0.3,8.2,6.6,11.1,4.8c13.3-8.1,20.7,14.3,36.1,4.1c11.5-7.6,28.5,26.6,45.6,36.2c1.3,0.7,3.3,5.5,3.5,6c0.8,1.3,4,7.7,4.6,8.4
		c12.2,12.7,17.9,82.2,3.1,101.8c-7.6,10.1-18.6,49.3-27.9,58.6c-27.7,27.9-56.6,143.9-83.5,170.9c-29.8,29.9-65.2,168.3-97.2,199.4
		c-5.7,5.5-11.2,25.2-13.7,30.4c-10.9,22.7,53.1,43.9,73.2,34.3c4.3-2.1,21.3-7.3,26.5-12.5c10.5-10.5,41.8-18.4,50.6-27.1
		c26-25.5,119.4-50.7,145.4-75.9s193.6-50.5,219.2-76c9.6-9.5,20.5-226.5,28.5-236.3c14.9-18,21.4-151.7,21.7-170.4
		c0.3-17.1-4.2-132.7-14.2-145.2l-1.8-6.2c-9.1-14.5-99-27.6-117.5-35c-17.8-7.1-103.7-7.4-119.3-4.6c-23.9,4.3-144.9,19-164.3,37.9
		C285.7,274,239.2,280.5,235.9,288z"/>
	<path fill="none" stroke="#000000" stroke-width="2" stroke-miterlimit="10" d="M196.6,240c-6,13.8,4.5,85.5,21.8,84
		c2.9-0.3,6.8,9.8,9.2,8.4c11.1-6.7,17.2,30.7,30.1,22.2c9.5-6.3,23.7,40.4,38,48.5c1,0.6,2.7,6.2,2.9,6.6c0.6,1.1,3.3,8.6,3.9,9.2
		c10.2,10.6,14.9,91.6,2.6,108c-6.4,8.5-15.5,56.5-23.2,64.3c-23,23.2-47.2,164.5-69.6,187c-24.8,24.9-54.3,192.1-81,218
		c-4.7,4.6-9.4,28.7-11.4,33c-9,18.9,63.7,36.6,80.4,28.6c3.6-1.7,23.7-6.1,28-10.4c8.8-8.7,46.6-15.4,54-22.5
		c21.6-21.2,133.2-42.3,154.9-63.3s232.2-42.1,253.5-63.4c8-7.9,17-292.9,23.8-301.1c12.4-15,17.8-181.7,18.1-197.2
		c0.2-14.3-3.5-157.3-11.8-167.8l-1.5-7.3c-7.6-12.1-119.4-23-134.8-29.2c-14.9-5.9-120.4-6.2-133.3-3.8
		c-19.9,3.6-172.5,15.8-188.6,31.6C257.2,228.3,199.3,233.7,196.6,240z"/>
	<path fill="none" stroke="#000000" stroke-width="2" stroke-miterlimit="10" d="M157.3,192c-4.8,11,3.6,92.8,17.4,91.6
		c2.3-0.2,5.4,13.1,7.4,11.9c8.9-5.4,13.8,47.2,24.1,40.3c7.6-5.1,19,54.2,30.4,60.7c0.8,0.5,2.2,6.9,2.4,7.2
		c0.5,0.9,2.6,9.6,3.1,10.1c8.1,8.5,11.9,101.1,2.1,114.2c-5.1,6.8-12.4,63.7-18.6,69.9C207,616.4,187.7,783,169.7,801
		c-19.8,19.9-43.4,215.9-64.8,236.7c-3.8,3.7-7.5,32.1-9.1,35.6c-7.2,15.2,74.2,29.3,87.6,22.9c2.9-1.4,26.1-4.9,29.6-8.3
		c7-7,51.5-12.3,57.3-18c17.3-17,147-33.8,164.3-50.6c17.3-16.8,270.7-33.7,287.8-50.7c6.4-6.3,13.6-359.4,19-365.9
		c10-12,14.3-211.6,14.5-224.1c0.2-11.4-2.8-182-9.4-190.4l-1.2-8.4c-6.1-9.6-139.7-18.4-152.1-23.4c-11.9-4.7-137.1-4.9-147.4-3.1
		c-15.9,2.9-200,12.7-213,25.2C228.7,182.6,159.4,187,157.3,192z"/>
	<path fill="none" stroke="#000000" stroke-width="2" stroke-miterlimit="10" d="M117.9,144c-3.6,8.3,2.7,100,13.1,99.1
		c1.7-0.2,4.1,16.3,5.5,15.5c6.6-4,10.3,63.6,18,58.5c5.7-3.8,14.2,68.1,22.8,72.9c0.6,0.4,1.6,7.6,1.8,7.8c0.4,0.7,2,10.6,2.3,10.9
		c6.1,6.4,9,110.5,1.5,120.3c-3.8,5.1-9.3,70.9-13.9,75.6c-13.8,13.9-28.3,205.8-41.7,219.3c-14.9,15-32.6,239.8-48.6,255.3
		c-2.8,2.7-5.6,35.6-6.9,38.2c-5.4,11.4,84.8,21.9,94.8,17.2c2.2-1,28.5-3.6,31.1-6.2c5.3-5.2,56.3-9.2,60.7-13.5
		c13-12.7,160.8-25.4,173.8-38c13-12.6,309.3-25.2,322.1-38c4.8-4.8,10.2-425.8,14.3-430.6c7.5-9,10.7-241.6,10.8-250.9
		c0.1-8.6-2.1-206.7-7.1-213l-0.9-9.5c-4.6-7.2-160.1-13.8-169.4-17.5c-8.9-3.6-153.7-3.7-161.5-2.3c-11.9,2.1-227.6,9.5-237.3,18.9
		C200.2,137,119.6,140.2,117.9,144z"/>
	<path fill="none" stroke="#000000" stroke-width="2" stroke-miterlimit="10" d="M78.6,96c-2.4,5.5,1.8,107.3,8.7,106.7
		c1.1-0.1,2.7,19.6,3.7,19c4.4-2.7,6.9,80,12,76.6c3.8-2.5,9.5,81.9,15.2,85.2c0.4,0.2,1.1,8.2,1.2,8.4c0.3,0.4,1.3,11.6,1.5,11.8
		c4.1,4.2,6,119.9,1,126.5c-2.5,3.4-6.2,78.2-9.3,81.3c-9.2,9.3-18.9,226.5-27.8,235.5c-9.9,10-21.7,263.6-32.4,274
		c-1.9,1.8-3.7,39.1-4.6,40.8c-3.6,7.6,95.3,14.6,102,11.4c1.4-0.7,30.9-2.4,32.6-4.2c3.5-3.5,61.1-6.1,64-9
		c8.7-8.5,174.6-16.9,183.3-25.3c8.7-8.4,347.9-16.8,356.4-25.3c3.2-3.2,6.8-492.2,9.5-495.4c5-6,7.1-271.6,7.2-277.8
		c0.1-5.7-1.4-231.4-4.7-235.6l-0.6-10.6c-3-4.8-180.5-9.2-186.7-11.7c-5.9-2.4-170.4-2.5-175.6-1.5c-8,1.4-255.2,6.3-261.6,12.6
		C171.7,91.3,79.7,93.5,78.6,96z"/>
	<path fill="none" stroke="#000000" stroke-width="2" stroke-miterlimit="10" d="M39.3,48c-1.2,2.8,0.9,114.6,4.4,114.3
		c0.6-0.1,1.4,22.9,1.8,22.6c2.2-1.3,3.4,96.4,6,94.7c1.9-1.3,4.7,95.8,7.6,97.4c0.2,0.1,0.5,8.9,0.6,9c0.1,0.2,0.7,12.5,0.8,12.7
		c2,2.1,3,129.4,0.5,132.6c-1.3,1.7-3.1,85.4-4.6,86.9c-4.6,4.6-9.4,247.1-13.9,251.6c-5,5-10.9,287.5-16.2,292.6
		c-0.9,0.9-1.9,42.5-2.3,43.4c-1.8,3.8,105.9,7.3,109.2,5.7c0.7-0.3,33.3-1.2,34.1-2.1c1.8-1.7,65.9-3.1,67.4-4.5
		c4.3-4.2,188.4-8.5,192.7-12.7c4.3-4.2,386.4-8.4,390.7-12.7c1.6-1.6,3.4-558.6,4.8-560.2c2.5-3,3.6-301.5,3.6-304.6
		c0-2.9-0.7-256-2.4-258.1l-0.3-11.7c-1.5-2.4-200.9-4.6-203.9-5.8c-3-1.2-187.1-1.2-189.7-0.8c-4,0.7-282.7,3.2-285.9,6.3
		C143.2,45.7,39.9,46.7,39.3,48z"/>
	<polygon fill="none" stroke="#000000" stroke-width="2" stroke-miterlimit="10" points="0,1250 425,1250 850,1250 850,625 850,0 
		425,0 0,0 0,625 	"/>
</g>
</svg>
