<?xml version="1.0" encoding="utf-8"?>
<!-- Generator: Adobe Illustrator 18.0.0, SVG Export Plug-In . SVG Version: 6.00 Build 0)  -->
<!DOCTYPE svg PUBLIC "-//W3C//DTD SVG 1.0//EN" "http://www.w3.org/TR/2001/REC-SVG-20010904/DTD/svg10.dtd">
<svg version="1.0"
	 id="svg2" xmlns:svg="http://www.w3.org/2000/svg" xmlns:dc="http://purl.org/dc/elements/1.1/" xmlns:rdf="http://www.w3.org/1999/02/22-rdf-syntax-ns#" xmlns:cc="http://creativecommons.org/ns#"
	 xmlns="http://www.w3.org/2000/svg" xmlns:xlink="http://www.w3.org/1999/xlink" x="0px" y="0px" viewBox="0 0 800 1149.5"
	 enable-background="new 0 0 800 1149.5" xml:space="preserve">
<g id="g6">
	<g id="g8">
		<g id="g14">
			<path id="path16" stroke="#000000" stroke-linecap="round" stroke-miterlimit="10" d="M160,370.5V244.3l43.5,126.2l43.3-126.2
				v126.2V244.3l-43.3,126.2L160,244.3V370.5z M290.2,317.3l17.9-73l19,73H290.2 M341.1,370.5l-32.9-126.2l-31.1,126.2l13.2-53.2
				h36.9L341.1,370.5z M428.1,370.5L364.8,310v60.5V244.3V310l63.3-65.7L364.8,310L428.1,370.5L428.1,370.5z M452.6,370.5V244.3H515
				h-62.4v61.3h53.6h-53.6L452.6,370.5H515H452.6L452.6,370.5z"/>
		</g>
		<g id="g18">
			<path id="path20" stroke="#000000" stroke-linecap="round" stroke-miterlimit="10" d="M191.6,536l31.6,63.1L191.6,536L160,599.1
				L191.6,536L160,472.9L191.6,536l31.6-63.1L191.6,536z M247.8,599.1V472.9l43.5,126.2l43.3-126.2v126.2V472.9l-43.3,126.2
				l-43.5-126.2L247.8,599.1L247.8,599.1z M378,545.9l17.9-73l19,73H378 M428.9,599.1l-32.9-126.2l-31.1,126.2l13.2-53.2H415
				L428.9,599.1z M452.6,576.1v9c0,3.9,3.1,7.2,9.4,10c6.3,2.7,14.1,4.1,23.5,4.1c9.4,0,17.2-1.4,23.5-4.1c6.3-2.7,9.4-6.1,9.4-10
				l0.4-37.3c-0.1-11.2-8.6-16.9-25.3-17c-16.8-0.1-26.6-0.7-29.5-1.6c-7.6-2.8-11.3-6.4-11.3-10.8V487c0-3.9,3.1-7.2,9.4-10
				c6.3-2.7,14.1-4.1,23.5-4.1c9.4,0,17.2,1.4,23.5,4.1s9.4,6.1,9.4,10v9v-9c0-3.9-3.1-7.2-9.4-10s-14.1-4.1-23.5-4.1
				c-9.4,0-17.2,1.4-23.5,4.1c-6.3,2.7-9.4,6.1-9.4,10v31.3c0,4.4,3.8,8,11.3,10.8c2.9,1,12.8,1.5,29.5,1.6
				c16.8,0.1,25.2,5.8,25.3,17l-0.4,37.3c0,3.9-3.1,7.2-9.4,10c-6.3,2.7-14.1,4.1-23.5,4.1s-17.2-1.4-23.5-4.1
				c-6.3-2.7-9.4-6.1-9.4-10L452.6,576.1L452.6,576.1z"/>
		</g>
		<g id="g22">
			<path id="path24" stroke="#000000" stroke-linecap="round" stroke-miterlimit="10" d="M225.8,813.7c0,3.9-3.1,7.2-9.4,10
				c-6.3,2.7-14.1,4.1-23.5,4.1s-17.2-1.4-23.5-4.1c-6.3-2.7-9.4-6.1-9.4-10v-98c0-3.9,3.1-7.2,9.4-10s14.1-4.1,23.5-4.1
				s17.2,1.4,23.5,4.1c6.3,2.7,9.4,6.1,9.4,10v9v-9c0-3.9-3.1-7.2-9.4-10c-6.3-2.7-14.1-4.1-23.5-4.1s-17.2,1.4-23.5,4.1
				c-6.3,2.7-9.4,6.1-9.4,10v98c0,3.9,3.1,7.2,9.4,10s14.1,4.1,23.5,4.1c9.4,0,17.2-1.4,23.5-4.1
				C222.7,820.9,225.8,817.6,225.8,813.7v-49h-32.6h32.6V813.7L225.8,813.7z M277.6,763.4c12.9-0.9,21.6-2.5,26.2-5s6.8-5.3,6.8-8.5
				v-34.2c0-3.9-3.2-7.2-9.6-10c-6.4-2.7-14.2-4.1-23.3-4.1h-29.8v61.8L277.6,763.4 M247.8,827.8V701.6h29.8
				c9.1,0,16.9,1.4,23.3,4.1c6.4,2.7,9.6,6.1,9.6,10v34.2c0,3.2-2.3,6-6.8,8.5s-13.2,4.2-26.2,5c12.9,0.9,21.6,2.5,26.2,5
				s6.8,5.3,6.8,8.5v50.8v-50.8c0-3.2-2.3-6-6.8-8.5s-13.2-4.2-26.2-5h-29.8L247.8,827.8L247.8,827.8z M335.6,827.8V701.6H398h-62.4
				v61.3h53.6h-53.6V827.8H398H335.6z M436.5,774.5l17.9-73l19,73H436.5 M487.4,827.8l-32.9-126.2l-31.1,126.2l13.2-53.2h36.9
				L487.4,827.8z M542.8,701.6h-31.6h62.7H542.8v126.2V701.6z"/>
		</g>
		<g id="g26">
			<path id="path28" stroke="#000000" stroke-linecap="round" stroke-miterlimit="10" d="M173.2,1003.2l17.9-73l19,73H173.2
				 M224,1056.4l-32.9-126.2L160,1056.4l13.2-53.2h36.9L224,1056.4z M313.6,1042.3c0,3.9-3.1,7.2-9.4,10c-6.3,2.7-14.1,4.1-23.5,4.1
				s-17.2-1.4-23.5-4.1c-6.3-2.7-9.4-6.1-9.4-10v-98c0-3.9,3.1-7.2,9.4-10c6.3-2.7,14.1-4.1,23.5-4.1s17.2,1.4,23.5,4.1
				c6.3,2.7,9.4,6.1,9.4,10v9v-9c0-3.9-3.1-7.2-9.4-10c-6.3-2.7-14.1-4.1-23.5-4.1s-17.2,1.4-23.5,4.1c-6.3,2.7-9.4,6.1-9.4,10v98
				c0,3.9,3.1,7.2,9.4,10c6.3,2.7,14.1,4.1,23.5,4.1s17.2-1.4,23.5-4.1C310.5,1049.5,313.6,1046.2,313.6,1042.3v-49h-32.6h32.6
				V1042.3z M348.8,1003.2l17.9-73l19,73H348.8 M399.6,1056.4l-32.9-126.2l-31.1,126.2l13.2-53.2h36.9L399.6,1056.4z M423.4,1056.4
				V930V1056.4z M452.6,1056.4V930.2l63.3,126.2V930.2v126.2l-63.3-126.2L452.6,1056.4L452.6,1056.4z"/>
		</g>
		<g id="g30" transform="translate(400,114.95146)">
			<g id="g32">
				<path id="path34" fill="none" stroke="#000000" stroke-linecap="round" stroke-miterlimit="10" d="M-187.8,0v-40"/>
				<g id="g36" transform="translate(0,-40)">
					<g id="g38">
						<path id="path40" fill="none" stroke="#000000" stroke-linecap="round" stroke-miterlimit="10" d="M-187.8,0v-22"/>
						<g id="g42" transform="translate(0,-22)">
							<g id="g44">
								<path id="path46" fill="none" stroke="#000000" stroke-linecap="round" stroke-miterlimit="10" d="M-187.8,0v-12.1"/>
							</g>
							<g id="g50" transform="matrix(7.9632671e-4,0.99999968,-0.99999968,7.9632671e-4,0,0)">
								<path id="path52" fill="none" stroke="#000000" stroke-linecap="round" stroke-miterlimit="10" d="M-0.1,187.8l0-12.1"/>
							</g>
							<g id="g56" transform="matrix(-0.99999873,0.00159265,-0.00159265,-0.99999873,0,0)">
								<path id="path58" fill="none" stroke="#000000" stroke-linecap="round" stroke-miterlimit="10" d="M187.8,0.3v-12.1"/>
							</g>
							<g id="g62" transform="matrix(-0.00238898,-0.99999715,0.99999715,-0.00238898,0,0)">
								<path id="path64" fill="none" stroke="#000000" stroke-linecap="round" stroke-miterlimit="10" d="M0.4-187.8l0-12.1"/>
							</g>
						</g>
					</g>
					<g id="g68" transform="matrix(7.9632671e-4,0.99999968,-0.99999968,7.9632671e-4,0,0)">
						<path id="path70" fill="none" stroke="#000000" stroke-linecap="round" stroke-miterlimit="10" d="M-0.1,187.8l0-22"/>
						<g id="g72" transform="translate(0,-22)">
							<g id="g74">
							</g>
							<g id="g80" transform="matrix(7.9632671e-4,0.99999968,-0.99999968,7.9632671e-4,0,0)">
								<path id="path82" fill="none" stroke="#000000" stroke-linecap="round" stroke-miterlimit="10" d="M187.8,0.3l0-12.1"/>
							</g>
							<g id="g86" transform="matrix(-0.99999873,0.00159265,-0.00159265,-0.99999873,0,0)">
								<path id="path88" fill="none" stroke="#000000" stroke-linecap="round" stroke-miterlimit="10" d="M0.5-187.8l0-12.1"/>
							</g>
							<g id="g92" transform="matrix(-0.00238898,-0.99999715,0.99999715,-0.00238898,0,0)">
								<path id="path94" fill="none" stroke="#000000" stroke-linecap="round" stroke-miterlimit="10" d="M-187.8-0.6v-12.1"/>
							</g>
						</g>
					</g>
					<g id="g98" transform="matrix(-0.99999873,0.00159265,-0.00159265,-0.99999873,0,0)">
						<path id="path100" fill="none" stroke="#000000" stroke-linecap="round" stroke-miterlimit="10" d="M187.8,0.3l0-22"/>
						<g id="g102" transform="translate(0,-22)">
							<g id="g104">
							</g>
							<g id="g110" transform="matrix(7.9632671e-4,0.99999968,-0.99999968,7.9632671e-4,0,0)">
								<path id="path112" fill="none" stroke="#000000" stroke-linecap="round" stroke-miterlimit="10" d="M0.4-187.8l0-12.1"/>
							</g>
							<g id="g116" transform="matrix(-0.99999873,0.00159265,-0.00159265,-0.99999873,0,0)">
								<path id="path118" fill="none" stroke="#000000" stroke-linecap="round" stroke-miterlimit="10" d="M-187.8-0.6l0-12.1"/>
							</g>
							<g id="g122" transform="matrix(-0.00238898,-0.99999715,0.99999715,-0.00238898,0,0)">
								<path id="path124" fill="none" stroke="#000000" stroke-linecap="round" stroke-miterlimit="10" d="M-0.7,187.8l0-12.1"/>
							</g>
						</g>
					</g>
					<g id="g128" transform="matrix(-0.00238898,-0.99999715,0.99999715,-0.00238898,0,0)">
						<path id="path130" fill="none" stroke="#000000" stroke-linecap="round" stroke-miterlimit="10" d="M0.4-187.8l0-22"/>
						<g id="g132" transform="translate(0,-22)">
							<g id="g134">
							</g>
							<g id="g140" transform="matrix(7.9632671e-4,0.99999968,-0.99999968,7.9632671e-4,0,0)">
								<path id="path142" fill="none" stroke="#000000" stroke-linecap="round" stroke-miterlimit="10" d="M-187.8-0.6v-12.1"/>
							</g>
							<g id="g146" transform="matrix(-0.99999873,0.00159265,-0.00159265,-0.99999873,0,0)">
								<path id="path148" fill="none" stroke="#000000" stroke-linecap="round" stroke-miterlimit="10" d="M-0.7,187.8l0-12.1"/>
							</g>
							<g id="g152" transform="matrix(-0.00238898,-0.99999715,0.99999715,-0.00238898,0,0)">
								<path id="path154" fill="none" stroke="#000000" stroke-linecap="round" stroke-miterlimit="10" d="M187.8,0.9v-12.1"/>
							</g>
						</g>
					</g>
				</g>
			</g>
			<g id="g158" transform="matrix(7.9632671e-4,0.99999968,-0.99999968,7.9632671e-4,0,0)">
				<path id="path160" fill="none" stroke="#000000" stroke-linecap="round" stroke-miterlimit="10" d="M-0.1,187.8l0-40"/>
				<g id="g162" transform="translate(0,-40)">
					<g id="g164">
						<g id="g168" transform="translate(0,-22)">
							<g id="g170">
							</g>
							<g id="g176" transform="matrix(7.9632671e-4,0.99999968,-0.99999968,7.9632671e-4,0,0)">
							</g>
							<g id="g182" transform="matrix(-0.99999873,0.00159265,-0.00159265,-0.99999873,0,0)">
							</g>
							<g id="g188" transform="matrix(-0.00238898,-0.99999715,0.99999715,-0.00238898,0,0)">
							</g>
						</g>
					</g>
					<g id="g194" transform="matrix(7.9632671e-4,0.99999968,-0.99999968,7.9632671e-4,0,0)">
						<path id="path196" fill="none" stroke="#000000" stroke-linecap="round" stroke-miterlimit="10" d="M187.8,0.3l0-22"/>
						<g id="g198" transform="translate(0,-22)">
							<g id="g200">
							</g>
							<g id="g206" transform="matrix(7.9632671e-4,0.99999968,-0.99999968,7.9632671e-4,0,0)">
								<path id="path208" fill="none" stroke="#000000" stroke-linecap="round" stroke-miterlimit="10" d="M0.4-187.8l0-12.1"/>
							</g>
							<g id="g212" transform="matrix(-0.99999873,0.00159265,-0.00159265,-0.99999873,0,0)">
								<path id="path214" fill="none" stroke="#000000" stroke-linecap="round" stroke-miterlimit="10" d="M-187.8-0.6v-12.1"/>
							</g>
							<g id="g218" transform="matrix(-0.00238898,-0.99999715,0.99999715,-0.00238898,0,0)">
								<path id="path220" fill="none" stroke="#000000" stroke-linecap="round" stroke-miterlimit="10" d="M-0.7,187.8l0-12.1"/>
							</g>
						</g>
					</g>
					<g id="g224" transform="matrix(-0.99999873,0.00159265,-0.00159265,-0.99999873,0,0)">
						<path id="path226" fill="none" stroke="#000000" stroke-linecap="round" stroke-miterlimit="10" d="M0.5-187.8l0-22"/>
						<g id="g228" transform="translate(0,-22)">
							<g id="g230">
							</g>
							<g id="g236" transform="matrix(7.9632671e-4,0.99999968,-0.99999968,7.9632671e-4,0,0)">
								<path id="path238" fill="none" stroke="#000000" stroke-linecap="round" stroke-miterlimit="10" d="M-187.8-0.6v-12.1"/>
							</g>
							<g id="g242" transform="matrix(-0.99999873,0.00159265,-0.00159265,-0.99999873,0,0)">
								<path id="path244" fill="none" stroke="#000000" stroke-linecap="round" stroke-miterlimit="10" d="M-0.8,187.8l0-12.1"/>
							</g>
							<g id="g248" transform="matrix(-0.00238898,-0.99999715,0.99999715,-0.00238898,0,0)">
								<path id="path250" fill="none" stroke="#000000" stroke-linecap="round" stroke-miterlimit="10" d="M187.8,0.9v-12.1"/>
							</g>
						</g>
					</g>
					<g id="g254" transform="matrix(-0.00238898,-0.99999715,0.99999715,-0.00238898,0,0)">
						<path id="path256" fill="none" stroke="#000000" stroke-linecap="round" stroke-miterlimit="10" d="M-187.8-0.6v-22"/>
						<g id="g258" transform="translate(0,-22)">
							<g id="g260">
							</g>
							<g id="g266" transform="matrix(7.9632671e-4,0.99999968,-0.99999968,7.9632671e-4,0,0)">
								<path id="path268" fill="none" stroke="#000000" stroke-linecap="round" stroke-miterlimit="10" d="M-0.8,187.8l0-12.1"/>
							</g>
							<g id="g272" transform="matrix(-0.99999873,0.00159265,-0.00159265,-0.99999873,0,0)">
								<path id="path274" fill="none" stroke="#000000" stroke-linecap="round" stroke-miterlimit="10" d="M187.8,0.9v-12.1"/>
							</g>
							<g id="g278" transform="matrix(-0.00238898,-0.99999715,0.99999715,-0.00238898,0,0)">
								<path id="path280" fill="none" stroke="#000000" stroke-linecap="round" stroke-miterlimit="10" d="M1.1-187.8l0-12.1"/>
							</g>
						</g>
					</g>
				</g>
			</g>
			<g id="g284" transform="matrix(-0.99999873,0.00159265,-0.00159265,-0.99999873,0,0)">
				<path id="path286" fill="none" stroke="#000000" stroke-linecap="round" stroke-miterlimit="10" d="M187.8,0.3l0-40"/>
				<g id="g288" transform="translate(0,-40)">
					<g id="g290">
						<g id="g294" transform="translate(0,-22)">
							<g id="g296">
							</g>
							<g id="g302" transform="matrix(7.9632671e-4,0.99999968,-0.99999968,7.9632671e-4,0,0)">
							</g>
							<g id="g308" transform="matrix(-0.99999873,0.00159265,-0.00159265,-0.99999873,0,0)">
							</g>
							<g id="g314" transform="matrix(-0.00238898,-0.99999715,0.99999715,-0.00238898,0,0)">
							</g>
						</g>
					</g>
					<g id="g320" transform="matrix(7.9632671e-4,0.99999968,-0.99999968,7.9632671e-4,0,0)">
						<path id="path322" fill="none" stroke="#000000" stroke-linecap="round" stroke-miterlimit="10" d="M0.4-187.8l0-22"/>
						<g id="g324" transform="translate(0,-22)">
							<g id="g326">
							</g>
							<g id="g332" transform="matrix(7.9632671e-4,0.99999968,-0.99999968,7.9632671e-4,0,0)">
								<path id="path334" fill="none" stroke="#000000" stroke-linecap="round" stroke-miterlimit="10" d="M-187.8-0.6v-12.1"/>
							</g>
							<g id="g338" transform="matrix(-0.99999873,0.00159265,-0.00159265,-0.99999873,0,0)">
								<path id="path340" fill="none" stroke="#000000" stroke-linecap="round" stroke-miterlimit="10" d="M-0.8,187.8l0-12.1"/>
							</g>
							<g id="g344" transform="matrix(-0.00238898,-0.99999715,0.99999715,-0.00238898,0,0)">
								<path id="path346" fill="none" stroke="#000000" stroke-linecap="round" stroke-miterlimit="10" d="M187.8,0.9v-12.1"/>
							</g>
						</g>
					</g>
					<g id="g350" transform="matrix(-0.99999873,0.00159265,-0.00159265,-0.99999873,0,0)">
						<path id="path352" fill="none" stroke="#000000" stroke-linecap="round" stroke-miterlimit="10" d="M-187.8-0.6l0-22"/>
						<g id="g354" transform="translate(0,-22)">
							<g id="g356">
							</g>
							<g id="g362" transform="matrix(7.9632671e-4,0.99999968,-0.99999968,7.9632671e-4,0,0)">
								<path id="path364" fill="none" stroke="#000000" stroke-linecap="round" stroke-miterlimit="10" d="M-0.8,187.8l0-12.1"/>
							</g>
							<g id="g368" transform="matrix(-0.99999873,0.00159265,-0.00159265,-0.99999873,0,0)">
								<path id="path370" fill="none" stroke="#000000" stroke-linecap="round" stroke-miterlimit="10" d="M187.8,0.9l0-12.1"/>
							</g>
							<g id="g374" transform="matrix(-0.00238898,-0.99999715,0.99999715,-0.00238898,0,0)">
								<path id="path376" fill="none" stroke="#000000" stroke-linecap="round" stroke-miterlimit="10" d="M1.1-187.8l0-12.1"/>
							</g>
						</g>
					</g>
					<g id="g380" transform="matrix(-0.00238898,-0.99999715,0.99999715,-0.00238898,0,0)">
						<path id="path382" fill="none" stroke="#000000" stroke-linecap="round" stroke-miterlimit="10" d="M-0.7,187.8l0-22"/>
						<g id="g384" transform="translate(0,-22)">
							<g id="g386">
							</g>
							<g id="g392" transform="matrix(7.9632671e-4,0.99999968,-0.99999968,7.9632671e-4,0,0)">
								<path id="path394" fill="none" stroke="#000000" stroke-linecap="round" stroke-miterlimit="10" d="M187.8,0.9v-12.1"/>
							</g>
							<g id="g398" transform="matrix(-0.99999873,0.00159265,-0.00159265,-0.99999873,0,0)">
								<path id="path400" fill="none" stroke="#000000" stroke-linecap="round" stroke-miterlimit="10" d="M1-187.8l0-12.1"/>
							</g>
							<g id="g404" transform="matrix(-0.00238898,-0.99999715,0.99999715,-0.00238898,0,0)">
								<path id="path406" fill="none" stroke="#000000" stroke-linecap="round" stroke-miterlimit="10" d="M-187.8-1.2v-12.1"/>
							</g>
						</g>
					</g>
				</g>
			</g>
			<g id="g410" transform="matrix(-0.00238898,-0.99999715,0.99999715,-0.00238898,0,0)">
				<path id="path412" fill="none" stroke="#000000" stroke-linecap="round" stroke-miterlimit="10" d="M0.4-187.8l0-40"/>
				<g id="g414" transform="translate(0,-40)">
					<g id="g416">
						<g id="g420" transform="translate(0,-22)">
							<g id="g422">
							</g>
							<g id="g428" transform="matrix(7.9632671e-4,0.99999968,-0.99999968,7.9632671e-4,0,0)">
							</g>
							<g id="g434" transform="matrix(-0.99999873,0.00159265,-0.00159265,-0.99999873,0,0)">
							</g>
							<g id="g440" transform="matrix(-0.00238898,-0.99999715,0.99999715,-0.00238898,0,0)">
							</g>
						</g>
					</g>
					<g id="g446" transform="matrix(7.9632671e-4,0.99999968,-0.99999968,7.9632671e-4,0,0)">
						<path id="path448" fill="none" stroke="#000000" stroke-linecap="round" stroke-miterlimit="10" d="M-187.8-0.6v-22"/>
						<g id="g450" transform="translate(0,-22)">
							<g id="g452">
							</g>
							<g id="g458" transform="matrix(7.9632671e-4,0.99999968,-0.99999968,7.9632671e-4,0,0)">
								<path id="path460" fill="none" stroke="#000000" stroke-linecap="round" stroke-miterlimit="10" d="M-0.7,187.8l0-12.1"/>
							</g>
							<g id="g464" transform="matrix(-0.99999873,0.00159265,-0.00159265,-0.99999873,0,0)">
								<path id="path466" fill="none" stroke="#000000" stroke-linecap="round" stroke-miterlimit="10" d="M187.8,0.9v-12.1"/>
							</g>
							<g id="g470" transform="matrix(-0.00238898,-0.99999715,0.99999715,-0.00238898,0,0)">
								<path id="path472" fill="none" stroke="#000000" stroke-linecap="round" stroke-miterlimit="10" d="M1-187.8l0-12.1"/>
							</g>
						</g>
					</g>
					<g id="g476" transform="matrix(-0.99999873,0.00159265,-0.00159265,-0.99999873,0,0)">
						<path id="path478" fill="none" stroke="#000000" stroke-linecap="round" stroke-miterlimit="10" d="M-0.7,187.8l0-22"/>
						<g id="g480" transform="translate(0,-22)">
							<g id="g482">
							</g>
							<g id="g488" transform="matrix(7.9632671e-4,0.99999968,-0.99999968,7.9632671e-4,0,0)">
								<path id="path490" fill="none" stroke="#000000" stroke-linecap="round" stroke-miterlimit="10" d="M187.8,0.9v-12.1"/>
							</g>
							<g id="g494" transform="matrix(-0.99999873,0.00159265,-0.00159265,-0.99999873,0,0)">
								<path id="path496" fill="none" stroke="#000000" stroke-linecap="round" stroke-miterlimit="10" d="M1-187.8l0-12.1"/>
							</g>
							<g id="g500" transform="matrix(-0.00238898,-0.99999715,0.99999715,-0.00238898,0,0)">
								<path id="path502" fill="none" stroke="#000000" stroke-linecap="round" stroke-miterlimit="10" d="M-187.8-1.2v-12.1"/>
							</g>
						</g>
					</g>
					<g id="g506" transform="matrix(-0.00238898,-0.99999715,0.99999715,-0.00238898,0,0)">
						<path id="path508" fill="none" stroke="#000000" stroke-linecap="round" stroke-miterlimit="10" d="M187.8,0.9l0-22"/>
						<g id="g510" transform="translate(0,-22)">
							<g id="g512">
							</g>
							<g id="g518" transform="matrix(7.9632671e-4,0.99999968,-0.99999968,7.9632671e-4,0,0)">
								<path id="path520" fill="none" stroke="#000000" stroke-linecap="round" stroke-miterlimit="10" d="M1-187.8l0-12.1"/>
							</g>
							<g id="g524" transform="matrix(-0.99999873,0.00159265,-0.00159265,-0.99999873,0,0)">
								<path id="path526" fill="none" stroke="#000000" stroke-linecap="round" stroke-miterlimit="10" d="M-187.8-1.2v-12.1"/>
							</g>
							<g id="g530" transform="matrix(-0.00238898,-0.99999715,0.99999715,-0.00238898,0,0)">
								<path id="path532" fill="none" stroke="#000000" stroke-linecap="round" stroke-miterlimit="10" d="M-1.3,187.8l0-12.1"/>
							</g>
						</g>
					</g>
				</g>
			</g>
		</g>
	</g>
	<g id="g536">
		<g id="g558" transform="translate(400,114.95146)">
			<g id="g560">
				<g id="g564" transform="translate(0,-40)">
					<g id="g566">
						<g id="g570" transform="translate(0,-22)">
							<g id="g572">
							</g>
							<g id="g578" transform="matrix(7.9632671e-4,0.99999968,-0.99999968,7.9632671e-4,0,0)">
							</g>
							<g id="g584" transform="matrix(-0.99999873,0.00159265,-0.00159265,-0.99999873,0,0)">
							</g>
							<g id="g590" transform="matrix(-0.00238898,-0.99999715,0.99999715,-0.00238898,0,0)">
							</g>
						</g>
					</g>
					<g id="g596" transform="matrix(7.9632671e-4,0.99999968,-0.99999968,7.9632671e-4,0,0)">
						<g id="g600" transform="translate(0,-22)">
							<g id="g602">
							</g>
							<g id="g608" transform="matrix(7.9632671e-4,0.99999968,-0.99999968,7.9632671e-4,0,0)">
							</g>
							<g id="g614" transform="matrix(-0.99999873,0.00159265,-0.00159265,-0.99999873,0,0)">
							</g>
							<g id="g620" transform="matrix(-0.00238898,-0.99999715,0.99999715,-0.00238898,0,0)">
							</g>
						</g>
					</g>
					<g id="g626" transform="matrix(-0.99999873,0.00159265,-0.00159265,-0.99999873,0,0)">
						<g id="g630" transform="translate(0,-22)">
							<g id="g632">
							</g>
							<g id="g638" transform="matrix(7.9632671e-4,0.99999968,-0.99999968,7.9632671e-4,0,0)">
							</g>
							<g id="g644" transform="matrix(-0.99999873,0.00159265,-0.00159265,-0.99999873,0,0)">
							</g>
							<g id="g650" transform="matrix(-0.00238898,-0.99999715,0.99999715,-0.00238898,0,0)">
							</g>
						</g>
					</g>
					<g id="g656" transform="matrix(-0.00238898,-0.99999715,0.99999715,-0.00238898,0,0)">
						<g id="g660" transform="translate(0,-22)">
							<g id="g662">
							</g>
							<g id="g668" transform="matrix(7.9632671e-4,0.99999968,-0.99999968,7.9632671e-4,0,0)">
							</g>
							<g id="g674" transform="matrix(-0.99999873,0.00159265,-0.00159265,-0.99999873,0,0)">
							</g>
							<g id="g680" transform="matrix(-0.00238898,-0.99999715,0.99999715,-0.00238898,0,0)">
							</g>
						</g>
					</g>
				</g>
			</g>
			<g id="g686" transform="matrix(7.9632671e-4,0.99999968,-0.99999968,7.9632671e-4,0,0)">
				<g id="g690" transform="translate(0,-40)">
					<g id="g692">
						<g id="g696" transform="translate(0,-22)">
							<g id="g698">
							</g>
							<g id="g704" transform="matrix(7.9632671e-4,0.99999968,-0.99999968,7.9632671e-4,0,0)">
							</g>
							<g id="g710" transform="matrix(-0.99999873,0.00159265,-0.00159265,-0.99999873,0,0)">
							</g>
							<g id="g716" transform="matrix(-0.00238898,-0.99999715,0.99999715,-0.00238898,0,0)">
							</g>
						</g>
					</g>
					<g id="g722" transform="matrix(7.9632671e-4,0.99999968,-0.99999968,7.9632671e-4,0,0)">
						<g id="g726" transform="translate(0,-22)">
							<g id="g728">
							</g>
							<g id="g734" transform="matrix(7.9632671e-4,0.99999968,-0.99999968,7.9632671e-4,0,0)">
							</g>
							<g id="g740" transform="matrix(-0.99999873,0.00159265,-0.00159265,-0.99999873,0,0)">
							</g>
							<g id="g746" transform="matrix(-0.00238898,-0.99999715,0.99999715,-0.00238898,0,0)">
							</g>
						</g>
					</g>
					<g id="g752" transform="matrix(-0.99999873,0.00159265,-0.00159265,-0.99999873,0,0)">
						<g id="g756" transform="translate(0,-22)">
							<g id="g758">
							</g>
							<g id="g764" transform="matrix(7.9632671e-4,0.99999968,-0.99999968,7.9632671e-4,0,0)">
							</g>
							<g id="g770" transform="matrix(-0.99999873,0.00159265,-0.00159265,-0.99999873,0,0)">
							</g>
							<g id="g776" transform="matrix(-0.00238898,-0.99999715,0.99999715,-0.00238898,0,0)">
							</g>
						</g>
					</g>
					<g id="g782" transform="matrix(-0.00238898,-0.99999715,0.99999715,-0.00238898,0,0)">
						<g id="g786" transform="translate(0,-22)">
							<g id="g788">
							</g>
							<g id="g794" transform="matrix(7.9632671e-4,0.99999968,-0.99999968,7.9632671e-4,0,0)">
							</g>
							<g id="g800" transform="matrix(-0.99999873,0.00159265,-0.00159265,-0.99999873,0,0)">
							</g>
							<g id="g806" transform="matrix(-0.00238898,-0.99999715,0.99999715,-0.00238898,0,0)">
							</g>
						</g>
					</g>
				</g>
			</g>
			<g id="g812" transform="matrix(-0.99999873,0.00159265,-0.00159265,-0.99999873,0,0)">
				<g id="g816" transform="translate(0,-40)">
					<g id="g818">
						<g id="g822" transform="translate(0,-22)">
							<g id="g824">
							</g>
							<g id="g830" transform="matrix(7.9632671e-4,0.99999968,-0.99999968,7.9632671e-4,0,0)">
							</g>
							<g id="g836" transform="matrix(-0.99999873,0.00159265,-0.00159265,-0.99999873,0,0)">
							</g>
							<g id="g842" transform="matrix(-0.00238898,-0.99999715,0.99999715,-0.00238898,0,0)">
							</g>
						</g>
					</g>
					<g id="g848" transform="matrix(7.9632671e-4,0.99999968,-0.99999968,7.9632671e-4,0,0)">
						<g id="g852" transform="translate(0,-22)">
							<g id="g854">
							</g>
							<g id="g860" transform="matrix(7.9632671e-4,0.99999968,-0.99999968,7.9632671e-4,0,0)">
							</g>
							<g id="g866" transform="matrix(-0.99999873,0.00159265,-0.00159265,-0.99999873,0,0)">
							</g>
							<g id="g872" transform="matrix(-0.00238898,-0.99999715,0.99999715,-0.00238898,0,0)">
							</g>
						</g>
					</g>
					<g id="g878" transform="matrix(-0.99999873,0.00159265,-0.00159265,-0.99999873,0,0)">
						<g id="g882" transform="translate(0,-22)">
							<g id="g884">
							</g>
							<g id="g890" transform="matrix(7.9632671e-4,0.99999968,-0.99999968,7.9632671e-4,0,0)">
							</g>
							<g id="g896" transform="matrix(-0.99999873,0.00159265,-0.00159265,-0.99999873,0,0)">
							</g>
							<g id="g902" transform="matrix(-0.00238898,-0.99999715,0.99999715,-0.00238898,0,0)">
							</g>
						</g>
					</g>
					<g id="g908" transform="matrix(-0.00238898,-0.99999715,0.99999715,-0.00238898,0,0)">
						<g id="g912" transform="translate(0,-22)">
							<g id="g914">
							</g>
							<g id="g920" transform="matrix(7.9632671e-4,0.99999968,-0.99999968,7.9632671e-4,0,0)">
							</g>
							<g id="g926" transform="matrix(-0.99999873,0.00159265,-0.00159265,-0.99999873,0,0)">
							</g>
							<g id="g932" transform="matrix(-0.00238898,-0.99999715,0.99999715,-0.00238898,0,0)">
							</g>
						</g>
					</g>
				</g>
			</g>
			<g id="g938" transform="matrix(-0.00238898,-0.99999715,0.99999715,-0.00238898,0,0)">
				<g id="g942" transform="translate(0,-40)">
					<g id="g944">
						<g id="g948" transform="translate(0,-22)">
							<g id="g950">
							</g>
							<g id="g956" transform="matrix(7.9632671e-4,0.99999968,-0.99999968,7.9632671e-4,0,0)">
							</g>
							<g id="g962" transform="matrix(-0.99999873,0.00159265,-0.00159265,-0.99999873,0,0)">
							</g>
							<g id="g968" transform="matrix(-0.00238898,-0.99999715,0.99999715,-0.00238898,0,0)">
							</g>
						</g>
					</g>
					<g id="g974" transform="matrix(7.9632671e-4,0.99999968,-0.99999968,7.9632671e-4,0,0)">
						<g id="g978" transform="translate(0,-22)">
							<g id="g980">
							</g>
							<g id="g986" transform="matrix(7.9632671e-4,0.99999968,-0.99999968,7.9632671e-4,0,0)">
							</g>
							<g id="g992" transform="matrix(-0.99999873,0.00159265,-0.00159265,-0.99999873,0,0)">
							</g>
							<g id="g998" transform="matrix(-0.00238898,-0.99999715,0.99999715,-0.00238898,0,0)">
							</g>
						</g>
					</g>
					<g id="g1004" transform="matrix(-0.99999873,0.00159265,-0.00159265,-0.99999873,0,0)">
						<g id="g1008" transform="translate(0,-22)">
							<g id="g1010">
							</g>
							<g id="g1016" transform="matrix(7.9632671e-4,0.99999968,-0.99999968,7.9632671e-4,0,0)">
							</g>
							<g id="g1022" transform="matrix(-0.99999873,0.00159265,-0.00159265,-0.99999873,0,0)">
							</g>
							<g id="g1028" transform="matrix(-0.00238898,-0.99999715,0.99999715,-0.00238898,0,0)">
							</g>
						</g>
					</g>
					<g id="g1034" transform="matrix(-0.00238898,-0.99999715,0.99999715,-0.00238898,0,0)">
						<g id="g1038" transform="translate(0,-22)">
							<g id="g1040">
							</g>
							<g id="g1046" transform="matrix(7.9632671e-4,0.99999968,-0.99999968,7.9632671e-4,0,0)">
							</g>
							<g id="g1052" transform="matrix(-0.99999873,0.00159265,-0.00159265,-0.99999873,0,0)">
							</g>
							<g id="g1058" transform="matrix(-0.00238898,-0.99999715,0.99999715,-0.00238898,0,0)">
							</g>
						</g>
					</g>
				</g>
			</g>
		</g>
	</g>
</g>
</svg>
