<?xml version="1.0" encoding="utf-8"?>
<!-- Generator: Adobe Illustrator 22.0.1, SVG Export Plug-In . SVG Version: 6.00 Build 0)  -->
<svg version="1.0" id="Calque_1" xmlns="http://www.w3.org/2000/svg" xmlns:xlink="http://www.w3.org/1999/xlink" x="0px" y="0px"
	 viewBox="0 0 760 340" style="enable-background:new 0 0 760 340;" xml:space="preserve">
<style type="text/css">
	.st0{stroke:#000000;stroke-miterlimit:10;}
</style>
<g>
	<g>
		<path class="st0" d="M738,0l18,18"/>
	</g>
	<path class="st0" d="M720,0l36,36"/>
	<path class="st0" d="M702,0l54,54"/>
	<path class="st0" d="M684,0l72,72"/>
	<path class="st0" d="M666,0l90,90"/>
	<path class="st0" d="M648,0l108,108"/>
	<path class="st0" d="M630,0l126,126"/>
	<path class="st0" d="M612,0l144,144"/>
	<path class="st0" d="M594,0l18,18"/>
	<path class="st0" d="M630,36l126,126"/>
	<path class="st0" d="M576,0l18,18"/>
	<path class="st0" d="M630,54l126,126"/>
	<path class="st0" d="M558,0l36,36"/>
	<path class="st0" d="M630,72l126,126"/>
	<path class="st0" d="M540,0l54,54"/>
	<path class="st0" d="M630,90l126,126"/>
	<path class="st0" d="M522,0l18,18"/>
	<path class="st0" d="M558,36l36,36"/>
	<path class="st0" d="M630,108l126,126"/>
	<path class="st0" d="M504,0l18,18"/>
	<path class="st0" d="M558,54l36,36"/>
	<path class="st0" d="M630,126l126,126"/>
	<path class="st0" d="M486,0l18,18"/>
	<path class="st0" d="M540,54l54,54"/>
	<path class="st0" d="M630,144l126,126"/>
	<path class="st0" d="M468,0l18,18"/>
	<path class="st0" d="M522,54l72,72"/>
	<path class="st0" d="M630,162l126,126"/>
	<path class="st0" d="M450,0l18,18"/>
	<path class="st0" d="M504,54l90,90"/>
	<path class="st0" d="M630,180l126,126"/>
	<path class="st0" d="M432,0l18,18"/>
	<path class="st0" d="M486,54l108,108"/>
	<path class="st0" d="M630,198l72,72"/>
	<path class="st0" d="M720,288l36,36"/>
	<path class="st0" d="M414,0l18,18"/>
	<path class="st0" d="M468,54l126,126"/>
	<path class="st0" d="M630,216l54,54"/>
	<path class="st0" d="M720,306l18,18"/>
	<path class="st0" d="M396,0l36,36"/>
	<path class="st0" d="M468,72l126,126"/>
	<path class="st0" d="M630,234l36,36"/>
	<path class="st0" d="M702,306l18,18"/>
	<path class="st0" d="M378,0l54,54"/>
	<path class="st0" d="M468,90l54,54"/>
	<path class="st0" d="M540,162l54,54"/>
	<path class="st0" d="M630,252l18,18"/>
	<path class="st0" d="M684,306l18,18"/>
	<path class="st0" d="M360,0l72,72"/>
	<path class="st0" d="M468,108l36,36"/>
	<path class="st0" d="M540,180l54,54"/>
	<path class="st0" d="M666,306l18,18"/>
	<path class="st0" d="M342,0l90,90"/>
	<path class="st0" d="M468,126l18,18"/>
	<path class="st0" d="M522,180l72,72"/>
	<path class="st0" d="M648,306l18,18"/>
	<path class="st0" d="M324,0l18,18"/>
	<path class="st0" d="M396,72l36,36"/>
	<path class="st0" d="M504,180l90,90"/>
	<path class="st0" d="M630,306l18,18"/>
	<path class="st0" d="M306,0l18,18"/>
	<path class="st0" d="M396,90l36,36"/>
	<path class="st0" d="M486,180l108,108"/>
	<path class="st0" d="M612,306l18,18"/>
	<path class="st0" d="M288,0l18,18"/>
	<path class="st0" d="M396,108l36,36"/>
	<path class="st0" d="M468,180l144,144"/>
	<path class="st0" d="M270,0l18,18"/>
	<path class="st0" d="M324,54l36,36"/>
	<path class="st0" d="M396,126l36,36"/>
	<path class="st0" d="M468,198l72,72"/>
	<path class="st0" d="M558,288l36,36"/>
	<path class="st0" d="M252,0l18,18"/>
	<path class="st0" d="M306,54l54,54"/>
	<path class="st0" d="M396,144l36,36"/>
	<path class="st0" d="M468,216l54,54"/>
	<path class="st0" d="M558,306l18,18"/>
	<path class="st0" d="M234,0l36,36"/>
	<path class="st0" d="M288,54l72,72"/>
	<path class="st0" d="M396,162l36,36"/>
	<path class="st0" d="M468,234l36,36"/>
	<path class="st0" d="M540,306l18,18"/>
	<path class="st0" d="M216,0l36,36"/>
	<path class="st0" d="M288,72l72,72"/>
	<path class="st0" d="M396,180l36,36"/>
	<path class="st0" d="M468,252l18,18"/>
	<path class="st0" d="M522,306l18,18"/>
	<path class="st0" d="M198,0l54,54"/>
	<path class="st0" d="M270,72l90,90"/>
	<path class="st0" d="M396,198l36,36"/>
	<path class="st0" d="M504,306l18,18"/>
	<path class="st0" d="M180,0l72,72"/>
	<path class="st0" d="M270,90l90,90"/>
	<path class="st0" d="M396,216l36,36"/>
	<path class="st0" d="M486,306l18,18"/>
	<path class="st0" d="M162,0l18,18"/>
	<path class="st0" d="M198,36l36,36"/>
	<path class="st0" d="M270,108l90,90"/>
	<path class="st0" d="M396,234l36,36"/>
	<path class="st0" d="M468,306l18,18"/>
	<path class="st0" d="M144,0l18,18"/>
	<path class="st0" d="M198,54l36,36"/>
	<path class="st0" d="M270,126l90,90"/>
	<path class="st0" d="M396,252l36,36"/>
	<path class="st0" d="M450,306l18,18"/>
	<path class="st0" d="M126,0l36,36"/>
	<path class="st0" d="M198,72l36,36"/>
	<path class="st0" d="M270,144l90,90"/>
	<path class="st0" d="M396,270l54,54"/>
	<path class="st0" d="M108,0l54,54"/>
	<path class="st0" d="M198,90l36,36"/>
	<path class="st0" d="M270,162l90,90"/>
	<path class="st0" d="M378,270l54,54"/>
	<path class="st0" d="M90,0l72,72"/>
	<path class="st0" d="M198,108l36,36"/>
	<path class="st0" d="M270,180l72,72"/>
	<path class="st0" d="M378,288l36,36"/>
	<path class="st0" d="M72,0l90,90"/>
	<path class="st0" d="M198,126l36,36"/>
	<path class="st0" d="M270,198l72,72"/>
	<path class="st0" d="M360,288l36,36"/>
	<path class="st0" d="M54,0l18,18"/>
	<path class="st0" d="M90,36l72,72"/>
	<path class="st0" d="M198,144l36,36"/>
	<path class="st0" d="M270,216l54,54"/>
	<path class="st0" d="M360,306l18,18"/>
	<path class="st0" d="M36,0l18,18"/>
	<path class="st0" d="M90,54l72,72"/>
	<path class="st0" d="M198,162l36,36"/>
	<path class="st0" d="M270,234l36,36"/>
	<path class="st0" d="M342,306l18,18"/>
	<path class="st0" d="M18,0l18,18"/>
	<path class="st0" d="M108,90l54,54"/>
	<path class="st0" d="M198,180l36,36"/>
	<path class="st0" d="M324,306l18,18"/>
	<path class="st0" d="M0,0l36,36"/>
	<path class="st0" d="M126,126l36,36"/>
	<path class="st0" d="M198,198l36,36"/>
	<path class="st0" d="M306,306l18,18"/>
	<path class="st0" d="M18,0"/>
	<path class="st0" d="M0,18l36,36"/>
	<path class="st0" d="M126,144l36,36"/>
	<path class="st0" d="M198,216l54,54"/>
	<path class="st0" d="M288,306l18,18"/>
	<path class="st0" d="M36,0"/>
	<path class="st0" d="M0,36l36,36"/>
	<path class="st0" d="M72,108l18,18"/>
	<path class="st0" d="M144,180l18,18"/>
	<path class="st0" d="M198,234l90,90"/>
	<path class="st0" d="M54,0"/>
	<path class="st0" d="M0,54l36,36"/>
	<path class="st0" d="M72,126l18,18"/>
	<path class="st0" d="M144,198l18,18"/>
	<path class="st0" d="M198,252l72,72"/>
	<path class="st0" d="M36,36l18-18"/>
	<path class="st0" d="M72,0"/>
	<path class="st0" d="M0,72l36,36"/>
	<path class="st0" d="M72,144l36,36"/>
	<path class="st0" d="M198,270l54,54"/>
	<path class="st0" d="M36,54l36-36"/>
	<path class="st0" d="M90,0"/>
	<path class="st0" d="M0,90l36,36"/>
	<path class="st0" d="M72,162l54,54"/>
	<path class="st0" d="M198,288l36,36"/>
	<path class="st0" d="M36,72l54-54"/>
	<path class="st0" d="M108,0"/>
	<path class="st0" d="M0,108l36,36"/>
	<path class="st0" d="M72,180l54,54"/>
	<path class="st0" d="M198,306l18,18"/>
	<path class="st0" d="M36,90l54-54"/>
	<path class="st0" d="M126,0"/>
	<path class="st0" d="M0,126l36,36"/>
	<path class="st0" d="M72,198l72,72"/>
	<path class="st0" d="M180,306l18,18"/>
	<path class="st0" d="M36,108l54-54"/>
	<path class="st0" d="M144,0"/>
	<path class="st0" d="M0,144l36,36"/>
	<path class="st0" d="M72,216l72,72"/>
	<path class="st0" d="M162,306l18,18"/>
	<path class="st0" d="M36,126l54-54"/>
	<path class="st0" d="M162,0"/>
	<path class="st0" d="M0,162l36,36"/>
	<path class="st0" d="M72,234l90,90"/>
	<path class="st0" d="M36,144l72-72"/>
	<path class="st0" d="M180,0"/>
	<path class="st0" d="M0,180l36,36"/>
	<path class="st0" d="M72,252l72,72"/>
	<path class="st0" d="M36,162l36-36"/>
	<path class="st0" d="M90,108l18-18"/>
	<path class="st0" d="M162,36l18-18"/>
	<path class="st0" d="M198,0"/>
	<path class="st0" d="M0,198l36,36"/>
	<path class="st0" d="M72,270l54,54"/>
	<path class="st0" d="M36,180l36-36"/>
	<path class="st0" d="M90,126l18-18"/>
	<path class="st0" d="M162,54l36-36"/>
	<path class="st0" d="M216,0"/>
	<path class="st0" d="M0,216l36,36"/>
	<path class="st0" d="M72,288l36,36"/>
	<path class="st0" d="M36,198l36-36"/>
	<path class="st0" d="M90,144l36-36"/>
	<path class="st0" d="M162,72l36-36"/>
	<path class="st0" d="M234,0"/>
	<path class="st0" d="M0,234l36,36"/>
	<path class="st0" d="M72,306l18,18"/>
	<path class="st0" d="M36,216l36-36"/>
	<path class="st0" d="M90,162l36-36"/>
	<path class="st0" d="M162,90l36-36"/>
	<path class="st0" d="M252,0"/>
	<path class="st0" d="M0,252l36,36"/>
	<path class="st0" d="M54,306l18,18"/>
	<path class="st0" d="M36,234l36-36"/>
	<path class="st0" d="M108,162l18-18"/>
	<path class="st0" d="M162,108l36-36"/>
	<path class="st0" d="M270,0"/>
	<path class="st0" d="M0,270l54,54"/>
	<path class="st0" d="M36,252l36-36"/>
	<path class="st0" d="M108,180l18-18"/>
	<path class="st0" d="M162,126l36-36"/>
	<path class="st0" d="M288,0"/>
	<path class="st0" d="M0,288l36,36"/>
	<path class="st0" d="M36,270l36-36"/>
	<path class="st0" d="M108,198l36-36"/>
	<path class="st0" d="M162,144l36-36"/>
	<path class="st0" d="M252,54l36-36"/>
	<path class="st0" d="M306,0"/>
	<path class="st0" d="M0,306l18,18"/>
	<path class="st0" d="M36,288l36-36"/>
	<path class="st0" d="M126,198l18-18"/>
	<path class="st0" d="M162,162l36-36"/>
	<path class="st0" d="M234,90l72-72"/>
	<path class="st0" d="M324,0"/>
	<path class="st0" d="M36,306l36-36"/>
	<path class="st0" d="M126,216l18-18"/>
	<path class="st0" d="M162,180l36-36"/>
	<path class="st0" d="M234,108l90-90"/>
	<path class="st0" d="M342,0"/>
	<path class="st0" d="M54,306l18-18"/>
	<path class="st0" d="M126,234l18-18"/>
	<path class="st0" d="M162,198l36-36"/>
	<path class="st0" d="M234,126l36-36"/>
	<path class="st0" d="M306,54l36-36"/>
	<path class="st0" d="M360,0"/>
	<path class="st0" d="M126,252l72-72"/>
	<path class="st0" d="M234,144l36-36"/>
	<path class="st0" d="M324,54l36-36"/>
	<path class="st0" d="M378,0"/>
	<path class="st0" d="M144,252l54-54"/>
	<path class="st0" d="M234,162l36-36"/>
	<path class="st0" d="M342,54l18-18"/>
	<path class="st0" d="M396,0"/>
	<path class="st0" d="M144,270l54-54"/>
	<path class="st0" d="M234,180l36-36"/>
	<path class="st0" d="M342,72l36-36"/>
	<path class="st0" d="M414,0"/>
	<path class="st0" d="M144,288l54-54"/>
	<path class="st0" d="M234,198l36-36"/>
	<path class="st0" d="M360,72l18-18"/>
	<path class="st0" d="M432,0"/>
	<path class="st0" d="M144,306l54-54"/>
	<path class="st0" d="M234,216l36-36"/>
	<path class="st0" d="M360,90l36-36"/>
	<path class="st0" d="M450,0"/>
	<path class="st0" d="M162,306l36-36"/>
	<path class="st0" d="M234,234l36-36"/>
	<path class="st0" d="M360,108l36-36"/>
	<path class="st0" d="M432,36l18-18"/>
	<path class="st0" d="M468,0"/>
	<path class="st0" d="M180,306l18-18"/>
	<path class="st0" d="M234,252l36-36"/>
	<path class="st0" d="M360,126l36-36"/>
	<path class="st0" d="M432,54l36-36"/>
	<path class="st0" d="M486,0"/>
	<path class="st0" d="M252,252l18-18"/>
	<path class="st0" d="M360,144l36-36"/>
	<path class="st0" d="M432,72l54-54"/>
	<path class="st0" d="M504,0"/>
	<path class="st0" d="M252,270l18-18"/>
	<path class="st0" d="M360,162l36-36"/>
	<path class="st0" d="M432,90l72-72"/>
	<path class="st0" d="M522,0"/>
	<path class="st0" d="M252,288l36-36"/>
	<path class="st0" d="M360,180l36-36"/>
	<path class="st0" d="M432,108l36-36"/>
	<path class="st0" d="M486,54l36-36"/>
	<path class="st0" d="M540,0"/>
	<path class="st0" d="M270,288l18-18"/>
	<path class="st0" d="M360,198l36-36"/>
	<path class="st0" d="M432,126l36-36"/>
	<path class="st0" d="M504,54l36-36"/>
	<path class="st0" d="M558,0"/>
	<path class="st0" d="M270,306l36-36"/>
	<path class="st0" d="M360,216l36-36"/>
	<path class="st0" d="M432,144l36-36"/>
	<path class="st0" d="M522,54l36-36"/>
	<path class="st0" d="M576,0"/>
	<path class="st0" d="M288,306l36-36"/>
	<path class="st0" d="M360,234l36-36"/>
	<path class="st0" d="M432,162l36-36"/>
	<path class="st0" d="M540,54l18-18"/>
	<path class="st0" d="M594,0"/>
	<path class="st0" d="M306,306l90-90"/>
	<path class="st0" d="M432,180l36-36"/>
	<path class="st0" d="M612,0"/>
	<path class="st0" d="M324,306l72-72"/>
	<path class="st0" d="M432,198l54-54"/>
	<path class="st0" d="M594,36l18-18"/>
	<path class="st0" d="M630,0"/>
	<path class="st0" d="M342,306l54-54"/>
	<path class="st0" d="M432,216l72-72"/>
	<path class="st0" d="M594,54l36-36"/>
	<path class="st0" d="M648,0"/>
	<path class="st0" d="M432,234l36-36"/>
	<path class="st0" d="M486,180l36-36"/>
	<path class="st0" d="M594,72l36-36"/>
	<path class="st0" d="M666,0"/>
	<path class="st0" d="M432,252l36-36"/>
	<path class="st0" d="M504,180l36-36"/>
	<path class="st0" d="M594,90l36-36"/>
	<path class="st0" d="M684,0"/>
	<path class="st0" d="M432,270l36-36"/>
	<path class="st0" d="M522,180l18-18"/>
	<path class="st0" d="M594,108l36-36"/>
	<path class="st0" d="M702,0"/>
	<path class="st0" d="M432,288l36-36"/>
	<path class="st0" d="M594,126l36-36"/>
	<path class="st0" d="M720,0"/>
	<path class="st0" d="M432,306l36-36"/>
	<path class="st0" d="M594,144l36-36"/>
	<path class="st0" d="M738,0"/>
	<path class="st0" d="M450,306l36-36"/>
	<path class="st0" d="M594,162l36-36"/>
	<path class="st0" d="M468,306l36-36"/>
	<path class="st0" d="M594,180l36-36"/>
	<path class="st0" d="M486,306l36-36"/>
	<path class="st0" d="M594,198l36-36"/>
	<path class="st0" d="M504,306l36-36"/>
	<path class="st0" d="M594,216l36-36"/>
	<path class="st0" d="M522,306l36-36"/>
	<path class="st0" d="M594,234l36-36"/>
	<path class="st0" d="M540,306l18-18"/>
	<path class="st0" d="M594,252l36-36"/>
	<path class="st0" d="M594,270l36-36"/>
	<path class="st0" d="M594,288l36-36"/>
	<path class="st0" d="M594,306l36-36"/>
	<path class="st0" d="M612,306l36-36"/>
	<path class="st0" d="M630,306l36-36"/>
	<path class="st0" d="M648,306l36-36"/>
	<path class="st0" d="M666,306l36-36"/>
	<path class="st0" d="M684,306l36-36"/>
	<path class="st0" d="M702,306l18-18"/>
</g>
</svg>
