<?xml version="1.0" encoding="utf-8"?>
<!-- Generator: Adobe Illustrator 18.0.0, SVG Export Plug-In . SVG Version: 6.00 Build 0)  -->
<!DOCTYPE svg PUBLIC "-//W3C//DTD SVG 1.0//EN" "http://www.w3.org/TR/2001/REC-SVG-20010904/DTD/svg10.dtd">
<svg version="1.0" id="Layer_1" xmlns="http://www.w3.org/2000/svg" xmlns:xlink="http://www.w3.org/1999/xlink" x="0px" y="0px"
	 viewBox="0 0 850 1250" enable-background="new 0 0 850 1250" xml:space="preserve">
<g>
	<polygon fill="none" stroke="#000000" stroke-width="2" stroke-miterlimit="10" points="0,1250 425,1250 850,1250 850,625 850,0 
		425,0 0,0 0,625 	"/>
	<polygon fill="none" stroke="#000000" stroke-width="2" stroke-miterlimit="10" points="425.6,40.7 812.5,59.2 832.9,617.7 
		818.2,909.8 821.6,1207.9 425.6,1198.3 29.6,1207.9 33.1,909.8 18.4,617.7 38.8,148 40.5,55.7 	"/>
	<polygon fill="none" stroke="#000000" stroke-width="2" stroke-miterlimit="10" points="426.3,81.4 775.1,118.3 815.8,610.3 
		786.3,882.1 793.3,1165.8 426.3,1146.6 59.3,1165.8 66.2,882.1 36.8,610.3 77.5,196.1 80.9,111.4 	"/>
	<polygon fill="none" stroke="#000000" stroke-width="2" stroke-miterlimit="10" points="426.9,122.1 737.6,177.5 798.7,603 
		754.5,854.5 764.9,1123.6 426.9,1094.9 88.9,1123.6 99.4,854.5 55.2,603 116.3,244.1 121.4,167.2 	"/>
	<polygon fill="none" stroke="#000000" stroke-width="2" stroke-miterlimit="10" points="427.6,162.8 700.1,236.6 781.6,595.7 
		722.6,826.8 736.5,1081.5 427.6,1043.2 118.6,1081.5 132.5,826.8 73.5,595.7 155,292.2 161.8,222.9 	"/>
	<polygon fill="none" stroke="#000000" stroke-width="2" stroke-miterlimit="10" points="428.2,203.5 662.6,295.8 764.5,588.4 
		690.8,799.1 708.2,1039.4 428.2,991.5 148.2,1039.4 165.6,799.1 91.9,588.4 193.8,340.2 202.3,278.6 	"/>
	<polygon fill="none" stroke="#000000" stroke-width="2" stroke-miterlimit="10" points="428.8,244.2 625.2,354.9 747.4,581 
		658.9,771.4 679.8,997.3 428.8,939.8 177.9,997.3 198.7,771.4 110.3,581 232.5,388.3 242.7,334.3 	"/>
	<polygon fill="none" stroke="#000000" stroke-width="2" stroke-miterlimit="10" points="429.5,284.9 587.7,414.1 730.3,573.7 
		627.1,743.7 651.5,955.1 429.5,888.1 207.5,955.1 231.9,743.7 128.7,573.7 271.3,436.3 283.2,390 	"/>
	<polygon fill="none" stroke="#000000" stroke-width="2" stroke-miterlimit="10" points="430.1,325.6 550.2,473.2 713.2,566.4 
		595.3,716 623.1,913 430.1,836.4 237.2,913 265,716 147.1,566.4 310,484.3 323.6,445.7 	"/>
	<polygon fill="none" stroke="#000000" stroke-width="2" stroke-miterlimit="10" points="430.8,366.3 512.7,532.4 696.1,559 
		563.4,688.3 594.7,870.9 430.8,784.7 266.8,870.9 298.1,688.3 165.5,559 348.8,532.4 	"/>
</g>
</svg>
