<?xml version="1.0" encoding="utf-8"?>
<!-- Generator: Adobe Illustrator 18.0.0, SVG Export Plug-In . SVG Version: 6.00 Build 0)  -->
<!DOCTYPE svg PUBLIC "-//W3C//DTD SVG 1.0//EN" "http://www.w3.org/TR/2001/REC-SVG-20010904/DTD/svg10.dtd">
<svg version="1.0" id="Layer_1" xmlns="http://www.w3.org/2000/svg" xmlns:xlink="http://www.w3.org/1999/xlink" x="0px" y="0px"
	 viewBox="0 0 850 1250" enable-background="new 0 0 850 1250" xml:space="preserve">
<g>
	<polygon fill="none" stroke="#000000" stroke-width="2" stroke-miterlimit="10" points="848.6,1250 423.7,1250 -1.2,1250 0.1,625 
		1.4,0 426.3,0 851.2,0 849.9,625 	"/>
	<polygon fill="none" stroke="#000000" stroke-width="2" stroke-miterlimit="10" points="426.6,28.9 817.4,50.8 820.9,165.3 
		814.8,253 826.5,633.4 819.5,742.7 832.8,1212.8 512.3,1212.8 427.6,1220.8 362.3,1220.8 290.7,1212.8 15.8,1212.8 31,742.7 
		24.4,633.4 37.6,252.7 31.9,164.8 35.8,50.8 	"/>
	<polygon fill="none" stroke="#000000" stroke-width="2" stroke-miterlimit="10" points="426.9,57.9 783.6,101.6 790.9,208.9 
		778.9,285.6 803.1,641.8 789.3,737.5 817,1175.6 505.6,1175.6 431.5,1191.6 367,1191.6 304.4,1175.6 32.8,1175.6 62.1,737.5 
		48.7,641.8 74.3,285.3 62.6,208.4 70.3,101.6 	"/>
	<polygon fill="none" stroke="#000000" stroke-width="2" stroke-miterlimit="10" points="427.3,86.8 749.7,152.4 760.8,252.4 
		743,318.1 779.7,650.3 759.2,732.2 801.2,1138.4 498.9,1138.4 435.4,1162.4 371.6,1162.4 318,1138.4 49.9,1138.4 93.3,732.2 
		73.1,650.3 111,317.9 93.4,252 104.7,152.5 	"/>
	<polygon fill="none" stroke="#000000" stroke-width="2" stroke-miterlimit="10" points="427.6,115.7 715.9,203.2 730.7,295.9 
		707,350.7 756.3,658.7 729,727 785.4,1101.2 492.2,1101.2 439.3,1133.1 376.3,1133.1 331.6,1101.2 66.9,1101.2 124.4,727 
		97.4,658.7 147.6,350.5 124.1,295.6 139.2,203.3 	"/>
	<polygon fill="none" stroke="#000000" stroke-width="2" stroke-miterlimit="10" points="427.9,144.6 682.1,254 700.7,339.4 
		671.1,383.2 732.9,667.1 698.9,721.8 769.6,1064 485.5,1064 443.1,1103.9 381,1103.9 345.2,1064 83.9,1064 155.6,721.8 
		121.7,667.1 184.3,383.1 154.9,339.1 173.6,254.1 	"/>
	<polygon fill="none" stroke="#000000" stroke-width="2" stroke-miterlimit="10" points="428.2,173.6 648.3,304.8 670.6,382.9 
		635.1,415.8 709.5,675.5 668.7,716.5 753.8,1026.9 478.8,1026.9 447,1074.7 385.7,1074.7 358.8,1026.9 100.9,1026.9 186.7,716.5 
		146.1,675.5 221,415.7 185.6,382.7 208.1,304.9 	"/>
	<polygon fill="none" stroke="#000000" stroke-width="2" stroke-miterlimit="10" points="428.5,202.5 614.5,355.6 640.6,426.4 
		599.2,448.4 686.1,684 638.5,711.3 738,989.7 472.1,989.7 450.9,1045.5 390.4,1045.5 372.5,989.7 118,989.7 217.9,711.3 170.4,684 
		257.7,448.3 216.4,426.3 242.5,355.7 	"/>
	<polygon fill="none" stroke="#000000" stroke-width="2" stroke-miterlimit="10" points="428.9,231.4 580.6,406.4 610.5,470 
		563.3,480.9 662.7,692.4 608.4,706.1 722.2,952.5 465.4,952.5 454.8,1016.3 395,1016.3 386.1,952.5 135,952.5 249,706.1 
		194.7,692.4 294.4,480.9 247.2,469.9 277,406.6 	"/>
	<polygon fill="none" stroke="#000000" stroke-width="2" stroke-miterlimit="10" points="706.4,915.3 578.2,700.8 639.3,700.8 
		527.3,513.5 580.5,513.5 429.2,260.4 277.9,513.5 331.1,513.5 219.1,700.8 280.2,700.8 152,915.3 399.7,915.3 399.7,987.1 
		458.7,987.1 458.7,915.3 	"/>
</g>
</svg>
