<?xml version="1.0" encoding="utf-8"?>
<!-- Generator: Adobe Illustrator 18.0.0, SVG Export Plug-In . SVG Version: 6.00 Build 0)  -->
<!DOCTYPE svg PUBLIC "-//W3C//DTD SVG 1.1//EN" "http://www.w3.org/Graphics/SVG/1.1/DTD/svg11.dtd">
<svg version="1.1" id="Layer_1" xmlns="http://www.w3.org/2000/svg" xmlns:xlink="http://www.w3.org/1999/xlink" x="0px" y="0px"
	 viewBox="0 0 389.7 80.2" enable-background="new 0 0 389.7 80.2" xml:space="preserve">
<g>
	<path d="M16.1,12.8h5.9v23.6c1.7-3.5,5.8-6.5,11.9-6.5c7.7,0,13,4.2,13,15v22.7H41V44.4c0-6.5-2.8-9.4-8.7-9.4
		c-5.5,0-10.3,3.5-10.3,10.1v22.5h-5.9V12.8z"/>
	<path d="M55.7,49.4v-0.6c0-11.2,7.2-19,17.4-19c8.6,0,16.7,5.2,16.7,18.4v1.9H61.8c0.3,8.4,4.3,13.1,11.9,13.1
		c5.7,0,9.1-2.1,9.9-6.4h5.9c-1.3,7.4-7.4,11.3-15.8,11.3C63.1,68.2,55.7,60.8,55.7,49.4z M83.7,45.5c-0.6-7.7-4.5-10.7-10.6-10.7
		c-6,0-10.1,4.1-11.1,10.7H83.7z"/>
	<path d="M98.8,12.8h6v54.8h-6V12.8z"/>
	<path d="M117,12.8h6v54.8h-6V12.8z"/>
	<path d="M132.2,49.4v-0.6c0-11.1,7.7-18.9,18.2-18.9c10.5,0,18.2,7.7,18.2,18.8v0.6c0,11.2-7.7,18.9-18.3,18.9
		C139.8,68.2,132.2,60.2,132.2,49.4z M162.5,49.4v-0.5c0-8.6-4.7-14.1-12.1-14.1c-7.4,0-12.1,5.5-12.1,14v0.6c0,8.4,4.6,14,12.1,14
		C157.9,63.3,162.5,57.7,162.5,49.4z"/>
	<path d="M192.6,30.5h6.4l8.6,29.8l9-29.8h5.1l8.4,29.8l8.7-29.8h6l-11.6,37.1h-6.5l-7.7-27.8l-8.6,27.8H204L192.6,30.5z"/>
	<path d="M249.4,49.4v-0.6c0-11.1,7.7-18.9,18.2-18.9s18.2,7.7,18.2,18.8v0.6c0,11.2-7.7,18.9-18.3,18.9
		C256.9,68.2,249.4,60.2,249.4,49.4z M279.7,49.4v-0.5c0-8.6-4.7-14.1-12.1-14.1c-7.4,0-12.1,5.5-12.1,14v0.6c0,8.4,4.6,14,12.1,14
		C275,63.3,279.7,57.7,279.7,49.4z"/>
	<path d="M294.9,30.5h5.9v6.7c2.3-4.2,5.5-7.1,12.2-7.3v5.5c-7.4,0.4-12.2,2.7-12.2,11.8v20.3h-5.9V30.5z"/>
	<path d="M321.7,12.8h6v54.8h-6V12.8z"/>
	<path d="M336.9,49.8v-0.6c0-11.3,7.1-19.3,17.3-19.3c6.2,0,10,3,12.1,6.6V12.8h5.9v54.8h-5.9v-6.4c-2.1,3.6-7.3,7-12.7,7
		C344,68.2,336.9,61.3,336.9,49.8z M366.6,49.3v-0.6c0-9.5-4.5-14-11.8-14c-7.4,0-11.8,5.2-11.8,14.2v0.6c0,9.4,5,13.8,11.3,13.8
		C361.2,63.3,366.6,58.8,366.6,49.3z"/>
</g>
</svg>
