<?xml version="1.0" encoding="utf-8"?>
<!-- Generator: Adobe Illustrator 21.0.0, SVG Export Plug-In . SVG Version: 6.00 Build 0)  -->
<svg version="1.1" id="Layer_1" xmlns="http://www.w3.org/2000/svg" xmlns:xlink="http://www.w3.org/1999/xlink" x="0px" y="0px"
	 viewBox="0 0 3199.4 814.4" style="enable-background:new 0 0 3199.4 814.4;" xml:space="preserve">
<style type="text/css">
	.st0{fill:none;stroke:#000000;stroke-miterlimit:10;}
</style>
<title>XMAS</title>
<polygon class="st0" points="2087.3,713.5 1980.3,657.1 1888,792.7 1886.7,809.7 1887.6,813.9 2098.4,813.9 2096.1,752.2 "/>
<polygon class="st0" points="1919.9,665.9 1878.9,714.3 1888,792.7 1980.3,657.1 1969.6,649.2 "/>
<polygon class="st0" points="2104,665.7 2097.4,641.1 2038.4,551.5 1979.5,588.5 1964.3,631.7 1969.6,649.2 1980.3,657.1 
	2087.3,713.5 2099.2,688.3 "/>
<polygon class="st0" points="847.4,554.7 841.7,522.9 837.1,512.8 818.6,502.6 693.7,589.9 695.2,603.3 699.6,608.3 774.3,605.8 "/>
<polygon class="st0" points="996.3,522.9 841.7,522.9 847.4,554.7 861,582.9 996.3,582.9 1003.6,568.9 "/>
<polygon class="st0" points="1003.1,509.9 996.8,463.9 884.9,463.9 837.1,512.8 841.7,522.9 996.3,522.9 "/>
<polygon class="st0" points="2084.4,507.5 2038.4,514.3 2038.4,551.5 2097.4,641.1 2097.4,514.9 "/>
<polygon class="st0" points="2076,405.4 2048.8,388.7 2025.5,407.6 2025.5,506.9 2038.4,514.3 2084.4,507.5 2084.4,418.5 "/>
<polygon class="st0" points="2084.4,418.5 2084.4,507.5 2097.4,514.9 2138.4,507.8 2138.4,447.7 "/>
<polygon class="st0" points="1814.2,661.3 1813.2,691.2 1878.9,714.3 1919.9,665.9 1833.3,635.4 "/>
<polygon class="st0" points="1779.4,648.9 1715.9,688.9 1794.2,716.9 1813.2,691.2 1814.2,661.3 "/>
<polygon class="st0" points="1718.7,582.9 1779.4,648.9 1814.2,661.3 1833.3,635.4 1833.7,605.5 1723.3,566.1 "/>
<polygon class="st0" points="1086.9,407.3 1076.2,450.9 1098.8,491.5 1148.9,439.3 "/>
<polygon class="st0" points="1175.4,430.3 1148.9,439.3 1098.8,491.5 1100.8,509.9 1105.2,516.7 1194.3,486.1 1197.2,474 "/>
<polygon class="st0" points="1098.8,491.5 1076.2,450.9 1003.6,450.9 996.8,463.9 1003.1,509.9 1100.8,509.9 "/>
<polygon class="st0" points="663.8,532.3 638.7,521.1 610.9,587.9 680.1,575 668.7,535.1 "/>
<polygon class="st0" points="775.4,460.5 668.7,535.1 680.1,575 693.7,589.9 818.6,502.6 "/>
<polygon class="st0" points="693.7,589.9 680.1,575 610.9,587.9 603.7,592.6 574.7,652.5 591,671.9 695.2,603.3 "/>
<polygon class="st0" points="2817.1,721.3 2816.5,733.6 2833.3,743.6 2883.6,729.4 2897.1,695.1 2868.8,681.3 "/>
<polygon class="st0" points="2833.3,743.6 2853.6,813.9 2929.3,813.9 2883.6,729.4 "/>
<polygon class="st0" points="2816.5,733.6 2779.6,749.7 2787.8,813.9 2853.6,813.9 2833.3,743.6 "/>
<polygon class="st0" points="612.3,728.8 591,671.9 574.7,652.5 528.8,634.1 526.3,634.7 473.5,670.9 449.3,725.9 452.7,797.9 
	458.1,813.9 613.3,813.9 616.1,797.3 "/>
<polygon class="st0" points="463.8,522.6 430,568.7 429.9,571.3 526.3,634.7 528.8,634.1 526.2,563.7 "/>
<polygon class="st0" points="397.3,618.1 397.2,620.7 473.5,670.9 526.3,634.7 429.9,571.3 "/>
<polygon class="st0" points="177.5,609 156.1,562.5 0.5,519.9 0.5,813.9 179.9,813.9 197.6,695.3 "/>
<polygon class="st0" points="197.6,695.3 179.9,813.9 265.4,813.9 269.8,745.7 "/>
<polygon class="st0" points="177.5,609 197.6,695.3 269.8,745.7 323.3,728.2 330.7,717.7 330.8,716.1 "/>
<polygon class="st0" points="2170.3,332.7 2229.3,312 2216.2,254 2150.7,277 2155.6,316.2 "/>
<polygon class="st0" points="2174.5,372.1 2189.9,389.6 2314,345.9 2229.3,312 2170.3,332.7 "/>
<polygon class="st0" points="2170.3,332.7 2155.6,316.2 2051.2,351.4 2047.4,362.5 2048.8,388.7 2076,405.4 2174.5,372.1 "/>
<polygon class="st0" points="1919.3,379.1 1934.2,326.9 1809.9,282.5 1765.2,329.2 1914.8,382.7 "/>
<polygon class="st0" points="1938.7,323.2 1954.7,271.5 1835,228.8 1809.9,282.5 1934.2,326.9 "/>
<polygon class="st0" points="2025.5,407.6 2048.8,388.7 2047.4,362.5 1938.7,323.2 1934.2,326.9 1919.3,379.1 2009.2,411.6 "/>
<polygon class="st0" points="1020.1,108.1 1004,76.7 903,31.2 900.8,38.3 892.7,108.1 "/>
<polygon class="st0" points="1004,76.7 1004,0.7 903,0.7 903,31.2 "/>
<polygon class="st0" points="1020.1,108.1 1026.2,113 1036.2,112.3 1059.8,82.6 1062.7,0.7 1004,0.7 1004,76.7 "/>
<polygon class="st0" points="1077,338.1 1136.8,317.6 1139.7,305.2 1117.9,261.7 1067.3,279 1069.4,332 "/>
<polygon class="st0" points="1067.3,279 1117.9,261.7 1120.5,249.3 1098.7,205.9 1061.6,218.6 1055.9,273 "/>
<polygon class="st0" points="1171.8,294.3 1301.7,195.9 1301.1,187.9 1120.5,249.3 1117.9,261.7 1139.7,305.2 "/>
<polygon class="st0" points="1399.1,502.7 1367.8,498 1349.8,554.2 1380.2,570.6 1380.6,570.4 1404.3,516.1 "/>
<polygon class="st0" points="1418.1,457.3 1399.1,502.7 1404.3,516.1 1466.1,536.8 1487.6,480.6 "/>
<polygon class="st0" points="1466.1,536.8 1404.3,516.1 1380.6,570.4 1482.4,604.6 1484.6,600.8 1485.7,591.8 "/>
<polygon class="st0" points="2272.5,27.5 2357,118 2444.2,104.2 2462.1,81.8 2468.4,0.7 2268.7,0.7 2268.1,14.6 "/>
<polygon class="st0" points="2449,153.8 2444.2,104.2 2357,118 2381.1,200.7 "/>
<polygon class="st0" points="2503.7,175.8 2524.5,136.1 2462.1,81.8 2444.2,104.2 2449,153.8 "/>
<polygon class="st0" points="1280.6,726.8 1248.3,813.9 1282.6,813.9 1306.7,755.3 "/>
<polygon class="st0" points="1278.5,708 1141.5,754.8 1141,757.9 1145.5,813.9 1248.3,813.9 1280.6,726.8 "/>
<polygon class="st0" points="1028.2,739.9 1011.9,813.9 1145.5,813.9 1141,757.9 "/>
<polygon class="st0" points="1303,153.5 1511,173 1511.7,166.3 1375.1,62.9 1302.6,30.4 1297.6,64.2 1298,126.5 "/>
<polygon class="st0" points="1301.1,187.9 1303.8,164.6 1303,153.5 1298,126.5 1101.6,193.2 1098.7,205.9 1120.5,249.3 "/>
<polygon class="st0" points="1491,227 1512,176.1 1511,173 1303,153.5 1303.8,164.6 "/>
<polygon class="st0" points="1597.1,716.8 1593.2,718.8 1550.4,813.9 1628.2,813.9 1614,728.8 "/>
<polygon class="st0" points="1465.1,718.8 1463.2,722.8 1455.4,776.2 1458.7,813.9 1550.4,813.9 1593.2,718.8 "/>
<polygon class="st0" points="1596.9,659.8 1474.5,659.8 1472.5,663.6 1465.1,718.8 1593.2,718.8 1597.1,716.8 1602.4,669.8 "/>
<polygon class="st0" points="1434.5,395.8 1305.1,352.6 1300.8,376.4 1305.5,415 1416.4,452 1436.1,401 "/>
<polygon class="st0" points="1434.5,395.8 1436.1,401 1511.3,426.2 1514.3,422.9 1520.1,366.9 1455.5,345.2 "/>
<polygon class="st0" points="1436.1,401 1416.4,452 1418.1,457.3 1487.6,480.6 1505.3,470.1 1511.3,426.2 "/>
<polygon class="st0" points="2380.7,635.7 2284.6,669.5 2283.4,686.3 2300.9,718.7 2308.5,723.7 2390.3,695 2395.8,678.7 
	2388.3,644.6 "/>
<polygon class="st0" points="2308.5,723.7 2300.9,718.7 2185.8,813.9 2310.3,813.9 2310.3,728.5 "/>
<polygon class="st0" points="2283.4,686.3 2096.1,752.2 2098.4,813.9 2185.8,813.9 2300.9,718.7 "/>
<polygon class="st0" points="582,535.9 552.2,532.5 526.2,563.7 528.8,634.1 574.7,652.5 603.7,592.6 "/>
<polygon class="st0" points="624.7,507.8 582,535.9 603.7,592.6 610.9,587.9 638.7,521.1 "/>
<polygon class="st0" points="1721.7,550.9 1602.5,550.9 1596.8,600.8 1602.5,610.8 1700.2,610.8 1718.7,582.9 1723.3,566.1 "/>
<polygon class="st0" points="1596.8,600.8 1484.6,600.8 1482.4,604.6 1474.5,659.8 1596.9,659.8 1602.5,610.8 "/>
<polygon class="st0" points="1596.8,540.9 1539.4,540.9 1485.7,591.8 1484.6,600.8 1596.8,600.8 1602.5,550.9 "/>
<polygon class="st0" points="2574,438.9 2561.7,469.4 2655.8,489.1 2614.2,421.2 "/>
<polygon class="st0" points="2655.8,489.1 2561.7,469.4 2527.6,489.4 2575.6,564.2 2679.3,527.2 2657.1,490 "/>
<polygon class="st0" points="2559.9,400 2461.1,434.7 2451.4,442.8 2525.7,488.9 2527.6,489.4 2561.7,469.4 2574,438.9 "/>
<polygon class="st0" points="2351.3,754.5 2328.7,813.9 2440.1,813.9 2408.5,763.4 "/>
<polygon class="st0" points="2690.7,742.6 2670.1,750.9 2664.1,813.9 2726.1,813.9 2725.1,753.8 "/>
<polygon class="st0" points="2626,734.6 2618.1,737.1 2599.1,813.9 2664.1,813.9 2670.1,750.9 "/>
<polygon class="st0" points="1036.2,112.3 1069.9,137.1 1074.7,139.9 1297.6,64.2 1302.6,30.4 1300.9,0.7 1059.8,82.6 "/>
<polygon class="st0" points="1298,126.5 1297.6,64.2 1074.7,139.9 1101.6,193.2 "/>
<polygon class="st0" points="621.9,485.9 594.1,455.7 545,505.1 552.2,532.5 582,535.9 624.7,507.8 "/>
<polygon class="st0" points="776.6,0.7 612.5,0.7 746.4,45.7 "/>
<polygon class="st0" points="768.7,84.8 796.4,73.4 802.1,59.3 802.1,0.7 776.6,0.7 746.4,45.7 "/>
<polygon class="st0" points="900.8,38.3 903,31.2 903,0.7 802.1,0.7 802.1,59.3 "/>
<polygon class="st0" points="1303.3,336.3 1313.1,292 1310.3,228.9 1301.7,195.9 1171.8,294.3 1215.8,342.8 "/>
<polygon class="st0" points="1434.5,395.8 1455.5,345.2 1453.6,338.9 1313.1,292 1303.3,336.3 1305.1,352.6 "/>
<polygon class="st0" points="1453.6,338.9 1474.2,289.1 1472.3,283 1310.3,228.9 1313.1,292 "/>
<polygon class="st0" points="2946.7,569.3 2952.4,602.6 3198.9,654.8 3198.9,539.2 2951.3,557.7 "/>
<polygon class="st0" points="2933.5,641.5 2933.9,644.9 3198.9,788.1 3198.9,654.8 2952.4,602.6 "/>
<polygon class="st0" points="2789.3,585.8 2790.7,586.8 2933.5,641.5 2952.4,602.6 2946.7,569.3 2818.4,574.4 "/>
<polygon class="st0" points="2216.2,254 2229.3,312 2314,345.9 2336.6,347.2 2347.1,310.5 2349.9,279.1 2347.4,264.7 2304.7,238.5 
	2236.8,223.1 "/>
<polygon class="st0" points="2304.7,238.5 2270.1,45.8 2221.5,200.2 2236.8,223.1 "/>
<polygon class="st0" points="2304.7,238.5 2347.4,264.7 2379.9,208.9 2381.1,200.7 2357,118 2272.5,27.5 2270.1,45.8 "/>
<polygon class="st0" points="880,641.8 865.5,614.2 760.1,688 761.8,701.4 778.5,720.7 805.5,728.4 883.8,673.7 "/>
<polygon class="st0" points="883.8,673.7 805.5,728.4 819.1,752.8 901.7,747.9 899.7,700.8 "/>
<polygon class="st0" points="880,641.8 883.8,673.7 899.7,700.8 996.3,700.8 1003.1,687.8 996.8,641.8 "/>
<polygon class="st0" points="1003.1,214.1 1038,214.1 1069.9,137.1 1036.2,112.3 1026.2,113 996.7,167.1 "/>
<polygon class="st0" points="996.3,227 1003.1,214.1 996.7,167.1 873.7,167.1 864.7,183.7 884.7,227 "/>
<polygon class="st0" points="878.9,130.9 873.7,167.1 996.7,167.1 1026.2,113 1020.1,108.1 892.7,108.1 "/>
<polygon class="st0" points="2476.6,582.2 2456.4,568.4 2367.2,576.5 2366.9,577.9 2380.7,635.7 2388.3,644.6 2478.4,617.1 
	2481.3,591 "/>
<polygon class="st0" points="2451.4,442.8 2438.9,442.2 2456.4,568.4 2476.6,582.2 2525.7,488.9 "/>
<polygon class="st0" points="2525.7,488.9 2476.6,582.2 2481.3,591 2572.7,571.6 2575.6,564.2 2527.6,489.4 "/>
<polygon class="st0" points="1602.4,491.9 1684.2,491.9 1679,432.9 1602.5,432.9 1596.9,481.9 "/>
<polygon class="st0" points="1602.4,491.9 1596.8,540.9 1602.5,550.9 1721.7,550.9 1724.7,539.2 1684.2,491.9 "/>
<polygon class="st0" points="1596.9,481.9 1523.6,481.9 1539.4,540.9 1596.8,540.9 1602.4,491.9 "/>
<polygon class="st0" points="2897.1,695.1 2883.6,729.4 2929.3,813.9 3049.3,813.9 2911.5,688.5 "/>
<polygon class="st0" points="2945,338.4 2949,341 3047.9,364.7 3198.9,366.6 3198.9,238.3 2945,246.1 "/>
<polygon class="st0" points="2942.8,337.8 2945,338.4 2945,246.1 2934.1,213.1 2928.4,209.5 2866.3,276.5 "/>
<polygon class="st0" points="2862.2,366.4 2841.4,431.6 2857.2,446.9 2885.8,452 2949,341 2945,338.4 2942.8,337.8 "/>
<polygon class="st0" points="1692.9,195.1 1700.8,255 1742.4,314 1763.1,330.5 1765.2,329.2 1809.9,282.5 1835,228.8 1841.3,168.3 
	1827.9,99.7 1809.1,57.1 1777.7,77.1 1719,136.1 "/>
<polygon class="st0" points="1692.9,195.1 1719,136.1 1601.4,136.1 1598.6,177.3 1638.6,195.1 "/>
<polygon class="st0" points="1623.2,255 1700.8,255 1692.9,195.1 1638.6,195.1 "/>
<polygon class="st0" points="588.2,352.9 550,372.2 544.8,406.9 590.8,443.9 654.7,399.2 "/>
<polygon class="st0" points="616.5,310 565.4,276.6 527.8,345.3 550,372.2 588.2,352.9 "/>
<polygon class="st0" points="654.7,399.2 735.3,391.7 617.4,309.6 616.5,310 588.2,352.9 "/>
<polygon class="st0" points="594.1,455.7 590.8,443.9 544.8,406.9 541.9,408.7 496.4,470.7 496.5,473.1 545,505.1 "/>
<polygon class="st0" points="496.5,473.1 463.8,520.1 463.8,522.6 526.2,563.7 552.2,532.5 545,505.1 "/>
<polygon class="st0" points="2454.1,688.2 2395.8,678.7 2390.3,695 2408.5,763.4 2440.1,813.9 2459.4,813.9 2475.9,757.9 "/>
<polygon class="st0" points="2310.3,728.5 2351.3,754.5 2408.5,763.4 2390.3,695 2308.5,723.7 "/>
<polygon class="st0" points="2767.9,232.7 2867.4,121.3 2854.4,100 2808.4,82.6 2805.1,83.4 2755.3,223.5 "/>
<polygon class="st0" points="2805.1,83.4 2808.4,82.6 2833.4,0.7 2765.6,0.7 2757.8,66.5 "/>
<polygon class="st0" points="2854.4,100 2914,0.7 2833.4,0.7 2808.4,82.6 "/>
<polygon class="st0" points="1602.5,610.8 1596.9,659.8 1602.4,669.8 1694.5,669.8 1700.2,610.8 "/>
<polygon class="st0" points="1694.5,669.8 1602.4,669.8 1597.1,716.8 1614,728.8 1689.6,728.8 1702.6,688 "/>
<polygon class="st0" points="743.3,669.5 719.6,658.3 612.3,728.8 616.1,797.3 761.8,701.4 760.1,688 "/>
<polygon class="st0" points="699.6,608.3 695.2,603.3 591,671.9 612.3,728.8 719.6,658.3 "/>
<polygon class="st0" points="2561.7,706 2528.7,693.6 2475.9,757.9 2459.4,813.9 2526.5,813.9 2570.7,720 "/>
<polygon class="st0" points="2576.9,609.7 2507.9,658.8 2528.7,693.6 2561.7,706 2605.7,642.5 "/>
<polygon class="st0" points="2605.7,642.5 2561.7,706 2570.7,720 2618.1,737.1 2626,734.6 2650.3,651.1 "/>
<polygon class="st0" points="1380.6,570.4 1380.2,570.6 1359.5,619.6 1361.7,626.4 1472.5,663.6 1474.5,659.8 1482.4,604.6 "/>
<polygon class="st0" points="2221.7,503.7 2215.5,498.9 2157.4,516.3 2157.4,567.8 2235.9,540.2 "/>
<polygon class="st0" points="2208.7,445.6 2215.5,498.9 2221.7,503.7 2366.6,452.7 2376.2,433.3 2351.9,395.2 "/>
<polygon class="st0" points="2208.7,445.6 2194.1,428.9 2138.4,447.7 2138.4,507.8 2157.4,516.3 2215.5,498.9 "/>
<polygon class="st0" points="1306.7,755.3 1282.6,813.9 1337.7,813.9 1329.2,762.4 "/>
<polygon class="st0" points="1278.9,707.2 1278.5,708 1280.6,726.8 1306.7,755.3 1329.2,762.4 1346.8,739.8 1327.7,694.8 "/>
<polygon class="st0" points="1601.6,262.9 1623.2,255 1638.6,195.1 1598.6,177.3 1589.5,187.1 1586,245 "/>
<polygon class="st0" points="1474.2,289.1 1529.3,307.6 1535,304 1537.9,248.2 1492.9,233.1 1472.3,283 "/>
<polygon class="st0" points="1455.5,345.2 1520.1,366.9 1524.6,363 1529.3,307.6 1474.2,289.1 1453.6,338.9 "/>
<polygon class="st0" points="2808.7,338.2 2862.2,366.4 2942.8,337.8 2866.3,276.5 2778.5,252.4 2777.2,265.5 "/>
<polygon class="st0" points="2687,339.9 2760.5,290.5 2777.2,265.5 2778.5,252.4 2772.5,238.5 2767.9,232.7 2755.3,223.5 
	2725.1,211.9 2685.8,208.4 2656.6,214 2645.6,219.8 2640.8,224.4 2643.8,287.7 "/>
<polygon class="st0" points="2778.5,252.4 2866.3,276.5 2928.4,209.5 2912.6,183.2 2772.5,238.5 "/>
<polygon class="st0" points="2951.3,557.7 3198.9,539.2 3198.9,410.7 2943.6,515.5 "/>
<polygon class="st0" points="2945,246.1 3198.9,238.3 3198.9,165.7 2934.1,213.1 "/>
<polygon class="st0" points="544.8,406.9 550,372.2 527.8,345.3 502.1,330.4 416.1,389.4 541.9,408.7 "/>
<polygon class="st0" points="416.1,389.4 502.1,330.4 486.6,290.8 469.7,280.9 344.8,366.5 353.1,394.6 390.5,396.6 "/>
<polygon class="st0" points="565.4,276.6 551.2,248.7 486.6,290.8 502.1,330.4 527.8,345.3 "/>
<polygon class="st0" points="746.1,408.8 742.3,393 735.3,391.7 654.7,399.2 590.8,443.9 594.1,455.7 621.9,485.9 681.1,454.2 "/>
<polygon class="st0" points="330.7,717.7 323.3,728.2 323.3,813.9 458.1,813.9 452.7,797.9 "/>
<polygon class="st0" points="269.8,745.7 265.4,813.9 323.3,813.9 323.3,728.2 "/>
<polygon class="st0" points="197.4,550.6 257.5,520.4 304.8,481.2 338.9,432.8 353.1,394.6 344.8,366.5 314.3,315.7 270.4,274 
	213.6,241.1 143.5,217.4 42.3,199.4 0.5,196 0.5,519.9 156.1,562.5 "/>
<polygon class="st0" points="365.5,120.6 358.6,104.1 328,91 143.5,217.4 213.6,241.1 335,157.9 "/>
<polygon class="st0" points="321.1,74.5 290.4,51.5 42.3,199.4 143.5,217.4 328,91 "/>
<polygon class="st0" points="1308,540.2 1296.7,565 1312.5,603.9 1359.5,619.6 1380.2,570.6 1349.8,554.2 "/>
<polygon class="st0" points="463.8,522.6 463.8,520.1 338.9,432.8 304.8,481.2 430,568.7 "/>
<polygon class="st0" points="892.7,108.1 900.8,38.3 802.1,59.3 796.4,73.4 878.9,130.9 "/>
<polygon class="st0" points="864.7,183.7 873.7,167.1 878.9,130.9 796.4,73.4 768.7,84.8 749.8,113.1 852.5,184.7 "/>
<polygon class="st0" points="901.7,747.9 819.1,752.8 819.1,813.9 912,813.9 912,778.8 "/>
<polygon class="st0" points="805.5,728.4 778.5,720.7 746.6,813.9 819.1,813.9 819.1,752.8 "/>
<polygon class="st0" points="2559.9,400 2575.1,359.5 2550.7,336.5 2537.8,333.6 2461.1,434.7 "/>
<polygon class="st0" points="2427.1,438.6 2438.9,442.2 2451.4,442.8 2461.1,434.7 2537.8,333.6 2509.5,305.8 2475.5,325.5 "/>
<polygon class="st0" points="1596.9,304 1601.6,262.9 1586,245 1547.7,245 1537.9,248.2 1535,304 "/>
<polygon class="st0" points="1586,245 1589.5,187.1 1544.7,187.1 1547.7,245 "/>
<polygon class="st0" points="1492.9,233.1 1537.9,248.2 1547.7,245 1544.7,187.1 1512,176.1 1491,227 "/>
<polygon class="st0" points="1901.4,596.6 1834.5,604.5 1833.7,605.5 1833.3,635.4 1919.9,665.9 1969.6,649.2 1964.3,631.7 
	1942.7,611.1 "/>
<polygon class="st0" points="1300.8,376.4 1305.1,352.6 1303.3,336.3 1215.8,342.8 1159.1,362.1 1156.2,374.4 1178,418.1 "/>
<polygon class="st0" points="363.5,666.7 363.4,669.4 449.3,725.9 473.5,670.9 397.2,620.7 "/>
<polygon class="st0" points="397.2,620.7 397.3,618.1 257.5,520.4 197.4,550.6 363.5,666.7 "/>
<polygon class="st0" points="1310.3,228.9 1472.3,283 1492.9,233.1 1491,227 1303.8,164.6 1301.1,187.9 1301.7,195.9 "/>
<polygon class="st0" points="453.1,241.8 436.5,231.9 314.3,315.7 344.8,366.5 469.7,280.9 "/>
<polygon class="st0" points="420.5,192.3 409.4,185.7 387,194.1 270.4,274 314.3,315.7 436.5,231.9 "/>
<polygon class="st0" points="436.5,231.9 453.1,241.8 553.6,176.2 556,153.4 476.7,155.6 420.5,192.3 "/>
<polygon class="st0" points="1601.6,262.9 1596.9,304 1602.4,314 1742.4,314 1700.8,255 1623.2,255 "/>
<polygon class="st0" points="1529.3,307.6 1524.6,363 1596.8,363 1602.4,314 1596.9,304 1535,304 "/>
<polygon class="st0" points="2574,438.9 2614.2,421.2 2626.4,375.6 2616.7,366.3 2575.1,359.5 2559.9,400 "/>
<polygon class="st0" points="1990.5,173.7 2017.4,163 2039.2,90.7 2023.8,86.5 1991,95.3 1973.4,151.7 "/>
<polygon class="st0" points="1978.7,211.9 1990.5,173.7 1973.4,151.7 1827.9,99.7 1841.3,168.3 1974.1,215.7 "/>
<polygon class="st0" points="2047.1,236.6 2057.4,223.7 2042.6,172.1 2017.4,163 1990.5,173.7 1978.7,211.9 "/>
<polygon class="st0" points="335,157.9 213.6,241.1 270.4,274 387,194.1 "/>
<polygon class="st0" points="847.4,554.7 774.3,605.8 743.3,669.5 760.1,688 865.5,614.2 861,582.9 "/>
<polygon class="st0" points="2917,483.1 3047.9,364.7 2949,341 2885.8,452 "/>
<polygon class="st0" points="2917,483.1 2918.8,490.3 2943.6,515.5 3198.9,410.7 3198.9,366.6 3047.9,364.7 "/>
<polygon class="st0" points="448.7,68.7 562.7,0.7 380.4,0.7 403.8,61.6 "/>
<polygon class="st0" points="290.4,51.5 290.4,0.7 0.5,0.7 0.5,196 42.3,199.4 "/>
<polygon class="st0" points="321.1,74.5 348.7,25.8 351.9,0.7 290.4,0.7 290.4,51.5 "/>
<polygon class="st0" points="1079.4,391 1077,338.1 1069.4,332 1003.1,332 996.3,345 1003.6,391 "/>
<polygon class="st0" points="1003.6,391 996.3,345 898,345 908.9,405 996.3,405 "/>
<polygon class="st0" points="996.3,345 1003.1,332 996.8,286 886.6,286 875.4,315.6 898,345 "/>
<polygon class="st0" points="565.4,276.6 616.5,310 617.4,309.6 649.7,260.8 560.1,202.3 551.2,248.7 "/>
<polygon class="st0" points="735.3,391.7 742.3,393 762.2,349 757.7,335.2 650.5,260.5 649.7,260.8 617.4,309.6 "/>
<polygon class="st0" points="365.5,120.6 335,157.9 387,194.1 409.4,185.7 395.1,138.1 "/>
<polygon class="st0" points="2136,260.5 2150.7,277 2216.2,254 2236.8,223.1 2221.5,200.2 2201.2,196.6 2131.9,220.9 "/>
<polygon class="st0" points="2487.1,268.5 2349.9,279.1 2347.1,310.5 2436.7,316.9 "/>
<polygon class="st0" points="2487.1,268.5 2499.2,266.6 2490.2,220.4 2379.9,208.9 2347.4,264.7 2349.9,279.1 "/>
<polygon class="st0" points="1718.7,582.9 1700.2,610.8 1694.5,669.8 1702.6,688 1715.9,688.9 1779.4,648.9 "/>
<polygon class="st0" points="2235.9,540.2 2245.4,558 2354.7,519.5 2366.6,452.7 2221.7,503.7 "/>
<polygon class="st0" points="2427.1,438.6 2376.2,433.3 2366.6,452.7 2354.7,519.5 2367.2,576.5 2456.4,568.4 2438.9,442.2 "/>
<polygon class="st0" points="1130.9,687.8 1003.1,687.8 996.3,700.8 999,717.3 1028.2,739.9 1141,757.9 1141.5,754.8 1134.3,694.9 
	"/>
<polygon class="st0" points="899.7,700.8 901.7,747.9 912,778.8 988.2,736.4 999,717.3 996.3,700.8 "/>
<polygon class="st0" points="1684.2,491.9 1724.7,539.2 1755.3,514.8 1781.8,461.6 1780.3,417.6 1776.7,390.2 1759,347.9 
	1721.4,373 1679,432.9 "/>
<polygon class="st0" points="560.1,202.3 553.6,176.2 453.1,241.8 469.7,280.9 486.6,290.8 551.2,248.7 "/>
<polygon class="st0" points="560.1,202.3 649.7,260.8 650.5,260.5 682.9,211.6 566.6,135.7 556,153.4 553.6,176.2 "/>
<polygon class="st0" points="758.8,263.8 683.6,211.4 682.9,211.6 650.5,260.5 757.7,335.2 "/>
<polygon class="st0" points="2478.4,617.1 2388.3,644.6 2395.8,678.7 2454.1,688.2 2502.1,655.9 "/>
<polygon class="st0" points="1689.6,728.8 1614,728.8 1628.2,813.9 1693.8,813.9 1697.9,758.9 "/>
<polygon class="st0" points="1254.2,641.9 1251.4,654.8 1278.9,707.2 1327.7,694.8 1339.9,681.4 1340.4,676.6 1288.1,630.4 "/>
<polygon class="st0" points="1361.7,626.4 1340.4,676.6 1339.9,681.4 1463.2,722.8 1465.1,718.8 1472.5,663.6 "/>
<polygon class="st0" points="1327.7,694.8 1346.8,739.8 1455.4,776.2 1463.2,722.8 1339.9,681.4 "/>
<polygon class="st0" points="377,79.1 403.8,61.6 380.4,0.7 351.9,0.7 348.7,25.8 "/>
<polygon class="st0" points="365.5,120.6 395.1,138.1 435.2,111.9 448.7,68.7 403.8,61.6 377,79.1 358.6,104.1 "/>
<polygon class="st0" points="363.4,669.4 363.5,666.7 197.4,550.6 156.1,562.5 177.5,609 330.8,716.1 "/>
<polygon class="st0" points="2775.6,586.6 2751.1,583.5 2742.4,596 2754.1,741 2779.6,749.7 2816.5,733.6 2817.1,721.3 "/>
<polygon class="st0" points="2785.6,585.3 2775.6,586.6 2817.1,721.3 2868.8,681.3 2790.7,586.8 2789.3,585.8 "/>
<polygon class="st0" points="2790.7,586.8 2868.8,681.3 2897.1,695.1 2911.5,688.5 2933.9,644.9 2933.5,641.5 "/>
<polygon class="st0" points="2725.1,211.9 2738.1,74 2704.5,62.7 2674.2,73.8 2685.8,208.4 "/>
<polygon class="st0" points="2685.8,208.4 2674.2,73.8 2663.5,70.3 2617.8,81.4 2607.5,85.9 2656.6,214 "/>
<polygon class="st0" points="1602.5,432.9 1679,432.9 1721.4,373 1602.5,373 1596.8,422.9 "/>
<polygon class="st0" points="1505.3,470.1 1523.6,481.9 1596.9,481.9 1602.5,432.9 1596.8,422.9 1514.3,422.9 1511.3,426.2 "/>
<polygon class="st0" points="1100.8,509.9 1003.1,509.9 996.3,522.9 1003.6,568.9 1110.4,568.9 1105.2,516.7 "/>
<polygon class="st0" points="330.8,716.1 330.7,717.7 452.7,797.9 449.3,725.9 363.4,669.4 "/>
<polygon class="st0" points="2245.4,558 2244.1,574.5 2265.2,613.7 2366.9,577.9 2367.2,576.5 2354.7,519.5 "/>
<polygon class="st0" points="2787.3,413.9 2797.1,423.4 2841.4,431.6 2862.2,366.4 2808.7,338.2 "/>
<polygon class="st0" points="2857.2,446.9 2841.4,431.6 2797.1,423.4 2747.5,578.3 2751.1,583.5 2775.6,586.6 2785.6,585.3 "/>
<polygon class="st0" points="1755.3,514.8 1845.5,547.1 1869.9,527.9 1885.4,506.8 1882.3,497.5 1781.8,461.6 "/>
<polygon class="st0" points="1781.8,461.6 1882.3,497.5 1889.3,463.5 1780.3,417.6 "/>
<polygon class="st0" points="1900,434.5 1889.3,463.5 1882.3,497.5 1885.4,506.8 1912.3,516.2 1965.5,506.9 1965.5,452.9 "/>
<polygon class="st0" points="1965.5,506.9 1912.3,516.2 1942.7,611.1 1964.3,631.7 1979.5,588.5 1979.5,514.9 "/>
<polygon class="st0" points="2009.2,411.6 1965.5,452.9 1965.5,506.9 1979.5,514.9 2025.5,506.9 2025.5,407.6 "/>
<polygon class="st0" points="1505.3,470.1 1487.6,480.6 1466.1,536.8 1485.7,591.8 1539.4,540.9 1523.6,481.9 "/>
<polygon class="st0" points="2201.2,196.6 2221.5,200.2 2270.1,45.8 2272.5,27.5 2268.1,14.6 2204.3,70.2 2163.9,147.1 "/>
<polygon class="st0" points="1973.4,151.7 1991,95.3 1814.5,32.3 1809.1,57.1 1827.9,99.7 "/>
<polygon class="st0" points="1991,95.3 2023.8,86.5 1977.7,0.7 1815.8,0.7 1814.5,32.3 "/>
<polygon class="st0" points="2502.1,655.9 2454.1,688.2 2475.9,757.9 2528.7,693.6 2507.9,658.8 "/>
<polygon class="st0" points="2265.2,613.7 2263.6,630.5 2284.6,669.5 2380.7,635.7 2366.9,577.9 "/>
<polygon class="st0" points="2263.6,630.5 2099.2,688.3 2087.3,713.5 2096.1,752.2 2283.4,686.3 2284.6,669.5 "/>
<polygon class="st0" points="2705.1,539.5 2679.3,527.2 2575.6,564.2 2572.7,571.6 2576.9,609.7 2605.7,642.5 2650.3,651.1 
	2698.4,633.8 2742.4,596 2751.1,583.5 2747.5,578.3 "/>
<polygon class="st0" points="2481.3,591 2478.4,617.1 2502.1,655.9 2507.9,658.8 2576.9,609.7 2572.7,571.6 "/>
<polygon class="st0" points="2683.2,392.1 2730.1,398.3 2760.5,290.5 2687,339.9 2674.6,384 "/>
<polygon class="st0" points="2740.2,407.6 2787.3,413.9 2808.7,338.2 2777.2,265.5 2760.5,290.5 2730.1,398.3 "/>
<polygon class="st0" points="2730.1,398.3 2683.2,392.1 2657.1,490 2679.3,527.2 2705.1,539.5 2740.2,407.6 "/>
<polygon class="st0" points="621.9,485.9 624.7,507.8 638.7,521.1 663.8,532.3 681.1,454.2 "/>
<polygon class="st0" points="681.1,454.2 663.8,532.3 668.7,535.1 775.4,460.5 746.1,408.8 "/>
<polygon class="st0" points="1178,418.1 1175.4,430.3 1197.2,474 1300.1,439 1305.5,415 1300.8,376.4 "/>
<polygon class="st0" points="999,717.3 988.2,736.4 1001.4,813.9 1011.9,813.9 1028.2,739.9 "/>
<polygon class="st0" points="912,778.8 912,813.9 1001.4,813.9 988.2,736.4 "/>
<polygon class="st0" points="2857.2,446.9 2785.6,585.3 2789.3,585.8 2818.4,574.4 2918.8,490.3 2917,483.1 2885.8,452 "/>
<polygon class="st0" points="2039.2,90.7 2054.4,87 2054.4,0.7 1977.7,0.7 2023.8,86.5 "/>
<polygon class="st0" points="2042.6,172.1 2099,149.8 2090.9,110.1 2072.8,92.9 2054.4,87 2039.2,90.7 2017.4,163 "/>
<polygon class="st0" points="2674.2,73.8 2704.5,62.7 2704,0.7 2645.5,0.7 2663.5,70.3 "/>
<polygon class="st0" points="2738.1,74 2757.8,66.5 2765.6,0.7 2704,0.7 2704.5,62.7 "/>
<polygon class="st0" points="757.7,335.2 762.2,349 875.4,315.6 886.6,286 884.7,227 864.7,183.7 852.5,184.7 790.1,213.4 
	758.8,263.8 "/>
<polygon class="st0" points="1003.6,273 996.3,227 884.7,227 886.6,286 996.8,286 "/>
<polygon class="st0" points="1213.5,542 1114.4,575.9 1120.9,628.8 1124.2,634.9 1232.5,597.9 1235.3,585.9 "/>
<polygon class="st0" points="1194.3,486.1 1105.2,516.7 1110.4,568.9 1114.4,575.9 1213.5,542 1216.1,530 "/>
<polygon class="st0" points="1216.1,530 1213.5,542 1235.3,585.9 1296.7,565 1308,540.2 1299.4,501.7 "/>
<polygon class="st0" points="1086.3,398.4 1079.4,391 1003.6,391 996.3,405 1003.6,450.9 1076.2,450.9 1086.9,407.3 "/>
<polygon class="st0" points="2505.2,187.7 2631.5,226.8 2633.6,226.8 2640.8,224.4 2645.6,219.8 2545.1,126.3 2524.5,136.1 
	2503.7,175.8 "/>
<polygon class="st0" points="2499.2,266.6 2501.4,269.1 2631.5,226.8 2505.2,187.7 2490.2,220.4 "/>
<polygon class="st0" points="2505.2,187.7 2503.7,175.8 2449,153.8 2381.1,200.7 2379.9,208.9 2490.2,220.4 "/>
<polygon class="st0" points="2244.1,574.5 2150.3,607.5 2104,665.7 2099.2,688.3 2263.6,630.5 2265.2,613.7 "/>
<polygon class="st0" points="435.2,111.9 476.7,155.6 556,153.4 566.6,135.7 581.5,74.7 580.7,3.3 580.2,0.7 562.7,0.7 448.7,68.7 
	"/>
<polygon class="st0" points="683.6,211.4 716.1,162.5 581.5,74.7 566.6,135.7 682.9,211.6 "/>
<polygon class="st0" points="1061.6,218.6 1098.7,205.9 1101.6,193.2 1074.7,139.9 1069.9,137.1 1038,214.1 "/>
<polygon class="st0" points="2025.5,506.9 1979.5,514.9 1979.5,588.5 2038.4,551.5 2038.4,514.3 "/>
<polygon class="st0" points="2674.6,384 2687,339.9 2643.8,287.7 2616.7,366.3 2626.4,375.6 "/>
<polygon class="st0" points="2626.4,375.6 2614.2,421.2 2655.8,489.1 2657.1,490 2683.2,392.1 2674.6,384 "/>
<polygon class="st0" points="761.8,701.4 616.1,797.3 613.3,813.9 746.6,813.9 778.5,720.7 "/>
<polygon class="st0" points="1300.9,0.7 1062.7,0.7 1059.8,82.6 "/>
<polygon class="st0" points="2575.1,359.5 2616.7,366.3 2643.8,287.7 2640.8,224.4 2633.6,226.8 2550.7,336.5 "/>
<polygon class="st0" points="2157.4,567.8 2157.4,516.3 2138.4,507.8 2097.4,514.9 2097.4,641.1 2104,665.7 2150.3,607.5 "/>
<polygon class="st0" points="2235.9,540.2 2157.4,567.8 2150.3,607.5 2244.1,574.5 2245.4,558 "/>
<polygon class="st0" points="790.1,213.4 716.7,162.3 716.1,162.5 683.6,211.4 758.8,263.8 "/>
<polygon class="st0" points="2047.4,299.6 2051.2,351.4 2155.6,316.2 2150.7,277 2136,260.5 2053,288.5 "/>
<polygon class="st0" points="2051.2,351.4 2047.4,299.6 1959.3,267.8 1954.7,271.5 1938.7,323.2 2047.4,362.5 "/>
<polygon class="st0" points="1086.3,398.4 1156.2,374.4 1159.1,362.1 1136.8,317.6 1077,338.1 1079.4,391 "/>
<polygon class="st0" points="1215.8,342.8 1171.8,294.3 1139.7,305.2 1136.8,317.6 1159.1,362.1 "/>
<polygon class="st0" points="409.4,185.7 420.5,192.3 476.7,155.6 435.2,111.9 395.1,138.1 "/>
<polygon class="st0" points="2656.6,214 2607.5,85.9 2603.1,84.8 2557.9,103.6 2545.1,126.3 2645.6,219.8 "/>
<polygon class="st0" points="2663.5,70.3 2645.5,0.7 2629.8,0.7 2617.8,81.4 "/>
<polygon class="st0" points="2607.5,85.9 2617.8,81.4 2629.8,0.7 2572.4,0.7 2603.1,84.8 "/>
<polygon class="st0" points="1776.7,390.2 1899.5,431.8 1914.8,382.7 1765.2,329.2 1763.1,330.5 1759,347.9 "/>
<polygon class="st0" points="1194.3,486.1 1216.1,530 1299.4,501.7 1306.7,477.6 1300.1,439 1197.2,474 "/>
<polygon class="st0" points="1299.4,501.7 1308,540.2 1349.8,554.2 1367.8,498 1306.7,477.6 "/>
<polygon class="st0" points="1416.4,452 1305.5,415 1300.1,439 1306.7,477.6 1367.8,498 1399.1,502.7 1418.1,457.3 "/>
<polygon class="st0" points="2755.3,223.5 2805.1,83.4 2757.8,66.5 2738.1,74 2725.1,211.9 "/>
<polygon class="st0" points="1564.7,95.9 1564.7,0.7 1456.1,0.7 1563.6,96.1 "/>
<polygon class="st0" points="1959.3,267.8 1974.1,215.7 1841.3,168.3 1835,228.8 1954.7,271.5 "/>
<polygon class="st0" points="2650.3,651.1 2626,734.6 2670.1,750.9 2690.7,742.6 2698.4,633.8 "/>
<polygon class="st0" points="2698.4,633.8 2690.7,742.6 2725.1,753.8 2754.1,741 2742.4,596 "/>
<polygon class="st0" points="749.3,113.3 749.8,113.1 768.7,84.8 746.4,45.7 612.5,0.7 580.2,0.7 580.7,3.3 "/>
<polygon class="st0" points="908.9,405 898,345 875.4,315.6 762.2,349 742.3,393 746.1,408.8 775.4,460.5 818.6,502.6 837.1,512.8 
	884.9,463.9 "/>
<polygon class="st0" points="1375.1,62.9 1532.5,115.4 1563.6,96.1 1456.1,0.7 1300.9,0.7 1302.6,30.4 "/>
<polygon class="st0" points="1755.3,514.8 1724.7,539.2 1721.7,550.9 1723.3,566.1 1833.7,605.5 1834.5,604.5 1845.5,547.1 "/>
<polygon class="st0" points="1346.8,739.8 1329.2,762.4 1337.7,813.9 1458.7,813.9 1455.4,776.2 "/>
<polygon class="st0" points="1148.9,439.3 1175.4,430.3 1178,418.1 1156.2,374.4 1086.3,398.4 1086.9,407.3 "/>
<polygon class="st0" points="1003.1,332 1069.4,332 1067.3,279 1055.9,273 1003.6,273 996.8,286 "/>
<polygon class="st0" points="1697.9,758.9 1693.8,813.9 1780.6,813.9 1780.6,742.3 "/>
<polygon class="st0" points="1532.5,115.4 1375.1,62.9 1511.7,166.3 "/>
<polygon class="st0" points="1511,173 1512,176.1 1544.7,187.1 1589.5,187.1 1598.6,177.3 1601.4,136.1 1580.7,101 1564.7,95.9 
	1563.6,96.1 1532.5,115.4 1511.7,166.3 "/>
<polygon class="st0" points="2867.4,121.3 2890.2,130.8 3033.1,0.7 2914,0.7 2854.4,100 "/>
<polygon class="st0" points="2772.5,238.5 2912.6,183.2 2913.5,170.6 2890.2,130.8 2867.4,121.3 2767.9,232.7 "/>
<polygon class="st0" points="2913.5,170.6 3198.9,32.6 3198.9,0.7 3033.1,0.7 2890.2,130.8 "/>
<polygon class="st0" points="2912.6,183.2 2928.4,209.5 2934.1,213.1 3198.9,165.7 3198.9,32.6 2913.5,170.6 "/>
<polygon class="st0" points="1869.9,527.9 1901.4,596.6 1942.7,611.1 1912.3,516.2 1885.4,506.8 "/>
<polygon class="st0" points="2603.1,84.8 2572.4,0.7 2492.3,0.7 2557.9,103.6 "/>
<polygon class="st0" points="1845.5,547.1 1834.5,604.5 1901.4,596.6 1869.9,527.9 "/>
<polygon class="st0" points="2509.5,305.8 2537.8,333.6 2550.7,336.5 2633.6,226.8 2631.5,226.8 2501.4,269.1 "/>
<polygon class="st0" points="2475.5,325.5 2509.5,305.8 2501.4,269.1 2499.2,266.6 2487.1,268.5 2436.7,316.9 "/>
<polygon class="st0" points="716.7,162.3 749.3,113.3 580.7,3.3 581.5,74.7 716.1,162.5 "/>
<polygon class="st0" points="429.9,571.3 430,568.7 304.8,481.2 257.5,520.4 397.3,618.1 "/>
<polygon class="st0" points="1777.7,77.1 1809.1,57.1 1814.5,32.3 1815.8,0.7 1625.5,0.7 1613.2,77.1 "/>
<polygon class="st0" points="1232.5,597.9 1124.2,634.9 1130.9,687.8 1134.3,694.9 1251.4,654.8 1254.2,641.9 "/>
<polygon class="st0" points="1120.9,628.8 1003.6,628.8 996.8,641.8 1003.1,687.8 1130.9,687.8 1124.2,634.9 "/>
<polygon class="st0" points="1794.2,717.5 1780.6,742.3 1780.6,813.9 1887.6,813.9 1886.7,809.7 "/>
<polygon class="st0" points="2072.8,92.9 2141.7,0.7 2054.4,0.7 2054.4,87 "/>
<polygon class="st0" points="2194.1,428.9 2208.7,445.6 2351.9,395.2 2336.6,347.2 2314,345.9 2189.9,389.6 "/>
<polygon class="st0" points="2174.5,372.1 2076,405.4 2084.4,418.5 2138.4,447.7 2194.1,428.9 2189.9,389.6 "/>
<polygon class="st0" points="996.3,405 908.9,405 884.9,463.9 996.8,463.9 1003.6,450.9 "/>
<polygon class="st0" points="358.6,104.1 377,79.1 348.7,25.8 321.1,74.5 328,91 "/>
<polygon class="st0" points="1580.7,101 1613.2,77.1 1625.5,0.7 1564.7,0.7 1564.7,95.9 "/>
<polygon class="st0" points="496.5,473.1 496.4,470.7 390.5,396.6 353.1,394.6 338.9,432.8 463.8,520.1 "/>
<polygon class="st0" points="416.1,389.4 390.5,396.6 496.4,470.7 541.9,408.7 "/>
<polygon class="st0" points="1003.6,273 1055.9,273 1061.6,218.6 1038,214.1 1003.1,214.1 996.3,227 "/>
<polygon class="st0" points="2740.2,407.6 2705.1,539.5 2747.5,578.3 2797.1,423.4 2787.3,413.9 "/>
<polygon class="st0" points="2310.3,728.5 2310.3,813.9 2328.7,813.9 2351.3,754.5 "/>
<polygon class="st0" points="1719,136.1 1777.7,77.1 1613.2,77.1 1580.7,101 1601.4,136.1 "/>
<polygon class="st0" points="2131.9,220.9 2201.2,196.6 2163.9,147.1 2112.4,165.1 2116.4,203.8 "/>
<polygon class="st0" points="2136,260.5 2131.9,220.9 2116.4,203.8 2057.4,223.7 2047.1,236.6 2053,288.5 "/>
<polygon class="st0" points="2116.4,203.8 2112.4,165.1 2099,149.8 2042.6,172.1 2057.4,223.7 "/>
<polygon class="st0" points="2754.1,741 2725.1,753.8 2726.1,813.9 2787.8,813.9 2779.6,749.7 "/>
<polygon class="st0" points="1003.6,628.8 996.3,582.9 861,582.9 865.5,614.2 880,641.8 996.8,641.8 "/>
<polygon class="st0" points="2946.7,569.3 2951.3,557.7 2943.6,515.5 2918.8,490.3 2818.4,574.4 "/>
<polygon class="st0" points="2053,288.5 2047.1,236.6 1978.7,211.9 1974.1,215.7 1959.3,267.8 2047.4,299.6 "/>
<polygon class="st0" points="2933.9,644.9 2911.5,688.5 3049.3,813.9 3198.9,813.9 3198.9,788.1 "/>
<polygon class="st0" points="2090.9,110.1 2204.3,70.2 2268.1,14.6 2268.7,0.7 2141.7,0.7 2072.8,92.9 "/>
<polygon class="st0" points="2112.4,165.1 2163.9,147.1 2204.3,70.2 2090.9,110.1 2099,149.8 "/>
<polygon class="st0" points="2524.5,136.1 2545.1,126.3 2557.9,103.6 2492.3,0.7 2468.4,0.7 2462.1,81.8 "/>
<polygon class="st0" points="1235.3,585.9 1232.5,597.9 1254.2,641.9 1288.1,630.4 1312.5,603.9 1296.7,565 "/>
<polygon class="st0" points="1889.3,463.5 1900,434.5 1899.5,431.8 1776.7,390.2 1780.3,417.6 "/>
<polygon class="st0" points="2570.7,720 2526.5,813.9 2599.1,813.9 2618.1,737.1 "/>
<polygon class="st0" points="1110.4,568.9 1003.6,568.9 996.3,582.9 1003.6,628.8 1120.9,628.8 1114.4,575.9 "/>
<polygon class="st0" points="1813.2,691.2 1794.2,716.9 1794.2,717.5 1886.7,809.7 1888,792.7 1878.9,714.3 "/>
<polygon class="st0" points="1715.9,688.9 1702.6,688 1689.6,728.8 1697.9,758.9 1780.6,742.3 1794.2,717.5 1794.2,716.9 "/>
<polygon class="st0" points="1312.5,603.9 1288.1,630.4 1340.4,676.6 1361.7,626.4 1359.5,619.6 "/>
<polygon class="st0" points="790.1,213.4 852.5,184.7 749.8,113.1 749.3,113.3 716.7,162.3 "/>
<polygon class="st0" points="699.6,608.3 719.6,658.3 743.3,669.5 774.3,605.8 "/>
<polygon class="st0" points="1251.4,654.8 1134.3,694.9 1141.5,754.8 1278.5,708 1278.9,707.2 "/>
<polygon class="st0" points="1596.8,363 1602.5,373 1721.4,373 1759,347.9 1763.1,330.5 1742.4,314 1602.4,314 "/>
<polygon class="st0" points="1520.1,366.9 1514.3,422.9 1596.8,422.9 1602.5,373 1596.8,363 1524.6,363 "/>
<polygon class="st0" points="1965.5,452.9 2009.2,411.6 1919.3,379.1 1914.8,382.7 1899.5,431.8 1900,434.5 "/>
<polygon class="st0" points="2376.2,433.3 2427.1,438.6 2475.5,325.5 2436.7,316.9 2347.1,310.5 2336.6,347.2 2351.9,395.2 "/>
</svg>
