<svg id="Layer_1" data-name="Layer 1" xmlns="http://www.w3.org/2000/svg" viewBox="0 0 800 200"><defs><style>.cls-1{fill:none;stroke:#000;stroke-miterlimit:10;}</style></defs><title>Pattern Exp1</title><path class="cls-1" d="M693.74,126.16,707,155.29a5.52,5.52,0,0,1-2.73,7.28h0a5.52,5.52,0,0,1-7.28-2.73l-13.25-29.13a5.52,5.52,0,0,1,2.73-7.28h0A5.52,5.52,0,0,1,693.74,126.16Zm-7.28-52.73h0a5.52,5.52,0,0,0-2.73,7.28L697,109.84a5.52,5.52,0,0,0,7.28,2.73h0a5.52,5.52,0,0,0,2.73-7.28L693.74,76.16A5.52,5.52,0,0,0,686.46,73.43Zm0-50h0a5.52,5.52,0,0,0-2.73,7.28L697,59.84a5.52,5.52,0,0,0,7.28,2.73h0A5.52,5.52,0,0,0,707,55.29L693.74,26.16A5.52,5.52,0,0,0,686.46,23.43Zm.32,99.79h0a5.52,5.52,0,0,0-7.21,2.91L667,155.57a5.52,5.52,0,0,0,2.91,7.21h0a5.52,5.52,0,0,0,7.21-2.91l12.53-29.45A5.52,5.52,0,0,0,686.78,123.22Zm0-50h0a5.52,5.52,0,0,0-7.21,2.91L667,105.57a5.52,5.52,0,0,0,2.91,7.21h0a5.52,5.52,0,0,0,7.21-2.91l12.53-29.45A5.52,5.52,0,0,0,686.78,73.22Zm0-50h0a5.52,5.52,0,0,0-7.21,2.91L667,55.57a5.52,5.52,0,0,0,2.91,7.21h0a5.52,5.52,0,0,0,7.21-2.91l12.53-29.45A5.52,5.52,0,0,0,686.78,23.22ZM670.63,162.57h0a5.52,5.52,0,0,0,2.73-7.28L660.1,126.16a5.52,5.52,0,0,0-7.28-2.73h0a5.52,5.52,0,0,0-2.73,7.28l13.25,29.13A5.52,5.52,0,0,0,670.63,162.57Zm0-50h0a5.52,5.52,0,0,0,2.73-7.28L660.1,76.16a5.52,5.52,0,0,0-7.28-2.73h0a5.52,5.52,0,0,0-2.73,7.28l13.25,29.13A5.52,5.52,0,0,0,670.63,112.57Zm0-50h0a5.52,5.52,0,0,0,2.73-7.28L660.1,26.16a5.52,5.52,0,0,0-7.28-2.73h0a5.52,5.52,0,0,0-2.73,7.28l13.25,29.13A5.52,5.52,0,0,0,670.63,62.57Zm32.68,100.21h0a5.52,5.52,0,0,0,7.21-2.91L723,130.43a5.52,5.52,0,0,0-2.91-7.21h0a5.52,5.52,0,0,0-7.21,2.91L700.4,155.57A5.52,5.52,0,0,0,703.31,162.78Zm0-50h0a5.52,5.52,0,0,0,7.21-2.91L723,80.43a5.52,5.52,0,0,0-2.91-7.21h0a5.52,5.52,0,0,0-7.21,2.91L700.4,105.57A5.52,5.52,0,0,0,703.31,112.78Zm0-50h0a5.52,5.52,0,0,0,7.21-2.91L723,30.43a5.52,5.52,0,0,0-2.91-7.21h0a5.52,5.52,0,0,0-7.21,2.91L700.4,55.57A5.52,5.52,0,0,0,703.31,62.78Zm50.15,60.65h0a5.52,5.52,0,0,0-2.73,7.28L764,159.84a5.52,5.52,0,0,0,7.28,2.73h0a5.52,5.52,0,0,0,2.73-7.28l-13.25-29.13A5.52,5.52,0,0,0,753.46,123.43Zm0-50h0a5.52,5.52,0,0,0-2.73,7.28L764,109.84a5.52,5.52,0,0,0,7.28,2.73h0a5.52,5.52,0,0,0,2.73-7.28L760.74,76.16A5.52,5.52,0,0,0,753.46,73.43Zm0-50h0a5.52,5.52,0,0,0-2.73,7.28L764,59.84a5.52,5.52,0,0,0,7.28,2.73h0A5.52,5.52,0,0,0,774,55.29L760.74,26.16A5.52,5.52,0,0,0,753.46,23.43Zm34,100h0a5.52,5.52,0,0,0-2.73,7.28L798,159.84a5.52,5.52,0,0,0,7.28,2.73h0a5.52,5.52,0,0,0,2.73-7.28l-13.25-29.13A5.52,5.52,0,0,0,787.46,123.43Zm0-50h0a5.52,5.52,0,0,0-2.73,7.28L798,109.84a5.52,5.52,0,0,0,7.28,2.73h0a5.52,5.52,0,0,0,2.73-7.28L794.74,76.16A5.52,5.52,0,0,0,787.46,73.43Zm0-50h0a5.52,5.52,0,0,0-2.73,7.28L798,59.84a5.52,5.52,0,0,0,7.28,2.73h0A5.52,5.52,0,0,0,808,55.29L794.74,26.16A5.52,5.52,0,0,0,787.46,23.43Zm-33.68,99.79h0a5.52,5.52,0,0,0-7.21,2.91L734,155.57a5.52,5.52,0,0,0,2.91,7.21h0a5.52,5.52,0,0,0,7.21-2.91l12.53-29.45A5.52,5.52,0,0,0,753.78,123.22Zm0-50h0a5.52,5.52,0,0,0-7.21,2.91L734,105.57a5.52,5.52,0,0,0,2.91,7.21h0a5.52,5.52,0,0,0,7.21-2.91l12.53-29.45A5.52,5.52,0,0,0,753.78,73.22Zm0-50h0a5.52,5.52,0,0,0-7.21,2.91L734,55.57a5.52,5.52,0,0,0,2.91,7.21h0a5.52,5.52,0,0,0,7.21-2.91l12.53-29.45A5.52,5.52,0,0,0,753.78,23.22ZM737.63,162.57h0a5.52,5.52,0,0,0,2.73-7.28L727.1,126.16a5.52,5.52,0,0,0-7.28-2.73h0a5.52,5.52,0,0,0-2.73,7.28l13.25,29.13A5.52,5.52,0,0,0,737.63,162.57Zm0-50h0a5.52,5.52,0,0,0,2.73-7.28L727.1,76.16a5.52,5.52,0,0,0-7.28-2.73h0a5.52,5.52,0,0,0-2.73,7.28l13.25,29.13A5.52,5.52,0,0,0,737.63,112.57Zm0-50h0a5.52,5.52,0,0,0,2.73-7.28L727.1,26.16a5.52,5.52,0,0,0-7.28-2.73h0a5.52,5.52,0,0,0-2.73,7.28l13.25,29.13A5.52,5.52,0,0,0,737.63,62.57Zm32.68,100.21h0a5.52,5.52,0,0,0,7.21-2.91L790,130.43a5.52,5.52,0,0,0-2.91-7.21h0a5.52,5.52,0,0,0-7.21,2.91L767.4,155.57A5.52,5.52,0,0,0,770.31,162.78Zm0-50h0a5.52,5.52,0,0,0,7.21-2.91L790,80.43a5.52,5.52,0,0,0-2.91-7.21h0a5.52,5.52,0,0,0-7.21,2.91L767.4,105.57A5.52,5.52,0,0,0,770.31,112.78Zm0-50h0a5.52,5.52,0,0,0,7.21-2.91L790,30.43a5.52,5.52,0,0,0-2.91-7.21h0a5.52,5.52,0,0,0-7.21,2.91L767.4,55.57A5.52,5.52,0,0,0,770.31,62.78Zm-767,100h0a5.52,5.52,0,0,0,7.21-2.91L23,130.43a5.52,5.52,0,0,0-2.91-7.21h0a5.52,5.52,0,0,0-7.21,2.91L.4,155.57A5.52,5.52,0,0,0,3.31,162.78Zm0-50h0a5.52,5.52,0,0,0,7.21-2.91L23,80.43a5.52,5.52,0,0,0-2.91-7.21h0a5.52,5.52,0,0,0-7.21,2.91L.4,105.57A5.52,5.52,0,0,0,3.31,112.78Zm0-50h0a5.52,5.52,0,0,0,7.21-2.91L23,30.43a5.52,5.52,0,0,0-2.91-7.21h0a5.52,5.52,0,0,0-7.21,2.91L.4,55.57A5.52,5.52,0,0,0,3.31,62.78Zm549.15,60.65h0a5.52,5.52,0,0,0-2.73,7.28L563,159.84a5.52,5.52,0,0,0,7.28,2.73h0a5.52,5.52,0,0,0,2.73-7.28l-13.25-29.13A5.52,5.52,0,0,0,552.46,123.43Zm0-50h0a5.52,5.52,0,0,0-2.73,7.28L563,109.84a5.52,5.52,0,0,0,7.28,2.73h0a5.52,5.52,0,0,0,2.73-7.28L559.74,76.16A5.52,5.52,0,0,0,552.46,73.43Zm0-50h0a5.52,5.52,0,0,0-2.73,7.28L563,59.84a5.52,5.52,0,0,0,7.28,2.73h0A5.52,5.52,0,0,0,573,55.29L559.74,26.16A5.52,5.52,0,0,0,552.46,23.43Zm.32,99.79h0a5.52,5.52,0,0,0-7.21,2.91L533,155.57a5.52,5.52,0,0,0,2.91,7.21h0a5.52,5.52,0,0,0,7.21-2.91l12.53-29.45A5.52,5.52,0,0,0,552.78,123.22Zm0-50h0a5.52,5.52,0,0,0-7.21,2.91L533,105.57a5.52,5.52,0,0,0,2.91,7.21h0a5.52,5.52,0,0,0,7.21-2.91l12.53-29.45A5.52,5.52,0,0,0,552.78,73.22Zm0-50h0a5.52,5.52,0,0,0-7.21,2.91L533,55.57a5.52,5.52,0,0,0,2.91,7.21h0a5.52,5.52,0,0,0,7.21-2.91l12.53-29.45A5.52,5.52,0,0,0,552.78,23.22ZM536.63,162.57h0a5.52,5.52,0,0,0,2.73-7.28L526.1,126.16a5.52,5.52,0,0,0-7.28-2.73h0a5.52,5.52,0,0,0-2.73,7.28l13.25,29.13A5.52,5.52,0,0,0,536.63,162.57Zm0-50h0a5.52,5.52,0,0,0,2.73-7.28L526.1,76.16a5.52,5.52,0,0,0-7.28-2.73h0a5.52,5.52,0,0,0-2.73,7.28l13.25,29.13A5.52,5.52,0,0,0,536.63,112.57Zm0-50h0a5.52,5.52,0,0,0,2.73-7.28L526.1,26.16a5.52,5.52,0,0,0-7.28-2.73h0a5.52,5.52,0,0,0-2.73,7.28l13.25,29.13A5.52,5.52,0,0,0,536.63,62.57Zm32.68,100.21h0a5.52,5.52,0,0,0,7.21-2.91L589,130.43a5.52,5.52,0,0,0-2.91-7.21h0a5.52,5.52,0,0,0-7.21,2.91L566.4,155.57A5.52,5.52,0,0,0,569.31,162.78Zm0-50h0a5.52,5.52,0,0,0,7.21-2.91L589,80.43a5.52,5.52,0,0,0-2.91-7.21h0a5.52,5.52,0,0,0-7.21,2.91L566.4,105.57A5.52,5.52,0,0,0,569.31,112.78Zm0-50h0a5.52,5.52,0,0,0,7.21-2.91L589,30.43a5.52,5.52,0,0,0-2.91-7.21h0a5.52,5.52,0,0,0-7.21,2.91L566.4,55.57A5.52,5.52,0,0,0,569.31,62.78Zm50.15,60.65h0a5.52,5.52,0,0,0-2.73,7.28L630,159.84a5.52,5.52,0,0,0,7.28,2.73h0a5.52,5.52,0,0,0,2.73-7.28l-13.25-29.13A5.52,5.52,0,0,0,619.46,123.43Zm0-50h0a5.52,5.52,0,0,0-2.73,7.28L630,109.84a5.52,5.52,0,0,0,7.28,2.73h0a5.52,5.52,0,0,0,2.73-7.28L626.74,76.16A5.52,5.52,0,0,0,619.46,73.43Zm0-50h0a5.52,5.52,0,0,0-2.73,7.28L630,59.84a5.52,5.52,0,0,0,7.28,2.73h0A5.52,5.52,0,0,0,640,55.29L626.74,26.16A5.52,5.52,0,0,0,619.46,23.43Zm.32,99.79h0a5.52,5.52,0,0,0-7.21,2.91L600,155.57a5.52,5.52,0,0,0,2.91,7.21h0a5.52,5.52,0,0,0,7.21-2.91l12.53-29.45A5.52,5.52,0,0,0,619.78,123.22Zm0-50h0a5.52,5.52,0,0,0-7.21,2.91L600,105.57a5.52,5.52,0,0,0,2.91,7.21h0a5.52,5.52,0,0,0,7.21-2.91l12.53-29.45A5.52,5.52,0,0,0,619.78,73.22Zm0-50h0a5.52,5.52,0,0,0-7.21,2.91L600,55.57a5.52,5.52,0,0,0,2.91,7.21h0a5.52,5.52,0,0,0,7.21-2.91l12.53-29.45A5.52,5.52,0,0,0,619.78,23.22ZM603.63,162.57h0a5.52,5.52,0,0,0,2.73-7.28L593.1,126.16a5.52,5.52,0,0,0-7.28-2.73h0a5.52,5.52,0,0,0-2.73,7.28l13.25,29.13A5.52,5.52,0,0,0,603.63,162.57Zm0-50h0a5.52,5.52,0,0,0,2.73-7.28L593.1,76.16a5.52,5.52,0,0,0-7.28-2.73h0a5.52,5.52,0,0,0-2.73,7.28l13.25,29.13A5.52,5.52,0,0,0,603.63,112.57Zm0-50h0a5.52,5.52,0,0,0,2.73-7.28L593.1,26.16a5.52,5.52,0,0,0-7.28-2.73h0a5.52,5.52,0,0,0-2.73,7.28l13.25,29.13A5.52,5.52,0,0,0,603.63,62.57Zm32.68,100.21h0a5.52,5.52,0,0,0,7.21-2.91L656,130.43a5.52,5.52,0,0,0-2.91-7.21h0a5.52,5.52,0,0,0-7.21,2.91L633.4,155.57A5.52,5.52,0,0,0,636.31,162.78Zm0-50h0a5.52,5.52,0,0,0,7.21-2.91L656,80.43a5.52,5.52,0,0,0-2.91-7.21h0a5.52,5.52,0,0,0-7.21,2.91L633.4,105.57A5.52,5.52,0,0,0,636.31,112.78Zm0-50h0a5.52,5.52,0,0,0,7.21-2.91L656,30.43a5.52,5.52,0,0,0-2.91-7.21h0a5.52,5.52,0,0,0-7.21,2.91L633.4,55.57A5.52,5.52,0,0,0,636.31,62.78ZM418.46,123.43h0a5.52,5.52,0,0,0-2.73,7.28L429,159.84a5.52,5.52,0,0,0,7.28,2.73h0a5.52,5.52,0,0,0,2.73-7.28l-13.25-29.13A5.52,5.52,0,0,0,418.46,123.43Zm0-50h0a5.52,5.52,0,0,0-2.73,7.28L429,109.84a5.52,5.52,0,0,0,7.28,2.73h0a5.52,5.52,0,0,0,2.73-7.28L425.74,76.16A5.52,5.52,0,0,0,418.46,73.43Zm0-50h0a5.52,5.52,0,0,0-2.73,7.28L429,59.84a5.52,5.52,0,0,0,7.28,2.73h0A5.52,5.52,0,0,0,439,55.29L425.74,26.16A5.52,5.52,0,0,0,418.46,23.43Zm.32,99.79h0a5.52,5.52,0,0,0-7.21,2.91L399,155.57a5.52,5.52,0,0,0,2.91,7.21h0a5.52,5.52,0,0,0,7.21-2.91l12.53-29.45A5.52,5.52,0,0,0,418.78,123.22Zm0-50h0a5.52,5.52,0,0,0-7.21,2.91L399,105.57a5.52,5.52,0,0,0,2.91,7.21h0a5.52,5.52,0,0,0,7.21-2.91l12.53-29.45A5.52,5.52,0,0,0,418.78,73.22Zm0-50h0a5.52,5.52,0,0,0-7.21,2.91L399,55.57a5.52,5.52,0,0,0,2.91,7.21h0a5.52,5.52,0,0,0,7.21-2.91l12.53-29.45A5.52,5.52,0,0,0,418.78,23.22ZM402.63,162.57h0a5.52,5.52,0,0,0,2.73-7.28L392.1,126.16a5.52,5.52,0,0,0-7.28-2.73h0a5.52,5.52,0,0,0-2.73,7.28l13.25,29.13A5.52,5.52,0,0,0,402.63,162.57Zm0-50h0a5.52,5.52,0,0,0,2.73-7.28L392.1,76.16a5.52,5.52,0,0,0-7.28-2.73h0a5.52,5.52,0,0,0-2.73,7.28l13.25,29.13A5.52,5.52,0,0,0,402.63,112.57Zm0-50h0a5.52,5.52,0,0,0,2.73-7.28L392.1,26.16a5.52,5.52,0,0,0-7.28-2.73h0a5.52,5.52,0,0,0-2.73,7.28l13.25,29.13A5.52,5.52,0,0,0,402.63,62.57Zm32.68,100.21h0a5.52,5.52,0,0,0,7.21-2.91L455,130.43a5.52,5.52,0,0,0-2.91-7.21h0a5.52,5.52,0,0,0-7.21,2.91L432.4,155.57A5.52,5.52,0,0,0,435.31,162.78Zm0-50h0a5.52,5.52,0,0,0,7.21-2.91L455,80.43a5.52,5.52,0,0,0-2.91-7.21h0a5.52,5.52,0,0,0-7.21,2.91L432.4,105.57A5.52,5.52,0,0,0,435.31,112.78Zm0-50h0a5.52,5.52,0,0,0,7.21-2.91L455,30.43a5.52,5.52,0,0,0-2.91-7.21h0a5.52,5.52,0,0,0-7.21,2.91L432.4,55.57A5.52,5.52,0,0,0,435.31,62.78Zm50.15,60.65h0a5.52,5.52,0,0,0-2.73,7.28L496,159.84a5.52,5.52,0,0,0,7.28,2.73h0a5.52,5.52,0,0,0,2.73-7.28l-13.25-29.13A5.52,5.52,0,0,0,485.46,123.43Zm0-50h0a5.52,5.52,0,0,0-2.73,7.28L496,109.84a5.52,5.52,0,0,0,7.28,2.73h0a5.52,5.52,0,0,0,2.73-7.28L492.74,76.16A5.52,5.52,0,0,0,485.46,73.43Zm0-50h0a5.52,5.52,0,0,0-2.73,7.28L496,59.84a5.52,5.52,0,0,0,7.28,2.73h0A5.52,5.52,0,0,0,506,55.29L492.74,26.16A5.52,5.52,0,0,0,485.46,23.43Zm.32,99.79h0a5.52,5.52,0,0,0-7.21,2.91L466,155.57a5.52,5.52,0,0,0,2.91,7.21h0a5.52,5.52,0,0,0,7.21-2.91l12.53-29.45A5.52,5.52,0,0,0,485.78,123.22Zm0-50h0a5.52,5.52,0,0,0-7.21,2.91L466,105.57a5.52,5.52,0,0,0,2.91,7.21h0a5.52,5.52,0,0,0,7.21-2.91l12.53-29.45A5.52,5.52,0,0,0,485.78,73.22Zm0-50h0a5.52,5.52,0,0,0-7.21,2.91L466,55.57a5.52,5.52,0,0,0,2.91,7.21h0a5.52,5.52,0,0,0,7.21-2.91l12.53-29.45A5.52,5.52,0,0,0,485.78,23.22ZM469.63,162.57h0a5.52,5.52,0,0,0,2.73-7.28L459.1,126.16a5.52,5.52,0,0,0-7.28-2.73h0a5.52,5.52,0,0,0-2.73,7.28l13.25,29.13A5.52,5.52,0,0,0,469.63,162.57Zm0-50h0a5.52,5.52,0,0,0,2.73-7.28L459.1,76.16a5.52,5.52,0,0,0-7.28-2.73h0a5.52,5.52,0,0,0-2.73,7.28l13.25,29.13A5.52,5.52,0,0,0,469.63,112.57Zm0-50h0a5.52,5.52,0,0,0,2.73-7.28L459.1,26.16a5.52,5.52,0,0,0-7.28-2.73h0a5.52,5.52,0,0,0-2.73,7.28l13.25,29.13A5.52,5.52,0,0,0,469.63,62.57Zm32.68,100.21h0a5.52,5.52,0,0,0,7.21-2.91L522,130.43a5.52,5.52,0,0,0-2.91-7.21h0a5.52,5.52,0,0,0-7.21,2.91L499.4,155.57A5.52,5.52,0,0,0,502.31,162.78Zm0-50h0a5.52,5.52,0,0,0,7.21-2.91L522,80.43a5.52,5.52,0,0,0-2.91-7.21h0a5.52,5.52,0,0,0-7.21,2.91L499.4,105.57A5.52,5.52,0,0,0,502.31,112.78Zm0-50h0a5.52,5.52,0,0,0,7.21-2.91L522,30.43a5.52,5.52,0,0,0-2.91-7.21h0a5.52,5.52,0,0,0-7.21,2.91L499.4,55.57A5.52,5.52,0,0,0,502.31,62.78ZM284.46,123.43h0a5.52,5.52,0,0,0-2.73,7.28L295,159.84a5.52,5.52,0,0,0,7.28,2.73h0a5.52,5.52,0,0,0,2.73-7.28l-13.25-29.13A5.52,5.52,0,0,0,284.46,123.43Zm0-50h0a5.52,5.52,0,0,0-2.73,7.28L295,109.84a5.52,5.52,0,0,0,7.28,2.73h0a5.52,5.52,0,0,0,2.73-7.28L291.74,76.16A5.52,5.52,0,0,0,284.46,73.43Zm0-50h0a5.52,5.52,0,0,0-2.73,7.28L295,59.84a5.52,5.52,0,0,0,7.28,2.73h0A5.52,5.52,0,0,0,305,55.29L291.74,26.16A5.52,5.52,0,0,0,284.46,23.43Zm.32,99.79h0a5.52,5.52,0,0,0-7.21,2.91L265,155.57a5.52,5.52,0,0,0,2.91,7.21h0a5.52,5.52,0,0,0,7.21-2.91l12.53-29.45A5.52,5.52,0,0,0,284.78,123.22Zm0-50h0a5.52,5.52,0,0,0-7.21,2.91L265,105.57a5.52,5.52,0,0,0,2.91,7.21h0a5.52,5.52,0,0,0,7.21-2.91l12.53-29.45A5.52,5.52,0,0,0,284.78,73.22Zm0-50h0a5.52,5.52,0,0,0-7.21,2.91L265,55.57a5.52,5.52,0,0,0,2.91,7.21h0a5.52,5.52,0,0,0,7.21-2.91l12.53-29.45A5.52,5.52,0,0,0,284.78,23.22ZM268.63,162.57h0a5.52,5.52,0,0,0,2.73-7.28L258.1,126.16a5.52,5.52,0,0,0-7.28-2.73h0a5.52,5.52,0,0,0-2.73,7.28l13.25,29.13A5.52,5.52,0,0,0,268.63,162.57Zm0-50h0a5.52,5.52,0,0,0,2.73-7.28L258.1,76.16a5.52,5.52,0,0,0-7.28-2.73h0a5.52,5.52,0,0,0-2.73,7.28l13.25,29.13A5.52,5.52,0,0,0,268.63,112.57Zm0-50h0a5.52,5.52,0,0,0,2.73-7.28L258.1,26.16a5.52,5.52,0,0,0-7.28-2.73h0a5.52,5.52,0,0,0-2.73,7.28l13.25,29.13A5.52,5.52,0,0,0,268.63,62.57Zm32.68,100.21h0a5.52,5.52,0,0,0,7.21-2.91L321,130.43a5.52,5.52,0,0,0-2.91-7.21h0a5.52,5.52,0,0,0-7.21,2.91L298.4,155.57A5.52,5.52,0,0,0,301.31,162.78Zm0-50h0a5.52,5.52,0,0,0,7.21-2.91L321,80.43a5.52,5.52,0,0,0-2.91-7.21h0a5.52,5.52,0,0,0-7.21,2.91L298.4,105.57A5.52,5.52,0,0,0,301.31,112.78Zm0-50h0a5.52,5.52,0,0,0,7.21-2.91L321,30.43a5.52,5.52,0,0,0-2.91-7.21h0a5.52,5.52,0,0,0-7.21,2.91L298.4,55.57A5.52,5.52,0,0,0,301.31,62.78Zm50.15,60.65h0a5.52,5.52,0,0,0-2.73,7.28L362,159.84a5.52,5.52,0,0,0,7.28,2.73h0a5.52,5.52,0,0,0,2.73-7.28l-13.25-29.13A5.52,5.52,0,0,0,351.46,123.43Zm0-50h0a5.52,5.52,0,0,0-2.73,7.28L362,109.84a5.52,5.52,0,0,0,7.28,2.73h0a5.52,5.52,0,0,0,2.73-7.28L358.74,76.16A5.52,5.52,0,0,0,351.46,73.43Zm0-50h0a5.52,5.52,0,0,0-2.73,7.28L362,59.84a5.52,5.52,0,0,0,7.28,2.73h0A5.52,5.52,0,0,0,372,55.29L358.74,26.16A5.52,5.52,0,0,0,351.46,23.43Zm.32,99.79h0a5.52,5.52,0,0,0-7.21,2.91L332,155.57a5.52,5.52,0,0,0,2.91,7.21h0a5.52,5.52,0,0,0,7.21-2.91l12.53-29.45A5.52,5.52,0,0,0,351.78,123.22Zm0-50h0a5.52,5.52,0,0,0-7.21,2.91L332,105.57a5.52,5.52,0,0,0,2.91,7.21h0a5.52,5.52,0,0,0,7.21-2.91l12.53-29.45A5.52,5.52,0,0,0,351.78,73.22Zm0-50h0a5.52,5.52,0,0,0-7.21,2.91L332,55.57a5.52,5.52,0,0,0,2.91,7.21h0a5.52,5.52,0,0,0,7.21-2.91l12.53-29.45A5.52,5.52,0,0,0,351.78,23.22ZM335.63,162.57h0a5.52,5.52,0,0,0,2.73-7.28L325.1,126.16a5.52,5.52,0,0,0-7.28-2.73h0a5.52,5.52,0,0,0-2.73,7.28l13.25,29.13A5.52,5.52,0,0,0,335.63,162.57Zm0-50h0a5.52,5.52,0,0,0,2.73-7.28L325.1,76.16a5.52,5.52,0,0,0-7.28-2.73h0a5.52,5.52,0,0,0-2.73,7.28l13.25,29.13A5.52,5.52,0,0,0,335.63,112.57Zm0-50h0a5.52,5.52,0,0,0,2.73-7.28L325.1,26.16a5.52,5.52,0,0,0-7.28-2.73h0a5.52,5.52,0,0,0-2.73,7.28l13.25,29.13A5.52,5.52,0,0,0,335.63,62.57Zm32.68,100.21h0a5.52,5.52,0,0,0,7.21-2.91L388,130.43a5.52,5.52,0,0,0-2.91-7.21h0a5.52,5.52,0,0,0-7.21,2.91L365.4,155.57A5.52,5.52,0,0,0,368.31,162.78Zm0-50h0a5.52,5.52,0,0,0,7.21-2.91L388,80.43a5.52,5.52,0,0,0-2.91-7.21h0a5.52,5.52,0,0,0-7.21,2.91L365.4,105.57A5.52,5.52,0,0,0,368.31,112.78Zm0-50h0a5.52,5.52,0,0,0,7.21-2.91L388,30.43a5.52,5.52,0,0,0-2.91-7.21h0a5.52,5.52,0,0,0-7.21,2.91L365.4,55.57A5.52,5.52,0,0,0,368.31,62.78ZM217.46,123.43h0a5.52,5.52,0,0,0-2.73,7.28L228,159.84a5.52,5.52,0,0,0,7.28,2.73h0a5.52,5.52,0,0,0,2.73-7.28l-13.25-29.13A5.52,5.52,0,0,0,217.46,123.43Zm0-50h0a5.52,5.52,0,0,0-2.73,7.28L228,109.84a5.52,5.52,0,0,0,7.28,2.73h0a5.52,5.52,0,0,0,2.73-7.28L224.74,76.16A5.52,5.52,0,0,0,217.46,73.43Zm0-50h0a5.52,5.52,0,0,0-2.73,7.28L228,59.84a5.52,5.52,0,0,0,7.28,2.73h0A5.52,5.52,0,0,0,238,55.29L224.74,26.16A5.52,5.52,0,0,0,217.46,23.43Zm.32,99.79h0a5.52,5.52,0,0,0-7.21,2.91L198,155.57a5.52,5.52,0,0,0,2.91,7.21h0a5.52,5.52,0,0,0,7.21-2.91l12.53-29.45A5.52,5.52,0,0,0,217.78,123.22Zm0-50h0a5.52,5.52,0,0,0-7.21,2.91L198,105.57a5.52,5.52,0,0,0,2.91,7.21h0a5.52,5.52,0,0,0,7.21-2.91l12.53-29.45A5.52,5.52,0,0,0,217.78,73.22Zm0-50h0a5.52,5.52,0,0,0-7.21,2.91L198,55.57a5.52,5.52,0,0,0,2.91,7.21h0a5.52,5.52,0,0,0,7.21-2.91l12.53-29.45A5.52,5.52,0,0,0,217.78,23.22ZM201.63,162.57h0a5.52,5.52,0,0,0,2.73-7.28L191.1,126.16a5.52,5.52,0,0,0-7.28-2.73h0a5.52,5.52,0,0,0-2.73,7.28l13.25,29.13A5.52,5.52,0,0,0,201.63,162.57Zm0-50h0a5.52,5.52,0,0,0,2.73-7.28L191.1,76.16a5.52,5.52,0,0,0-7.28-2.73h0a5.52,5.52,0,0,0-2.73,7.28l13.25,29.13A5.52,5.52,0,0,0,201.63,112.57Zm0-50h0a5.52,5.52,0,0,0,2.73-7.28L191.1,26.16a5.52,5.52,0,0,0-7.28-2.73h0a5.52,5.52,0,0,0-2.73,7.28l13.25,29.13A5.52,5.52,0,0,0,201.63,62.57Zm32.68,100.21h0a5.52,5.52,0,0,0,7.21-2.91L254,130.43a5.52,5.52,0,0,0-2.91-7.21h0a5.52,5.52,0,0,0-7.21,2.91L231.4,155.57A5.52,5.52,0,0,0,234.31,162.78Zm0-50h0a5.52,5.52,0,0,0,7.21-2.91L254,80.43a5.52,5.52,0,0,0-2.91-7.21h0a5.52,5.52,0,0,0-7.21,2.91L231.4,105.57A5.52,5.52,0,0,0,234.31,112.78Zm0-50h0a5.52,5.52,0,0,0,7.21-2.91L254,30.43a5.52,5.52,0,0,0-2.91-7.21h0a5.52,5.52,0,0,0-7.21,2.91L231.4,55.57A5.52,5.52,0,0,0,234.31,62.78ZM83.46,123.43h0a5.52,5.52,0,0,0-2.73,7.28L94,159.84a5.52,5.52,0,0,0,7.28,2.73h0a5.52,5.52,0,0,0,2.73-7.28L90.74,126.16A5.52,5.52,0,0,0,83.46,123.43Zm0-50h0a5.52,5.52,0,0,0-2.73,7.28L94,109.84a5.52,5.52,0,0,0,7.28,2.73h0a5.52,5.52,0,0,0,2.73-7.28L90.74,76.16A5.52,5.52,0,0,0,83.46,73.43Zm0-50h0a5.52,5.52,0,0,0-2.73,7.28L94,59.84a5.52,5.52,0,0,0,7.28,2.73h0A5.52,5.52,0,0,0,104,55.29L90.74,26.16A5.52,5.52,0,0,0,83.46,23.43Zm.32,99.79h0a5.52,5.52,0,0,0-7.21,2.91L64,155.57a5.52,5.52,0,0,0,2.91,7.21h0a5.52,5.52,0,0,0,7.21-2.91l12.53-29.45A5.52,5.52,0,0,0,83.78,123.22Zm0-50h0a5.52,5.52,0,0,0-7.21,2.91L64,105.57a5.52,5.52,0,0,0,2.91,7.21h0a5.52,5.52,0,0,0,7.21-2.91L86.69,80.43A5.52,5.52,0,0,0,83.78,73.22Zm0-50h0a5.52,5.52,0,0,0-7.21,2.91L64,55.57a5.52,5.52,0,0,0,2.91,7.21h0a5.52,5.52,0,0,0,7.21-2.91L86.69,30.43A5.52,5.52,0,0,0,83.78,23.22ZM67.63,162.57h0a5.52,5.52,0,0,0,2.73-7.28L57.1,126.16a5.52,5.52,0,0,0-7.28-2.73h0a5.52,5.52,0,0,0-2.73,7.28l13.25,29.13A5.52,5.52,0,0,0,67.63,162.57Zm0-50h0a5.52,5.52,0,0,0,2.73-7.28L57.1,76.16a5.52,5.52,0,0,0-7.28-2.73h0a5.52,5.52,0,0,0-2.73,7.28l13.25,29.13A5.52,5.52,0,0,0,67.63,112.57Zm0-50h0a5.52,5.52,0,0,0,2.73-7.28L57.1,26.16a5.52,5.52,0,0,0-7.28-2.73h0a5.52,5.52,0,0,0-2.73,7.28L60.34,59.84A5.52,5.52,0,0,0,67.63,62.57Zm32.68,100.21h0a5.52,5.52,0,0,0,7.21-2.91L120,130.43a5.52,5.52,0,0,0-2.91-7.21h0a5.52,5.52,0,0,0-7.21,2.91L97.4,155.57A5.52,5.52,0,0,0,100.31,162.78Zm0-50h0a5.52,5.52,0,0,0,7.21-2.91L120,80.43a5.52,5.52,0,0,0-2.91-7.21h0a5.52,5.52,0,0,0-7.21,2.91L97.4,105.57A5.52,5.52,0,0,0,100.31,112.78Zm0-50h0a5.52,5.52,0,0,0,7.21-2.91L120,30.43a5.52,5.52,0,0,0-2.91-7.21h0a5.52,5.52,0,0,0-7.21,2.91L97.4,55.57A5.52,5.52,0,0,0,100.31,62.78Zm50.15,60.65h0a5.52,5.52,0,0,0-2.73,7.28L161,159.84a5.52,5.52,0,0,0,7.28,2.73h0a5.52,5.52,0,0,0,2.73-7.28l-13.25-29.13A5.52,5.52,0,0,0,150.46,123.43Zm0-50h0a5.52,5.52,0,0,0-2.73,7.28L161,109.84a5.52,5.52,0,0,0,7.28,2.73h0a5.52,5.52,0,0,0,2.73-7.28L157.74,76.16A5.52,5.52,0,0,0,150.46,73.43Zm0-50h0a5.52,5.52,0,0,0-2.73,7.28L161,59.84a5.52,5.52,0,0,0,7.28,2.73h0A5.52,5.52,0,0,0,171,55.29L157.74,26.16A5.52,5.52,0,0,0,150.46,23.43Zm.32,99.79h0a5.52,5.52,0,0,0-7.21,2.91L131,155.57a5.52,5.52,0,0,0,2.91,7.21h0a5.52,5.52,0,0,0,7.21-2.91l12.53-29.45A5.52,5.52,0,0,0,150.78,123.22Zm0-50h0a5.52,5.52,0,0,0-7.21,2.91L131,105.57a5.52,5.52,0,0,0,2.91,7.21h0a5.52,5.52,0,0,0,7.21-2.91l12.53-29.45A5.52,5.52,0,0,0,150.78,73.22Zm0-50h0a5.52,5.52,0,0,0-7.21,2.91L131,55.57a5.52,5.52,0,0,0,2.91,7.21h0a5.52,5.52,0,0,0,7.21-2.91l12.53-29.45A5.52,5.52,0,0,0,150.78,23.22ZM134.63,162.57h0a5.52,5.52,0,0,0,2.73-7.28L124.1,126.16a5.52,5.52,0,0,0-7.28-2.73h0a5.52,5.52,0,0,0-2.73,7.28l13.25,29.13A5.52,5.52,0,0,0,134.63,162.57Zm0-50h0a5.52,5.52,0,0,0,2.73-7.28L124.1,76.16a5.52,5.52,0,0,0-7.28-2.73h0a5.52,5.52,0,0,0-2.73,7.28l13.25,29.13A5.52,5.52,0,0,0,134.63,112.57Zm0-50h0a5.52,5.52,0,0,0,2.73-7.28L124.1,26.16a5.52,5.52,0,0,0-7.28-2.73h0a5.52,5.52,0,0,0-2.73,7.28l13.25,29.13A5.52,5.52,0,0,0,134.63,62.57Zm32.68,100.21h0a5.52,5.52,0,0,0,7.21-2.91L187,130.43a5.52,5.52,0,0,0-2.91-7.21h0a5.52,5.52,0,0,0-7.21,2.91L164.4,155.57A5.52,5.52,0,0,0,167.31,162.78Zm0-50h0a5.52,5.52,0,0,0,7.21-2.91L187,80.43a5.52,5.52,0,0,0-2.91-7.21h0a5.52,5.52,0,0,0-7.21,2.91L164.4,105.57A5.52,5.52,0,0,0,167.31,112.78Zm0-50h0a5.52,5.52,0,0,0,7.21-2.91L187,30.43a5.52,5.52,0,0,0-2.91-7.21h0a5.52,5.52,0,0,0-7.21,2.91L164.4,55.57A5.52,5.52,0,0,0,167.31,62.78ZM18.46,123.43h0a5.52,5.52,0,0,0-2.73,7.28L29,159.84a5.52,5.52,0,0,0,7.28,2.73h0A5.52,5.52,0,0,0,39,155.29L25.74,126.16A5.52,5.52,0,0,0,18.46,123.43Zm0-50h0a5.52,5.52,0,0,0-2.73,7.28L29,109.84a5.52,5.52,0,0,0,7.28,2.73h0A5.52,5.52,0,0,0,39,105.29L25.74,76.16A5.52,5.52,0,0,0,18.46,73.43Zm0-50h0a5.52,5.52,0,0,0-2.73,7.28L29,59.84a5.52,5.52,0,0,0,7.28,2.73h0A5.52,5.52,0,0,0,39,55.29L25.74,26.16A5.52,5.52,0,0,0,18.46,23.43ZM33.31,162.78h0a5.52,5.52,0,0,0,7.21-2.91L53,130.43a5.52,5.52,0,0,0-2.91-7.21h0a5.52,5.52,0,0,0-7.21,2.91L30.4,155.57A5.52,5.52,0,0,0,33.31,162.78Zm0-50h0a5.52,5.52,0,0,0,7.21-2.91L53,80.43a5.52,5.52,0,0,0-2.91-7.21h0a5.52,5.52,0,0,0-7.21,2.91L30.4,105.57A5.52,5.52,0,0,0,33.31,112.78Zm0-50h0a5.52,5.52,0,0,0,7.21-2.91L53,30.43a5.52,5.52,0,0,0-2.91-7.21h0a5.52,5.52,0,0,0-7.21,2.91L30.4,55.57A5.52,5.52,0,0,0,33.31,62.78Z"/></svg>