<svg id="Layer_1" data-name="Layer 1" xmlns="http://www.w3.org/2000/svg" viewBox="0 0 800 200"><defs><style>.cls-1{fill:none;stroke:#000;stroke-miterlimit:10;}.cls-2{fill:#fff;}</style></defs><title>Pattern Exp1</title><line class="cls-1" x1="762" y1="127.5" x2="599" y2="127.5"/><line class="cls-1" x1="584" y1="134.5" x2="748" y2="134.5"/><polygon class="cls-1" points="116.34 57.5 77.66 57.5 58.32 91 77.66 124.5 116.34 124.5 135.68 91 116.34 57.5"/><polygon class="cls-2" points="84.33 112.94 71.67 91 84.33 69.06 109.67 69.06 122.33 91 109.67 112.94 84.33 112.94"/><path d="M109.38,69.56,121.75,91l-12.38,21.44H84.62L72.25,91,84.62,69.56h24.75m.58-1H84L71.09,91l13,22.44H110l13-22.44L110,68.56Z"/><line class="cls-1" x1="77.5" y1="57.5" x2="116.5" y2="124.5"/><line class="cls-1" x1="116.5" y1="57.5" x2="77.5" y2="124.5"/><line class="cls-1" x1="58.5" y1="90.5" x2="135.5" y2="90.5"/><polygon class="cls-2" points="90.5 102.25 84.01 91 90.5 79.75 103.5 79.75 109.99 91 103.5 102.25 90.5 102.25"/><path d="M103.21,80.25,109.41,91l-6.21,10.75H90.79L84.59,91l6.21-10.75h12.41m.58-1H90.22L83.43,91l6.78,11.75h13.57L110.57,91l-6.78-11.75Z"/><circle class="cls-2" cx="516.02" cy="79.02" r="13.52"/><circle class="cls-1" cx="516.02" cy="79.02" r="13.52"/><circle cx="486.02" cy="79.02" r="13.52"/><circle cx="486.02" cy="79.02" r="13.52"/><circle class="cls-2" cx="456.02" cy="79.02" r="13.52"/><circle class="cls-1" cx="456.02" cy="79.02" r="13.52"/><circle cx="426.02" cy="79.02" r="13.52"/><circle cx="426.02" cy="79.02" r="13.52"/><circle class="cls-2" cx="396.02" cy="79.02" r="13.52"/><circle class="cls-1" cx="396.02" cy="79.02" r="13.52"/><circle cx="366.02" cy="79.02" r="13.52"/><circle cx="366.02" cy="79.02" r="13.52"/><circle class="cls-2" cx="336.02" cy="79.02" r="13.52"/><circle class="cls-1" cx="336.02" cy="79.02" r="13.52"/><circle cx="306.02" cy="79.02" r="13.52"/><circle cx="306.02" cy="79.02" r="13.52"/><circle class="cls-2" cx="276.02" cy="79.02" r="13.52"/><circle class="cls-1" cx="276.02" cy="79.02" r="13.52"/><circle cx="246.02" cy="79.02" r="13.52"/><circle cx="246.02" cy="79.02" r="13.52"/><circle class="cls-2" cx="216.02" cy="79.02" r="13.52"/><circle class="cls-1" cx="216.02" cy="79.02" r="13.52"/><polygon class="cls-1" points="579.5 79.5 625.5 79.5 625 79.5 602.5 20.5 602 20.5 580 79.5 579.5 79.5"/><polygon class="cls-1" points="555.5 81.5 601.5 81.5 601 81.5 578.5 22.5 578 22.5 556 81.5 555.5 81.5"/><polygon class="cls-1" points="531.5 83.5 577.5 83.5 577 83.5 554.5 24.5 554 24.5 532 83.5 531.5 83.5"/><polygon class="cls-1" points="507.5 85.5 553.5 85.5 553 85.5 530.5 26.5 530 26.5 508 85.5 507.5 85.5"/><polygon class="cls-1" points="483.5 87.5 529.5 87.5 529 87.5 506.5 28.5 506 28.5 484 87.5 483.5 87.5"/><polygon class="cls-1" points="459.5 89.5 505.5 89.5 505 89.5 482.5 30.5 482 30.5 460 89.5 459.5 89.5"/><polygon class="cls-1" points="435.5 91.5 481.5 91.5 481 91.5 458.5 32.5 458 32.5 436 91.5 435.5 91.5"/><polygon class="cls-1" points="411.5 93.5 457.5 93.5 457 93.5 434.5 34.5 434 34.5 412 93.5 411.5 93.5"/><polygon class="cls-1" points="387.5 95.5 433.5 95.5 433 95.5 410.5 36.5 410 36.5 388 95.5 387.5 95.5"/><polygon class="cls-1" points="363.5 97.5 409.5 97.5 409 97.5 386.5 38.5 386 38.5 364 97.5 363.5 97.5"/><polygon class="cls-1" points="339.5 99.5 385.5 99.5 385 99.5 362.5 40.5 362 40.5 340 99.5 339.5 99.5"/><polygon class="cls-1" points="315.5 101.5 361.5 101.5 361 101.5 338.5 42.5 338 42.5 316 101.5 315.5 101.5"/><polygon class="cls-1" points="291.5 103.5 337.5 103.5 337 103.5 314.5 44.5 314 44.5 292 103.5 291.5 103.5"/><polygon class="cls-1" points="267.5 105.5 313.5 105.5 313 105.5 290.5 46.5 290 46.5 268 105.5 267.5 105.5"/><polygon class="cls-1" points="243.5 107.5 289.5 107.5 289 107.5 266.5 48.5 266 48.5 244 107.5 243.5 107.5"/><polygon class="cls-1" points="219.5 109.5 265.5 109.5 265 109.5 242.5 50.5 242 50.5 220 109.5 219.5 109.5"/><polygon class="cls-1" points="195.5 111.5 241.5 111.5 241 111.5 218.5 52.5 218 52.5 196 111.5 195.5 111.5"/><polygon class="cls-1" points="171.5 113.5 217.5 113.5 217 113.5 194.5 54.5 194 54.5 172 113.5 171.5 113.5"/><polygon class="cls-1" points="147.5 115.5 193.5 115.5 193 115.5 170.5 56.5 170 56.5 148 115.5 147.5 115.5"/><polygon class="cls-1" points="123.5 117.5 169.5 117.5 169 117.5 146.5 58.5 146 58.5 124 117.5 123.5 117.5"/><polygon class="cls-1" points="99.5 119.5 145.5 119.5 145 119.5 122.5 60.5 122 60.5 100 119.5 99.5 119.5"/><rect class="cls-1" x="181.5" y="43.5" width="78" height="167" rx="12" ry="12"/><rect class="cls-1" x="571.86" y="109.5" width="11" height="43" rx="5.5" ry="5.5" transform="translate(1048.65 489.32) rotate(-155.54)"/><rect class="cls-1" x="588.86" y="109.5" width="11" height="43" rx="5.5" ry="5.5" transform="translate(1192.57 18.88) rotate(156.96)"/><rect class="cls-1" x="546.4" y="182.32" width="11.42" height="43" rx="5.5" ry="5.5" transform="translate(82.27 558.25) rotate(-57.29)"/><rect class="cls-1" x="605.5" y="162.5" width="11" height="43" rx="5.5" ry="5.5" transform="translate(591.41 821.8) rotate(-105)"/><rect class="cls-1" x="491.5" y="168.5" width="11" height="43" rx="5.5" ry="5.5" transform="translate(207.31 -256.3) rotate(36.09)"/><rect class="cls-1" x="605.5" y="109.5" width="11" height="43" rx="5.5" ry="5.5" transform="translate(109.09 -241.25) rotate(24.46)"/><rect class="cls-1" x="555.5" y="109.5" width="11" height="43" rx="5.5" ry="5.5" transform="translate(-6.51 230.06) rotate(-23.04)"/><rect class="cls-1" x="504.86" y="109.5" width="11" height="43" rx="5.5" ry="5.5" transform="translate(920.67 461.58) rotate(-155.54)"/><rect class="cls-1" x="521.86" y="109.5" width="11" height="43" rx="5.5" ry="5.5" transform="translate(1063.92 45.11) rotate(156.96)"/><rect class="cls-1" x="538.5" y="109.5" width="11" height="43" rx="5.5" ry="5.5" transform="translate(103.08 -213.51) rotate(24.46)"/><rect class="cls-1" x="488.5" y="109.5" width="11" height="43" rx="5.5" ry="5.5" transform="translate(-11.86 203.83) rotate(-23.04)"/></svg>