<svg id="Layer_1" data-name="Layer 1" xmlns="http://www.w3.org/2000/svg" viewBox="0 0 800 200"><defs><style>.cls-1{fill:none;stroke:#000;stroke-miterlimit:10;}</style></defs><title>Pattern Exp1</title><path class="cls-1" d="M805,183.5l22-59h.5l22.5,59H805Zm-20.5,0H830l-22.5-59H807l-22,59Zm-20,0H810l-22.5-59H787l-22,59Zm-20,0H790l-22.5-59H767l-22,59Zm-20,0H770l-22.5-59H747l-22,59Zm-20,0H750l-22.5-59H727l-22,59Zm-20,0H730l-22.5-59H707l-22,59Zm-20,0H710l-22.5-59H687l-22,59Zm-20,0H690l-22.5-59H667l-22,59Zm-20,0H670l-22.5-59H647l-22,59Zm-20,0H650l-22.5-59H627l-22,59Zm-20,0H630l-22.5-59H607l-22,59Zm-20,0H610l-22.5-59H587l-22,59Zm-20,0H590l-22.5-59H567l-22,59Zm-20,0H570l-22.5-59H547l-22,59Zm-20,0H550l-22.5-59H527l-22,59Zm-20,0H530l-22.5-59H507l-22,59Zm-20,0H510l-22.5-59H487l-22,59Zm-20,0H490l-22.5-59H467l-22,59Zm-20,0H470l-22.5-59H447l-22,59Zm-20,0H450l-22.5-59H427l-22,59Zm-20,0H430l-22.5-59H407l-22,59Zm-20,0H410l-22.5-59H387l-22,59Zm-20,0H390l-22.5-59H367l-22,59Zm-20,0H370l-22.5-59H347l-22,59Zm-20,0H350l-22.5-59H327l-22,59Zm-20,0H330l-22.5-59H307l-22,59Zm-20,0H310l-22.5-59H287l-22,59Zm-20,0H290l-22.5-59H267l-22,59Zm-20,0H270l-22.5-59H247l-22,59Zm-20,0H250l-22.5-59H227l-22,59Zm-20,0H230l-22.5-59H207l-22,59Zm-20,0H210l-22.5-59H187l-22,59Zm-20,0H190l-22.5-59H167l-22,59Zm-20,0H170l-22.5-59H147l-22,59Zm-20,0H150l-22.5-59H127l-22,59Zm-20,0H130l-22.5-59H107l-22,59Zm-20,0H110l-22.5-59H87l-22,59Zm-20,0H90l-22.5-59H67l-22,59Zm-20,0H70l-22.5-59H47l-22,59Zm-20,0H50l-22.5-59H27l-22,59ZM805,10.5l22,59h.5l22.5-59H805Zm-20,0,22,59h.5l22.5-59H785Zm-20,0,22,59h.5l22.5-59H765Zm-20,0,22,59h.5l22.5-59H745Zm-20,0,22,59h.5l22.5-59H725Zm-20,0,22,59h.5l22.5-59H705Zm-20,0,22,59h.5l22.5-59H685Zm-20,0,22,59h.5l22.5-59H665Zm-20,0,22,59h.5l22.5-59H645Zm-20,0,22,59h.5l22.5-59H625Zm-20,0,22,59h.5l22.5-59H605Zm-20,0,22,59h.5l22.5-59H585Zm-20,0,22,59h.5l22.5-59H565Zm-20,0,22,59h.5l22.5-59H545Zm-20,0,22,59h.5l22.5-59H525Zm-20,0,22,59h.5l22.5-59H505Zm-20,0,22,59h.5l22.5-59H485Zm-20,0,22,59h.5l22.5-59H465Zm-20,0,22,59h.5l22.5-59H445Zm-20,0,22,59h.5l22.5-59H425Zm-20,0,22,59h.5l22.5-59H405Zm-20,0,22,59h.5l22.5-59H385Zm-20,0,22,59h.5l22.5-59H365Zm-20,0,22,59h.5l22.5-59H345Zm-20,0,22,59h.5l22.5-59H325Zm-20,0,22,59h.5l22.5-59H305Zm-20,0,22,59h.5l22.5-59H285Zm-20,0,22,59h.5l22.5-59H265Zm-20,0,22,59h.5l22.5-59H245Zm-20,0,22,59h.5l22.5-59H225Zm-20,0,22,59h.5l22.5-59H205Zm-20,0,22,59h.5l22.5-59H185Zm-20,0,22,59h.5l22.5-59H165Zm-20,0,22,59h.5l22.5-59H145Zm-20,0,22,59h.5l22.5-59H125Zm-20,0,22,59h.5l22.5-59H105Zm-20,0,22,59h.5l22.5-59H85Zm-20,0,22,59h.5l22.5-59H65Zm-20,0,22,59h.5L90,10.5H45Zm-20,0,22,59h.5L70,10.5H25Zm-20,0,22,59h.5L50,10.5H5Z"/></svg>