<svg id="Layer_1" data-name="Layer 1" xmlns="http://www.w3.org/2000/svg" viewBox="0 0 800 200"><defs><style>.cls-1{fill:none;stroke:#000;stroke-miterlimit:10;}</style></defs><title>Pattern Exp</title><rect class="cls-1" x="103.86" y="7.5" width="11" height="43" rx="5.5" ry="5.5" transform="translate(196.9 100.68) rotate(-155.54)"/><rect class="cls-1" x="120.86" y="7.5" width="11" height="43" rx="5.5" ry="5.5" transform="translate(253.99 6.22) rotate(156.96)"/><rect class="cls-1" x="137.5" y="7.5" width="11" height="43" rx="5.5" ry="5.5" transform="translate(24.84 -56.61) rotate(24.46)"/><rect class="cls-1" x="87.5" y="7.5" width="11" height="43" rx="5.5" ry="5.5" transform="translate(-3.93 38.72) rotate(-23.04)"/><rect class="cls-1" x="36.86" y="7.5" width="11" height="43" rx="5.5" ry="5.5" transform="translate(68.91 72.94) rotate(-155.54)"/><rect class="cls-1" x="53.86" y="7.5" width="11" height="43" rx="5.5" ry="5.5" transform="translate(125.34 32.45) rotate(156.96)"/><rect class="cls-1" x="70.5" y="7.5" width="11" height="43" rx="5.5" ry="5.5" transform="translate(18.83 -28.87) rotate(24.46)"/><rect class="cls-1" x="20.5" y="7.5" width="11" height="43" rx="5.5" ry="5.5" transform="translate(-9.28 12.49) rotate(-23.04)"/><rect class="cls-1" x="237.86" y="7.5" width="11" height="43" rx="5.5" ry="5.5" transform="translate(452.87 156.17) rotate(-155.54)"/><rect class="cls-1" x="254.86" y="7.5" width="11" height="43" rx="5.5" ry="5.5" transform="translate(511.3 -46.23) rotate(156.96)"/><rect class="cls-1" x="271.5" y="7.5" width="11" height="43" rx="5.5" ry="5.5" transform="translate(36.87 -112.1) rotate(24.46)"/><rect class="cls-1" x="221.5" y="7.5" width="11" height="43" rx="5.5" ry="5.5" transform="translate(6.76 91.17) rotate(-23.04)"/><rect class="cls-1" x="170.86" y="7.5" width="11" height="43" rx="5.5" ry="5.5" transform="translate(324.88 128.43) rotate(-155.54)"/><rect class="cls-1" x="187.86" y="7.5" width="11" height="43" rx="5.5" ry="5.5" transform="translate(382.65 -20.01) rotate(156.96)"/><rect class="cls-1" x="204.5" y="7.5" width="11" height="43" rx="5.5" ry="5.5" transform="translate(30.86 -84.36) rotate(24.46)"/><rect class="cls-1" x="154.5" y="7.5" width="11" height="43" rx="5.5" ry="5.5" transform="translate(1.42 64.95) rotate(-23.04)"/><rect class="cls-1" x="371.86" y="7.5" width="11" height="43" rx="5.5" ry="5.5" transform="translate(708.84 211.66) rotate(-155.54)"/><rect class="cls-1" x="388.86" y="7.5" width="11" height="43" rx="5.5" ry="5.5" transform="translate(768.61 -98.69) rotate(156.96)"/><rect class="cls-1" x="405.5" y="7.5" width="11" height="43" rx="5.5" ry="5.5" transform="translate(48.9 -167.59) rotate(24.46)"/><rect class="cls-1" x="355.5" y="7.5" width="11" height="43" rx="5.5" ry="5.5" transform="translate(17.46 143.63) rotate(-23.04)"/><rect class="cls-1" x="304.86" y="7.5" width="11" height="43" rx="5.5" ry="5.5" transform="translate(580.86 183.91) rotate(-155.54)"/><rect class="cls-1" x="321.86" y="7.5" width="11" height="43" rx="5.5" ry="5.5" transform="translate(639.95 -72.46) rotate(156.96)"/><rect class="cls-1" x="338.5" y="7.5" width="11" height="43" rx="5.5" ry="5.5" transform="translate(42.89 -139.84) rotate(24.46)"/><rect class="cls-1" x="288.5" y="7.5" width="11" height="43" rx="5.5" ry="5.5" transform="translate(12.11 117.4) rotate(-23.04)"/><rect class="cls-1" x="505.86" y="7.5" width="11" height="43" rx="5.5" ry="5.5" transform="translate(964.81 267.15) rotate(-155.54)"/><rect class="cls-1" x="522.86" y="7.5" width="11" height="43" rx="5.5" ry="5.5" transform="translate(1025.91 -151.14) rotate(156.96)"/><rect class="cls-1" x="539.5" y="7.5" width="11" height="43" rx="5.5" ry="5.5" transform="translate(60.93 -223.08) rotate(24.46)"/><rect class="cls-1" x="489.5" y="7.5" width="11" height="43" rx="5.5" ry="5.5" transform="translate(28.15 196.08) rotate(-23.04)"/><rect class="cls-1" x="438.86" y="7.5" width="11" height="43" rx="5.5" ry="5.5" transform="translate(836.83 239.4) rotate(-155.54)"/><rect class="cls-1" x="455.86" y="7.5" width="11" height="43" rx="5.5" ry="5.5" transform="translate(897.26 -124.91) rotate(156.96)"/><rect class="cls-1" x="472.5" y="7.5" width="11" height="43" rx="5.5" ry="5.5" transform="translate(54.92 -195.33) rotate(24.46)"/><rect class="cls-1" x="422.5" y="7.5" width="11" height="43" rx="5.5" ry="5.5" transform="translate(22.8 169.86) rotate(-23.04)"/><rect class="cls-1" x="572.86" y="7.5" width="11" height="43" rx="5.5" ry="5.5" transform="translate(1092.8 294.89) rotate(-155.54)"/><rect class="cls-1" x="589.86" y="7.5" width="11" height="43" rx="5.5" ry="5.5" transform="translate(1154.57 -177.37) rotate(156.96)"/><rect class="cls-1" x="606.5" y="7.5" width="11" height="43" rx="5.5" ry="5.5" transform="translate(66.94 -250.82) rotate(24.46)"/><rect class="cls-1" x="556.5" y="7.5" width="11" height="43" rx="5.5" ry="5.5" transform="translate(33.5 222.31) rotate(-23.04)"/><rect class="cls-1" x="706.86" y="7.5" width="11" height="43" rx="5.5" ry="5.5" transform="translate(1348.77 350.38) rotate(-155.54)"/><rect class="cls-1" x="723.86" y="7.5" width="11" height="43" rx="5.5" ry="5.5" transform="translate(1411.87 -229.82) rotate(156.96)"/><rect class="cls-1" x="740.5" y="7.5" width="11" height="43" rx="5.5" ry="5.5" transform="translate(78.97 -306.31) rotate(24.46)"/><rect class="cls-1" x="690.5" y="7.5" width="11" height="43" rx="5.5" ry="5.5" transform="translate(44.19 274.76) rotate(-23.04)"/><rect class="cls-1" x="639.86" y="7.5" width="11" height="43" rx="5.5" ry="5.5" transform="translate(1220.78 322.64) rotate(-155.54)"/><rect class="cls-1" x="656.86" y="7.5" width="11" height="43" rx="5.5" ry="5.5" transform="translate(1283.22 -203.6) rotate(156.96)"/><rect class="cls-1" x="673.5" y="7.5" width="11" height="43" rx="5.5" ry="5.5" transform="translate(72.96 -278.56) rotate(24.46)"/><rect class="cls-1" x="623.5" y="7.5" width="11" height="43" rx="5.5" ry="5.5" transform="translate(38.84 248.54) rotate(-23.04)"/><rect class="cls-1" x="773.86" y="7.5" width="11" height="43" rx="5.5" ry="5.5" transform="translate(1476.76 378.12) rotate(-155.54)"/><rect class="cls-1" x="757.5" y="7.5" width="11" height="43" rx="5.5" ry="5.5" transform="translate(49.54 300.99) rotate(-23.04)"/></svg>