<?xml version="1.0" encoding="utf-8"?>
<!-- Generator: Adobe Illustrator 18.0.0, SVG Export Plug-In . SVG Version: 6.00 Build 0)  -->
<!DOCTYPE svg PUBLIC "-//W3C//DTD SVG 1.0//EN" "http://www.w3.org/TR/2001/REC-SVG-20010904/DTD/svg10.dtd">
<svg version="1.0" id="Layer_1" xmlns="http://www.w3.org/2000/svg" xmlns:xlink="http://www.w3.org/1999/xlink" x="0px" y="0px"
	 viewBox="0 0 80 80" enable-background="new 0 0 80 80" xml:space="preserve">
<path fill="#040506" d="M38.2,78.7L38.2,78.7c-5.5-2.5-7.9-8.9-5.4-14.4L59.1,6.7c2.5-5.5,9-7.9,14.5-5.4l0,0
	c5.5,2.5,7.9,8.9,5.4,14.4L52.7,73.3C50.2,78.8,43.7,81.2,38.2,78.7z"/>
<path fill="#040506" d="M6.7,0.9L6.7,0.9c5.6-2.4,12,0.2,14.3,5.8l24.9,58.2c2.4,5.5-0.2,11.9-5.8,14.3l0,0
	c-5.6,2.4-12-0.2-14.3-5.8L0.9,15.1C-1.5,9.6,1.1,3.2,6.7,0.9z"/>
</svg>
