<?xml version="1.0" encoding="UTF-8" standalone="no"?>
<svg
   xmlns:dc="http://purl.org/dc/elements/1.1/"
   xmlns:cc="http://creativecommons.org/ns#"
   xmlns:rdf="http://www.w3.org/1999/02/22-rdf-syntax-ns#"
   xmlns:svg="http://www.w3.org/2000/svg"
   xmlns="http://www.w3.org/2000/svg"
   version="1.1"
   id="svg6551"
   height="800"
   width="3200">
  <defs
     id="defs6553" />
  <metadata
     id="metadata6556">
    <rdf:RDF>
      <cc:Work
         rdf:about="">
        <dc:format>image/svg+xml</dc:format>
        <dc:type
           rdf:resource="http://purl.org/dc/dcmitype/StillImage" />
        <dc:title></dc:title>
      </cc:Work>
    </rdf:RDF>
  </metadata>
  <g
     id="1-default">
    <g
       transform="translate(13.916016,0)"
       id="text4710"
       style="font-style:normal;font-weight:normal;font-size:601.95629883px;line-height:125%;font-family:sans-serif;letter-spacing:0px;word-spacing:0px;fill:none;fill-opacity:1;stroke:#000000;stroke-width:1px;stroke-linecap:butt;stroke-linejoin:miter;stroke-opacity:1">
      <g
         id="text4744"
         style="font-style:normal;font-weight:normal;font-size:250px;line-height:125%;font-family:sans-serif;letter-spacing:0px;word-spacing:0px;fill:none;fill-opacity:1;stroke:#000000;stroke-width:1px;stroke-linecap:butt;stroke-linejoin:miter;stroke-opacity:1">
        <path
           id="path4749"
           style=""
           d="m 810.08301,327.67334 q -26.85547,0 -42.72461,20.01953 -15.74707,20.01953 -15.74707,54.56543 0,34.42383 15.74707,54.44336 15.86914,20.01953 42.72461,20.01953 26.85547,0 42.48047,-20.01953 15.74707,-20.01953 15.74707,-54.44336 0,-34.5459 -15.74707,-54.56543 -15.625,-20.01953 -42.48047,-20.01953 z m 0,-20.01953 q 38.33008,0 61.27929,25.75683 22.94922,25.63477 22.94922,68.84766 0,43.09082 -22.94922,68.84766 -22.94921,25.63476 -61.27929,25.63476 -38.45215,0 -61.52344,-25.63476 -22.94922,-25.63477 -22.94922,-68.84766 0,-43.21289 22.94922,-68.84766 23.07129,-25.75683 61.52344,-25.75683 z" />
        <path
           id="path4751"
           style=""
           d="m 1045.5566,410.68115 0,82.51953 -22.4609,0 0,-81.78711 q 0,-19.40918 -7.5684,-29.05273 -7.5683,-9.64355 -22.70503,-9.64355 -18.18848,0 -28.68653,11.59667 -10.49804,11.59668 -10.49804,31.61622 l 0,77.2705 -22.58301,0 0,-136.71875 22.58301,0 0,21.24024 q 8.05664,-12.3291 18.92089,-18.43262 10.98633,-6.10351 25.26856,-6.10351 23.55955,0 35.64455,14.64843 12.0849,14.52637 12.0849,42.84668 z" />
        <path
           id="path4753"
           style=""
           d="m 1207.5439,419.22607 0,10.98633 -103.2714,0 q 1.4648,23.19336 13.916,35.40039 12.5732,12.08496 34.9121,12.08496 12.9394,0 25.0244,-3.17382 12.207,-3.17383 24.1699,-9.52149 l 0,21.24024 q -12.0849,5.12695 -24.7803,7.8125 -12.6953,2.68554 -25.7568,2.68554 -32.7148,0 -51.8799,-19.04297 -19.0429,-19.04296 -19.0429,-51.51367 0,-33.56933 18.0664,-53.22265 18.1884,-19.77539 48.9502,-19.77539 27.5879,0 43.5791,17.82226 16.1132,17.7002 16.1132,48.21777 z m -22.4609,-6.59179 q -0.2441,-18.43262 -10.376,-29.41895 -10.0097,-10.98633 -26.6113,-10.98633 -18.7988,0 -30.1514,10.62012 -11.2304,10.62012 -12.9394,29.90723 l 80.0781,-0.12207 z" />
        <path
           id="path4755"
           style=""
           d="m 1324.4873,310.94971 36.7432,0 46.5088,124.02343 46.7529,-124.02343 36.7432,0 0,182.25097 -24.0479,0 0,-160.03418 -46.9971,125 -24.7802,0 -46.9971,-125 0,160.03418 -23.9258,0 0,-182.25097 z" />
        <path
           id="path4757"
           style=""
           d="m 1591.8213,372.229 q -18.0664,0 -28.5645,14.16016 -10.498,14.03809 -10.498,38.57422 0,24.53613 10.376,38.69629 10.498,14.03808 28.6865,14.03808 17.9443,0 28.4424,-14.16015 10.498,-14.16016 10.498,-38.57422 0,-24.29199 -10.498,-38.45215 -10.4981,-14.28223 -28.4424,-14.28223 z m 0,-19.04296 q 29.2969,0 46.0205,19.04296 16.7236,19.04297 16.7236,52.73438 0,33.56933 -16.7236,52.73437 -16.7236,19.04297 -46.0205,19.04297 -29.419,0 -46.1426,-19.04297 -16.6016,-19.16504 -16.6016,-52.73437 0,-33.69141 16.6016,-52.73438 16.7236,-19.04296 46.1426,-19.04296 z" />
        <path
           id="path4759"
           style=""
           d="m 1770.8984,377.47803 q -3.7841,-2.19727 -8.3007,-3.17383 -4.3946,-1.09863 -9.7657,-1.09863 -19.0429,0 -29.2968,12.45117 -10.1319,12.3291 -10.1319,35.52246 l 0,72.02148 -22.583,0 0,-136.71875 22.583,0 0,21.24024 q 7.0801,-12.45117 18.4326,-18.43262 11.3526,-6.10351 27.5879,-6.10351 2.3194,0 5.127,0.36621 2.8076,0.24414 6.2256,0.85449 l 0.122,23.07129 z" />
        <path
           id="path4761"
           style=""
           d="m 1906.5186,419.22607 0,10.98633 -103.2715,0 q 1.4648,23.19336 13.916,35.40039 12.5732,12.08496 34.9121,12.08496 12.9394,0 25.0244,-3.17382 12.207,-3.17383 24.1699,-9.52149 l 0,21.24024 q -12.0849,5.12695 -24.7802,7.8125 -12.6954,2.68554 -25.7569,2.68554 -32.7148,0 -51.8799,-19.04297 -19.0429,-19.04296 -19.0429,-51.51367 0,-33.56933 18.0664,-53.22265 18.1885,-19.77539 48.9502,-19.77539 27.5879,0 43.5791,17.82226 16.1133,17.7002 16.1133,48.21777 z m -22.461,-6.59179 q -0.2441,-18.43262 -10.376,-29.41895 -10.0097,-10.98633 -26.6113,-10.98633 -18.7988,0 -30.1514,10.62012 -11.2304,10.62012 -12.9394,29.90723 l 80.0781,-0.12207 z" />
        <path
           id="path4763"
           style=""
           d="m 2097.6807,327.67334 q -26.8555,0 -42.7246,20.01953 -15.7471,20.01953 -15.7471,54.56543 0,34.42383 15.7471,54.44336 15.8691,20.01953 42.7246,20.01953 26.8554,0 42.4804,-20.01953 15.7471,-20.01953 15.7471,-54.44336 0,-34.5459 -15.7471,-54.56543 -15.625,-20.01953 -42.4804,-20.01953 z m 0,-20.01953 q 38.33,0 61.2793,25.75683 22.9492,25.63477 22.9492,68.84766 0,43.09082 -22.9492,68.84766 -22.9493,25.63476 -61.2793,25.63476 -38.4522,0 -61.5235,-25.63476 -22.9492,-25.63477 -22.9492,-68.84766 0,-43.21289 22.9492,-68.84766 23.0713,-25.75683 61.5235,-25.75683 z" />
        <path
           id="path4765"
           style=""
           d="m 2206.4453,356.48193 22.461,0 28.0761,106.68946 27.9541,-106.68946 26.4893,0 28.0762,106.68946 27.9541,-106.68946 22.4609,0 -35.7666,136.71875 -26.4893,0 -29.4189,-112.06054 -29.541,112.06054 -26.4893,0 -35.7666,-136.71875 z" />
        <path
           id="path4767"
           style=""
           d="m 2424.0967,303.25928 22.4609,0 0,189.9414 -22.4609,0 0,-189.9414 z" />
      </g>
    </g>
  </g>
  <eggbot
     totaldeltay="0"
     totaldeltax="0"
     lastpathnc="0"
     lastpath="0"
     node="0"
     layer="0" />
  <WCB
     layer="0"
     node="0"
     lastpath="0"
     lastpathnc="0"
     lastknownposx="0.0"
     lastknownposy="0.0"
     pausedposx="0.0"
     pausedposy="0.0" />
</svg>
