<?xml version="1.0" encoding="UTF-8" standalone="no"?>
<svg
   xmlns:dc="http://purl.org/dc/elements/1.1/"
   xmlns:cc="http://creativecommons.org/ns#"
   xmlns:rdf="http://www.w3.org/1999/02/22-rdf-syntax-ns#"
   xmlns:svg="http://www.w3.org/2000/svg"
   xmlns="http://www.w3.org/2000/svg"
   version="1.1"
   id="svg6551"
   height="800"
   width="3200">
  <defs
     id="defs6553" />
  <metadata
     id="metadata6556">
    <rdf:RDF>
      <cc:Work
         rdf:about="">
        <dc:format>image/svg+xml</dc:format>
        <dc:type
           rdf:resource="http://purl.org/dc/dcmitype/StillImage" />
        <dc:title></dc:title>
      </cc:Work>
    </rdf:RDF>
  </metadata>
  <g
     id="1-default">
    <g
       id="text4214"
       style="font-style:normal;font-variant:normal;font-weight:normal;font-stretch:normal;font-size:562.5px;line-height:125%;font-family:'San Francisco Display';-inkscape-font-specification:'San Francisco Display';letter-spacing:0px;word-spacing:0px;fill:none;fill-opacity:1;stroke:#000000;stroke-width:1px;stroke-linecap:butt;stroke-linejoin:miter;stroke-opacity:1">
      <path
         id="path4219"
         style=""
         d="m 905.11475,583.33435 0,-337.55493 116.72975,0 0,-37.07886 -273.55959,0 0,37.07886 116.45508,0 0,337.55493 40.37476,0 z" />
      <path
         id="path4221"
         style=""
         d="m 1205.8655,208.70056 -131.836,0 0,374.63379 40.9241,0 0,-152.4353 96.6797,0 71.6858,152.4353 46.9665,0 -77.7282,-160.94971 c 35.1562,-11.8103 71.1364,-42.84668 71.1364,-103.8208 0,-58.22754 -36.8042,-109.86328 -117.8283,-109.86328 z m -90.9119,185.11963 0,-148.31543 85.6934,0 c 49.4384,0 81.0241,26.36719 81.0241,75.80566 0,45.86792 -28.2898,72.50977 -82.9467,72.50977 l -83.7708,0 z" />
      <path
         id="path4223"
         style=""
         d="m 1439.8743,208.70056 -40.9241,0 0,243.62183 c 0,82.94678 56.3049,138.97705 139.801,138.97705 83.4961,0 139.801,-54.93164 139.801,-137.87842 l 0,-244.72046 -40.6494,0 0,244.72046 c 0,60.97412 -38.1775,100.5249 -99.1516,100.5249 -61.2488,0 -98.8769,-39.55078 -98.8769,-100.5249 l 0,-244.72046 z" />
      <path
         id="path4225"
         style=""
         d="m 1805.719,583.33435 0,-282.89795 1.0986,0 111.7859,254.05884 37.0789,0 111.5112,-254.05884 1.3733,0 0,282.89795 37.0789,0 0,-374.63379 -39.2762,0 -128.54,300.20142 -1.0986,0 -128.8147,-300.20142 -39.2762,0 0,374.63379 37.0789,0 z" />
      <path
         id="path4227"
         style=""
         d="m 2201.2268,208.70056 0,374.63379 40.9241,0 0,-145.84351 91.4612,0 c 70.5871,0 118.103,-44.49462 118.103,-114.25781 0,-69.21386 -47.5159,-114.53247 -118.103,-114.53247 l -132.3853,0 z m 40.9241,37.07886 90.0879,0 c 49.1638,0 77.1789,28.56445 77.1789,77.45361 0,62.89673 -38.1775,77.72827 -104.3701,77.72827 l -62.8967,0 0,-155.18188 z" />
    </g>
  </g>
  <eggbot
     totaldeltay="0"
     totaldeltax="0"
     lastpathnc="0"
     lastpath="0"
     node="0"
     layer="0" />
  <WCB
     layer="0"
     node="0"
     lastpath="0"
     lastpathnc="0"
     lastknownposx="0.0"
     lastknownposy="0.0"
     pausedposx="0.0"
     pausedposy="0.0" />
</svg>
