<?xml version="1.0" encoding="utf-8"?>
<!-- Generator: Adobe Illustrator 18.0.0, SVG Export Plug-In . SVG Version: 6.00 Build 0)  -->
<!DOCTYPE svg PUBLIC "-//W3C//DTD SVG 1.0//EN" "http://www.w3.org/TR/2001/REC-SVG-20010904/DTD/svg10.dtd">
<svg version="1.0" id="Layer_1" xmlns="http://www.w3.org/2000/svg" xmlns:xlink="http://www.w3.org/1999/xlink" x="0px" y="0px"
	 viewBox="0 0 850 1100" enable-background="new 0 0 850 1100" xml:space="preserve">
<g>
	<path fill="none" stroke="#000000" stroke-width="2" stroke-miterlimit="10" d="M562.7,520.3c32-18.3,67.9-34.7,93.9-56.3
		c11-18.8,12.7-39.6,1.6-56.3c-25.1-37.9-67-10.5-92.3,3.1c-9.9,5.4-20.2,10.2-29.7,15.6c-21.7,12.4-42,28.2-59.5,28.2
		c-10.5-26,15.8-33.7,26.6-45.4c15.8-17.1,33.6-50.2,28.2-86.1c-7.8-51.7-51.8-93.2-108-92.3C362.1,231.7,316,280.3,320.1,345
		c1.3,20.8,7.1,37.3,15.7,50.1c14.6,21.9,53.7,33.2,36,61c-30.7-12.3-59-30.7-86.1-45.4c-9.5-5.1-19-12.8-28.2-17.2
		c-41.7-19.9-90.2,20.3-67.3,65.7c8.3,16.5,29.1,22.9,46.9,32.9c11,6.1,21.3,13.1,31.3,18.8c38.7,21.8,64.3,24.7,54.8,78.3
		c-6.9,38.8-24.9,89.1-37.6,122.1c-6,15.6-8.8,31.5-14.1,45.4c-6.7,17.4-18.4,30.1-20.3,46.9c-5,42.5,28.4,65.5,56.3,65.7
		c55.5,0.5,63.8-65.2,81.4-108c8.7-21.1,17.4-58.7,39.1-56.3c22.3,2.4,25.3,51.4,36,65.7c18.3,34.1,21.7,75.3,48.5,90.8
		c31.6,18.2,72.3,0.8,82.9-26.6c13.2-34.2-8.6-58.6-17.2-81.4c-5.3-14-8.9-29.1-14.1-43.8c-15.1-43-33.3-86.8-39.1-134.6
		C521.3,543.3,541.6,532.3,562.7,520.3z"/>
	<path fill="none" stroke="#000000" stroke-width="2" stroke-miterlimit="10" d="M284.5,306.7c1.2,18.5,6.3,41,13.9,52.4
		c12.9,19.4,47.7,41.2,32,65.9c-27.3-10.9-52.5-12.8-76.5-25.8c-8.4-4.5-16.9-6.5-25-10.4c-37-17.7-80.2,36.8-59.8,77.1
		c7.4,14.7,25.8,29,41.7,37.9c9.7,5.4,18.9,17.1,27.8,22.1c34.4,19.4,57.1,38.1,48.7,85.7c-6.1,34.5-22.1,98.4-33.4,127.8
		c-5.4,13.9-7.8,35.3-12.5,47.6c-5.9,15.5-16.3,34.4-18.1,49.5c-4.4,37.8,40.7,58.2,65.6,58.4c49.4,0.5,79.7-58,95.3-96
		c7.7-18.7,27-52.2,46.3-50.1c19.8,2.1,34.8,45.7,44.3,58.4c16.2,30.3,35.9,66.9,59.8,80.7c28,16.1,79.7,0.8,89.1-23.6
		c11.7-30.4-7.6-64.2-15.3-84.4c-4.7-12.5-7.9-32.3-12.5-45.4c-13.4-38.3-29.6-96.9-34.8-139.4c-3.4-28.2,14.6-48.1,33.4-58.8
		c28.5-16.3,60.4-46.3,83.5-65.5c9.7-16.7,11.3-43.5,1.4-58.4c-22.3-33.7-59.5-24-82.1-11.8c-8.8,4.8-18,4.4-26.4,9.2
		c-19.3,11-37.3,15.7-52.9,15.7c-9.4-23.1,14.1-38.2,23.6-48.5c14.1-15.2,29.9-57.8,25-89.7c-6.9-45.9-90.7-82.8-140.6-82.1
		C371.7,205.9,280.9,249.1,284.5,306.7z"/>
	<path fill="none" stroke="#000000" stroke-width="2" stroke-miterlimit="10" d="M249,268.3c1,16.2,5.5,44.8,12.2,54.8
		c11.3,17,41.8,49.2,28,70.8c-23.9-9.5-45.9,5.1-66.9-6.3c-7.3-4-14.8-0.1-21.9-3.6c-32.4-15.4-70.2,53.2-52.3,88.6
		c6.5,12.8,22.6,35.2,36.5,42.9c8.5,4.7,16.5,21.1,24.3,25.5c30.1,17,50,51.5,42.6,93.1c-5.4,30.2-19.3,107.8-29.2,133.4
		c-4.7,12.1-6.8,39-11,49.8c-5.2,13.5-14.3,38.8-15.8,52c-3.9,33,53.1,50.9,74.8,51.1c43.2,0.4,95.6-50.7,109.3-84
		c6.8-16.4,36.6-45.6,53.6-43.8c17.4,1.9,44.3,40,52.6,51.1c14.2,26.5,50.2,58.6,71,70.6c24.5,14.1,87.1,0.7,95.3-20.7
		c10.3-26.6-6.7-69.8-13.4-87.5c-4.1-10.9-6.9-35.5-11-46.9c-11.7-33.5-25.9-107.1-30.4-144.3c-3-24.7,12.8-53.4,29.2-62.8
		c24.9-14.2,52.8-57.9,73-74.7c8.5-14.6,9.9-47.4,1.2-60.5c-19.6-29.5-52.1-37.4-71.8-26.8c-7.7,4.2-15.7-1.4-23.1,2.8
		c-16.9,9.6-32.6,3.2-46.3,3.2c-8.2-20.2,12.3-42.6,20.7-51.7c12.3-13.3,26.1-65.5,21.9-93.4c-6.1-40.2-129.5-72.5-173.2-71.8
		C381.3,180.2,245.8,218,249,268.3z"/>
	<path fill="none" stroke="#000000" stroke-width="2" stroke-miterlimit="10" d="M213.4,230c0.9,13.9,4.7,48.6,10.4,57.1
		c9.7,14.6,35.8,57.1,24,75.7c-20.5-8.2-39.3,23-57.4,13.3c-6.3-3.4-12.6,6.2-18.8,3.3c-27.8-13.2-60.1,69.7-44.9,100
		c5.5,11,19.4,41.3,31.3,47.9c7.3,4.1,14.2,25.1,20.9,28.9c25.8,14.6,42.9,64.9,36.5,100.6c-4.6,25.9-16.6,117.1-25,139.1
		c-4,10.4-5.8,42.8-9.4,52.1c-4.4,11.6-12.2,43.2-13.6,54.5c-3.3,28.3,65.5,43.6,84.1,43.8c37,0.4,111.5-43.5,123.2-72
		c5.8-14.1,46.3-39.1,60.8-37.6c14.9,1.6,53.8,34.3,60.9,43.8c12.2,22.7,64.4,50.2,82.3,60.5c21,12.1,94.5,0.6,101.5-17.7
		c8.8-22.8-5.7-75.4-11.5-90.5c-3.5-9.4-6-38.7-9.4-48.5c-10-28.7-22.2-117.2-26.1-149.1c-2.6-21.2,11-58.7,25-66.8
		c21.4-12.2,45.3-69.5,62.6-83.9c7.3-12.5,8.5-51.3,1-62.5c-16.8-25.3-44.7-50.8-61.6-41.7c-6.6,3.6-13.5-7.2-19.8-3.6
		c-14.5,8.2-28-9.3-39.7-9.3c-7-17.3,10.5-47.1,17.7-54.9c10.6-11.4,22.4-73.1,18.8-97c-5.2-34.4-168.4-62.1-205.8-61.6
		C390.9,154.5,210.7,186.8,213.4,230z"/>
	<path fill="none" stroke="#000000" stroke-width="2" stroke-miterlimit="10" d="M177.8,191.7c0.7,11.5,4,52.4,8.7,59.5
		c8.1,12.1,29.8,65.1,20,80.6c-17.1-6.8-32.8,41-47.8,32.8c-5.2-2.8-10.5,12.5-15.6,10.1c-23.1-11-50.1,86.1-37.4,111.4
		c4.6,9.2,16.1,47.4,26.1,53c6.1,3.4,11.8,29.1,17.4,32.2c21.5,12.1,35.7,78.3,30.4,108c-3.8,21.6-13.8,126.5-20.9,144.8
		c-3.3,8.7-4.9,46.6-7.8,54.3c-3.7,9.7-10.2,47.6-11.3,57c-2.8,23.6,77.8,36.4,93.4,36.5c30.9,0.3,127.4-36.2,137.2-60
		c4.8-11.7,55.9-32.6,68-31.3c12.4,1.3,63.3,28.5,69.2,36.5c10.1,19,78.6,41.8,93.6,50.4c17.5,10.1,101.9,0.5,107.7-14.8
		c7.3-19-4.8-81-9.6-93.6c-3-7.8-5-41.9-7.8-50c-8.4-23.9-18.5-127.4-21.7-153.9c-2.1-17.6,9.1-64.1,20.9-70.8
		c17.8-10.2,37.7-81.1,52.2-93.1c6.1-10.5,7.1-55.2,0.9-64.6c-14-21.1-37.2-64.3-51.3-56.7c-5.5,3-11.2-13-16.5-10
		c-12.1,6.9-23.3-21.8-33-21.8c-5.9-14.4,8.8-51.5,14.8-58c8.8-9.5,18.7-80.7,15.7-100.7c-4.3-28.7-207.3-51.8-238.5-51.3
		C400.5,128.7,175.5,155.7,177.8,191.7z"/>
	<path fill="none" stroke="#000000" stroke-width="2" stroke-miterlimit="10" d="M142.3,153.3c0.6,9.2,3.2,56.1,7,61.8
		c6.5,9.7,23.9,73.1,16,85.4c-13.7-5.5-26.2,58.9-38.3,52.4c-4.2-2.3-8.4,18.9-12.5,16.9c-18.5-8.8-40.1,102.6-29.9,122.8
		c3.7,7.3,12.9,53.5,20.9,58c4.9,2.7,9.5,33.1,13.9,35.6c17.2,9.7,28.6,91.7,24.3,115.5c-3.1,17.2-11,135.8-16.7,150.5
		c-2.7,6.9-3.9,50.4-6.3,56.5c-3,7.7-8.2,52-9,59.5c-2.2,18.9,90.2,29.1,102.6,29.2c24.7,0.2,143.3-29,151.2-48
		c3.9-9.4,65.5-26.1,75.2-25c9.9,1.1,72.8,22.8,77.5,29.2c8.1,15.2,92.9,33.5,104.8,40.3c14,8.1,109.2,0.4,113.9-11.8
		c5.9-15.2-3.8-86.5-7.7-96.6c-2.4-6.2-4-45.1-6.3-51.6c-6.7-19.1-14.8-137.5-17.4-158.8c-1.7-14.1,7.3-69.4,16.7-74.8
		c14.2-8.1,30.2-92.7,41.7-102.3c4.9-8.4,5.6-59.2,0.7-66.6c-11.2-16.9-29.8-77.7-41-71.6c-4.4,2.4-9-18.8-13.2-16.4
		c-9.7,5.5-18.6-34.3-26.4-34.3c-4.7-11.5,7-56,11.8-61.2c7-7.6,14.9-88.4,12.5-104.3c-3.5-23-246.1-41.4-271.1-41
		C410.1,103,140.4,124.6,142.3,153.3z"/>
	<path fill="none" stroke="#000000" stroke-width="2" stroke-miterlimit="10" d="M106.7,115c0.4,6.9,2.4,59.9,5.2,64.2
		c4.9,7.3,17.9,81,12,90.3c-10.2-4.1-19.7,76.8-28.7,71.9c-3.2-1.7-6.3,25.2-9.4,23.8c-13.9-6.6-30.1,119.1-22.4,134.2
		c2.8,5.5,9.7,59.7,15.6,63c3.7,2,7.1,37,10.4,38.9c12.9,7.3,21.4,105.1,18.3,122.9c-2.3,12.9-8.3,145.1-12.5,156.1
		c-2,5.2-2.9,54.1-4.7,58.8c-2.2,5.8-6.1,56.4-6.8,62c-1.7,14.2,102.5,21.8,111.9,21.9c18.5,0.2,159.2-21.7,165.1-36
		c2.9-7,75.2-19.6,82.4-18.8c7.4,0.8,82.3,17.1,85.8,21.9c6.1,11.4,107.1,25.1,116.1,30.3c10.5,6.1,116.6,0.3,120.2-8.9
		c4.4-11.4-2.9-92.1-5.7-99.7c-1.8-4.7-3-48.2-4.7-53.1c-5-14.3-11.1-147.7-13-163.6c-1.3-10.6,5.5-74.8,12.5-78.8
		c10.7-6.1,22.6-104.3,31.3-111.5c3.7-6.3,4.2-63.1,0.5-68.7c-8.4-12.6-22.3-91.1-30.8-86.6c-3.3,1.8-6.7-24.6-9.9-22.8
		c-7.2,4.1-14-46.8-19.8-46.8c-3.5-8.7,5.3-60.4,8.9-64.3c5.3-5.7,11.2-96,9.4-107.9c-2.6-17.2-285-31.1-303.7-30.8
		C419.7,77.2,105.3,93.4,106.7,115z"/>
	<path fill="none" stroke="#000000" stroke-width="2" stroke-miterlimit="10" d="M71.1,76.7c0.3,4.6,1.6,63.7,3.5,66.5
		c3.2,4.9,11.9,89,8,95.2c-6.8-2.7-13.1,94.8-19.1,91.5c-2.1-1.1-4.2,31.6-6.3,30.6c-9.3-4.4-20,135.5-15,145.6
		c1.8,3.7,6.5,65.8,10.4,68c2.4,1.4,4.7,41,7,42.3c8.6,4.9,14.3,118.5,12.2,130.4c-1.5,8.6-5.5,154.5-8.3,161.8
		c-1.3,3.5-1.9,57.9-3.1,61c-1.5,3.9-4.1,60.7-4.5,64.5c-1.1,9.4,114.9,14.5,121.1,14.6c12.3,0.1,175.1-14.5,179.1-24
		c1.9-4.7,84.8-13,89.6-12.5c5,0.5,91.7,11.4,94.1,14.6c4.1,7.6,121.4,16.7,127.3,20.2c7,4,124,0.2,126.4-5.9
		c2.9-7.6-1.9-97.7-3.8-102.8c-1.2-3.1-2-51.4-3.1-54.7c-3.3-9.6-7.4-157.8-8.7-168.4c-0.9-7.1,3.7-80.1,8.3-82.8
		c7.1-4.1,15.1-115.9,20.9-120.7c2.4-4.2,2.8-67,0.3-70.7c-5.6-8.4-14.9-104.6-20.5-101.5c-2.2,1.2-4.5-30.5-6.6-29.3
		c-4.8,2.7-9.3-59.3-13.2-59.3c-2.3-5.8,3.5-64.9,5.9-67.5c3.5-3.8,7.5-103.6,6.3-111.6c-1.7-11.5-323.8-20.7-336.3-20.5
		C429.3,51.5,70.2,62.3,71.1,76.7z"/>
	<path fill="none" stroke="#000000" stroke-width="2" stroke-miterlimit="10" d="M35.6,38.3c0.1,2.3,0.8,67.5,1.7,68.9
		c1.6,2.4,6,97,4,100.1c-3.4-1.4-6.6,112.7-9.6,111.1c-1-0.6-2.1,37.9-3.1,37.4c-4.6-2.2-10,152-7.5,157c0.9,1.8,3.2,71.9,5.2,73.1
		c1.2,0.7,2.4,45,3.5,45.7c4.3,2.4,7.1,131.9,6.1,137.8c-0.8,4.3-2.8,163.8-4.2,167.5c-0.7,1.7-1,61.7-1.6,63.2
		c-0.7,1.9-2,65.1-2.3,67c-0.6,4.7,127.3,7.3,130.4,7.3c6.2,0.1,191.1-7.2,193-12c1-2.3,94.4-6.5,96.8-6.3
		c2.5,0.3,101.2,5.7,102.4,7.3c2,3.8,135.6,8.4,138.6,10.1c3.5,2,131.4,0.1,132.6-3c1.5-3.8-1-103.3-1.9-105.8
		c-0.6-1.6-1-54.6-1.6-56.2c-1.7-4.8-3.7-168-4.3-173.3c-0.4-3.5,1.8-85.4,4.2-86.8c3.6-2,7.5-127.5,10.4-129.9
		c1.2-2.1,1.4-70.9,0.2-72.8c-2.8-4.2-7.4-118-10.3-116.5c-1.1,0.6-2.2-36.3-3.3-35.7c-2.4,1.4-4.7-71.8-6.6-71.8
		c-1.2-2.9,1.8-69.4,3-70.7c1.8-1.9,3.7-111.3,3.1-115.2c-0.9-5.7-362.7-10.4-368.9-10.3C438.8,25.7,35.1,31.1,35.6,38.3z"/>
	<rect x="0" fill="none" stroke="#000000" stroke-width="2" stroke-miterlimit="10" width="850" height="1100"/>
</g>
</svg>
