<?xml version="1.0" encoding="utf-8"?>
<!-- Generator: Adobe Illustrator 18.0.0, SVG Export Plug-In . SVG Version: 6.00 Build 0)  -->
<!DOCTYPE svg PUBLIC "-//W3C//DTD SVG 1.0//EN" "http://www.w3.org/TR/2001/REC-SVG-20010904/DTD/svg10.dtd">
<svg version="1.0" id="Layer_1" xmlns="http://www.w3.org/2000/svg" xmlns:xlink="http://www.w3.org/1999/xlink" x="0px" y="0px"
	 viewBox="0 0 850 1100" enable-background="new 0 0 850 1100" xml:space="preserve">
<g>
	<polygon fill="none" stroke="#000000" stroke-width="2" stroke-miterlimit="10" points="0,1100 425,1100 850,1100 850,550 850,0 
		425,0 0,0 0,550 	"/>
	<polygon fill="none" stroke="#000000" stroke-width="2" stroke-miterlimit="10" points="425.6,32.4 812.5,50.8 832.9,542.7 
		818.2,801.5 821.6,1066.2 425.6,1056.6 29.6,1066.2 33.1,801.5 18.4,542.7 38.8,106.2 39.9,48.5 	"/>
	<polygon fill="none" stroke="#000000" stroke-width="2" stroke-miterlimit="10" points="426.3,64.7 775.1,101.6 815.8,535.3 
		786.3,778 793.3,1032.4 426.3,1013.3 59.3,1032.4 66.2,778 36.8,535.3 77.5,150.1 79.8,97 	"/>
	<polygon fill="none" stroke="#000000" stroke-width="2" stroke-miterlimit="10" points="426.9,97.1 737.6,152.5 798.7,528 
		754.5,754.5 764.9,998.6 426.9,969.9 88.9,998.6 99.4,754.5 55.2,528 116.3,194 119.7,145.5 	"/>
	<polygon fill="none" stroke="#000000" stroke-width="2" stroke-miterlimit="10" points="427.6,129.5 700.1,203.3 781.6,520.7 
		722.6,730.9 736.5,964.8 427.6,926.5 118.6,964.8 132.5,730.9 73.5,520.7 155,237.9 159.6,194 	"/>
	<polygon fill="none" stroke="#000000" stroke-width="2" stroke-miterlimit="10" points="428.2,161.8 662.6,254.1 764.5,513.4 
		690.8,707.4 708.2,931.1 428.2,883.2 148.2,931.1 165.6,707.4 91.9,513.4 193.8,281.8 199.5,242.5 	"/>
	<polygon fill="none" stroke="#000000" stroke-width="2" stroke-miterlimit="10" points="428.8,194.2 625.2,304.9 747.4,506 
		658.9,683.9 679.8,897.3 428.8,839.8 177.9,897.3 198.7,683.9 110.3,506 232.5,325.7 239.4,291 	"/>
	<polygon fill="none" stroke="#000000" stroke-width="2" stroke-miterlimit="10" points="429.5,226.6 587.7,355.8 730.3,498.7 
		627.1,660.4 651.5,863.5 429.5,796.4 207.5,863.5 231.9,660.4 128.7,498.7 271.3,369.6 279.3,339.5 	"/>
	<polygon fill="none" stroke="#000000" stroke-width="2" stroke-miterlimit="10" points="430.1,258.9 550.2,406.6 713.2,491.4 
		595.3,636.9 623.1,829.7 430.1,753.1 237.2,829.7 265,636.9 147.1,491.4 310,413.5 319.2,388 	"/>
	<polygon fill="none" stroke="#000000" stroke-width="2" stroke-miterlimit="10" points="430.8,291.3 512.7,457.4 696.1,484 
		563.4,613.3 594.7,795.9 430.8,709.7 266.8,795.9 298.1,613.3 165.5,484 348.8,457.4 	"/>
</g>
</svg>
