<?xml version="1.0" encoding="utf-8"?>
<!-- Generator: Adobe Illustrator 18.0.0, SVG Export Plug-In . SVG Version: 6.00 Build 0)  -->
<!DOCTYPE svg PUBLIC "-//W3C//DTD SVG 1.0//EN" "http://www.w3.org/TR/2001/REC-SVG-20010904/DTD/svg10.dtd">
<svg version="1.0" id="Layer_1" xmlns="http://www.w3.org/2000/svg" xmlns:xlink="http://www.w3.org/1999/xlink" x="0px" y="0px"
	 viewBox="0 0 850 1100" enable-background="new 0 0 850 1100" xml:space="preserve">
<g>
	<polygon fill="none" stroke="#000000" stroke-width="2" stroke-miterlimit="10" points="848.3,1100 423.4,1100 -1.6,1100 -0.3,550 
		1,0 425.9,0 850.9,0 849.6,550 	"/>
	<polygon fill="none" stroke="#000000" stroke-width="2" stroke-miterlimit="10" points="426.3,20.6 818,44.1 820.6,122.1 
		814.5,203.5 826.2,558.4 819.2,654.6 832.5,1071.1 512,1071.1 427.3,1079.1 361.9,1079.1 290.4,1071.1 15.5,1071.1 30.6,654.6 
		24.1,558.4 37.3,203.3 31.6,121.5 34.5,44.2 	"/>
	<polygon fill="none" stroke="#000000" stroke-width="2" stroke-miterlimit="10" points="426.6,41.2 785.2,88.3 790.5,161.6 
		778.6,232.9 802.8,566.8 789,651 816.7,1042.3 505.3,1042.3 431.1,1058.2 366.6,1058.2 304,1042.3 32.5,1042.3 61.8,651 
		48.4,566.8 74,232.7 62.3,161.1 67.9,88.4 	"/>
	<polygon fill="none" stroke="#000000" stroke-width="2" stroke-miterlimit="10" points="426.9,61.8 752.4,132.4 760.5,201.2 
		742.6,262.3 779.4,575.3 758.8,647.4 800.9,1013.4 498.6,1013.4 435,1037.4 371.3,1037.4 317.6,1013.4 49.5,1013.4 92.9,647.4 
		72.7,575.3 110.6,262.1 93.1,200.7 101.3,132.5 	"/>
	<polygon fill="none" stroke="#000000" stroke-width="2" stroke-miterlimit="10" points="427.2,82.4 719.6,176.5 730.4,240.7 
		706.7,291.6 756,583.7 728.7,643.8 785.1,984.6 491.9,984.6 438.9,1016.5 376,1016.5 331.2,984.6 66.5,984.6 124.1,643.8 
		97.1,583.7 147.3,291.5 123.8,240.4 134.8,176.7 	"/>
	<polygon fill="none" stroke="#000000" stroke-width="2" stroke-miterlimit="10" points="427.6,103 686.7,220.7 700.4,280.3 
		670.8,321 732.6,592.1 698.5,640.2 769.3,955.7 485.2,955.7 442.8,995.6 380.6,995.6 344.9,955.7 83.6,955.7 155.2,640.2 
		121.4,592.1 184,320.9 154.6,280 168.2,220.9 	"/>
	<polygon fill="none" stroke="#000000" stroke-width="2" stroke-miterlimit="10" points="427.9,123.6 653.9,264.8 670.3,319.8 
		634.8,350.4 709.2,600.5 668.3,636.6 753.5,926.9 478.5,926.9 446.7,974.7 385.3,974.7 358.5,926.9 100.6,926.9 186.4,636.6 
		145.7,600.5 220.7,350.3 185.3,319.6 201.7,265.1 	"/>
	<polygon fill="none" stroke="#000000" stroke-width="2" stroke-miterlimit="10" points="428.2,144.2 621.1,308.9 640.2,359.4 
		598.9,379.7 685.8,609 638.2,633 737.6,898 471.7,898 450.6,953.8 390,953.8 372.1,898 117.6,898 217.5,633 170.1,609 257.3,379.7 
		216.1,359.2 235.1,309.2 	"/>
	<polygon fill="none" stroke="#000000" stroke-width="2" stroke-miterlimit="10" points="428.5,164.8 588.3,353.1 610.2,398.9 
		562.9,409.1 662.4,617.4 608,629.4 721.8,869.1 465,869.1 454.4,933 394.7,933 385.7,869.1 134.6,869.1 248.7,629.4 194.4,617.4 
		294,409.1 246.8,398.9 268.6,353.4 	"/>
	<polygon fill="none" stroke="#000000" stroke-width="2" stroke-miterlimit="10" points="706,840.3 577.8,625.8 639,625.8 
		527,438.5 580.1,438.5 428.8,185.4 277.6,438.5 330.7,438.5 218.7,625.8 279.8,625.8 151.7,840.3 399.4,840.3 399.4,912.1 
		458.3,912.1 458.3,840.3 	"/>
</g>
</svg>
