<?xml version="1.0" encoding="utf-8"?>
<!-- Generator: Adobe Illustrator 18.0.0, SVG Export Plug-In . SVG Version: 6.00 Build 0)  -->
<!DOCTYPE svg PUBLIC "-//W3C//DTD SVG 1.0//EN" "http://www.w3.org/TR/2001/REC-SVG-20010904/DTD/svg10.dtd">
<svg version="1.0" id="Layer_1" xmlns="http://www.w3.org/2000/svg" xmlns:xlink="http://www.w3.org/1999/xlink" x="0px" y="0px"
	 viewBox="0 0 850 1250" enable-background="new 0 0 850 1250" xml:space="preserve">
<g>
	<path fill="none" stroke="#000000" stroke-width="2" stroke-miterlimit="10" d="M562.7,595.3c32-18.3,67.9-34.7,93.9-56.3
		c11-18.8,12.7-39.6,1.6-56.3c-25.1-37.9-67-10.5-92.3,3.1c-9.9,5.4-20.2,10.2-29.7,15.6c-21.7,12.4-42,28.2-59.5,28.2
		c-10.5-26,15.8-33.7,26.6-45.4c15.8-17.1,33.6-50.2,28.2-86.1c-7.8-51.7-51.8-93.2-108-92.3C362.1,306.7,316,355.3,320.1,420
		c1.3,20.8,7.1,37.3,15.7,50.1c14.6,21.9,53.7,33.2,36,61c-30.7-12.3-59-30.7-86.1-45.4c-9.5-5.1-19-12.8-28.2-17.2
		c-41.7-19.9-90.2,20.3-67.3,65.7c8.3,16.5,29.1,22.9,46.9,32.9c11,6.1,21.3,13.1,31.3,18.8c38.7,21.8,64.3,24.7,54.8,78.3
		c-6.9,38.8-24.9,89.1-37.6,122.1c-6,15.6-8.8,31.5-14.1,45.4c-6.7,17.4-18.4,30.1-20.3,46.9c-5,42.5,28.4,65.5,56.3,65.7
		c55.5,0.5,63.8-65.2,81.4-108c8.7-21.1,17.4-58.7,39.1-56.3c22.3,2.4,25.3,51.4,36,65.7c18.3,34.1,21.7,75.3,48.5,90.8
		c31.6,18.2,72.3,0.8,82.9-26.6c13.2-34.2-8.6-58.6-17.2-81.4c-5.3-14-8.9-29.1-14.1-43.8c-15.1-43-33.3-86.8-39.1-134.6
		C521.3,618.3,541.6,607.3,562.7,595.3z"/>
	<path fill="none" stroke="#000000" stroke-width="2" stroke-miterlimit="10" d="M284.5,373.3c1.2,18.5,6.3,42.1,13.9,53.5
		c12.9,19.4,47.7,42.8,32,67.5c-27.3-10.9-52.5-10.7-76.5-23.7c-8.4-4.5-16.9-5.8-25-9.7c-37-17.7-80.2,39.3-59.8,79.7
		c7.4,14.7,25.8,30.2,41.7,39.1c9.7,5.4,18.9,17.8,27.8,22.9c34.4,19.4,57.1,40.2,48.7,87.9c-6.1,34.5-22.1,101-33.4,130.4
		c-5.4,13.9-7.8,36.2-12.5,48.6c-5.9,15.5-16.3,35.5-18.1,50.5c-4.4,37.8,40.7,58.2,65.6,58.4c49.4,0.5,79.7-58,95.3-96
		c7.7-18.7,27-52.2,46.3-50.1c19.8,2.1,34.8,45.7,44.3,58.4c16.2,30.3,35.9,66.9,59.8,80.7c28,16.1,79.7,0.8,89.1-23.6
		c11.7-30.4-7.6-65.9-15.3-86.1c-4.7-12.5-7.9-33.2-12.5-46.2c-13.4-38.3-29.6-99.6-34.8-142.1c-3.4-28.2,14.6-49.4,33.4-60.2
		c28.5-16.3,60.4-48.4,83.5-67.6c9.7-16.7,11.3-44.6,1.4-59.5c-22.3-33.7-59.5-26-82.1-13.8c-8.8,4.8-18,3.8-26.4,8.6
		c-19.3,11-37.3,14.4-52.9,14.4c-9.4-23.1,14.1-39.3,23.6-49.7c14.1-15.2,29.9-59.6,25-91.5c-6.9-45.9-90.7-82.8-140.6-82.1
		C371.7,272.6,280.9,315.8,284.5,373.3z"/>
	<path fill="none" stroke="#000000" stroke-width="2" stroke-miterlimit="10" d="M249,326.7c1,16.2,5.5,47,12.2,56.9
		c11.3,17,41.8,52.3,28,74c-23.9-9.5-45.9,9.3-66.9-2.1c-7.4-4-14.8,1.2-21.9-2.2c-32.4-15.4-70.2,58.3-52.3,93.6
		c6.5,12.8,22.6,37.5,36.5,45.3c8.5,4.7,16.5,22.6,24.3,27c30.1,17,50,55.8,42.6,97.5c-5.4,30.2-19.3,113-29.2,138.6
		c-4.7,12.1-6.8,41-11,51.8c-5.2,13.5-14.3,40.9-15.8,54c-3.9,33,53.1,50.9,74.8,51.1c43.2,0.4,95.6-50.7,109.3-84
		c6.8-16.4,36.6-45.6,53.6-43.8c17.4,1.9,44.3,40,52.6,51.1c14.2,26.5,50.2,58.6,71,70.6c24.5,14.1,87.1,0.7,95.3-20.7
		c10.3-26.6-6.7-73.1-13.4-90.8c-4.1-10.9-6.9-37.2-11-48.7c-11.7-33.5-25.9-112.5-30.4-149.7c-3-24.7,12.8-56.1,29.2-65.5
		c24.9-14.2,52.8-62.1,73-78.9c8.5-14.6,9.9-49.7,1.2-62.7c-19.6-29.5-52.1-41.4-71.8-30.8c-7.7,4.2-15.7-2.7-23.1,1.5
		c-16.9,9.6-32.6,0.7-46.3,0.6c-8.2-20.2,12.3-44.9,20.7-53.9c12.3-13.3,26.1-69.1,21.9-97c-6.1-40.2-129.5-72.5-173.2-71.8
		C381.3,238.5,245.8,276.3,249,326.7z"/>
	<path fill="none" stroke="#000000" stroke-width="2" stroke-miterlimit="10" d="M213.4,280c0.9,13.9,4.7,51.8,10.4,60.4
		c9.7,14.6,35.8,61.9,24,80.4c-20.5-8.2-39.3,29.3-57.4,19.5c-6.3-3.4-12.6,8.2-18.8,5.3c-27.8-13.2-60.1,77.3-44.9,107.6
		c5.5,11,19.4,44.8,31.3,51.5c7.3,4.1,14.2,27.3,20.9,31.1c25.8,14.6,42.9,71.4,36.5,107.1c-4.6,25.9-16.6,124.9-25,146.9
		c-4,10.4-5.8,45.8-9.4,55c-4.4,11.6-12.2,46.3-13.6,57.6c-3.3,28.3,65.5,43.6,84.1,43.8c37,0.4,111.5-43.5,123.2-72
		c5.8-14.1,46.3-39.1,60.8-37.6c14.9,1.6,53.8,34.3,60.9,43.8c12.2,22.7,64.4,50.2,82.3,60.5c21,12.1,94.5,0.6,101.5-17.7
		c8.8-22.8-5.7-80.3-11.5-95.5c-3.5-9.4-6-41.3-9.4-51.1c-10-28.7-22.2-125.3-26.1-157.2c-2.6-21.2,11-62.9,25-70.9
		c21.4-12.2,45.3-75.8,62.6-90.3c7.3-12.5,8.5-54.7,1-65.9c-16.8-25.3-44.7-56.8-61.6-47.7c-6.6,3.6-13.5-9.1-19.8-5.5
		c-14.5,8.2-28-13.1-39.7-13.1c-7-17.3,10.5-50.4,17.7-58.2c10.6-11.4,22.4-78.5,18.8-102.4c-5.2-34.4-168.4-62.1-205.8-61.6
		C390.9,204.5,210.7,236.8,213.4,280z"/>
	<path fill="none" stroke="#000000" stroke-width="2" stroke-miterlimit="10" d="M177.8,233.3c0.7,11.5,4,56.7,8.7,63.8
		c8.1,12.1,29.8,71.5,20,86.9c-17.1-6.8-32.8,49.3-47.8,41.2c-5.2-2.8-10.5,15.2-15.7,12.8c-23.1-11-50.1,96.3-37.4,121.5
		c4.6,9.2,16.1,52.1,26.1,57.7c6.1,3.4,11.8,32,17.4,35.2c21.5,12.1,35.7,87,30.4,116.8c-3.8,21.6-13.8,136.9-20.9,155.2
		c-3.3,8.7-4.9,50.5-7.8,58.2c-3.7,9.7-10.2,51.8-11.3,61.1c-2.8,23.6,77.8,36.4,93.4,36.5c30.9,0.3,127.4-36.2,137.2-60
		c4.8-11.7,55.9-32.6,68-31.3c12.4,1.3,63.3,28.5,69.2,36.5c10.1,19,78.6,41.8,93.6,50.4c17.5,10.1,101.9,0.5,107.7-14.8
		c7.3-19-4.8-87.6-9.6-100.2c-3-7.8-5-45.4-7.8-53.5c-8.4-23.9-18.5-138.2-21.7-164.7c-2.1-17.6,9.1-69.6,20.9-76.3
		c17.8-10.2,37.7-89.5,52.2-101.6c6.1-10.5,7.1-59.8,0.9-69.1c-14-21.1-37.2-72.2-51.3-64.6c-5.5,3-11.2-15.6-16.5-12.6
		c-12.1,6.9-23.3-26.9-33-26.9c-5.9-14.4,8.8-56,14.8-62.5c8.8-9.5,18.7-87.9,15.7-107.9c-4.3-28.7-207.3-51.8-238.5-51.3
		C400.5,170.4,175.5,197.4,177.8,233.3z"/>
	<path fill="none" stroke="#000000" stroke-width="2" stroke-miterlimit="10" d="M142.3,186.7c0.6,9.2,3.2,61.5,7,67.2
		c6.5,9.7,23.9,81,16,93.4c-13.7-5.5-26.2,69.3-38.3,62.8c-4.2-2.3-8.4,22.2-12.5,20.3c-18.5-8.8-40.1,115.2-29.9,135.4
		c3.7,7.3,12.9,59.4,20.9,63.8c4.9,2.7,9.5,36.7,13.9,39.3c17.2,9.7,28.6,102.6,24.3,126.4c-3.1,17.2-11,148.8-16.7,163.5
		c-2.7,6.9-3.9,55.3-6.3,61.4c-3,7.7-8.2,57.2-9,64.7c-2.2,18.9,90.2,29.1,102.6,29.2c24.7,0.2,143.3-29,151.2-48
		c3.9-9.4,65.5-26.1,75.2-25c9.9,1.1,72.8,22.8,77.5,29.2c8.1,15.2,92.9,33.5,104.8,40.3c14,8.1,109.2,0.4,113.9-11.8
		c5.9-15.2-3.8-94.8-7.7-104.9c-2.4-6.2-4-49.4-6.3-56c-6.7-19.1-14.8-151-17.4-172.3c-1.7-14.1,7.3-76.3,16.7-81.7
		c14.2-8.1,30.2-103.2,41.7-112.9c4.9-8.4,5.6-64.8,0.7-72.3c-11.2-16.9-29.8-87.7-41-81.6c-4.4,2.4-9-22-13.2-19.6
		c-9.7,5.5-18.6-40.7-26.4-40.7c-4.7-11.5,7-61.6,11.8-66.8c7-7.6,14.9-97.4,12.5-113.3c-3.5-23-246.1-41.4-271.1-41
		C410.1,136.3,140.4,157.9,142.3,186.7z"/>
	<path fill="none" stroke="#000000" stroke-width="2" stroke-miterlimit="10" d="M106.7,140c0.4,6.9,2.4,66.4,5.2,70.7
		c4.9,7.3,17.9,90.6,12,99.9c-10.2-4.1-19.7,89.3-28.7,84.5c-3.2-1.7-6.3,29.2-9.4,27.8C71.9,416.1,55.8,557,63.4,572.1
		c2.8,5.5,9.7,66.7,15.6,70c3.7,2,7.1,41.5,10.4,43.3c12.9,7.3,21.4,118.2,18.3,136c-2.3,12.9-8.3,160.7-12.5,171.7
		c-2,5.2-2.9,60-4.7,64.7c-2.2,5.8-6.1,62.6-6.8,68.2c-1.7,14.2,102.5,21.8,111.9,21.9c18.5,0.2,159.2-21.7,165.1-36
		c2.9-7,75.2-19.6,82.4-18.8c7.4,0.8,82.3,17.1,85.8,21.9c6.1,11.4,107.1,25.1,116.1,30.3c10.5,6.1,116.6,0.3,120.2-8.9
		c4.4-11.4-2.9-102-5.7-109.6c-1.8-4.7-3-53.5-4.7-58.4c-5-14.3-11.1-163.9-13-179.8c-1.3-10.6,5.5-83,12.5-87
		c10.7-6.1,22.6-116.9,31.3-124.2c3.7-6.3,4.2-69.9,0.5-75.5c-8.4-12.6-22.3-103.1-30.8-98.5c-3.3,1.8-6.7-28.5-9.9-26.7
		c-7.2,4.1-14-54.4-19.8-54.5c-3.5-8.7,5.3-67.2,8.9-71.1c5.3-5.7,11.2-106.8,9.4-118.8c-2.6-17.2-285-31.1-303.7-30.8
		C419.7,102.2,105.3,118.4,106.7,140z"/>
	<path fill="none" stroke="#000000" stroke-width="2" stroke-miterlimit="10" d="M71.1,93.3c0.3,4.6,1.6,71.3,3.5,74.1
		c3.2,4.9,11.9,100.1,8,106.3c-6.8-2.7-13.1,109.4-19.1,106.1c-2.1-1.1-4.2,36.2-6.3,35.2c-9.3-4.4-20,153.2-15,163.3
		c1.8,3.7,6.5,74,10.4,76.2c2.4,1.4,4.7,46.2,7,47.4c8.6,4.9,14.3,133.7,12.2,145.6c-1.5,8.6-5.5,172.7-8.3,180
		c-1.3,3.5-1.9,64.8-3.1,67.9c-1.5,3.9-4.1,68-4.5,71.8c-1.1,9.4,114.9,14.5,121.1,14.6c12.3,0.1,175.1-14.5,179.1-24
		c1.9-4.7,84.8-13,89.6-12.5c5,0.5,91.7,11.4,94.1,14.6c4.1,7.6,121.4,16.7,127.3,20.2c7,4,124,0.2,126.4-5.9
		c2.9-7.6-1.9-109.2-3.8-114.3c-1.2-3.1-2-57.6-3.1-60.8c-3.3-9.6-7.4-176.7-8.7-187.3c-0.9-7.1,3.7-89.7,8.3-92.4
		c7.1-4.1,15.1-130.7,20.9-135.5c2.4-4.2,2.8-74.9,0.3-78.7c-5.6-8.4-14.9-118.5-20.5-115.5c-2.2,1.2-4.5-34.9-6.6-33.7
		c-4.8,2.7-9.3-68.2-13.2-68.2c-2.3-5.8,3.5-72.7,5.9-75.3c3.5-3.8,7.5-116.2,6.3-124.2C777.5,77,455.4,67.8,442.9,67.9
		C429.3,68.2,70.2,78.9,71.1,93.3z"/>
	<path fill="none" stroke="#000000" stroke-width="2" stroke-miterlimit="10" d="M35.6,46.7c0.1,2.3,0.8,76.1,1.7,77.5
		c1.6,2.4,6,109.7,4,112.8c-3.4-1.4-6.6,129.4-9.6,127.7c-1.1-0.6-2.1,43.2-3.1,42.7c-4.6-2.2-10,172.2-7.5,177.3
		c0.9,1.8,3.2,81.3,5.2,82.4c1.2,0.7,2.4,50.9,3.5,51.5C34.1,721.2,37,868,35.9,874c-0.8,4.3-2.8,184.6-4.2,188.3
		c-0.7,1.7-1,69.5-1.6,71.1c-0.7,1.9-2,73.5-2.3,75.3c-0.6,4.7,127.3,7.3,130.4,7.3c6.2,0.1,191.1-7.2,193-12
		c1-2.3,94.4-6.5,96.8-6.3c2.5,0.3,101.2,5.7,102.4,7.3c2,3.8,135.6,8.4,138.6,10.1c3.5,2,131.4,0.1,132.6-3
		c1.5-3.8-1-116.5-1.9-119c-0.6-1.6-1-61.6-1.6-63.3c-1.7-4.8-3.7-189.5-4.3-194.9c-0.4-3.5,1.8-96.4,4.2-97.8
		c3.6-2,7.5-144.4,10.4-146.8c1.2-2.1,1.4-80,0.2-81.8c-2.8-4.2-7.4-133.9-10.3-132.4c-1.1,0.6-2.2-41.4-3.3-40.8
		c-2.4,1.4-4.7-82-6.6-82c-1.2-2.9,1.8-78.3,3-79.6c1.8-1.9,3.7-125.7,3.1-129.7c-0.9-5.7-362.7-10.4-368.9-10.3
		C438.8,34.1,35.1,39.5,35.6,46.7z"/>
	<rect fill="none" stroke="#000000" stroke-width="2" stroke-miterlimit="10" width="850" height="1250"/>
</g>
</svg>
