<?xml version="1.0" encoding="utf-8"?>
<!-- Generator: Adobe Illustrator 18.0.0, SVG Export Plug-In . SVG Version: 6.00 Build 0)  -->
<!DOCTYPE svg PUBLIC "-//W3C//DTD SVG 1.0//EN" "http://www.w3.org/TR/2001/REC-SVG-20010904/DTD/svg10.dtd">
<svg version="1.0" id="Layer_1" xmlns="http://www.w3.org/2000/svg" xmlns:xlink="http://www.w3.org/1999/xlink" x="0px" y="0px"
	 viewBox="0 0 850 1100" enable-background="new 0 0 850 1100" xml:space="preserve">
<g>
	<path fill="none" stroke="#000000" stroke-width="2" stroke-miterlimit="10" d="M563,541.7c14.3-14.3,30.7-27.3,42.8-41.9
		c22.4-27,32.1-61.8,32.5-89.9c0.4-25.7-6.2-58.6-21.2-77.5l-2.7-2.9c-13.7-21.7-37.9-41.5-65.6-52.6c-26.7-10.7-53.7-11.1-77-6.9
		c-35.8,6.4-62.2,28.5-91.3,56.8c-9.4,9.1-21.8,18.9-26.7,30.2c-10.7,24.8,8.2,56.4,39.2,53.7c5.1-0.5,12.3-3.2,16.6-5.8
		c19.9-12.1,31-34.9,54.1-50.3c17.2-11.4,42.7-15,68.4-0.5c1.9,1.1,4.9,3.5,5.3,4.2c1.2,2,6,4.7,7,5.8c18.3,19.1,26.9,53.9,4.6,83.3
		c-11.5,15.2-28,27.6-41.8,41.6c-41.5,41.8-85,82-125.2,122.5c-44.6,44.9-97.8,96.8-145.8,143.4c-8.5,8.2-16.9,14.8-20.6,22.6
		c-16.3,34.1,21.5,65.8,51.6,51.5c6.5-3.1,14.2-10.9,21.9-18.7c15.8-15.7,27.4-27.7,40.5-40.6c38.9-38.2,78.1-76.1,117.1-113.9
		S524.6,580,563,541.7z"/>
	<path fill="none" stroke="#000000" stroke-width="2" stroke-miterlimit="10" d="M314.5,317.4c-9.5,22.1,7.2,62.1,34.8,59.6
		c4.6-0.4,10.9-0.3,14.7-2.6c17.7-10.7,27.5-20,48.1-33.7c15.3-10.1,38-2.6,60.8,10.3c1.7,0.9,4.4,4.1,4.7,4.6
		c1,1.8,5.3,5.5,6.2,6.4c16.3,16.9,23.9,61.5,4.1,87.7c-10.2,13.5-24.9,33.6-37.2,46.1c-36.9,37.1-75.5,99-111.3,135
		c-39.7,39.9-86.9,116.4-129.6,157.9c-7.5,7.3-15,17.7-18.3,24.6c-14.5,30.3,32,58.5,58.8,45.8c5.8-2.8,16.5-9.7,23.5-16.6
		c14-14,32.2-24.6,43.9-36.1c34.6-34,91.9-67.6,126.5-101.3c34.7-33.6,116.5-67.3,150.6-101.4c12.7-12.7,27.3-85.4,38.1-98.4
		c19.9-24,28.5-87.4,28.9-112.3c0.4-22.8-5.5-79.6-18.9-96.3l-2.4-3.8c-12.2-19.3-58.2-36.9-82.9-46.7c-23.8-9.5-70.4-9.9-91.1-6.1
		c-31.8,5.7-89.8,25.3-115.6,50.5C342.6,298.6,318.9,307.3,314.5,317.4z"/>
	<path fill="none" stroke="#000000" stroke-width="2" stroke-miterlimit="10" d="M275.2,277.7c-8.3,19.3,6.3,67.7,30.5,65.6
		c4-0.4,9.5,2.6,12.9,0.6c15.5-9.4,24.1-5.1,42.1-17.1c13.4-8.9,33.2,9.8,53.2,21.1c1.5,0.8,3.8,4.6,4.1,5.1c0.9,1.5,4.6,6.2,5.4,7
		c14.2,14.8,20.9,69.1,3.6,92c-8.9,11.8-21.7,39.7-32.5,50.6c-32.3,32.5-66.1,116.1-97.4,147.6c-34.7,34.9-76,136.1-113.4,172.4
		c-6.6,6.4-13.1,20.5-16,26.6c-12.7,26.5,42.6,51.2,66,40c5.1-2.4,18.9-8.5,25-14.5c12.3-12.2,37-21.5,47.3-31.6
		c30.3-29.7,105.6-59.2,136-88.6c30.3-29.4,155-58.9,184.9-88.7c11.2-11.1,23.9-143.4,33.3-154.8c17.4-21,24.9-112.9,25.3-134.7
		c0.3-20-4.8-100.5-16.5-115.2l-2.1-4.8c-10.7-16.9-78.6-32.2-100.2-40.9c-20.8-8.3-87-8.6-105.2-5.4c-27.9,5-117.4,22.2-140,44.2
		C314.1,261.3,279,268.9,275.2,277.7z"/>
	<path fill="none" stroke="#000000" stroke-width="2" stroke-miterlimit="10" d="M235.9,238c-7.1,16.5,5.4,73.4,26.1,71.5
		c3.4-0.3,8.2,5.5,11.1,3.8c13.3-8.1,20.7,9.8,36.1-0.4c11.5-7.6,28.5,22.2,45.6,31.8c1.3,0.7,3.3,5.2,3.5,5.6
		c0.8,1.3,4,6.9,4.6,7.6c12.2,12.7,17.9,76.7,3.1,96.3c-7.6,10.1-18.6,45.7-27.9,55.1c-27.7,27.9-56.6,133.2-83.5,160.2
		c-29.8,29.9-65.2,155.8-97.2,186.9c-5.7,5.5-11.2,23.4-13.7,28.5c-10.9,22.7,53.1,43.9,73.2,34.3c4.3-2.1,21.3-7.3,26.5-12.5
		c10.5-10.5,41.8-18.4,50.6-27.1c26-25.5,119.4-50.7,145.4-75.9s193.6-50.5,219.2-76c9.6-9.5,20.5-201.5,28.5-211.3
		c14.9-18,21.4-138.5,21.7-157.1c0.3-17.1-4.2-121.4-14.2-134l-1.8-5.7c-9.1-14.5-99-27.6-117.5-35c-17.8-7.1-103.7-7.4-119.3-4.6
		c-23.9,4.3-144.9,19-164.3,37.9C285.7,224,239.2,230.5,235.9,238z"/>
	<path fill="none" stroke="#000000" stroke-width="2" stroke-miterlimit="10" d="M196.6,198.4c-6,13.8,4.5,79,21.8,77.5
		c2.9-0.3,6.8,8.4,9.2,7c11.1-6.7,17.2,24.7,30.1,16.2c9.5-6.3,23.7,34.6,38,42.6c1,0.6,2.7,5.7,2.9,6.1c0.6,1.1,3.3,7.6,3.9,8.2
		c10.2,10.6,14.9,84.3,2.6,100.6c-6.4,8.5-15.5,51.8-23.2,59.6c-23,23.2-47.2,150.2-69.6,172.8c-24.8,24.9-54.3,175.5-81,201.4
		c-4.7,4.6-9.4,26.2-11.4,30.5c-9,18.9,63.7,36.6,80.4,28.6c3.6-1.7,23.7-6.1,28-10.4c8.8-8.7,46.6-15.4,54-22.5
		c21.6-21.2,133.2-42.3,154.9-63.3c21.7-21,232.2-42.1,253.5-63.4c8-7.9,17-259.6,23.8-267.7c12.4-15,17.8-164,18.1-179.6
		c0.2-14.3-3.5-142.4-11.8-152.9l-1.5-6.6c-7.6-12.1-119.4-23-134.8-29.2c-14.9-5.9-120.4-6.2-133.3-3.8
		c-19.9,3.6-172.5,15.8-188.6,31.6C257.2,186.6,199.3,192.1,196.6,198.4z"/>
	<path fill="none" stroke="#000000" stroke-width="2" stroke-miterlimit="10" d="M157.3,158.7c-4.8,11,3.6,84.6,17.4,83.4
		c2.3-0.2,5.4,11.3,7.4,10.2c8.9-5.4,13.8,39.6,24.1,32.8c7.6-5.1,19,46.9,30.4,53.4c0.8,0.5,2.2,6.3,2.4,6.5
		c0.5,0.9,2.6,8.4,3.1,8.8c8.1,8.5,11.9,91.9,2.1,105c-5.1,6.8-12.4,57.8-18.6,64.1c-18.4,18.6-37.8,167.3-55.7,185.3
		c-19.8,19.9-43.4,195.2-64.8,215.9c-3.8,3.7-7.5,29.1-9.1,32.5c-7.2,15.2,74.2,29.3,87.6,22.9c2.9-1.4,26.1-4.9,29.6-8.3
		c7-7,51.5-12.3,57.3-18c17.3-17,147-33.8,164.3-50.6c17.3-16.8,270.7-33.7,287.8-50.7c6.4-6.3,13.6-317.7,19-324.2
		c10-12,14.3-189.5,14.5-202c0.2-11.4-2.8-163.3-9.4-171.7l-1.2-7.5c-6.1-9.6-139.7-18.4-152.1-23.4c-11.9-4.7-137.1-4.9-147.4-3.1
		c-15.9,2.9-200,12.7-213,25.2C228.7,149.3,159.4,153.7,157.3,158.7z"/>
	<path fill="none" stroke="#000000" stroke-width="2" stroke-miterlimit="10" d="M117.9,119c-3.6,8.3,2.7,90.3,13.1,89.4
		c1.7-0.2,4.1,14.3,5.5,13.4c6.6-4,10.3,54.6,18,49.4c5.7-3.8,14.2,59.3,22.8,64.2c0.6,0.4,1.6,6.8,1.8,7c0.4,0.7,2,9.1,2.3,9.4
		c6.1,6.4,9,99.5,1.5,109.3c-3.8,5.1-9.3,63.9-13.9,68.6c-13.8,13.9-28.3,184.4-41.7,197.9c-14.9,15-32.6,214.9-48.6,230.4
		c-2.8,2.7-5.6,31.9-6.9,34.5c-5.4,11.4,84.8,21.9,94.8,17.2c2.2-1,28.5-3.6,31.1-6.2c5.3-5.2,56.3-9.2,60.7-13.5
		c13-12.7,160.8-25.4,173.8-38s309.3-25.2,322.1-38c4.8-4.8,10.2-375.8,14.3-380.6c7.5-9,10.7-215.1,10.8-224.4
		c0.1-8.6-2.1-184.2-7.1-190.5l-0.9-8.5c-4.6-7.2-160.1-13.8-169.4-17.5c-8.9-3.6-153.7-3.7-161.5-2.3
		c-11.9,2.1-227.6,9.5-237.3,18.9C200.2,112,119.6,115.2,117.9,119z"/>
	<path fill="none" stroke="#000000" stroke-width="2" stroke-miterlimit="10" d="M78.6,79.3c-2.4,5.5,1.8,95.9,8.7,95.3
		c1.1-0.1,2.7,17.2,3.7,16.6c4.4-2.7,6.9,69.5,12,66.1c3.8-2.5,9.5,71.7,15.2,74.9c0.4,0.2,1.1,7.4,1.2,7.5c0.3,0.4,1.3,9.8,1.5,10
		c4.1,4.2,6,107,1,113.6c-2.5,3.4-6.2,69.9-9.3,73.1c-9.2,9.3-18.9,201.5-27.8,210.5c-9.9,10-21.7,234.6-32.4,244.9
		c-1.9,1.8-3.7,34.8-4.6,36.5c-3.6,7.6,95.3,14.6,102,11.4c1.4-0.7,30.9-2.4,32.6-4.2c3.5-3.5,61.1-6.1,64-9
		c8.7-8.5,174.6-16.9,183.3-25.3c8.7-8.4,347.9-16.8,356.4-25.3c3.2-3.2,6.8-433.8,9.5-437.1c5-6,7.1-240.6,7.2-246.8
		c0.1-5.7-1.4-205.2-4.7-209.4l-0.6-9.4c-3-4.8-180.5-9.2-186.7-11.7c-5.9-2.4-170.4-2.5-175.6-1.5c-8,1.4-255.2,6.3-261.6,12.6
		C171.7,74.7,79.7,76.8,78.6,79.3z"/>
	<path fill="none" stroke="#000000" stroke-width="2" stroke-miterlimit="10" d="M39.3,39.7c-1.2,2.8,0.9,101.6,4.4,101.3
		c0.6-0.1,1.4,20.1,1.8,19.8c2.2-1.3,3.4,84.4,6,82.7c1.9-1.3,4.7,84.1,7.6,85.7c0.2,0.1,0.5,7.9,0.6,8c0.1,0.2,0.7,10.5,0.8,10.7
		c2,2.1,3,114.6,0.5,117.9c-1.3,1.7-3.1,76-4.6,77.5c-4.6,4.6-9.4,218.5-13.9,223c-5,5-10.9,254.3-16.2,259.4
		c-0.9,0.9-1.9,37.6-2.3,38.5c-1.8,3.8,105.9,7.3,109.2,5.7c0.7-0.3,33.3-1.2,34.1-2.1c1.8-1.7,65.9-3.1,67.4-4.5
		c4.3-4.2,188.4-8.5,192.7-12.7c4.3-4.2,386.4-8.4,390.7-12.7c1.6-1.6,3.4-491.9,4.8-493.5c2.5-3,3.6-266.2,3.6-269.3
		c0-2.9-0.7-226.1-2.4-228.2l-0.3-10.3c-1.5-2.4-200.9-4.6-203.9-5.8c-3-1.2-187.1-1.2-189.7-0.8c-4,0.7-282.7,3.2-285.9,6.3
		C143.2,37.3,39.9,38.4,39.3,39.7z"/>
	<polygon fill="none" stroke="#000000" stroke-width="2" stroke-miterlimit="10" points="0,1100 425,1100 850,1100 850,550 850,0 
		425,0 0,0 0,550 	"/>
</g>
</svg>
