<svg id="Layer_1" data-name="Layer 1" xmlns="http://www.w3.org/2000/svg" viewBox="0 0 3201 801"><defs><style>.cls-1{fill:none;stroke:#000;stroke-miterlimit:10;}</style></defs><title>voronoi</title><path class="cls-1" d="M1003.3,44.7,988.73,0h388.53l-44.68,144.36-20.81,16.9-299-112ZM0,174.37l116.68,22.87L255.44,110.5,300.95,0H0ZM2453.87,720.14,2501.7,646l66.41-156,.7-5.82-99.27-149.55-115.38-28.11-207.08,51.69L2297,630.31Zm114.25-230.19L2501.7,646l378,67.49,5.34-83.28-30.1-36.4ZM2501.7,646l-47.84,74.17L2452.49,800h460.13l-32.92-86.54ZM445.29,698.34,548.14,537.89,548,342.54l-.28-.25-71.49-14.36L363.79,477.37ZM177,541.44l186.84-64.06,112.4-149.44L472.82,325l-251-26.19ZM472.82,325l3.37,2.94,71.49,14.36,58-116.36L583.64,0H462L430,197.29ZM1801.45,54.46l10.35-11.56L1810,0H1572.71L1581,72.41ZM1574,118.62l7-46.21L1572.71,0H1377.25l-44.68,144.36ZM935.93,305.19,1003.3,44.7,988.73,0H831.89L680.58,175.65ZM831.55,418.41l86.35-8.32,18-104.9L680.58,175.65l-74.93,50.28-58,116.36.28.25Zm136.93,49.85,248,30.07,36.91-115.08L1012.75,49.3l-9.44-4.6L935.93,305.19l-18,104.9ZM2725,105.55,2526.23,53.88l-13.37,135.66,208.21-49Zm-3.9,35,80.52,177.64,141,2.35L3006.7,308l18.28-7.69L2900.15,0H2763.94l-39,105.55Zm3.9-35L2763.94,0H2514.62l11.61,53.88Zm-156.85,384.4,286.82,103.83,87.64-273.21-141-2.35L2568.82,484.13ZM2885,630.18l73.05-35.63,4.67-8L3006.7,308l-64.12,12.61-87.64,273.21ZM548,342.54l.18,195.35,131.57,86L831.55,418.41ZM679.71,623.85l-131.57-86L445.29,698.34,425.74,800H594.16l85-133ZM831.55,418.41,679.71,623.85l-.6,43.15,252.72,44.61,36.65-243.36L917.9,410.09Zm384.89,79.91-248-30.07L931.83,711.61,944.56,800H1321.4l-.91-210.81ZM1967,476.41l84.19,159.54L2297,630.31,2147.09,358.16l-129-43.65-24.42,18Zm51.11-161.91,129,43.65,207.08-51.69L2240.72,0H2140l-95.8,168.72Zm-93.69,7.12-69.85-61.14L1596.7,215.64l-28,140L1587,416.15Zm0,0L1587,416.15l-13.53,52.41,153,189.26L1967,476.41l26.69-144Zm-355.63,34L1330.42,248.06l-77.07,135.19-36.91,115.08,104,90.87,253-120.63L1587,416.15Zm4.71,112.94-253,120.63L1321.4,800h416.17l-11.1-142.18ZM2297,630.31l-245.83,5.64L1989.22,800h463.26l1.38-79.86Zm-330-153.9L1726.47,657.82,1737.57,800h251.66l61.92-164.06ZM679.11,667l-85,133h350.4l-12.73-88.39ZM2512.86,189.54l13.37-135.66L2514.62,0H2264.39l235.51,208Zm-43.31,145L2499.89,208,2264.39,0h-23.67l113.45,306.47ZM177,541.44,221.8,298.79,116.68,197.24,0,174.37v352l142,52.89Zm186.84-64.06L177,541.44l-35,37.82L231.93,800H425.74l19.55-101.66ZM0,526.36V800H231.93L142,579.25ZM2044.16,168.72,2140,0H1810l1.81,42.9ZM680.58,175.65,831.89,0H583.64l22,225.93ZM430,197.29,462,0H300.95L255.44,110.5ZM1568.75,355.62l28-140,1-39.9L1574,118.62l-241.42,25.74-20.81,16.9,18.65,86.8Zm285.78-95.14,69.85,61.14,69.27,10.84,24.42-18,26.09-145.78L1811.79,42.9l-10.35,11.56-31,96.68ZM2958.09,594.55,3200,770.4V536.32l-237.24,50.25ZM3006.7,308l-43.94,278.6L3200,536.32V305.74l-175-5.46Zm-205.11,10.25-80.52-177.64-208.21,49-13,18.51-30.35,126.53,99.27,149.55ZM1770.41,151.14l-172.72,24.6-1,39.9,257.83,44.83Zm0,0,31-96.68L1581,72.41l-7,46.21,23.69,57.12ZM3200,305.74V0H2900.15L3025,300.27ZM472.82,325,430,197.29,255.44,110.5,116.68,197.24,221.8,298.79Zm857.61-76.93-18.65-86.8-299-112,240.61,333.95ZM2885,630.18l-5.34,83.28L2912.61,800H3200V770.4L2958.09,594.55Z" transform="translate(0.5 0.5)"/></svg>