<svg version="1.1" xmlns="http://www.w3.org/2000/svg" xmlns:xlink="http://www.w3.org/1999/xlink" width="800" height="1149.5145631067962" viewBox="0 0 800 1149.5145631067962"><defs/><g transform="scale(1,1)"><g><g transform="scale(1,1)"><rect fill="rgb(255,255,255)" stroke="none" x="0" y="0" width="800" height="1149.5145631067962" fill-opacity="1"/></g><g><path fill="none" stroke="rgb(0,0,0)" paint-order="fill stroke markers" d=" M 85.8608 432.15586893203886 L 91.3553 432.15586893203886 C 98.4371 432.15586893203886 100.26859999999999 426.9055689320388 100.26859999999999 419.82376893203883 L 100.26859999999999 393.81646893203884 C 100.26859999999999 386.73466893203886 98.4371 381.4843689320388 91.3553 381.4843689320388 L 82.44200000000001 381.4843689320388 L 82.44200000000001 466.95436893203885 L 85.8608 466.95436893203885 Z M 91.3553 416.28286893203887 L 85.8608 416.28286893203887 L 85.8608 397.35736893203887 L 91.3553 397.35736893203887 C 95.1404 397.35736893203887 96.8498 399.6772689320388 96.8498 403.4623689320388 L 96.8498 410.17786893203885 C 96.8498 413.96296893203885 95.1404 416.28286893203887 91.3553 416.28286893203887 Z M 114.0659 380.50756893203885 C 106.9841 380.50756893203885 105.1526 385.75786893203883 105.1526 392.8396689320389 L 105.1526 455.59906893203885 C 105.1526 462.68086893203883 106.9841 467.9311689320389 114.0659 467.9311689320389 C 121.1477 467.9311689320389 122.97919999999999 462.68086893203883 122.97919999999999 455.59906893203885 L 122.97919999999999 392.8396689320389 C 122.97919999999999 385.75786893203883 121.1477 380.50756893203885 114.0659 380.50756893203885 Z M 114.0659 395.77006893203884 C 117.851 395.77006893203884 119.5604 398.08996893203886 119.5604 401.87506893203886 L 119.5604 446.56366893203887 C 119.5604 450.34876893203887 117.851 452.6686689320388 114.0659 452.6686689320388 C 110.2808 452.6686689320388 108.5714 450.34876893203887 108.5714 446.56366893203887 L 108.5714 401.87506893203886 C 108.5714 398.08996893203886 110.2808 395.77006893203884 114.0659 395.77006893203884 Z M 136.7765 452.6686689320388 C 132.9914 452.6686689320388 131.282 450.34876893203887 131.282 446.56366893203887 L 131.282 381.4843689320388 L 127.8632 381.4843689320388 L 127.8632 455.59906893203885 C 127.8632 462.68086893203883 129.6947 467.9311689320389 136.7765 467.9311689320389 C 143.85829999999999 467.9311689320389 145.6898 462.68086893203883 145.6898 455.59906893203885 L 145.6898 381.4843689320388 L 142.271 381.4843689320388 L 142.271 446.56366893203887 C 142.271 450.34876893203887 140.5616 452.6686689320388 136.7765 452.6686689320388 Z M 153.9926 432.15586893203886 L 156.923 432.15586893203886 L 164.7374 466.95436893203885 L 168.4004 466.95436893203885 L 160.4639 432.15586893203886 C 166.691 431.66746893203884 168.4004 426.53926893203885 168.4004 419.82376893203883 L 168.4004 393.81646893203884 C 168.4004 386.73466893203886 166.56889999999999 381.4843689320388 159.4871 381.4843689320388 L 150.5738 381.4843689320388 L 150.5738 466.95436893203885 L 153.9926 466.95436893203885 Z M 159.4871 416.28286893203887 L 153.9926 416.28286893203887 L 153.9926 397.35736893203887 L 159.4871 397.35736893203887 C 163.2722 397.35736893203887 164.9816 399.6772689320388 164.9816 403.4623689320388 L 164.9816 410.17786893203885 C 164.9816 413.96296893203885 163.2722 416.28286893203887 159.4871 416.28286893203887 Z M 204.9083 452.6686689320388 C 201.1232 452.6686689320388 199.4138 450.34876893203887 199.4138 446.56366893203887 L 199.4138 381.4843689320388 L 195.995 381.4843689320388 L 195.995 455.59906893203885 C 195.995 462.68086893203883 197.8265 467.9311689320389 204.9083 467.9311689320389 C 211.99009999999998 467.9311689320389 213.8216 462.68086893203883 213.8216 455.59906893203885 L 213.8216 381.4843689320388 L 210.40279999999998 381.4843689320388 L 210.40279999999998 446.56366893203887 C 210.40279999999998 450.34876893203887 208.6934 452.6686689320388 204.9083 452.6686689320388 Z M 228.2294 381.4843689320388 L 218.7056 381.4843689320388 L 218.7056 466.95436893203885 L 222.1244 466.95436893203885 L 222.1244 397.35736893203887 L 225.4211 397.35736893203887 L 226.8863 466.95436893203885 L 236.5322 466.95436893203885 L 236.5322 381.4843689320388 L 233.11339999999998 381.4843689320388 L 233.11339999999998 451.08136893203886 L 230.0609 451.08136893203886 Z M 273.0401 381.4843689320388 L 264.1268 381.4843689320388 L 264.1268 466.95436893203885 L 273.0401 466.95436893203885 C 280.1219 466.95436893203885 281.9534 461.70406893203887 281.9534 454.6222689320388 L 281.9534 393.81646893203884 C 281.9534 386.73466893203886 280.1219 381.4843689320388 273.0401 381.4843689320388 Z M 273.0401 451.08136893203886 L 267.5456 451.08136893203886 L 267.5456 397.35736893203887 L 273.0401 397.35736893203887 C 276.8252 397.35736893203887 278.5346 399.6772689320388 278.5346 403.4623689320388 L 278.5346 444.97636893203884 C 278.5346 448.76146893203884 276.8252 451.08136893203886 273.0401 451.08136893203886 Z M 304.664 397.35736893203887 L 304.664 381.4843689320388 L 286.8374 381.4843689320388 L 286.8374 397.35736893203887 L 294.0413 397.35736893203887 L 294.0413 451.08136893203886 L 286.8374 451.08136893203886 L 286.8374 466.95436893203885 L 304.664 466.95436893203885 L 304.664 451.08136893203886 L 297.4601 451.08136893203886 L 297.4601 397.35736893203887 Z M 327.3746 466.95436893203885 L 327.3746 451.08136893203886 L 312.9668 451.08136893203886 L 312.9668 432.15586893203886 L 326.1536 432.15586893203886 L 326.1536 416.28286893203887 L 312.9668 416.28286893203887 L 312.9668 397.35736893203887 L 327.3746 397.35736893203887 L 327.3746 381.4843689320388 L 309.548 381.4843689320388 L 309.548 466.95436893203885 Z M 341.1719 452.6686689320388 C 337.3868 452.6686689320388 335.6774 450.34876893203887 335.6774 446.56366893203887 L 335.6774 381.4843689320388 L 332.2586 381.4843689320388 L 332.2586 455.59906893203885 C 332.2586 462.68086893203883 334.0901 467.9311689320389 341.1719 467.9311689320389 C 348.2537 467.9311689320389 350.0852 462.68086893203883 350.0852 455.59906893203885 L 350.0852 381.4843689320388 L 346.6664 381.4843689320388 L 346.6664 446.56366893203887 C 346.6664 450.34876893203887 344.957 452.6686689320388 341.1719 452.6686689320388 Z M 394.40749999999997 466.95436893203885 L 397.9484 466.95436893203885 L 395.1401 460.2388689320388 C 395.3843 458.89576893203883 395.5064 457.30846893203886 395.5064 455.59906893203885 L 395.5064 392.8396689320389 C 395.5064 385.75786893203883 393.6749 380.50756893203885 386.5931 380.50756893203885 C 379.5113 380.50756893203885 377.6798 385.75786893203883 377.6798 392.8396689320389 L 377.6798 455.59906893203885 C 377.6798 462.68086893203883 379.5113 467.9311689320389 386.5931 467.9311689320389 C 389.8898 467.9311689320389 392.0876 466.71016893203887 393.4307 464.7565689320389 Z M 381.0986 401.87506893203886 C 381.0986 398.08996893203886 382.808 395.77006893203884 386.5931 395.77006893203884 C 390.3782 395.77006893203884 392.0876 398.08996893203886 392.0876 401.87506893203886 L 392.0876 446.56366893203887 C 392.0876 448.2730689320388 391.7213 449.6161689320388 391.1108 450.59296893203884 L 381.0986 426.78346893203883 Z M 381.0986 446.56366893203887 L 381.0986 435.20836893203887 L 388.3025 452.42446893203885 C 387.8141 452.54656893203884 387.2036 452.6686689320388 386.5931 452.6686689320388 C 382.808 452.6686689320388 381.0986 450.34876893203887 381.0986 446.56366893203887 Z M 409.3037 452.6686689320388 C 405.5186 452.6686689320388 403.8092 450.34876893203887 403.8092 446.56366893203887 L 403.8092 381.4843689320388 L 400.3904 381.4843689320388 L 400.3904 455.59906893203885 C 400.3904 462.68086893203883 402.2219 467.9311689320389 409.3037 467.9311689320389 C 416.3855 467.9311689320389 418.217 462.68086893203883 418.217 455.59906893203885 L 418.217 381.4843689320388 L 414.7982 381.4843689320388 L 414.7982 446.56366893203887 C 414.7982 450.34876893203887 413.0888 452.6686689320388 409.3037 452.6686689320388 Z M 440.9276 466.95436893203885 L 440.9276 451.08136893203886 L 426.5198 451.08136893203886 L 426.5198 432.15586893203886 L 439.7066 432.15586893203886 L 439.7066 416.28286893203887 L 426.5198 416.28286893203887 L 426.5198 397.35736893203887 L 440.9276 397.35736893203887 L 440.9276 381.4843689320388 L 423.101 381.4843689320388 L 423.101 466.95436893203885 Z M 445.8116 466.95436893203885 L 463.6382 466.95436893203885 L 463.6382 451.08136893203886 L 449.2304 451.08136893203886 L 449.2304 381.4843689320388 L 445.8116 381.4843689320388 Z" stroke-opacity="1" stroke-linecap="round" stroke-miterlimit="10"/></g><g><path fill="none" stroke="rgb(0,0,0)" paint-order="fill stroke markers" d=" M 97.3382 619.5793689320388 L 100.757 619.5793689320388 L 96.2393 534.1093689320388 L 86.5934 534.1093689320388 L 81.9536 619.5793689320388 L 85.3724 619.5793689320388 L 86.3492 600.6538689320389 L 96.3614 600.6538689320389 Z M 89.1575 549.9823689320389 L 93.5531 549.9823689320389 L 95.5067 584.7808689320389 L 87.326 584.7808689320389 Z M 114.0659 619.5793689320388 C 121.1477 619.5793689320388 122.97919999999999 614.3290689320388 122.97919999999999 607.2472689320389 L 122.97919999999999 583.3156689320389 C 122.97919999999999 578.5537689320388 121.2698 576.4780689320388 118.8278 575.6233689320388 C 120.90350000000001 574.2802689320389 122.2466 571.9603689320388 122.2466 567.8089689320389 L 122.2466 546.4414689320388 C 122.2466 539.3596689320389 120.4151 534.1093689320388 113.3333 534.1093689320388 L 105.1526 534.1093689320388 L 105.1526 619.5793689320388 Z M 118.8278 561.5818689320388 C 118.8278 566.7100689320389 116.9963 568.9078689320388 113.2112 568.9078689320388 L 108.5714 568.9078689320388 L 108.5714 549.9823689320389 L 113.3333 549.9823689320389 C 117.1184 549.9823689320389 118.8278 552.3022689320388 118.8278 556.0873689320389 Z M 108.5714 584.7808689320389 L 113.9438 584.7808689320389 C 117.7289 584.7808689320389 119.5604 586.9786689320389 119.5604 592.1068689320389 L 119.5604 598.2118689320389 C 119.5604 601.9969689320388 117.851 604.3168689320388 114.0659 604.3168689320388 L 108.5714 604.3168689320388 Z M 142.7594 619.5793689320388 L 146.1782 619.5793689320388 L 141.6605 534.1093689320388 L 132.0146 534.1093689320388 L 127.3748 619.5793689320388 L 130.7936 619.5793689320388 L 131.7704 600.6538689320389 L 141.7826 600.6538689320389 Z M 134.5787 549.9823689320389 L 138.9743 549.9823689320389 L 140.9279 584.7808689320389 L 132.7472 584.7808689320389 Z M 168.4004 549.9823689320389 L 168.4004 534.1093689320388 L 150.5738 534.1093689320388 L 150.5738 549.9823689320389 L 157.7777 549.9823689320389 L 157.7777 603.7063689320388 L 150.5738 603.7063689320388 L 150.5738 619.5793689320388 L 168.4004 619.5793689320388 L 168.4004 603.7063689320388 L 161.1965 603.7063689320388 L 161.1965 549.9823689320389 Z M 191.111 619.5793689320388 L 191.111 568.9078689320388 L 176.7032 568.9078689320388 L 176.7032 549.9823689320389 L 191.111 549.9823689320389 L 191.111 534.1093689320388 L 173.2844 534.1093689320388 L 173.2844 584.7808689320389 L 187.69219999999999 584.7808689320389 L 187.69219999999999 603.7063689320388 L 173.2844 603.7063689320388 L 173.2844 619.5793689320388 Z M 213.8216 619.5793689320388 L 213.8216 568.9078689320388 L 199.4138 568.9078689320388 L 199.4138 549.9823689320389 L 213.8216 549.9823689320389 L 213.8216 534.1093689320388 L 195.995 534.1093689320388 L 195.995 584.7808689320389 L 210.40279999999998 584.7808689320389 L 210.40279999999998 603.7063689320388 L 195.995 603.7063689320388 L 195.995 619.5793689320388 Z M 236.5322 619.5793689320388 L 236.5322 603.7063689320388 L 222.1244 603.7063689320388 L 222.1244 584.7808689320389 L 235.31119999999999 584.7808689320389 L 235.31119999999999 568.9078689320388 L 222.1244 568.9078689320388 L 222.1244 549.9823689320389 L 236.5322 549.9823689320389 L 236.5322 534.1093689320388 L 218.7056 534.1093689320388 L 218.7056 619.5793689320388 Z M 241.4162 534.1093689320388 L 241.4162 619.5793689320388 L 244.835 619.5793689320388 L 244.835 549.9823689320389 L 246.4223 549.9823689320389 L 247.277 584.7808689320389 L 253.382 584.7808689320389 L 254.23669999999998 549.9823689320389 L 255.82399999999998 549.9823689320389 L 255.82399999999998 619.5793689320388 L 259.2428 619.5793689320388 L 259.2428 534.1093689320388 L 252.03889999999998 534.1093689320388 L 251.3063 568.9078689320388 L 249.3527 568.9078689320388 L 248.6201 534.1093689320388 Z M 281.9534 619.5793689320388 L 281.9534 603.7063689320388 L 267.5456 603.7063689320388 L 267.5456 584.7808689320389 L 280.7324 584.7808689320389 L 280.7324 568.9078689320388 L 267.5456 568.9078689320388 L 267.5456 549.9823689320389 L 281.9534 549.9823689320389 L 281.9534 534.1093689320388 L 264.1268 534.1093689320388 L 264.1268 619.5793689320388 Z M 296.3612 534.1093689320388 L 286.8374 534.1093689320388 L 286.8374 619.5793689320388 L 290.2562 619.5793689320388 L 290.2562 549.9823689320389 L 293.5529 549.9823689320389 L 295.0181 619.5793689320388 L 304.664 619.5793689320388 L 304.664 534.1093689320388 L 301.2452 534.1093689320388 L 301.2452 603.7063689320388 L 298.1927 603.7063689320388 Z M 327.3746 549.9823689320389 L 327.3746 534.1093689320388 L 309.548 534.1093689320388 L 309.548 549.9823689320389 L 316.7519 549.9823689320389 L 316.7519 619.5793689320388 L 320.1707 619.5793689320388 L 320.1707 549.9823689320389 Z M 342.7592 594.7930689320389 L 347.0327 557.7967689320388 L 347.0327 534.1093689320388 L 335.3111 534.1093689320388 L 335.3111 557.7967689320388 L 339.5846 594.7930689320389 Z M 341.1719 602.7295689320389 C 335.4332 602.7295689320389 332.2586 605.9041689320388 332.2586 611.6428689320388 C 332.2586 617.3815689320388 335.4332 620.5561689320389 341.1719 620.5561689320389 C 346.9106 620.5561689320389 350.0852 617.3815689320388 350.0852 611.6428689320388 C 350.0852 605.9041689320388 346.9106 602.7295689320389 341.1719 602.7295689320389 Z M 392.576 619.5793689320388 L 395.9948 619.5793689320388 L 391.4771 534.1093689320388 L 381.83119999999997 534.1093689320388 L 377.1914 619.5793689320388 L 380.6102 619.5793689320388 L 381.587 600.6538689320389 L 391.5992 600.6538689320389 Z M 384.3953 549.9823689320389 L 388.79089999999997 549.9823689320389 L 390.7445 584.7808689320389 L 382.5638 584.7808689320389 Z M 403.8092 584.7808689320389 L 409.3037 584.7808689320389 C 416.3855 584.7808689320389 418.217 579.5305689320388 418.217 572.4487689320389 L 418.217 546.4414689320388 C 418.217 539.3596689320389 416.3855 534.1093689320388 409.3037 534.1093689320388 L 400.3904 534.1093689320388 L 400.3904 619.5793689320388 L 403.8092 619.5793689320388 Z M 409.3037 568.9078689320388 L 403.8092 568.9078689320388 L 403.8092 549.9823689320389 L 409.3037 549.9823689320389 C 413.0888 549.9823689320389 414.7982 552.3022689320388 414.7982 556.0873689320389 L 414.7982 562.8028689320388 C 414.7982 566.5879689320388 413.0888 568.9078689320388 409.3037 568.9078689320388 Z M 426.5198 584.7808689320389 L 432.0143 584.7808689320389 C 439.0961 584.7808689320389 440.9276 579.5305689320388 440.9276 572.4487689320389 L 440.9276 546.4414689320388 C 440.9276 539.3596689320389 439.0961 534.1093689320388 432.0143 534.1093689320388 L 423.101 534.1093689320388 L 423.101 619.5793689320388 L 426.5198 619.5793689320388 Z M 432.0143 568.9078689320388 L 426.5198 568.9078689320388 L 426.5198 549.9823689320389 L 432.0143 549.9823689320389 C 435.7994 549.9823689320389 437.5088 552.3022689320388 437.5088 556.0873689320389 L 437.5088 562.8028689320388 C 437.5088 566.5879689320388 435.7994 568.9078689320388 432.0143 568.9078689320388 Z M 454.7249 605.2936689320388 C 450.9398 605.2936689320388 449.2304 602.9737689320389 449.2304 599.1886689320388 L 449.2304 534.1093689320388 L 445.8116 534.1093689320388 L 445.8116 608.2240689320388 C 445.8116 615.3058689320388 447.6431 620.5561689320389 454.7249 620.5561689320389 C 461.8067 620.5561689320389 463.6382 615.3058689320388 463.6382 608.2240689320388 L 463.6382 534.1093689320388 L 460.2194 534.1093689320388 L 460.2194 599.1886689320388 C 460.2194 602.9737689320389 458.51 605.2936689320388 454.7249 605.2936689320388 Z M 483.2963 584.7808689320389 L 487.5698 534.1093689320388 L 483.9068 534.1093689320388 L 480.9764 568.9078689320388 L 473.89459999999997 568.9078689320388 L 470.9642 534.1093689320388 L 467.3012 534.1093689320388 L 471.5747 584.7808689320389 L 475.7261 584.7808689320389 L 475.7261 619.5793689320388 L 479.1449 619.5793689320388 L 479.1449 584.7808689320389 Z M 509.0594 619.5793689320388 L 509.0594 603.7063689320388 L 494.6516 603.7063689320388 L 494.6516 584.7808689320389 L 507.8384 584.7808689320389 L 507.8384 568.9078689320388 L 494.6516 568.9078689320388 L 494.6516 549.9823689320389 L 509.0594 549.9823689320389 L 509.0594 534.1093689320388 L 491.2328 534.1093689320388 L 491.2328 619.5793689320388 Z M 531.77 619.5793689320388 L 531.77 603.7063689320388 L 517.3622 603.7063689320388 L 531.77 549.9823689320389 L 531.77 534.1093689320388 L 513.9434 534.1093689320388 L 513.9434 549.9823689320389 L 528.4733 549.9823689320389 L 513.9434 603.7063689320388 L 513.9434 619.5793689320388 Z M 577.1912 619.5793689320388 L 577.1912 603.7063689320388 L 562.7834 603.7063689320388 L 562.7834 584.7808689320389 L 575.9702 584.7808689320389 L 575.9702 568.9078689320388 L 562.7834 568.9078689320388 L 562.7834 549.9823689320389 L 577.1912 549.9823689320389 L 577.1912 534.1093689320388 L 559.3646 534.1093689320388 L 559.3646 619.5793689320388 Z M 591.5989999999999 534.1093689320388 L 582.0752 534.1093689320388 L 582.0752 619.5793689320388 L 585.494 619.5793689320388 L 585.494 549.9823689320389 L 588.7907 549.9823689320389 L 590.2559 619.5793689320388 L 599.9018 619.5793689320388 L 599.9018 534.1093689320388 L 596.483 534.1093689320388 L 596.483 603.7063689320388 L 593.4304999999999 603.7063689320388 Z M 621.0251 584.7808689320389 L 621.0251 568.9078689320388 L 608.2046 568.9078689320388 L 608.2046 549.9823689320389 L 622.6124 549.9823689320389 L 622.6124 534.1093689320388 L 604.7858 534.1093689320388 L 604.7858 619.5793689320388 L 608.2046 619.5793689320388 L 608.2046 584.7808689320389 Z M 645.323 549.9823689320389 L 645.323 534.1093689320388 L 627.4964 534.1093689320388 L 627.4964 549.9823689320389 L 634.7003 549.9823689320389 L 634.7003 603.7063689320388 L 627.4964 603.7063689320388 L 627.4964 619.5793689320388 L 645.323 619.5793689320388 L 645.323 603.7063689320388 L 638.1191 603.7063689320388 L 638.1191 549.9823689320389 Z M 659.7307999999999 534.1093689320388 L 650.207 534.1093689320388 L 650.207 619.5793689320388 L 653.6258 619.5793689320388 L 653.6258 549.9823689320389 L 656.9225 549.9823689320389 L 658.3877 619.5793689320388 L 668.0336 619.5793689320388 L 668.0336 534.1093689320388 L 664.6148 534.1093689320388 L 664.6148 603.7063689320388 L 661.5622999999999 603.7063689320388 Z" stroke-opacity="1" stroke-linecap="round" stroke-miterlimit="10"/></g><g><path fill="none" stroke="rgb(0,0,0)" paint-order="fill stroke markers" d=" M 100.26859999999999 772.2043689320388 L 100.26859999999999 721.5328689320388 L 85.8608 721.5328689320388 L 85.8608 702.6073689320389 L 100.26859999999999 702.6073689320389 L 100.26859999999999 686.7343689320388 L 82.44200000000001 686.7343689320388 L 82.44200000000001 737.4058689320389 L 96.8498 737.4058689320389 L 96.8498 756.3313689320388 L 82.44200000000001 756.3313689320388 L 82.44200000000001 772.2043689320388 Z M 114.0659 757.9186689320388 C 110.2808 757.9186689320388 108.5714 755.5987689320389 108.5714 751.8136689320388 L 108.5714 686.7343689320388 L 105.1526 686.7343689320388 L 105.1526 760.8490689320388 C 105.1526 767.9308689320388 106.9841 773.1811689320389 114.0659 773.1811689320389 C 121.1477 773.1811689320389 122.97919999999999 767.9308689320388 122.97919999999999 760.8490689320388 L 122.97919999999999 686.7343689320388 L 119.5604 686.7343689320388 L 119.5604 751.8136689320388 C 119.5604 755.5987689320389 117.851 757.9186689320388 114.0659 757.9186689320388 Z M 131.282 737.4058689320389 L 134.2124 737.4058689320389 L 142.0268 772.2043689320388 L 145.6898 772.2043689320388 L 137.7533 737.4058689320389 C 143.9804 736.9174689320389 145.6898 731.7892689320388 145.6898 725.0737689320389 L 145.6898 699.0664689320388 C 145.6898 691.9846689320389 143.85829999999999 686.7343689320388 136.7765 686.7343689320388 L 127.8632 686.7343689320388 L 127.8632 772.2043689320388 L 131.282 772.2043689320388 Z M 136.7765 721.5328689320388 L 131.282 721.5328689320388 L 131.282 702.6073689320389 L 136.7765 702.6073689320389 C 140.5616 702.6073689320389 142.271 704.9272689320388 142.271 708.7123689320389 L 142.271 715.4278689320388 C 142.271 719.2129689320388 140.5616 721.5328689320388 136.7765 721.5328689320388 Z M 182.1977 757.9186689320388 C 178.4126 757.9186689320388 176.7032 755.5987689320389 176.7032 751.8136689320388 L 176.7032 686.7343689320388 L 173.2844 686.7343689320388 L 173.2844 760.8490689320388 C 173.2844 767.9308689320388 175.1159 773.1811689320389 182.1977 773.1811689320389 C 189.27949999999998 773.1811689320389 191.111 767.9308689320388 191.111 760.8490689320388 L 191.111 686.7343689320388 L 187.69219999999999 686.7343689320388 L 187.69219999999999 751.8136689320388 C 187.69219999999999 755.5987689320389 185.9828 757.9186689320388 182.1977 757.9186689320388 Z M 205.5188 686.7343689320388 L 195.995 686.7343689320388 L 195.995 772.2043689320388 L 199.4138 772.2043689320388 L 199.4138 702.6073689320389 L 202.7105 702.6073689320389 L 204.1757 772.2043689320388 L 213.8216 772.2043689320388 L 213.8216 686.7343689320388 L 210.40279999999998 686.7343689320388 L 210.40279999999998 756.3313689320388 L 207.3503 756.3313689320388 Z M 250.3295 772.2043689320388 C 257.4113 772.2043689320388 259.2428 766.9540689320388 259.2428 759.8722689320389 L 259.2428 735.9406689320389 C 259.2428 731.1787689320388 257.5334 729.1030689320388 255.0914 728.2483689320388 C 257.1671 726.9052689320389 258.5102 724.5853689320388 258.5102 720.4339689320389 L 258.5102 699.0664689320388 C 258.5102 691.9846689320389 256.6787 686.7343689320388 249.5969 686.7343689320388 L 241.4162 686.7343689320388 L 241.4162 772.2043689320388 Z M 255.0914 714.2068689320388 C 255.0914 719.3350689320389 253.2599 721.5328689320388 249.4748 721.5328689320388 L 244.835 721.5328689320388 L 244.835 702.6073689320389 L 249.5969 702.6073689320389 C 253.382 702.6073689320389 255.0914 704.9272689320388 255.0914 708.7123689320389 Z M 244.835 737.4058689320389 L 250.2074 737.4058689320389 C 253.9925 737.4058689320389 255.82399999999998 739.6036689320389 255.82399999999998 744.7318689320389 L 255.82399999999998 750.8368689320389 C 255.82399999999998 754.6219689320388 254.1146 756.9418689320388 250.3295 756.9418689320388 L 244.835 756.9418689320388 Z M 273.0401 685.7575689320388 C 265.9583 685.7575689320388 264.1268 691.0078689320388 264.1268 698.0896689320389 L 264.1268 760.8490689320388 C 264.1268 767.9308689320388 265.9583 773.1811689320389 273.0401 773.1811689320389 C 280.1219 773.1811689320389 281.9534 767.9308689320388 281.9534 760.8490689320388 L 281.9534 698.0896689320389 C 281.9534 691.0078689320388 280.1219 685.7575689320388 273.0401 685.7575689320388 Z M 273.0401 701.0200689320388 C 276.8252 701.0200689320388 278.5346 703.3399689320388 278.5346 707.1250689320389 L 278.5346 751.8136689320388 C 278.5346 755.5987689320389 276.8252 757.9186689320388 273.0401 757.9186689320388 C 269.255 757.9186689320388 267.5456 755.5987689320389 267.5456 751.8136689320388 L 267.5456 707.1250689320389 C 267.5456 703.3399689320388 269.255 701.0200689320388 273.0401 701.0200689320388 Z M 295.7507 757.9186689320388 C 291.9656 757.9186689320388 290.2562 755.5987689320389 290.2562 751.8136689320388 L 290.2562 686.7343689320388 L 286.8374 686.7343689320388 L 286.8374 760.8490689320388 C 286.8374 767.9308689320388 288.6689 773.1811689320389 295.7507 773.1811689320389 C 302.8325 773.1811689320389 304.664 767.9308689320388 304.664 760.8490689320388 L 304.664 686.7343689320388 L 301.2452 686.7343689320388 L 301.2452 751.8136689320388 C 301.2452 755.5987689320389 299.5358 757.9186689320388 295.7507 757.9186689320388 Z M 327.3746 702.6073689320389 L 327.3746 686.7343689320388 L 309.548 686.7343689320388 L 309.548 702.6073689320389 L 316.7519 702.6073689320389 L 316.7519 772.2043689320388 L 320.1707 772.2043689320388 L 320.1707 702.6073689320389 Z M 341.1719 685.7575689320388 C 334.0901 685.7575689320388 332.2586 691.0078689320388 332.2586 698.0896689320389 L 332.2586 760.8490689320388 C 332.2586 767.9308689320388 334.0901 773.1811689320389 341.1719 773.1811689320389 C 348.2537 773.1811689320389 350.0852 767.9308689320388 350.0852 760.8490689320388 L 350.0852 698.0896689320389 C 350.0852 691.0078689320388 348.2537 685.7575689320388 341.1719 685.7575689320388 Z M 341.1719 701.0200689320388 C 344.957 701.0200689320388 346.6664 703.3399689320388 346.6664 707.1250689320389 L 346.6664 751.8136689320388 C 346.6664 755.5987689320389 344.957 757.9186689320388 341.1719 757.9186689320388 C 337.3868 757.9186689320388 335.6774 755.5987689320389 335.6774 751.8136689320388 L 335.6774 707.1250689320389 C 335.6774 703.3399689320388 337.3868 701.0200689320388 341.1719 701.0200689320388 Z M 364.493 686.7343689320388 L 354.9692 686.7343689320388 L 354.9692 772.2043689320388 L 358.388 772.2043689320388 L 358.388 702.6073689320389 L 361.6847 702.6073689320389 L 363.1499 772.2043689320388 L 372.7958 772.2043689320388 L 372.7958 686.7343689320388 L 369.377 686.7343689320388 L 369.377 756.3313689320388 L 366.3245 756.3313689320388 Z M 409.3037 686.7343689320388 L 400.3904 686.7343689320388 L 400.3904 772.2043689320388 L 409.3037 772.2043689320388 C 416.3855 772.2043689320388 418.217 766.9540689320388 418.217 759.8722689320389 L 418.217 699.0664689320388 C 418.217 691.9846689320389 416.3855 686.7343689320388 409.3037 686.7343689320388 Z M 409.3037 756.3313689320388 L 403.8092 756.3313689320388 L 403.8092 702.6073689320389 L 409.3037 702.6073689320389 C 413.0888 702.6073689320389 414.7982 704.9272689320388 414.7982 708.7123689320389 L 414.7982 750.2263689320389 C 414.7982 754.0114689320388 413.0888 756.3313689320388 409.3037 756.3313689320388 Z M 432.0143 685.7575689320388 C 424.9325 685.7575689320388 423.101 691.0078689320388 423.101 698.0896689320389 L 423.101 760.8490689320388 C 423.101 767.9308689320388 424.9325 773.1811689320389 432.0143 773.1811689320389 C 439.0961 773.1811689320389 440.9276 767.9308689320388 440.9276 760.8490689320388 L 440.9276 698.0896689320389 C 440.9276 691.0078689320388 439.0961 685.7575689320388 432.0143 685.7575689320388 Z M 432.0143 701.0200689320388 C 435.7994 701.0200689320388 437.5088 703.3399689320388 437.5088 707.1250689320389 L 437.5088 751.8136689320388 C 437.5088 755.5987689320389 435.7994 757.9186689320388 432.0143 757.9186689320388 C 428.2292 757.9186689320388 426.5198 755.5987689320389 426.5198 751.8136689320388 L 426.5198 707.1250689320389 C 426.5198 703.3399689320388 428.2292 701.0200689320388 432.0143 701.0200689320388 Z M 454.7249 757.9186689320388 C 450.9398 757.9186689320388 449.2304 755.5987689320389 449.2304 751.8136689320388 L 449.2304 686.7343689320388 L 445.8116 686.7343689320388 L 445.8116 760.8490689320388 C 445.8116 767.9308689320388 447.6431 773.1811689320389 454.7249 773.1811689320389 C 461.8067 773.1811689320389 463.6382 767.9308689320388 463.6382 760.8490689320388 L 463.6382 686.7343689320388 L 460.2194 686.7343689320388 L 460.2194 751.8136689320388 C 460.2194 755.5987689320389 458.51 757.9186689320388 454.7249 757.9186689320388 Z M 486.3488 702.6073689320389 L 486.3488 686.7343689320388 L 468.5222 686.7343689320388 L 468.5222 702.6073689320389 L 475.7261 702.6073689320389 L 475.7261 772.2043689320388 L 479.1449 772.2043689320388 L 479.1449 702.6073689320389 Z M 509.0594 772.2043689320388 L 509.0594 756.3313689320388 L 494.6516 756.3313689320388 L 494.6516 737.4058689320389 L 507.8384 737.4058689320389 L 507.8384 721.5328689320388 L 494.6516 721.5328689320388 L 494.6516 702.6073689320389 L 509.0594 702.6073689320389 L 509.0594 686.7343689320388 L 491.2328 686.7343689320388 L 491.2328 772.2043689320388 Z M 522.8567 757.9186689320388 C 519.0716 757.9186689320388 517.3622 755.5987689320389 517.3622 751.8136689320388 L 517.3622 686.7343689320388 L 513.9434 686.7343689320388 L 513.9434 760.8490689320388 C 513.9434 767.9308689320388 515.7749 773.1811689320389 522.8567 773.1811689320389 C 529.9385 773.1811689320389 531.77 767.9308689320388 531.77 760.8490689320388 L 531.77 686.7343689320388 L 528.3512 686.7343689320388 L 528.3512 751.8136689320388 C 528.3512 755.5987689320389 526.6418 757.9186689320388 522.8567 757.9186689320388 Z M 547.8872 737.4058689320389 L 552.0386 772.2043689320388 L 555.7016 772.2043689320388 L 550.5734 729.4693689320388 L 555.7016 686.7343689320388 L 552.0386 686.7343689320388 L 547.8872 721.5328689320388 L 543.2474 721.5328689320388 L 539.096 686.7343689320388 L 535.433 686.7343689320388 L 540.4390999999999 729.4693689320388 L 535.433 772.2043689320388 L 539.096 772.2043689320388 L 543.2474 737.4058689320389 Z M 585.494 737.4058689320389 L 590.9884999999999 737.4058689320389 C 598.0703 737.4058689320389 599.9018 732.1555689320388 599.9018 725.0737689320389 L 599.9018 699.0664689320388 C 599.9018 691.9846689320389 598.0703 686.7343689320388 590.9884999999999 686.7343689320388 L 582.0752 686.7343689320388 L 582.0752 772.2043689320388 L 585.494 772.2043689320388 Z M 590.9884999999999 721.5328689320388 L 585.494 721.5328689320388 L 585.494 702.6073689320389 L 590.9884999999999 702.6073689320389 C 594.7736 702.6073689320389 596.483 704.9272689320388 596.483 708.7123689320389 L 596.483 715.4278689320388 C 596.483 719.2129689320388 594.7736 721.5328689320388 590.9884999999999 721.5328689320388 Z M 613.6991 685.7575689320388 C 606.6173 685.7575689320388 604.7858 691.0078689320388 604.7858 698.0896689320389 L 604.7858 760.8490689320388 C 604.7858 767.9308689320388 606.6173 773.1811689320389 613.6991 773.1811689320389 C 620.7809 773.1811689320389 622.6124 767.9308689320388 622.6124 760.8490689320388 L 622.6124 698.0896689320389 C 622.6124 691.0078689320388 620.7809 685.7575689320388 613.6991 685.7575689320388 Z M 613.6991 701.0200689320388 C 617.4842 701.0200689320388 619.1936 703.3399689320388 619.1936 707.1250689320389 L 619.1936 751.8136689320388 C 619.1936 755.5987689320389 617.4842 757.9186689320388 613.6991 757.9186689320388 C 609.914 757.9186689320388 608.2046 755.5987689320389 608.2046 751.8136689320388 L 608.2046 707.1250689320389 C 608.2046 703.3399689320388 609.914 701.0200689320388 613.6991 701.0200689320388 Z M 636.4096999999999 757.9186689320388 C 632.6246 757.9186689320388 630.9152 755.5987689320389 630.9152 751.8136689320388 L 630.9152 686.7343689320388 L 627.4964 686.7343689320388 L 627.4964 760.8490689320388 C 627.4964 767.9308689320388 629.3279 773.1811689320389 636.4096999999999 773.1811689320389 C 643.4915 773.1811689320389 645.323 767.9308689320388 645.323 760.8490689320388 L 645.323 686.7343689320388 L 641.9042 686.7343689320388 L 641.9042 751.8136689320388 C 641.9042 755.5987689320389 640.1948 757.9186689320388 636.4096999999999 757.9186689320388 Z M 653.6258 737.4058689320389 L 656.5562 737.4058689320389 L 664.3706 772.2043689320388 L 668.0336 772.2043689320388 L 660.0971 737.4058689320389 C 666.3242 736.9174689320389 668.0336 731.7892689320388 668.0336 725.0737689320389 L 668.0336 699.0664689320388 C 668.0336 691.9846689320389 666.2021 686.7343689320388 659.1203 686.7343689320388 L 650.207 686.7343689320388 L 650.207 772.2043689320388 L 653.6258 772.2043689320388 Z M 659.1203 721.5328689320388 L 653.6258 721.5328689320388 L 653.6258 702.6073689320389 L 659.1203 702.6073689320389 C 662.9054 702.6073689320389 664.6148 704.9272689320388 664.6148 708.7123689320389 L 664.6148 715.4278689320388 C 664.6148 719.2129689320388 662.9054 721.5328689320388 659.1203 721.5328689320388 Z" stroke-opacity="1" stroke-linecap="round" stroke-miterlimit="10"/></g><g><path fill="none" stroke="rgb(0,0,0)" paint-order="fill stroke markers" d=" M 91.3553 838.3825689320388 C 84.2735 838.3825689320388 82.44200000000001 843.6328689320388 82.44200000000001 850.7146689320389 L 82.44200000000001 913.4740689320388 C 82.44200000000001 920.5558689320388 84.2735 925.8061689320389 91.3553 925.8061689320389 C 98.4371 925.8061689320389 100.26859999999999 920.5558689320388 100.26859999999999 913.4740689320388 L 100.26859999999999 850.7146689320389 C 100.26859999999999 843.6328689320388 98.4371 838.3825689320388 91.3553 838.3825689320388 Z M 91.3553 853.6450689320388 C 95.1404 853.6450689320388 96.8498 855.9649689320388 96.8498 859.7500689320389 L 96.8498 904.4386689320388 C 96.8498 908.2237689320389 95.1404 910.5436689320388 91.3553 910.5436689320388 C 87.5702 910.5436689320388 85.8608 908.2237689320389 85.8608 904.4386689320388 L 85.8608 859.7500689320389 C 85.8608 855.9649689320388 87.5702 853.6450689320388 91.3553 853.6450689320388 Z M 114.0659 924.8293689320388 C 121.1477 924.8293689320388 122.97919999999999 919.5790689320388 122.97919999999999 912.4972689320389 L 122.97919999999999 888.5656689320389 C 122.97919999999999 883.8037689320388 121.2698 881.7280689320388 118.8278 880.8733689320388 C 120.90350000000001 879.5302689320389 122.2466 877.2103689320388 122.2466 873.0589689320389 L 122.2466 851.6914689320388 C 122.2466 844.6096689320389 120.4151 839.3593689320388 113.3333 839.3593689320388 L 105.1526 839.3593689320388 L 105.1526 924.8293689320388 Z M 118.8278 866.8318689320388 C 118.8278 871.9600689320389 116.9963 874.1578689320388 113.2112 874.1578689320388 L 108.5714 874.1578689320388 L 108.5714 855.2323689320389 L 113.3333 855.2323689320389 C 117.1184 855.2323689320389 118.8278 857.5522689320388 118.8278 861.3373689320389 Z M 108.5714 890.0308689320389 L 113.9438 890.0308689320389 C 117.7289 890.0308689320389 119.5604 892.2286689320389 119.5604 897.3568689320389 L 119.5604 903.4618689320389 C 119.5604 907.2469689320388 117.851 909.5668689320388 114.0659 909.5668689320388 L 108.5714 909.5668689320388 Z M 145.6898 855.2323689320389 L 145.6898 839.3593689320388 L 127.8632 839.3593689320388 L 127.8632 855.2323689320389 L 135.0671 855.2323689320389 L 135.0671 924.8293689320388 L 138.4859 924.8293689320388 L 138.4859 855.2323689320389 Z M 168.4004 924.8293689320388 L 168.4004 908.9563689320388 L 153.9926 908.9563689320388 L 153.9926 890.0308689320389 L 167.1794 890.0308689320389 L 167.1794 874.1578689320388 L 153.9926 874.1578689320388 L 153.9926 855.2323689320389 L 168.4004 855.2323689320389 L 168.4004 839.3593689320388 L 150.5738 839.3593689320388 L 150.5738 924.8293689320388 Z M 182.8082 839.3593689320388 L 173.2844 839.3593689320388 L 173.2844 924.8293689320388 L 176.7032 924.8293689320388 L 176.7032 855.2323689320389 L 179.9999 855.2323689320389 L 181.4651 924.8293689320388 L 191.111 924.8293689320388 L 191.111 839.3593689320388 L 187.69219999999999 839.3593689320388 L 187.69219999999999 908.9563689320388 L 184.6397 908.9563689320388 Z M 213.8216 855.2323689320389 L 213.8216 839.3593689320388 L 195.995 839.3593689320388 L 195.995 855.2323689320389 L 203.1989 855.2323689320389 L 203.1989 908.9563689320388 L 195.995 908.9563689320388 L 195.995 924.8293689320388 L 213.8216 924.8293689320388 L 213.8216 908.9563689320388 L 206.61769999999999 908.9563689320388 L 206.61769999999999 855.2323689320389 Z M 222.1244 890.0308689320389 L 225.0548 890.0308689320389 L 232.8692 924.8293689320388 L 236.5322 924.8293689320388 L 228.5957 890.0308689320389 C 234.8228 889.5424689320389 236.5322 884.4142689320388 236.5322 877.6987689320389 L 236.5322 851.6914689320388 C 236.5322 844.6096689320389 234.70069999999998 839.3593689320388 227.6189 839.3593689320388 L 218.7056 839.3593689320388 L 218.7056 924.8293689320388 L 222.1244 924.8293689320388 Z M 227.6189 874.1578689320388 L 222.1244 874.1578689320388 L 222.1244 855.2323689320389 L 227.6189 855.2323689320389 C 231.404 855.2323689320389 233.11339999999998 857.5522689320388 233.11339999999998 861.3373689320389 L 233.11339999999998 868.0528689320388 C 233.11339999999998 871.8379689320388 231.404 874.1578689320388 227.6189 874.1578689320388 Z M 273.0401 910.5436689320388 C 269.255 910.5436689320388 267.5456 908.2237689320389 267.5456 904.4386689320388 L 267.5456 839.3593689320388 L 264.1268 839.3593689320388 L 264.1268 913.4740689320388 C 264.1268 920.5558689320388 265.9583 925.8061689320389 273.0401 925.8061689320389 C 280.1219 925.8061689320389 281.9534 920.5558689320388 281.9534 913.4740689320388 L 281.9534 839.3593689320388 L 278.5346 839.3593689320388 L 278.5346 904.4386689320388 C 278.5346 908.2237689320389 276.8252 910.5436689320388 273.0401 910.5436689320388 Z M 296.3612 839.3593689320388 L 286.8374 839.3593689320388 L 286.8374 924.8293689320388 L 290.2562 924.8293689320388 L 290.2562 855.2323689320389 L 293.5529 855.2323689320389 L 295.0181 924.8293689320388 L 304.664 924.8293689320388 L 304.664 839.3593689320388 L 301.2452 839.3593689320388 L 301.2452 908.9563689320388 L 298.1927 908.9563689320388 Z M 332.2586 839.3593689320388 L 332.2586 855.2323689320389 L 346.6664 855.2323689320389 L 346.6664 904.4386689320388 C 346.6664 908.2237689320389 344.957 910.5436689320388 341.1719 910.5436689320388 C 337.3868 910.5436689320388 335.6774 908.2237689320389 335.6774 904.4386689320388 L 335.6774 874.1578689320388 L 332.2586 874.1578689320388 L 332.2586 913.4740689320388 C 332.2586 920.5558689320388 334.0901 925.8061689320389 341.1719 925.8061689320389 C 348.2537 925.8061689320389 350.0852 920.5558689320388 350.0852 913.4740689320388 L 350.0852 839.3593689320388 Z M 363.8825 838.3825689320388 C 356.8007 838.3825689320388 354.9692 843.6328689320388 354.9692 850.7146689320389 L 354.9692 913.4740689320388 C 354.9692 920.5558689320388 356.8007 925.8061689320389 363.8825 925.8061689320389 C 370.9643 925.8061689320389 372.7958 920.5558689320388 372.7958 913.4740689320388 L 372.7958 850.7146689320389 C 372.7958 843.6328689320388 370.9643 838.3825689320388 363.8825 838.3825689320388 Z M 363.8825 853.6450689320388 C 367.6676 853.6450689320388 369.377 855.9649689320388 369.377 859.7500689320389 L 369.377 904.4386689320388 C 369.377 908.2237689320389 367.6676 910.5436689320388 363.8825 910.5436689320388 C 360.0974 910.5436689320388 358.388 908.2237689320389 358.388 904.4386689320388 L 358.388 859.7500689320389 C 358.388 855.9649689320388 360.0974 853.6450689320388 363.8825 853.6450689320388 Z M 377.6798 924.8293689320388 L 395.5064 924.8293689320388 L 395.5064 908.9563689320388 L 381.0986 908.9563689320388 L 381.0986 839.3593689320388 L 377.6798 839.3593689320388 Z M 418.217 855.2323689320389 L 418.217 839.3593689320388 L 400.3904 839.3593689320388 L 400.3904 855.2323689320389 L 407.5943 855.2323689320389 L 407.5943 908.9563689320388 L 400.3904 908.9563689320388 L 400.3904 924.8293689320388 L 418.217 924.8293689320388 L 418.217 908.9563689320388 L 411.0131 908.9563689320388 L 411.0131 855.2323689320389 Z M 463.6382 855.2323689320389 L 463.6382 839.3593689320388 L 445.8116 839.3593689320388 L 445.8116 855.2323689320389 L 453.0155 855.2323689320389 L 453.0155 924.8293689320388 L 456.4343 924.8293689320388 L 456.4343 855.2323689320389 Z M 483.4184 924.8293689320388 L 486.8372 924.8293689320388 L 482.3195 839.3593689320388 L 472.67359999999996 839.3593689320388 L 468.0338 924.8293689320388 L 471.4526 924.8293689320388 L 472.4294 905.9038689320389 L 482.4416 905.9038689320389 Z M 475.2377 855.2323689320389 L 479.63329999999996 855.2323689320389 L 481.5869 890.0308689320389 L 473.4062 890.0308689320389 Z M 491.2328 839.3593689320388 L 491.2328 924.8293689320388 L 494.6516 924.8293689320388 L 494.6516 855.2323689320389 L 496.2389 855.2323689320389 L 497.0936 890.0308689320389 L 503.1986 890.0308689320389 L 504.0533 855.2323689320389 L 505.6406 855.2323689320389 L 505.6406 924.8293689320388 L 509.0594 924.8293689320388 L 509.0594 839.3593689320388 L 501.8555 839.3593689320388 L 501.1229 874.1578689320388 L 499.16929999999996 874.1578689320388 L 498.4367 839.3593689320388 Z M 517.3622 890.0308689320389 L 522.8567 890.0308689320389 C 529.9385 890.0308689320389 531.77 884.7805689320388 531.77 877.6987689320389 L 531.77 851.6914689320388 C 531.77 844.6096689320389 529.9385 839.3593689320388 522.8567 839.3593689320388 L 513.9434 839.3593689320388 L 513.9434 924.8293689320388 L 517.3622 924.8293689320388 Z M 522.8567 874.1578689320388 L 517.3622 874.1578689320388 L 517.3622 855.2323689320389 L 522.8567 855.2323689320389 C 526.6418 855.2323689320389 528.3512 857.5522689320388 528.3512 861.3373689320389 L 528.3512 868.0528689320388 C 528.3512 871.8379689320388 526.6418 874.1578689320388 522.8567 874.1578689320388 Z M 545.5672999999999 838.3825689320388 C 538.4855 838.3825689320388 536.654 843.6328689320388 536.654 850.7146689320389 L 536.654 913.4740689320388 C 536.654 920.5558689320388 538.4855 925.8061689320389 545.5672999999999 925.8061689320389 C 552.6491 925.8061689320389 554.4806 920.5558689320388 554.4806 913.4740689320388 L 554.4806 850.7146689320389 C 554.4806 843.6328689320388 552.6491 838.3825689320388 545.5672999999999 838.3825689320388 Z M 545.5672999999999 853.6450689320388 C 549.3524 853.6450689320388 551.0618 855.9649689320388 551.0618 859.7500689320389 L 551.0618 904.4386689320388 C 551.0618 908.2237689320389 549.3524 910.5436689320388 545.5672999999999 910.5436689320388 C 541.7822 910.5436689320388 540.0728 908.2237689320389 540.0728 904.4386689320388 L 540.0728 859.7500689320389 C 540.0728 855.9649689320388 541.7822 853.6450689320388 545.5672999999999 853.6450689320388 Z M 568.8883999999999 839.3593689320388 L 559.3646 839.3593689320388 L 559.3646 924.8293689320388 L 562.7834 924.8293689320388 L 562.7834 855.2323689320389 L 566.0801 855.2323689320389 L 567.5453 924.8293689320388 L 577.1912 924.8293689320388 L 577.1912 839.3593689320388 L 573.7724 839.3593689320388 L 573.7724 908.9563689320388 L 570.7198999999999 908.9563689320388 Z M 613.6991 839.3593689320388 L 604.7858 839.3593689320388 L 604.7858 924.8293689320388 L 613.6991 924.8293689320388 C 620.7809 924.8293689320388 622.6124 919.5790689320388 622.6124 912.4972689320389 L 622.6124 851.6914689320388 C 622.6124 844.6096689320389 620.7809 839.3593689320388 613.6991 839.3593689320388 Z M 613.6991 908.9563689320388 L 608.2046 908.9563689320388 L 608.2046 855.2323689320389 L 613.6991 855.2323689320389 C 617.4842 855.2323689320389 619.1936 857.5522689320388 619.1936 861.3373689320389 L 619.1936 902.8513689320389 C 619.1936 906.6364689320388 617.4842 908.9563689320388 613.6991 908.9563689320388 Z M 645.323 924.8293689320388 L 645.323 908.9563689320388 L 630.9152 908.9563689320388 L 630.9152 890.0308689320389 L 644.102 890.0308689320389 L 644.102 874.1578689320388 L 630.9152 874.1578689320388 L 630.9152 855.2323689320389 L 645.323 855.2323689320389 L 645.323 839.3593689320388 L 627.4964 839.3593689320388 L 627.4964 924.8293689320388 Z" stroke-opacity="1" stroke-linecap="round" stroke-miterlimit="10"/></g><g><path fill="none" stroke="rgb(0,0,0)" paint-order="fill stroke markers" d=" M 86.5934 1077.4543689320387 L 96.2393 1077.4543689320387 L 100.757 991.9843689320387 L 97.3382 991.9843689320387 L 93.5531 1061.5813689320387 L 89.1575 1061.5813689320387 L 85.3724 991.9843689320387 L 81.9536 991.9843689320387 Z M 120.0488 1077.4543689320387 L 123.4676 1077.4543689320387 L 118.9499 991.9843689320387 L 109.304 991.9843689320387 L 104.6642 1077.4543689320387 L 108.083 1077.4543689320387 L 109.0598 1058.5288689320387 L 119.072 1058.5288689320387 Z M 111.8681 1007.8573689320388 L 116.2637 1007.8573689320388 L 118.2173 1042.6558689320386 L 110.03659999999999 1042.6558689320386 Z M 127.8632 1077.4543689320387 L 145.6898 1077.4543689320387 L 145.6898 1061.5813689320387 L 131.282 1061.5813689320387 L 131.282 991.9843689320387 L 127.8632 991.9843689320387 Z M 168.4004 1007.8573689320388 L 168.4004 991.9843689320387 L 150.5738 991.9843689320387 L 150.5738 1007.8573689320388 L 157.7777 1007.8573689320388 L 157.7777 1061.5813689320387 L 150.5738 1061.5813689320387 L 150.5738 1077.4543689320387 L 168.4004 1077.4543689320387 L 168.4004 1061.5813689320387 L 161.1965 1061.5813689320387 L 161.1965 1007.8573689320388 Z M 182.1977 991.9843689320387 L 173.2844 991.9843689320387 L 173.2844 1077.4543689320387 L 182.1977 1077.4543689320387 C 189.27949999999998 1077.4543689320387 191.111 1072.2040689320388 191.111 1065.1222689320387 L 191.111 1004.3164689320388 C 191.111 997.2346689320387 189.27949999999998 991.9843689320387 182.1977 991.9843689320387 Z M 182.1977 1061.5813689320387 L 176.7032 1061.5813689320387 L 176.7032 1007.8573689320388 L 182.1977 1007.8573689320388 C 185.9828 1007.8573689320388 187.69219999999999 1010.1772689320387 187.69219999999999 1013.9623689320388 L 187.69219999999999 1055.4763689320387 C 187.69219999999999 1059.2614689320387 185.9828 1061.5813689320387 182.1977 1061.5813689320387 Z M 210.8912 1077.4543689320387 L 214.31 1077.4543689320387 L 209.7923 991.9843689320387 L 200.1464 991.9843689320387 L 195.5066 1077.4543689320387 L 198.9254 1077.4543689320387 L 199.9022 1058.5288689320387 L 209.9144 1058.5288689320387 Z M 202.7105 1007.8573689320388 L 207.1061 1007.8573689320388 L 209.0597 1042.6558689320386 L 200.879 1042.6558689320386 Z M 236.5322 1007.8573689320388 L 236.5322 991.9843689320387 L 218.7056 991.9843689320387 L 218.7056 1007.8573689320388 L 225.9095 1007.8573689320388 L 225.9095 1077.4543689320387 L 229.32829999999998 1077.4543689320387 L 229.32829999999998 1007.8573689320388 Z M 259.2428 1007.8573689320388 L 259.2428 991.9843689320387 L 241.4162 991.9843689320387 L 241.4162 1007.8573689320388 L 248.6201 1007.8573689320388 L 248.6201 1061.5813689320387 L 241.4162 1061.5813689320387 L 241.4162 1077.4543689320387 L 259.2428 1077.4543689320387 L 259.2428 1061.5813689320387 L 252.03889999999998 1061.5813689320387 L 252.03889999999998 1007.8573689320388 Z M 273.0401 991.0075689320388 C 265.9583 991.0075689320388 264.1268 996.2578689320387 264.1268 1003.3396689320388 L 264.1268 1066.0990689320388 C 264.1268 1073.1808689320387 265.9583 1078.4311689320386 273.0401 1078.4311689320386 C 280.1219 1078.4311689320386 281.9534 1073.1808689320387 281.9534 1066.0990689320388 L 281.9534 1003.3396689320388 C 281.9534 996.2578689320387 280.1219 991.0075689320388 273.0401 991.0075689320388 Z M 273.0401 1006.2700689320387 C 276.8252 1006.2700689320387 278.5346 1008.5899689320387 278.5346 1012.3750689320387 L 278.5346 1057.0636689320388 C 278.5346 1060.8487689320386 276.8252 1063.1686689320388 273.0401 1063.1686689320388 C 269.255 1063.1686689320388 267.5456 1060.8487689320386 267.5456 1057.0636689320388 L 267.5456 1012.3750689320387 C 267.5456 1008.5899689320387 269.255 1006.2700689320387 273.0401 1006.2700689320387 Z M 296.3612 991.9843689320387 L 286.8374 991.9843689320387 L 286.8374 1077.4543689320387 L 290.2562 1077.4543689320387 L 290.2562 1007.8573689320388 L 293.5529 1007.8573689320388 L 295.0181 1077.4543689320387 L 304.664 1077.4543689320387 L 304.664 991.9843689320387 L 301.2452 991.9843689320387 L 301.2452 1061.5813689320387 L 298.1927 1061.5813689320387 Z M 318.4613 1060.6045689320388 C 312.7226 1060.6045689320388 309.548 1063.7791689320388 309.548 1069.5178689320387 C 309.548 1075.2565689320388 312.7226 1078.4311689320386 318.4613 1078.4311689320386 C 324.2 1078.4311689320386 327.3746 1075.2565689320388 327.3746 1069.5178689320387 C 327.3746 1063.7791689320388 324.2 1060.6045689320388 318.4613 1060.6045689320388 Z" stroke-opacity="1" stroke-linecap="round" stroke-miterlimit="10"/></g></g><g><g transform="scale(1,1)"><rect fill="rgb(255,255,255)" stroke="none" x="0" y="0" width="800" height="1149.5145631067962" fill-opacity="1"/></g><g><path fill="none" stroke="rgb(0,0,0)" paint-order="fill stroke markers" d=" M 85.8608 432.15586893203886 L 91.3553 432.15586893203886 C 98.4371 432.15586893203886 100.26859999999999 426.9055689320388 100.26859999999999 419.82376893203883 L 100.26859999999999 393.81646893203884 C 100.26859999999999 386.73466893203886 98.4371 381.4843689320388 91.3553 381.4843689320388 L 82.44200000000001 381.4843689320388 L 82.44200000000001 466.95436893203885 L 85.8608 466.95436893203885 Z M 91.3553 416.28286893203887 L 85.8608 416.28286893203887 L 85.8608 397.35736893203887 L 91.3553 397.35736893203887 C 95.1404 397.35736893203887 96.8498 399.6772689320388 96.8498 403.4623689320388 L 96.8498 410.17786893203885 C 96.8498 413.96296893203885 95.1404 416.28286893203887 91.3553 416.28286893203887 Z M 114.0659 380.50756893203885 C 106.9841 380.50756893203885 105.1526 385.75786893203883 105.1526 392.8396689320389 L 105.1526 455.59906893203885 C 105.1526 462.68086893203883 106.9841 467.9311689320389 114.0659 467.9311689320389 C 121.1477 467.9311689320389 122.97919999999999 462.68086893203883 122.97919999999999 455.59906893203885 L 122.97919999999999 392.8396689320389 C 122.97919999999999 385.75786893203883 121.1477 380.50756893203885 114.0659 380.50756893203885 Z M 114.0659 395.77006893203884 C 117.851 395.77006893203884 119.5604 398.08996893203886 119.5604 401.87506893203886 L 119.5604 446.56366893203887 C 119.5604 450.34876893203887 117.851 452.6686689320388 114.0659 452.6686689320388 C 110.2808 452.6686689320388 108.5714 450.34876893203887 108.5714 446.56366893203887 L 108.5714 401.87506893203886 C 108.5714 398.08996893203886 110.2808 395.77006893203884 114.0659 395.77006893203884 Z M 136.7765 452.6686689320388 C 132.9914 452.6686689320388 131.282 450.34876893203887 131.282 446.56366893203887 L 131.282 381.4843689320388 L 127.8632 381.4843689320388 L 127.8632 455.59906893203885 C 127.8632 462.68086893203883 129.6947 467.9311689320389 136.7765 467.9311689320389 C 143.85829999999999 467.9311689320389 145.6898 462.68086893203883 145.6898 455.59906893203885 L 145.6898 381.4843689320388 L 142.271 381.4843689320388 L 142.271 446.56366893203887 C 142.271 450.34876893203887 140.5616 452.6686689320388 136.7765 452.6686689320388 Z M 153.9926 432.15586893203886 L 156.923 432.15586893203886 L 164.7374 466.95436893203885 L 168.4004 466.95436893203885 L 160.4639 432.15586893203886 C 166.691 431.66746893203884 168.4004 426.53926893203885 168.4004 419.82376893203883 L 168.4004 393.81646893203884 C 168.4004 386.73466893203886 166.56889999999999 381.4843689320388 159.4871 381.4843689320388 L 150.5738 381.4843689320388 L 150.5738 466.95436893203885 L 153.9926 466.95436893203885 Z M 159.4871 416.28286893203887 L 153.9926 416.28286893203887 L 153.9926 397.35736893203887 L 159.4871 397.35736893203887 C 163.2722 397.35736893203887 164.9816 399.6772689320388 164.9816 403.4623689320388 L 164.9816 410.17786893203885 C 164.9816 413.96296893203885 163.2722 416.28286893203887 159.4871 416.28286893203887 Z M 204.9083 452.6686689320388 C 201.1232 452.6686689320388 199.4138 450.34876893203887 199.4138 446.56366893203887 L 199.4138 381.4843689320388 L 195.995 381.4843689320388 L 195.995 455.59906893203885 C 195.995 462.68086893203883 197.8265 467.9311689320389 204.9083 467.9311689320389 C 211.99009999999998 467.9311689320389 213.8216 462.68086893203883 213.8216 455.59906893203885 L 213.8216 381.4843689320388 L 210.40279999999998 381.4843689320388 L 210.40279999999998 446.56366893203887 C 210.40279999999998 450.34876893203887 208.6934 452.6686689320388 204.9083 452.6686689320388 Z M 228.2294 381.4843689320388 L 218.7056 381.4843689320388 L 218.7056 466.95436893203885 L 222.1244 466.95436893203885 L 222.1244 397.35736893203887 L 225.4211 397.35736893203887 L 226.8863 466.95436893203885 L 236.5322 466.95436893203885 L 236.5322 381.4843689320388 L 233.11339999999998 381.4843689320388 L 233.11339999999998 451.08136893203886 L 230.0609 451.08136893203886 Z M 273.0401 381.4843689320388 L 264.1268 381.4843689320388 L 264.1268 466.95436893203885 L 273.0401 466.95436893203885 C 280.1219 466.95436893203885 281.9534 461.70406893203887 281.9534 454.6222689320388 L 281.9534 393.81646893203884 C 281.9534 386.73466893203886 280.1219 381.4843689320388 273.0401 381.4843689320388 Z M 273.0401 451.08136893203886 L 267.5456 451.08136893203886 L 267.5456 397.35736893203887 L 273.0401 397.35736893203887 C 276.8252 397.35736893203887 278.5346 399.6772689320388 278.5346 403.4623689320388 L 278.5346 444.97636893203884 C 278.5346 448.76146893203884 276.8252 451.08136893203886 273.0401 451.08136893203886 Z M 304.664 397.35736893203887 L 304.664 381.4843689320388 L 286.8374 381.4843689320388 L 286.8374 397.35736893203887 L 294.0413 397.35736893203887 L 294.0413 451.08136893203886 L 286.8374 451.08136893203886 L 286.8374 466.95436893203885 L 304.664 466.95436893203885 L 304.664 451.08136893203886 L 297.4601 451.08136893203886 L 297.4601 397.35736893203887 Z M 327.3746 466.95436893203885 L 327.3746 451.08136893203886 L 312.9668 451.08136893203886 L 312.9668 432.15586893203886 L 326.1536 432.15586893203886 L 326.1536 416.28286893203887 L 312.9668 416.28286893203887 L 312.9668 397.35736893203887 L 327.3746 397.35736893203887 L 327.3746 381.4843689320388 L 309.548 381.4843689320388 L 309.548 466.95436893203885 Z M 341.1719 452.6686689320388 C 337.3868 452.6686689320388 335.6774 450.34876893203887 335.6774 446.56366893203887 L 335.6774 381.4843689320388 L 332.2586 381.4843689320388 L 332.2586 455.59906893203885 C 332.2586 462.68086893203883 334.0901 467.9311689320389 341.1719 467.9311689320389 C 348.2537 467.9311689320389 350.0852 462.68086893203883 350.0852 455.59906893203885 L 350.0852 381.4843689320388 L 346.6664 381.4843689320388 L 346.6664 446.56366893203887 C 346.6664 450.34876893203887 344.957 452.6686689320388 341.1719 452.6686689320388 Z M 394.40749999999997 466.95436893203885 L 397.9484 466.95436893203885 L 395.1401 460.2388689320388 C 395.3843 458.89576893203883 395.5064 457.30846893203886 395.5064 455.59906893203885 L 395.5064 392.8396689320389 C 395.5064 385.75786893203883 393.6749 380.50756893203885 386.5931 380.50756893203885 C 379.5113 380.50756893203885 377.6798 385.75786893203883 377.6798 392.8396689320389 L 377.6798 455.59906893203885 C 377.6798 462.68086893203883 379.5113 467.9311689320389 386.5931 467.9311689320389 C 389.8898 467.9311689320389 392.0876 466.71016893203887 393.4307 464.7565689320389 Z M 381.0986 401.87506893203886 C 381.0986 398.08996893203886 382.808 395.77006893203884 386.5931 395.77006893203884 C 390.3782 395.77006893203884 392.0876 398.08996893203886 392.0876 401.87506893203886 L 392.0876 446.56366893203887 C 392.0876 448.2730689320388 391.7213 449.6161689320388 391.1108 450.59296893203884 L 381.0986 426.78346893203883 Z M 381.0986 446.56366893203887 L 381.0986 435.20836893203887 L 388.3025 452.42446893203885 C 387.8141 452.54656893203884 387.2036 452.6686689320388 386.5931 452.6686689320388 C 382.808 452.6686689320388 381.0986 450.34876893203887 381.0986 446.56366893203887 Z M 409.3037 452.6686689320388 C 405.5186 452.6686689320388 403.8092 450.34876893203887 403.8092 446.56366893203887 L 403.8092 381.4843689320388 L 400.3904 381.4843689320388 L 400.3904 455.59906893203885 C 400.3904 462.68086893203883 402.2219 467.9311689320389 409.3037 467.9311689320389 C 416.3855 467.9311689320389 418.217 462.68086893203883 418.217 455.59906893203885 L 418.217 381.4843689320388 L 414.7982 381.4843689320388 L 414.7982 446.56366893203887 C 414.7982 450.34876893203887 413.0888 452.6686689320388 409.3037 452.6686689320388 Z M 440.9276 466.95436893203885 L 440.9276 451.08136893203886 L 426.5198 451.08136893203886 L 426.5198 432.15586893203886 L 439.7066 432.15586893203886 L 439.7066 416.28286893203887 L 426.5198 416.28286893203887 L 426.5198 397.35736893203887 L 440.9276 397.35736893203887 L 440.9276 381.4843689320388 L 423.101 381.4843689320388 L 423.101 466.95436893203885 Z M 445.8116 466.95436893203885 L 463.6382 466.95436893203885 L 463.6382 451.08136893203886 L 449.2304 451.08136893203886 L 449.2304 381.4843689320388 L 445.8116 381.4843689320388 Z" stroke-opacity="1" stroke-linecap="round" stroke-miterlimit="10"/></g><g><path fill="none" stroke="rgb(0,0,0)" paint-order="fill stroke markers" d=" M 97.3382 619.5793689320388 L 100.757 619.5793689320388 L 96.2393 534.1093689320388 L 86.5934 534.1093689320388 L 81.9536 619.5793689320388 L 85.3724 619.5793689320388 L 86.3492 600.6538689320389 L 96.3614 600.6538689320389 Z M 89.1575 549.9823689320389 L 93.5531 549.9823689320389 L 95.5067 584.7808689320389 L 87.326 584.7808689320389 Z M 114.0659 619.5793689320388 C 121.1477 619.5793689320388 122.97919999999999 614.3290689320388 122.97919999999999 607.2472689320389 L 122.97919999999999 583.3156689320389 C 122.97919999999999 578.5537689320388 121.2698 576.4780689320388 118.8278 575.6233689320388 C 120.90350000000001 574.2802689320389 122.2466 571.9603689320388 122.2466 567.8089689320389 L 122.2466 546.4414689320388 C 122.2466 539.3596689320389 120.4151 534.1093689320388 113.3333 534.1093689320388 L 105.1526 534.1093689320388 L 105.1526 619.5793689320388 Z M 118.8278 561.5818689320388 C 118.8278 566.7100689320389 116.9963 568.9078689320388 113.2112 568.9078689320388 L 108.5714 568.9078689320388 L 108.5714 549.9823689320389 L 113.3333 549.9823689320389 C 117.1184 549.9823689320389 118.8278 552.3022689320388 118.8278 556.0873689320389 Z M 108.5714 584.7808689320389 L 113.9438 584.7808689320389 C 117.7289 584.7808689320389 119.5604 586.9786689320389 119.5604 592.1068689320389 L 119.5604 598.2118689320389 C 119.5604 601.9969689320388 117.851 604.3168689320388 114.0659 604.3168689320388 L 108.5714 604.3168689320388 Z M 142.7594 619.5793689320388 L 146.1782 619.5793689320388 L 141.6605 534.1093689320388 L 132.0146 534.1093689320388 L 127.3748 619.5793689320388 L 130.7936 619.5793689320388 L 131.7704 600.6538689320389 L 141.7826 600.6538689320389 Z M 134.5787 549.9823689320389 L 138.9743 549.9823689320389 L 140.9279 584.7808689320389 L 132.7472 584.7808689320389 Z M 168.4004 549.9823689320389 L 168.4004 534.1093689320388 L 150.5738 534.1093689320388 L 150.5738 549.9823689320389 L 157.7777 549.9823689320389 L 157.7777 603.7063689320388 L 150.5738 603.7063689320388 L 150.5738 619.5793689320388 L 168.4004 619.5793689320388 L 168.4004 603.7063689320388 L 161.1965 603.7063689320388 L 161.1965 549.9823689320389 Z M 191.111 619.5793689320388 L 191.111 568.9078689320388 L 176.7032 568.9078689320388 L 176.7032 549.9823689320389 L 191.111 549.9823689320389 L 191.111 534.1093689320388 L 173.2844 534.1093689320388 L 173.2844 584.7808689320389 L 187.69219999999999 584.7808689320389 L 187.69219999999999 603.7063689320388 L 173.2844 603.7063689320388 L 173.2844 619.5793689320388 Z M 213.8216 619.5793689320388 L 213.8216 568.9078689320388 L 199.4138 568.9078689320388 L 199.4138 549.9823689320389 L 213.8216 549.9823689320389 L 213.8216 534.1093689320388 L 195.995 534.1093689320388 L 195.995 584.7808689320389 L 210.40279999999998 584.7808689320389 L 210.40279999999998 603.7063689320388 L 195.995 603.7063689320388 L 195.995 619.5793689320388 Z M 236.5322 619.5793689320388 L 236.5322 603.7063689320388 L 222.1244 603.7063689320388 L 222.1244 584.7808689320389 L 235.31119999999999 584.7808689320389 L 235.31119999999999 568.9078689320388 L 222.1244 568.9078689320388 L 222.1244 549.9823689320389 L 236.5322 549.9823689320389 L 236.5322 534.1093689320388 L 218.7056 534.1093689320388 L 218.7056 619.5793689320388 Z M 241.4162 534.1093689320388 L 241.4162 619.5793689320388 L 244.835 619.5793689320388 L 244.835 549.9823689320389 L 246.4223 549.9823689320389 L 247.277 584.7808689320389 L 253.382 584.7808689320389 L 254.23669999999998 549.9823689320389 L 255.82399999999998 549.9823689320389 L 255.82399999999998 619.5793689320388 L 259.2428 619.5793689320388 L 259.2428 534.1093689320388 L 252.03889999999998 534.1093689320388 L 251.3063 568.9078689320388 L 249.3527 568.9078689320388 L 248.6201 534.1093689320388 Z M 281.9534 619.5793689320388 L 281.9534 603.7063689320388 L 267.5456 603.7063689320388 L 267.5456 584.7808689320389 L 280.7324 584.7808689320389 L 280.7324 568.9078689320388 L 267.5456 568.9078689320388 L 267.5456 549.9823689320389 L 281.9534 549.9823689320389 L 281.9534 534.1093689320388 L 264.1268 534.1093689320388 L 264.1268 619.5793689320388 Z M 296.3612 534.1093689320388 L 286.8374 534.1093689320388 L 286.8374 619.5793689320388 L 290.2562 619.5793689320388 L 290.2562 549.9823689320389 L 293.5529 549.9823689320389 L 295.0181 619.5793689320388 L 304.664 619.5793689320388 L 304.664 534.1093689320388 L 301.2452 534.1093689320388 L 301.2452 603.7063689320388 L 298.1927 603.7063689320388 Z M 327.3746 549.9823689320389 L 327.3746 534.1093689320388 L 309.548 534.1093689320388 L 309.548 549.9823689320389 L 316.7519 549.9823689320389 L 316.7519 619.5793689320388 L 320.1707 619.5793689320388 L 320.1707 549.9823689320389 Z M 342.7592 594.7930689320389 L 347.0327 557.7967689320388 L 347.0327 534.1093689320388 L 335.3111 534.1093689320388 L 335.3111 557.7967689320388 L 339.5846 594.7930689320389 Z M 341.1719 602.7295689320389 C 335.4332 602.7295689320389 332.2586 605.9041689320388 332.2586 611.6428689320388 C 332.2586 617.3815689320388 335.4332 620.5561689320389 341.1719 620.5561689320389 C 346.9106 620.5561689320389 350.0852 617.3815689320388 350.0852 611.6428689320388 C 350.0852 605.9041689320388 346.9106 602.7295689320389 341.1719 602.7295689320389 Z M 392.576 619.5793689320388 L 395.9948 619.5793689320388 L 391.4771 534.1093689320388 L 381.83119999999997 534.1093689320388 L 377.1914 619.5793689320388 L 380.6102 619.5793689320388 L 381.587 600.6538689320389 L 391.5992 600.6538689320389 Z M 384.3953 549.9823689320389 L 388.79089999999997 549.9823689320389 L 390.7445 584.7808689320389 L 382.5638 584.7808689320389 Z M 403.8092 584.7808689320389 L 409.3037 584.7808689320389 C 416.3855 584.7808689320389 418.217 579.5305689320388 418.217 572.4487689320389 L 418.217 546.4414689320388 C 418.217 539.3596689320389 416.3855 534.1093689320388 409.3037 534.1093689320388 L 400.3904 534.1093689320388 L 400.3904 619.5793689320388 L 403.8092 619.5793689320388 Z M 409.3037 568.9078689320388 L 403.8092 568.9078689320388 L 403.8092 549.9823689320389 L 409.3037 549.9823689320389 C 413.0888 549.9823689320389 414.7982 552.3022689320388 414.7982 556.0873689320389 L 414.7982 562.8028689320388 C 414.7982 566.5879689320388 413.0888 568.9078689320388 409.3037 568.9078689320388 Z M 426.5198 584.7808689320389 L 432.0143 584.7808689320389 C 439.0961 584.7808689320389 440.9276 579.5305689320388 440.9276 572.4487689320389 L 440.9276 546.4414689320388 C 440.9276 539.3596689320389 439.0961 534.1093689320388 432.0143 534.1093689320388 L 423.101 534.1093689320388 L 423.101 619.5793689320388 L 426.5198 619.5793689320388 Z M 432.0143 568.9078689320388 L 426.5198 568.9078689320388 L 426.5198 549.9823689320389 L 432.0143 549.9823689320389 C 435.7994 549.9823689320389 437.5088 552.3022689320388 437.5088 556.0873689320389 L 437.5088 562.8028689320388 C 437.5088 566.5879689320388 435.7994 568.9078689320388 432.0143 568.9078689320388 Z M 454.7249 605.2936689320388 C 450.9398 605.2936689320388 449.2304 602.9737689320389 449.2304 599.1886689320388 L 449.2304 534.1093689320388 L 445.8116 534.1093689320388 L 445.8116 608.2240689320388 C 445.8116 615.3058689320388 447.6431 620.5561689320389 454.7249 620.5561689320389 C 461.8067 620.5561689320389 463.6382 615.3058689320388 463.6382 608.2240689320388 L 463.6382 534.1093689320388 L 460.2194 534.1093689320388 L 460.2194 599.1886689320388 C 460.2194 602.9737689320389 458.51 605.2936689320388 454.7249 605.2936689320388 Z M 483.2963 584.7808689320389 L 487.5698 534.1093689320388 L 483.9068 534.1093689320388 L 480.9764 568.9078689320388 L 473.89459999999997 568.9078689320388 L 470.9642 534.1093689320388 L 467.3012 534.1093689320388 L 471.5747 584.7808689320389 L 475.7261 584.7808689320389 L 475.7261 619.5793689320388 L 479.1449 619.5793689320388 L 479.1449 584.7808689320389 Z M 509.0594 619.5793689320388 L 509.0594 603.7063689320388 L 494.6516 603.7063689320388 L 494.6516 584.7808689320389 L 507.8384 584.7808689320389 L 507.8384 568.9078689320388 L 494.6516 568.9078689320388 L 494.6516 549.9823689320389 L 509.0594 549.9823689320389 L 509.0594 534.1093689320388 L 491.2328 534.1093689320388 L 491.2328 619.5793689320388 Z M 531.77 619.5793689320388 L 531.77 603.7063689320388 L 517.3622 603.7063689320388 L 531.77 549.9823689320389 L 531.77 534.1093689320388 L 513.9434 534.1093689320388 L 513.9434 549.9823689320389 L 528.4733 549.9823689320389 L 513.9434 603.7063689320388 L 513.9434 619.5793689320388 Z M 577.1912 619.5793689320388 L 577.1912 603.7063689320388 L 562.7834 603.7063689320388 L 562.7834 584.7808689320389 L 575.9702 584.7808689320389 L 575.9702 568.9078689320388 L 562.7834 568.9078689320388 L 562.7834 549.9823689320389 L 577.1912 549.9823689320389 L 577.1912 534.1093689320388 L 559.3646 534.1093689320388 L 559.3646 619.5793689320388 Z M 591.5989999999999 534.1093689320388 L 582.0752 534.1093689320388 L 582.0752 619.5793689320388 L 585.494 619.5793689320388 L 585.494 549.9823689320389 L 588.7907 549.9823689320389 L 590.2559 619.5793689320388 L 599.9018 619.5793689320388 L 599.9018 534.1093689320388 L 596.483 534.1093689320388 L 596.483 603.7063689320388 L 593.4304999999999 603.7063689320388 Z M 621.0251 584.7808689320389 L 621.0251 568.9078689320388 L 608.2046 568.9078689320388 L 608.2046 549.9823689320389 L 622.6124 549.9823689320389 L 622.6124 534.1093689320388 L 604.7858 534.1093689320388 L 604.7858 619.5793689320388 L 608.2046 619.5793689320388 L 608.2046 584.7808689320389 Z M 645.323 549.9823689320389 L 645.323 534.1093689320388 L 627.4964 534.1093689320388 L 627.4964 549.9823689320389 L 634.7003 549.9823689320389 L 634.7003 603.7063689320388 L 627.4964 603.7063689320388 L 627.4964 619.5793689320388 L 645.323 619.5793689320388 L 645.323 603.7063689320388 L 638.1191 603.7063689320388 L 638.1191 549.9823689320389 Z M 659.7307999999999 534.1093689320388 L 650.207 534.1093689320388 L 650.207 619.5793689320388 L 653.6258 619.5793689320388 L 653.6258 549.9823689320389 L 656.9225 549.9823689320389 L 658.3877 619.5793689320388 L 668.0336 619.5793689320388 L 668.0336 534.1093689320388 L 664.6148 534.1093689320388 L 664.6148 603.7063689320388 L 661.5622999999999 603.7063689320388 Z" stroke-opacity="1" stroke-linecap="round" stroke-miterlimit="10"/></g><g><path fill="none" stroke="rgb(0,0,0)" paint-order="fill stroke markers" d=" M 100.26859999999999 772.2043689320388 L 100.26859999999999 721.5328689320388 L 85.8608 721.5328689320388 L 85.8608 702.6073689320389 L 100.26859999999999 702.6073689320389 L 100.26859999999999 686.7343689320388 L 82.44200000000001 686.7343689320388 L 82.44200000000001 737.4058689320389 L 96.8498 737.4058689320389 L 96.8498 756.3313689320388 L 82.44200000000001 756.3313689320388 L 82.44200000000001 772.2043689320388 Z M 114.0659 757.9186689320388 C 110.2808 757.9186689320388 108.5714 755.5987689320389 108.5714 751.8136689320388 L 108.5714 686.7343689320388 L 105.1526 686.7343689320388 L 105.1526 760.8490689320388 C 105.1526 767.9308689320388 106.9841 773.1811689320389 114.0659 773.1811689320389 C 121.1477 773.1811689320389 122.97919999999999 767.9308689320388 122.97919999999999 760.8490689320388 L 122.97919999999999 686.7343689320388 L 119.5604 686.7343689320388 L 119.5604 751.8136689320388 C 119.5604 755.5987689320389 117.851 757.9186689320388 114.0659 757.9186689320388 Z M 131.282 737.4058689320389 L 134.2124 737.4058689320389 L 142.0268 772.2043689320388 L 145.6898 772.2043689320388 L 137.7533 737.4058689320389 C 143.9804 736.9174689320389 145.6898 731.7892689320388 145.6898 725.0737689320389 L 145.6898 699.0664689320388 C 145.6898 691.9846689320389 143.85829999999999 686.7343689320388 136.7765 686.7343689320388 L 127.8632 686.7343689320388 L 127.8632 772.2043689320388 L 131.282 772.2043689320388 Z M 136.7765 721.5328689320388 L 131.282 721.5328689320388 L 131.282 702.6073689320389 L 136.7765 702.6073689320389 C 140.5616 702.6073689320389 142.271 704.9272689320388 142.271 708.7123689320389 L 142.271 715.4278689320388 C 142.271 719.2129689320388 140.5616 721.5328689320388 136.7765 721.5328689320388 Z M 182.1977 757.9186689320388 C 178.4126 757.9186689320388 176.7032 755.5987689320389 176.7032 751.8136689320388 L 176.7032 686.7343689320388 L 173.2844 686.7343689320388 L 173.2844 760.8490689320388 C 173.2844 767.9308689320388 175.1159 773.1811689320389 182.1977 773.1811689320389 C 189.27949999999998 773.1811689320389 191.111 767.9308689320388 191.111 760.8490689320388 L 191.111 686.7343689320388 L 187.69219999999999 686.7343689320388 L 187.69219999999999 751.8136689320388 C 187.69219999999999 755.5987689320389 185.9828 757.9186689320388 182.1977 757.9186689320388 Z M 205.5188 686.7343689320388 L 195.995 686.7343689320388 L 195.995 772.2043689320388 L 199.4138 772.2043689320388 L 199.4138 702.6073689320389 L 202.7105 702.6073689320389 L 204.1757 772.2043689320388 L 213.8216 772.2043689320388 L 213.8216 686.7343689320388 L 210.40279999999998 686.7343689320388 L 210.40279999999998 756.3313689320388 L 207.3503 756.3313689320388 Z M 250.3295 772.2043689320388 C 257.4113 772.2043689320388 259.2428 766.9540689320388 259.2428 759.8722689320389 L 259.2428 735.9406689320389 C 259.2428 731.1787689320388 257.5334 729.1030689320388 255.0914 728.2483689320388 C 257.1671 726.9052689320389 258.5102 724.5853689320388 258.5102 720.4339689320389 L 258.5102 699.0664689320388 C 258.5102 691.9846689320389 256.6787 686.7343689320388 249.5969 686.7343689320388 L 241.4162 686.7343689320388 L 241.4162 772.2043689320388 Z M 255.0914 714.2068689320388 C 255.0914 719.3350689320389 253.2599 721.5328689320388 249.4748 721.5328689320388 L 244.835 721.5328689320388 L 244.835 702.6073689320389 L 249.5969 702.6073689320389 C 253.382 702.6073689320389 255.0914 704.9272689320388 255.0914 708.7123689320389 Z M 244.835 737.4058689320389 L 250.2074 737.4058689320389 C 253.9925 737.4058689320389 255.82399999999998 739.6036689320389 255.82399999999998 744.7318689320389 L 255.82399999999998 750.8368689320389 C 255.82399999999998 754.6219689320388 254.1146 756.9418689320388 250.3295 756.9418689320388 L 244.835 756.9418689320388 Z M 273.0401 685.7575689320388 C 265.9583 685.7575689320388 264.1268 691.0078689320388 264.1268 698.0896689320389 L 264.1268 760.8490689320388 C 264.1268 767.9308689320388 265.9583 773.1811689320389 273.0401 773.1811689320389 C 280.1219 773.1811689320389 281.9534 767.9308689320388 281.9534 760.8490689320388 L 281.9534 698.0896689320389 C 281.9534 691.0078689320388 280.1219 685.7575689320388 273.0401 685.7575689320388 Z M 273.0401 701.0200689320388 C 276.8252 701.0200689320388 278.5346 703.3399689320388 278.5346 707.1250689320389 L 278.5346 751.8136689320388 C 278.5346 755.5987689320389 276.8252 757.9186689320388 273.0401 757.9186689320388 C 269.255 757.9186689320388 267.5456 755.5987689320389 267.5456 751.8136689320388 L 267.5456 707.1250689320389 C 267.5456 703.3399689320388 269.255 701.0200689320388 273.0401 701.0200689320388 Z M 295.7507 757.9186689320388 C 291.9656 757.9186689320388 290.2562 755.5987689320389 290.2562 751.8136689320388 L 290.2562 686.7343689320388 L 286.8374 686.7343689320388 L 286.8374 760.8490689320388 C 286.8374 767.9308689320388 288.6689 773.1811689320389 295.7507 773.1811689320389 C 302.8325 773.1811689320389 304.664 767.9308689320388 304.664 760.8490689320388 L 304.664 686.7343689320388 L 301.2452 686.7343689320388 L 301.2452 751.8136689320388 C 301.2452 755.5987689320389 299.5358 757.9186689320388 295.7507 757.9186689320388 Z M 327.3746 702.6073689320389 L 327.3746 686.7343689320388 L 309.548 686.7343689320388 L 309.548 702.6073689320389 L 316.7519 702.6073689320389 L 316.7519 772.2043689320388 L 320.1707 772.2043689320388 L 320.1707 702.6073689320389 Z M 341.1719 685.7575689320388 C 334.0901 685.7575689320388 332.2586 691.0078689320388 332.2586 698.0896689320389 L 332.2586 760.8490689320388 C 332.2586 767.9308689320388 334.0901 773.1811689320389 341.1719 773.1811689320389 C 348.2537 773.1811689320389 350.0852 767.9308689320388 350.0852 760.8490689320388 L 350.0852 698.0896689320389 C 350.0852 691.0078689320388 348.2537 685.7575689320388 341.1719 685.7575689320388 Z M 341.1719 701.0200689320388 C 344.957 701.0200689320388 346.6664 703.3399689320388 346.6664 707.1250689320389 L 346.6664 751.8136689320388 C 346.6664 755.5987689320389 344.957 757.9186689320388 341.1719 757.9186689320388 C 337.3868 757.9186689320388 335.6774 755.5987689320389 335.6774 751.8136689320388 L 335.6774 707.1250689320389 C 335.6774 703.3399689320388 337.3868 701.0200689320388 341.1719 701.0200689320388 Z M 364.493 686.7343689320388 L 354.9692 686.7343689320388 L 354.9692 772.2043689320388 L 358.388 772.2043689320388 L 358.388 702.6073689320389 L 361.6847 702.6073689320389 L 363.1499 772.2043689320388 L 372.7958 772.2043689320388 L 372.7958 686.7343689320388 L 369.377 686.7343689320388 L 369.377 756.3313689320388 L 366.3245 756.3313689320388 Z M 409.3037 686.7343689320388 L 400.3904 686.7343689320388 L 400.3904 772.2043689320388 L 409.3037 772.2043689320388 C 416.3855 772.2043689320388 418.217 766.9540689320388 418.217 759.8722689320389 L 418.217 699.0664689320388 C 418.217 691.9846689320389 416.3855 686.7343689320388 409.3037 686.7343689320388 Z M 409.3037 756.3313689320388 L 403.8092 756.3313689320388 L 403.8092 702.6073689320389 L 409.3037 702.6073689320389 C 413.0888 702.6073689320389 414.7982 704.9272689320388 414.7982 708.7123689320389 L 414.7982 750.2263689320389 C 414.7982 754.0114689320388 413.0888 756.3313689320388 409.3037 756.3313689320388 Z M 432.0143 685.7575689320388 C 424.9325 685.7575689320388 423.101 691.0078689320388 423.101 698.0896689320389 L 423.101 760.8490689320388 C 423.101 767.9308689320388 424.9325 773.1811689320389 432.0143 773.1811689320389 C 439.0961 773.1811689320389 440.9276 767.9308689320388 440.9276 760.8490689320388 L 440.9276 698.0896689320389 C 440.9276 691.0078689320388 439.0961 685.7575689320388 432.0143 685.7575689320388 Z M 432.0143 701.0200689320388 C 435.7994 701.0200689320388 437.5088 703.3399689320388 437.5088 707.1250689320389 L 437.5088 751.8136689320388 C 437.5088 755.5987689320389 435.7994 757.9186689320388 432.0143 757.9186689320388 C 428.2292 757.9186689320388 426.5198 755.5987689320389 426.5198 751.8136689320388 L 426.5198 707.1250689320389 C 426.5198 703.3399689320388 428.2292 701.0200689320388 432.0143 701.0200689320388 Z M 454.7249 757.9186689320388 C 450.9398 757.9186689320388 449.2304 755.5987689320389 449.2304 751.8136689320388 L 449.2304 686.7343689320388 L 445.8116 686.7343689320388 L 445.8116 760.8490689320388 C 445.8116 767.9308689320388 447.6431 773.1811689320389 454.7249 773.1811689320389 C 461.8067 773.1811689320389 463.6382 767.9308689320388 463.6382 760.8490689320388 L 463.6382 686.7343689320388 L 460.2194 686.7343689320388 L 460.2194 751.8136689320388 C 460.2194 755.5987689320389 458.51 757.9186689320388 454.7249 757.9186689320388 Z M 486.3488 702.6073689320389 L 486.3488 686.7343689320388 L 468.5222 686.7343689320388 L 468.5222 702.6073689320389 L 475.7261 702.6073689320389 L 475.7261 772.2043689320388 L 479.1449 772.2043689320388 L 479.1449 702.6073689320389 Z M 509.0594 772.2043689320388 L 509.0594 756.3313689320388 L 494.6516 756.3313689320388 L 494.6516 737.4058689320389 L 507.8384 737.4058689320389 L 507.8384 721.5328689320388 L 494.6516 721.5328689320388 L 494.6516 702.6073689320389 L 509.0594 702.6073689320389 L 509.0594 686.7343689320388 L 491.2328 686.7343689320388 L 491.2328 772.2043689320388 Z M 522.8567 757.9186689320388 C 519.0716 757.9186689320388 517.3622 755.5987689320389 517.3622 751.8136689320388 L 517.3622 686.7343689320388 L 513.9434 686.7343689320388 L 513.9434 760.8490689320388 C 513.9434 767.9308689320388 515.7749 773.1811689320389 522.8567 773.1811689320389 C 529.9385 773.1811689320389 531.77 767.9308689320388 531.77 760.8490689320388 L 531.77 686.7343689320388 L 528.3512 686.7343689320388 L 528.3512 751.8136689320388 C 528.3512 755.5987689320389 526.6418 757.9186689320388 522.8567 757.9186689320388 Z M 547.8872 737.4058689320389 L 552.0386 772.2043689320388 L 555.7016 772.2043689320388 L 550.5734 729.4693689320388 L 555.7016 686.7343689320388 L 552.0386 686.7343689320388 L 547.8872 721.5328689320388 L 543.2474 721.5328689320388 L 539.096 686.7343689320388 L 535.433 686.7343689320388 L 540.4390999999999 729.4693689320388 L 535.433 772.2043689320388 L 539.096 772.2043689320388 L 543.2474 737.4058689320389 Z M 585.494 737.4058689320389 L 590.9884999999999 737.4058689320389 C 598.0703 737.4058689320389 599.9018 732.1555689320388 599.9018 725.0737689320389 L 599.9018 699.0664689320388 C 599.9018 691.9846689320389 598.0703 686.7343689320388 590.9884999999999 686.7343689320388 L 582.0752 686.7343689320388 L 582.0752 772.2043689320388 L 585.494 772.2043689320388 Z M 590.9884999999999 721.5328689320388 L 585.494 721.5328689320388 L 585.494 702.6073689320389 L 590.9884999999999 702.6073689320389 C 594.7736 702.6073689320389 596.483 704.9272689320388 596.483 708.7123689320389 L 596.483 715.4278689320388 C 596.483 719.2129689320388 594.7736 721.5328689320388 590.9884999999999 721.5328689320388 Z M 613.6991 685.7575689320388 C 606.6173 685.7575689320388 604.7858 691.0078689320388 604.7858 698.0896689320389 L 604.7858 760.8490689320388 C 604.7858 767.9308689320388 606.6173 773.1811689320389 613.6991 773.1811689320389 C 620.7809 773.1811689320389 622.6124 767.9308689320388 622.6124 760.8490689320388 L 622.6124 698.0896689320389 C 622.6124 691.0078689320388 620.7809 685.7575689320388 613.6991 685.7575689320388 Z M 613.6991 701.0200689320388 C 617.4842 701.0200689320388 619.1936 703.3399689320388 619.1936 707.1250689320389 L 619.1936 751.8136689320388 C 619.1936 755.5987689320389 617.4842 757.9186689320388 613.6991 757.9186689320388 C 609.914 757.9186689320388 608.2046 755.5987689320389 608.2046 751.8136689320388 L 608.2046 707.1250689320389 C 608.2046 703.3399689320388 609.914 701.0200689320388 613.6991 701.0200689320388 Z M 636.4096999999999 757.9186689320388 C 632.6246 757.9186689320388 630.9152 755.5987689320389 630.9152 751.8136689320388 L 630.9152 686.7343689320388 L 627.4964 686.7343689320388 L 627.4964 760.8490689320388 C 627.4964 767.9308689320388 629.3279 773.1811689320389 636.4096999999999 773.1811689320389 C 643.4915 773.1811689320389 645.323 767.9308689320388 645.323 760.8490689320388 L 645.323 686.7343689320388 L 641.9042 686.7343689320388 L 641.9042 751.8136689320388 C 641.9042 755.5987689320389 640.1948 757.9186689320388 636.4096999999999 757.9186689320388 Z M 653.6258 737.4058689320389 L 656.5562 737.4058689320389 L 664.3706 772.2043689320388 L 668.0336 772.2043689320388 L 660.0971 737.4058689320389 C 666.3242 736.9174689320389 668.0336 731.7892689320388 668.0336 725.0737689320389 L 668.0336 699.0664689320388 C 668.0336 691.9846689320389 666.2021 686.7343689320388 659.1203 686.7343689320388 L 650.207 686.7343689320388 L 650.207 772.2043689320388 L 653.6258 772.2043689320388 Z M 659.1203 721.5328689320388 L 653.6258 721.5328689320388 L 653.6258 702.6073689320389 L 659.1203 702.6073689320389 C 662.9054 702.6073689320389 664.6148 704.9272689320388 664.6148 708.7123689320389 L 664.6148 715.4278689320388 C 664.6148 719.2129689320388 662.9054 721.5328689320388 659.1203 721.5328689320388 Z" stroke-opacity="1" stroke-linecap="round" stroke-miterlimit="10"/></g><g><path fill="none" stroke="rgb(0,0,0)" paint-order="fill stroke markers" d=" M 91.3553 838.3825689320388 C 84.2735 838.3825689320388 82.44200000000001 843.6328689320388 82.44200000000001 850.7146689320389 L 82.44200000000001 913.4740689320388 C 82.44200000000001 920.5558689320388 84.2735 925.8061689320389 91.3553 925.8061689320389 C 98.4371 925.8061689320389 100.26859999999999 920.5558689320388 100.26859999999999 913.4740689320388 L 100.26859999999999 850.7146689320389 C 100.26859999999999 843.6328689320388 98.4371 838.3825689320388 91.3553 838.3825689320388 Z M 91.3553 853.6450689320388 C 95.1404 853.6450689320388 96.8498 855.9649689320388 96.8498 859.7500689320389 L 96.8498 904.4386689320388 C 96.8498 908.2237689320389 95.1404 910.5436689320388 91.3553 910.5436689320388 C 87.5702 910.5436689320388 85.8608 908.2237689320389 85.8608 904.4386689320388 L 85.8608 859.7500689320389 C 85.8608 855.9649689320388 87.5702 853.6450689320388 91.3553 853.6450689320388 Z M 114.0659 924.8293689320388 C 121.1477 924.8293689320388 122.97919999999999 919.5790689320388 122.97919999999999 912.4972689320389 L 122.97919999999999 888.5656689320389 C 122.97919999999999 883.8037689320388 121.2698 881.7280689320388 118.8278 880.8733689320388 C 120.90350000000001 879.5302689320389 122.2466 877.2103689320388 122.2466 873.0589689320389 L 122.2466 851.6914689320388 C 122.2466 844.6096689320389 120.4151 839.3593689320388 113.3333 839.3593689320388 L 105.1526 839.3593689320388 L 105.1526 924.8293689320388 Z M 118.8278 866.8318689320388 C 118.8278 871.9600689320389 116.9963 874.1578689320388 113.2112 874.1578689320388 L 108.5714 874.1578689320388 L 108.5714 855.2323689320389 L 113.3333 855.2323689320389 C 117.1184 855.2323689320389 118.8278 857.5522689320388 118.8278 861.3373689320389 Z M 108.5714 890.0308689320389 L 113.9438 890.0308689320389 C 117.7289 890.0308689320389 119.5604 892.2286689320389 119.5604 897.3568689320389 L 119.5604 903.4618689320389 C 119.5604 907.2469689320388 117.851 909.5668689320388 114.0659 909.5668689320388 L 108.5714 909.5668689320388 Z M 145.6898 855.2323689320389 L 145.6898 839.3593689320388 L 127.8632 839.3593689320388 L 127.8632 855.2323689320389 L 135.0671 855.2323689320389 L 135.0671 924.8293689320388 L 138.4859 924.8293689320388 L 138.4859 855.2323689320389 Z M 168.4004 924.8293689320388 L 168.4004 908.9563689320388 L 153.9926 908.9563689320388 L 153.9926 890.0308689320389 L 167.1794 890.0308689320389 L 167.1794 874.1578689320388 L 153.9926 874.1578689320388 L 153.9926 855.2323689320389 L 168.4004 855.2323689320389 L 168.4004 839.3593689320388 L 150.5738 839.3593689320388 L 150.5738 924.8293689320388 Z M 182.8082 839.3593689320388 L 173.2844 839.3593689320388 L 173.2844 924.8293689320388 L 176.7032 924.8293689320388 L 176.7032 855.2323689320389 L 179.9999 855.2323689320389 L 181.4651 924.8293689320388 L 191.111 924.8293689320388 L 191.111 839.3593689320388 L 187.69219999999999 839.3593689320388 L 187.69219999999999 908.9563689320388 L 184.6397 908.9563689320388 Z M 213.8216 855.2323689320389 L 213.8216 839.3593689320388 L 195.995 839.3593689320388 L 195.995 855.2323689320389 L 203.1989 855.2323689320389 L 203.1989 908.9563689320388 L 195.995 908.9563689320388 L 195.995 924.8293689320388 L 213.8216 924.8293689320388 L 213.8216 908.9563689320388 L 206.61769999999999 908.9563689320388 L 206.61769999999999 855.2323689320389 Z M 222.1244 890.0308689320389 L 225.0548 890.0308689320389 L 232.8692 924.8293689320388 L 236.5322 924.8293689320388 L 228.5957 890.0308689320389 C 234.8228 889.5424689320389 236.5322 884.4142689320388 236.5322 877.6987689320389 L 236.5322 851.6914689320388 C 236.5322 844.6096689320389 234.70069999999998 839.3593689320388 227.6189 839.3593689320388 L 218.7056 839.3593689320388 L 218.7056 924.8293689320388 L 222.1244 924.8293689320388 Z M 227.6189 874.1578689320388 L 222.1244 874.1578689320388 L 222.1244 855.2323689320389 L 227.6189 855.2323689320389 C 231.404 855.2323689320389 233.11339999999998 857.5522689320388 233.11339999999998 861.3373689320389 L 233.11339999999998 868.0528689320388 C 233.11339999999998 871.8379689320388 231.404 874.1578689320388 227.6189 874.1578689320388 Z M 273.0401 910.5436689320388 C 269.255 910.5436689320388 267.5456 908.2237689320389 267.5456 904.4386689320388 L 267.5456 839.3593689320388 L 264.1268 839.3593689320388 L 264.1268 913.4740689320388 C 264.1268 920.5558689320388 265.9583 925.8061689320389 273.0401 925.8061689320389 C 280.1219 925.8061689320389 281.9534 920.5558689320388 281.9534 913.4740689320388 L 281.9534 839.3593689320388 L 278.5346 839.3593689320388 L 278.5346 904.4386689320388 C 278.5346 908.2237689320389 276.8252 910.5436689320388 273.0401 910.5436689320388 Z M 296.3612 839.3593689320388 L 286.8374 839.3593689320388 L 286.8374 924.8293689320388 L 290.2562 924.8293689320388 L 290.2562 855.2323689320389 L 293.5529 855.2323689320389 L 295.0181 924.8293689320388 L 304.664 924.8293689320388 L 304.664 839.3593689320388 L 301.2452 839.3593689320388 L 301.2452 908.9563689320388 L 298.1927 908.9563689320388 Z M 332.2586 839.3593689320388 L 332.2586 855.2323689320389 L 346.6664 855.2323689320389 L 346.6664 904.4386689320388 C 346.6664 908.2237689320389 344.957 910.5436689320388 341.1719 910.5436689320388 C 337.3868 910.5436689320388 335.6774 908.2237689320389 335.6774 904.4386689320388 L 335.6774 874.1578689320388 L 332.2586 874.1578689320388 L 332.2586 913.4740689320388 C 332.2586 920.5558689320388 334.0901 925.8061689320389 341.1719 925.8061689320389 C 348.2537 925.8061689320389 350.0852 920.5558689320388 350.0852 913.4740689320388 L 350.0852 839.3593689320388 Z M 363.8825 838.3825689320388 C 356.8007 838.3825689320388 354.9692 843.6328689320388 354.9692 850.7146689320389 L 354.9692 913.4740689320388 C 354.9692 920.5558689320388 356.8007 925.8061689320389 363.8825 925.8061689320389 C 370.9643 925.8061689320389 372.7958 920.5558689320388 372.7958 913.4740689320388 L 372.7958 850.7146689320389 C 372.7958 843.6328689320388 370.9643 838.3825689320388 363.8825 838.3825689320388 Z M 363.8825 853.6450689320388 C 367.6676 853.6450689320388 369.377 855.9649689320388 369.377 859.7500689320389 L 369.377 904.4386689320388 C 369.377 908.2237689320389 367.6676 910.5436689320388 363.8825 910.5436689320388 C 360.0974 910.5436689320388 358.388 908.2237689320389 358.388 904.4386689320388 L 358.388 859.7500689320389 C 358.388 855.9649689320388 360.0974 853.6450689320388 363.8825 853.6450689320388 Z M 377.6798 924.8293689320388 L 395.5064 924.8293689320388 L 395.5064 908.9563689320388 L 381.0986 908.9563689320388 L 381.0986 839.3593689320388 L 377.6798 839.3593689320388 Z M 418.217 855.2323689320389 L 418.217 839.3593689320388 L 400.3904 839.3593689320388 L 400.3904 855.2323689320389 L 407.5943 855.2323689320389 L 407.5943 908.9563689320388 L 400.3904 908.9563689320388 L 400.3904 924.8293689320388 L 418.217 924.8293689320388 L 418.217 908.9563689320388 L 411.0131 908.9563689320388 L 411.0131 855.2323689320389 Z M 463.6382 855.2323689320389 L 463.6382 839.3593689320388 L 445.8116 839.3593689320388 L 445.8116 855.2323689320389 L 453.0155 855.2323689320389 L 453.0155 924.8293689320388 L 456.4343 924.8293689320388 L 456.4343 855.2323689320389 Z M 483.4184 924.8293689320388 L 486.8372 924.8293689320388 L 482.3195 839.3593689320388 L 472.67359999999996 839.3593689320388 L 468.0338 924.8293689320388 L 471.4526 924.8293689320388 L 472.4294 905.9038689320389 L 482.4416 905.9038689320389 Z M 475.2377 855.2323689320389 L 479.63329999999996 855.2323689320389 L 481.5869 890.0308689320389 L 473.4062 890.0308689320389 Z M 491.2328 839.3593689320388 L 491.2328 924.8293689320388 L 494.6516 924.8293689320388 L 494.6516 855.2323689320389 L 496.2389 855.2323689320389 L 497.0936 890.0308689320389 L 503.1986 890.0308689320389 L 504.0533 855.2323689320389 L 505.6406 855.2323689320389 L 505.6406 924.8293689320388 L 509.0594 924.8293689320388 L 509.0594 839.3593689320388 L 501.8555 839.3593689320388 L 501.1229 874.1578689320388 L 499.16929999999996 874.1578689320388 L 498.4367 839.3593689320388 Z M 517.3622 890.0308689320389 L 522.8567 890.0308689320389 C 529.9385 890.0308689320389 531.77 884.7805689320388 531.77 877.6987689320389 L 531.77 851.6914689320388 C 531.77 844.6096689320389 529.9385 839.3593689320388 522.8567 839.3593689320388 L 513.9434 839.3593689320388 L 513.9434 924.8293689320388 L 517.3622 924.8293689320388 Z M 522.8567 874.1578689320388 L 517.3622 874.1578689320388 L 517.3622 855.2323689320389 L 522.8567 855.2323689320389 C 526.6418 855.2323689320389 528.3512 857.5522689320388 528.3512 861.3373689320389 L 528.3512 868.0528689320388 C 528.3512 871.8379689320388 526.6418 874.1578689320388 522.8567 874.1578689320388 Z M 545.5672999999999 838.3825689320388 C 538.4855 838.3825689320388 536.654 843.6328689320388 536.654 850.7146689320389 L 536.654 913.4740689320388 C 536.654 920.5558689320388 538.4855 925.8061689320389 545.5672999999999 925.8061689320389 C 552.6491 925.8061689320389 554.4806 920.5558689320388 554.4806 913.4740689320388 L 554.4806 850.7146689320389 C 554.4806 843.6328689320388 552.6491 838.3825689320388 545.5672999999999 838.3825689320388 Z M 545.5672999999999 853.6450689320388 C 549.3524 853.6450689320388 551.0618 855.9649689320388 551.0618 859.7500689320389 L 551.0618 904.4386689320388 C 551.0618 908.2237689320389 549.3524 910.5436689320388 545.5672999999999 910.5436689320388 C 541.7822 910.5436689320388 540.0728 908.2237689320389 540.0728 904.4386689320388 L 540.0728 859.7500689320389 C 540.0728 855.9649689320388 541.7822 853.6450689320388 545.5672999999999 853.6450689320388 Z M 568.8883999999999 839.3593689320388 L 559.3646 839.3593689320388 L 559.3646 924.8293689320388 L 562.7834 924.8293689320388 L 562.7834 855.2323689320389 L 566.0801 855.2323689320389 L 567.5453 924.8293689320388 L 577.1912 924.8293689320388 L 577.1912 839.3593689320388 L 573.7724 839.3593689320388 L 573.7724 908.9563689320388 L 570.7198999999999 908.9563689320388 Z M 613.6991 839.3593689320388 L 604.7858 839.3593689320388 L 604.7858 924.8293689320388 L 613.6991 924.8293689320388 C 620.7809 924.8293689320388 622.6124 919.5790689320388 622.6124 912.4972689320389 L 622.6124 851.6914689320388 C 622.6124 844.6096689320389 620.7809 839.3593689320388 613.6991 839.3593689320388 Z M 613.6991 908.9563689320388 L 608.2046 908.9563689320388 L 608.2046 855.2323689320389 L 613.6991 855.2323689320389 C 617.4842 855.2323689320389 619.1936 857.5522689320388 619.1936 861.3373689320389 L 619.1936 902.8513689320389 C 619.1936 906.6364689320388 617.4842 908.9563689320388 613.6991 908.9563689320388 Z M 645.323 924.8293689320388 L 645.323 908.9563689320388 L 630.9152 908.9563689320388 L 630.9152 890.0308689320389 L 644.102 890.0308689320389 L 644.102 874.1578689320388 L 630.9152 874.1578689320388 L 630.9152 855.2323689320389 L 645.323 855.2323689320389 L 645.323 839.3593689320388 L 627.4964 839.3593689320388 L 627.4964 924.8293689320388 Z" stroke-opacity="1" stroke-linecap="round" stroke-miterlimit="10"/></g><g><path fill="none" stroke="rgb(0,0,0)" paint-order="fill stroke markers" d=" M 86.5934 1077.4543689320387 L 96.2393 1077.4543689320387 L 100.757 991.9843689320387 L 97.3382 991.9843689320387 L 93.5531 1061.5813689320387 L 89.1575 1061.5813689320387 L 85.3724 991.9843689320387 L 81.9536 991.9843689320387 Z M 120.0488 1077.4543689320387 L 123.4676 1077.4543689320387 L 118.9499 991.9843689320387 L 109.304 991.9843689320387 L 104.6642 1077.4543689320387 L 108.083 1077.4543689320387 L 109.0598 1058.5288689320387 L 119.072 1058.5288689320387 Z M 111.8681 1007.8573689320388 L 116.2637 1007.8573689320388 L 118.2173 1042.6558689320386 L 110.03659999999999 1042.6558689320386 Z M 127.8632 1077.4543689320387 L 145.6898 1077.4543689320387 L 145.6898 1061.5813689320387 L 131.282 1061.5813689320387 L 131.282 991.9843689320387 L 127.8632 991.9843689320387 Z M 168.4004 1007.8573689320388 L 168.4004 991.9843689320387 L 150.5738 991.9843689320387 L 150.5738 1007.8573689320388 L 157.7777 1007.8573689320388 L 157.7777 1061.5813689320387 L 150.5738 1061.5813689320387 L 150.5738 1077.4543689320387 L 168.4004 1077.4543689320387 L 168.4004 1061.5813689320387 L 161.1965 1061.5813689320387 L 161.1965 1007.8573689320388 Z M 182.1977 991.9843689320387 L 173.2844 991.9843689320387 L 173.2844 1077.4543689320387 L 182.1977 1077.4543689320387 C 189.27949999999998 1077.4543689320387 191.111 1072.2040689320388 191.111 1065.1222689320387 L 191.111 1004.3164689320388 C 191.111 997.2346689320387 189.27949999999998 991.9843689320387 182.1977 991.9843689320387 Z M 182.1977 1061.5813689320387 L 176.7032 1061.5813689320387 L 176.7032 1007.8573689320388 L 182.1977 1007.8573689320388 C 185.9828 1007.8573689320388 187.69219999999999 1010.1772689320387 187.69219999999999 1013.9623689320388 L 187.69219999999999 1055.4763689320387 C 187.69219999999999 1059.2614689320387 185.9828 1061.5813689320387 182.1977 1061.5813689320387 Z M 210.8912 1077.4543689320387 L 214.31 1077.4543689320387 L 209.7923 991.9843689320387 L 200.1464 991.9843689320387 L 195.5066 1077.4543689320387 L 198.9254 1077.4543689320387 L 199.9022 1058.5288689320387 L 209.9144 1058.5288689320387 Z M 202.7105 1007.8573689320388 L 207.1061 1007.8573689320388 L 209.0597 1042.6558689320386 L 200.879 1042.6558689320386 Z M 236.5322 1007.8573689320388 L 236.5322 991.9843689320387 L 218.7056 991.9843689320387 L 218.7056 1007.8573689320388 L 225.9095 1007.8573689320388 L 225.9095 1077.4543689320387 L 229.32829999999998 1077.4543689320387 L 229.32829999999998 1007.8573689320388 Z M 259.2428 1007.8573689320388 L 259.2428 991.9843689320387 L 241.4162 991.9843689320387 L 241.4162 1007.8573689320388 L 248.6201 1007.8573689320388 L 248.6201 1061.5813689320387 L 241.4162 1061.5813689320387 L 241.4162 1077.4543689320387 L 259.2428 1077.4543689320387 L 259.2428 1061.5813689320387 L 252.03889999999998 1061.5813689320387 L 252.03889999999998 1007.8573689320388 Z M 273.0401 991.0075689320388 C 265.9583 991.0075689320388 264.1268 996.2578689320387 264.1268 1003.3396689320388 L 264.1268 1066.0990689320388 C 264.1268 1073.1808689320387 265.9583 1078.4311689320386 273.0401 1078.4311689320386 C 280.1219 1078.4311689320386 281.9534 1073.1808689320387 281.9534 1066.0990689320388 L 281.9534 1003.3396689320388 C 281.9534 996.2578689320387 280.1219 991.0075689320388 273.0401 991.0075689320388 Z M 273.0401 1006.2700689320387 C 276.8252 1006.2700689320387 278.5346 1008.5899689320387 278.5346 1012.3750689320387 L 278.5346 1057.0636689320388 C 278.5346 1060.8487689320386 276.8252 1063.1686689320388 273.0401 1063.1686689320388 C 269.255 1063.1686689320388 267.5456 1060.8487689320386 267.5456 1057.0636689320388 L 267.5456 1012.3750689320387 C 267.5456 1008.5899689320387 269.255 1006.2700689320387 273.0401 1006.2700689320387 Z M 296.3612 991.9843689320387 L 286.8374 991.9843689320387 L 286.8374 1077.4543689320387 L 290.2562 1077.4543689320387 L 290.2562 1007.8573689320388 L 293.5529 1007.8573689320388 L 295.0181 1077.4543689320387 L 304.664 1077.4543689320387 L 304.664 991.9843689320387 L 301.2452 991.9843689320387 L 301.2452 1061.5813689320387 L 298.1927 1061.5813689320387 Z M 318.4613 1060.6045689320388 C 312.7226 1060.6045689320388 309.548 1063.7791689320388 309.548 1069.5178689320387 C 309.548 1075.2565689320388 312.7226 1078.4311689320386 318.4613 1078.4311689320386 C 324.2 1078.4311689320386 327.3746 1075.2565689320388 327.3746 1069.5178689320387 C 327.3746 1063.7791689320388 324.2 1060.6045689320388 318.4613 1060.6045689320388 Z" stroke-opacity="1" stroke-linecap="round" stroke-miterlimit="10"/></g></g></g></svg>