<?xml version="1.0" encoding="UTF-8" standalone="no"?>
<svg
   xmlns:dc="http://purl.org/dc/elements/1.1/"
   xmlns:cc="http://creativecommons.org/ns#"
   xmlns:rdf="http://www.w3.org/1999/02/22-rdf-syntax-ns#"
   xmlns:svg="http://www.w3.org/2000/svg"
   xmlns="http://www.w3.org/2000/svg"
   id="svg2"
   viewBox="0 0 800 1149.5145631067962"
   height="1149.5145631067962"
   width="800"
   version="1.1">
  <metadata
     id="metadata62">
    <rdf:RDF>
      <cc:Work
         rdf:about="">
        <dc:format>image/svg+xml</dc:format>
        <dc:type
           rdf:resource="http://purl.org/dc/dcmitype/StillImage" />
      </cc:Work>
    </rdf:RDF>
  </metadata>
  <defs
     id="defs4" />
  <g
     id="g6">
    <g
       id="g8">
      <g
         id="g10">
        <path
           id="rect12"
           d="m 0,0 800,0 0,1149.5145 -800,0 z"
           style="fill:#ffffff;fill-opacity:1;stroke:none" />
      </g>
      <g
         id="g14">
        <path
           style="fill:none;stroke:#000000;stroke-linecap:round;stroke-miterlimit:10;stroke-opacity:1;paint-order:fill stroke markers"
           id="path16"
           stroke-miterlimit="10"
           d="m 85.8608,432.15587 5.4945,0 c 7.0818,0 8.9133,-5.2503 8.9133,-12.3321 l 0,-26.0073 c 0,-7.0818 -1.8315,-12.3321 -8.9133,-12.3321 l -8.9133,0 0,85.47 3.4188,0 z m 5.4945,-15.873 -5.4945,0 0,-18.9255 5.4945,0 c 3.7851,0 5.4945,2.3199 5.4945,6.105 l 0,6.7155 c 0,3.7851 -1.7094,6.105 -5.4945,6.105 z m 22.7106,-35.7753 c -7.0818,0 -8.9133,5.2503 -8.9133,12.3321 l 0,62.7594 c 0,7.0818 1.8315,12.3321 8.9133,12.3321 7.0818,0 8.9133,-5.2503 8.9133,-12.3321 l 0,-62.7594 c 0,-7.0818 -1.8315,-12.3321 -8.9133,-12.3321 z m 0,15.2625 c 3.7851,0 5.4945,2.3199 5.4945,6.105 l 0,44.6886 c 0,3.7851 -1.7094,6.105 -5.4945,6.105 -3.7851,0 -5.4945,-2.3199 -5.4945,-6.105 l 0,-44.6886 c 0,-3.7851 1.7094,-6.105 5.4945,-6.105 z m 22.7106,56.8986 c -3.7851,0 -5.4945,-2.3199 -5.4945,-6.105 l 0,-65.0793 -3.4188,0 0,74.1147 c 0,7.0818 1.8315,12.3321 8.9133,12.3321 7.0818,0 8.9133,-5.2503 8.9133,-12.3321 l 0,-74.1147 -3.4188,0 0,65.0793 c 0,3.7851 -1.7094,6.105 -5.4945,6.105 z m 17.2161,-20.5128 2.9304,0 7.8144,34.7985 3.663,0 -7.9365,-34.7985 c 6.2271,-0.4884 7.9365,-5.6166 7.9365,-12.3321 l 0,-26.0073 c 0,-7.0818 -1.8315,-12.3321 -8.9133,-12.3321 l -8.9133,0 0,85.47 3.4188,0 z m 5.4945,-15.873 -5.4945,0 0,-18.9255 5.4945,0 c 3.7851,0 5.4945,2.3199 5.4945,6.105 l 0,6.7155 c 0,3.7851 -1.7094,6.105 -5.4945,6.105 z m 45.4212,36.3858 c -3.7851,0 -5.4945,-2.3199 -5.4945,-6.105 l 0,-65.0793 -3.4188,0 0,74.1147 c 0,7.0818 1.8315,12.3321 8.9133,12.3321 7.0818,0 8.9133,-5.2503 8.9133,-12.3321 l 0,-74.1147 -3.4188,0 0,65.0793 c 0,3.7851 -1.7094,6.105 -5.4945,6.105 z m 23.3211,-71.1843 -9.5238,0 0,85.47 3.4188,0 0,-69.597 3.2967,0 1.4652,69.597 9.6459,0 0,-85.47 -3.4188,0 0,69.597 -3.0525,0 z m 44.8107,0 -8.9133,0 0,85.47 8.9133,0 c 7.0818,0 8.9133,-5.2503 8.9133,-12.3321 l 0,-60.8058 c 0,-7.0818 -1.8315,-12.3321 -8.9133,-12.3321 z m 0,69.597 -5.4945,0 0,-53.724 5.4945,0 c 3.7851,0 5.4945,2.3199 5.4945,6.105 l 0,41.514 c 0,3.7851 -1.7094,6.105 -5.4945,6.105 z m 31.6239,-53.724 0,-15.873 -17.8266,0 0,15.873 7.2039,0 0,53.724 -7.2039,0 0,15.873 17.8266,0 0,-15.873 -7.2039,0 0,-53.724 z m 22.7106,69.597 0,-15.873 -14.4078,0 0,-18.9255 13.1868,0 0,-15.873 -13.1868,0 0,-18.9255 14.4078,0 0,-15.873 -17.8266,0 0,85.47 z m 13.7973,-14.2857 c -3.7851,0 -5.4945,-2.3199 -5.4945,-6.105 l 0,-65.0793 -3.4188,0 0,74.1147 c 0,7.0818 1.8315,12.3321 8.9133,12.3321 7.0818,0 8.9133,-5.2503 8.9133,-12.3321 l 0,-74.1147 -3.4188,0 0,65.0793 c 0,3.7851 -1.7094,6.105 -5.4945,6.105 z m 53.2356,14.2857 3.5409,0 -2.8083,-6.7155 c 0.2442,-1.3431 0.3663,-2.9304 0.3663,-4.6398 l 0,-62.7594 c 0,-7.0818 -1.8315,-12.3321 -8.9133,-12.3321 -7.0818,0 -8.9133,5.2503 -8.9133,12.3321 l 0,62.7594 c 0,7.0818 1.8315,12.3321 8.9133,12.3321 3.2967,0 5.4945,-1.221 6.8376,-3.1746 z m -13.3089,-65.0793 c 0,-3.7851 1.7094,-6.105 5.4945,-6.105 3.7851,0 5.4945,2.3199 5.4945,6.105 l 0,44.6886 c 0,1.7094 -0.3663,3.0525 -0.9768,4.0293 l -10.0122,-23.8095 z m 0,44.6886 0,-11.3553 7.2039,17.2161 c -0.4884,0.1221 -1.0989,0.2442 -1.7094,0.2442 -3.7851,0 -5.4945,-2.3199 -5.4945,-6.105 z m 28.2051,6.105 c -3.7851,0 -5.4945,-2.3199 -5.4945,-6.105 l 0,-65.0793 -3.4188,0 0,74.1147 c 0,7.0818 1.8315,12.3321 8.9133,12.3321 7.0818,0 8.9133,-5.2503 8.9133,-12.3321 l 0,-74.1147 -3.4188,0 0,65.0793 c 0,3.7851 -1.7094,6.105 -5.4945,6.105 z m 31.6239,14.2857 0,-15.873 -14.4078,0 0,-18.9255 13.1868,0 0,-15.873 -13.1868,0 0,-18.9255 14.4078,0 0,-15.873 -17.8266,0 0,85.47 z m 4.884,0 17.8266,0 0,-15.873 -14.4078,0 0,-69.597 -3.4188,0 z" />
      </g>
      <g
         id="g18">
        <path
           style="fill:none;stroke:#000000;stroke-linecap:round;stroke-miterlimit:10;stroke-opacity:1;paint-order:fill stroke markers"
           id="path20"
           stroke-miterlimit="10"
           d="m 97.3382,619.57937 3.4188,0 -4.5177,-85.47 -9.6459,0 -4.6398,85.47 3.4188,0 0.9768,-18.9255 10.0122,0 z m -8.1807,-69.597 4.3956,0 1.9536,34.7985 -8.1807,0 z m 24.9084,69.597 c 7.0818,0 8.9133,-5.2503 8.9133,-12.3321 l 0,-23.9316 c 0,-4.7619 -1.7094,-6.8376 -4.1514,-7.6923 2.0757,-1.3431 3.4188,-3.663 3.4188,-7.8144 l 0,-21.3675 c 0,-7.0818 -1.8315,-12.3321 -8.9133,-12.3321 l -8.1807,0 0,85.47 z m 4.7619,-57.9975 c 0,5.1282 -1.8315,7.326 -5.6166,7.326 l -4.6398,0 0,-18.9255 4.7619,0 c 3.7851,0 5.4945,2.3199 5.4945,6.105 z m -10.2564,23.199 5.3724,0 c 3.7851,0 5.6166,2.1978 5.6166,7.326 l 0,6.105 c 0,3.7851 -1.7094,6.105 -5.4945,6.105 l -5.4945,0 z m 34.188,34.7985 3.4188,0 -4.5177,-85.47 -9.6459,0 -4.6398,85.47 3.4188,0 0.9768,-18.9255 10.0122,0 z m -8.1807,-69.597 4.3956,0 1.9536,34.7985 -8.1807,0 z m 33.8217,0 0,-15.873 -17.8266,0 0,15.873 7.2039,0 0,53.724 -7.2039,0 0,15.873 17.8266,0 0,-15.873 -7.2039,0 0,-53.724 z m 22.7106,69.597 0,-50.6715 -14.4078,0 0,-18.9255 14.4078,0 0,-15.873 -17.8266,0 0,50.6715 14.4078,0 0,18.9255 -14.4078,0 0,15.873 z m 22.7106,0 0,-50.6715 -14.4078,0 0,-18.9255 14.4078,0 0,-15.873 -17.8266,0 0,50.6715 14.4078,0 0,18.9255 -14.4078,0 0,15.873 z m 22.7106,0 0,-15.873 -14.4078,0 0,-18.9255 13.1868,0 0,-15.873 -13.1868,0 0,-18.9255 14.4078,0 0,-15.873 -17.8266,0 0,85.47 z m 4.884,-85.47 0,85.47 3.4188,0 0,-69.597 1.5873,0 0.8547,34.7985 6.105,0 0.8547,-34.7985 1.5873,0 0,69.597 3.4188,0 0,-85.47 -7.2039,0 -0.7326,34.7985 -1.9536,0 -0.7326,-34.7985 z m 40.5372,85.47 0,-15.873 -14.4078,0 0,-18.9255 13.1868,0 0,-15.873 -13.1868,0 0,-18.9255 14.4078,0 0,-15.873 -17.8266,0 0,85.47 z m 14.4078,-85.47 -9.5238,0 0,85.47 3.4188,0 0,-69.597 3.2967,0 1.4652,69.597 9.6459,0 0,-85.47 -3.4188,0 0,69.597 -3.0525,0 z m 31.0134,15.873 0,-15.873 -17.8266,0 0,15.873 7.2039,0 0,69.597 3.4188,0 0,-69.597 z m 15.3846,44.8107 4.2735,-36.9963 0,-23.6874 -11.7216,0 0,23.6874 4.2735,36.9963 z m -1.5873,7.9365 c -5.7387,0 -8.9133,3.1746 -8.9133,8.9133 0,5.7387 3.1746,8.9133 8.9133,8.9133 5.7387,0 8.9133,-3.1746 8.9133,-8.9133 0,-5.7387 -3.1746,-8.9133 -8.9133,-8.9133 z m 51.4041,16.8498 3.4188,0 -4.5177,-85.47 -9.6459,0 -4.6398,85.47 3.4188,0 0.9768,-18.9255 10.0122,0 z m -8.1807,-69.597 4.3956,0 1.9536,34.7985 -8.1807,0 z m 19.4139,34.7985 5.4945,0 c 7.0818,0 8.9133,-5.2503 8.9133,-12.3321 l 0,-26.0073 c 0,-7.0818 -1.8315,-12.3321 -8.9133,-12.3321 l -8.9133,0 0,85.47 3.4188,0 z m 5.4945,-15.873 -5.4945,0 0,-18.9255 5.4945,0 c 3.7851,0 5.4945,2.3199 5.4945,6.105 l 0,6.7155 c 0,3.7851 -1.7094,6.105 -5.4945,6.105 z m 17.2161,15.873 5.4945,0 c 7.0818,0 8.9133,-5.2503 8.9133,-12.3321 l 0,-26.0073 c 0,-7.0818 -1.8315,-12.3321 -8.9133,-12.3321 l -8.9133,0 0,85.47 3.4188,0 z m 5.4945,-15.873 -5.4945,0 0,-18.9255 5.4945,0 c 3.7851,0 5.4945,2.3199 5.4945,6.105 l 0,6.7155 c 0,3.7851 -1.7094,6.105 -5.4945,6.105 z m 22.7106,36.3858 c -3.7851,0 -5.4945,-2.3199 -5.4945,-6.105 l 0,-65.0793 -3.4188,0 0,74.1147 c 0,7.0818 1.8315,12.3321 8.9133,12.3321 7.0818,0 8.9133,-5.2503 8.9133,-12.3321 l 0,-74.1147 -3.4188,0 0,65.0793 c 0,3.7851 -1.7094,6.105 -5.4945,6.105 z m 28.5714,-20.5128 4.2735,-50.6715 -3.663,0 -2.9304,34.7985 -7.0818,0 -2.9304,-34.7985 -3.663,0 4.2735,50.6715 4.1514,0 0,34.7985 3.4188,0 0,-34.7985 z m 25.7631,34.7985 0,-15.873 -14.4078,0 0,-18.9255 13.1868,0 0,-15.873 -13.1868,0 0,-18.9255 14.4078,0 0,-15.873 -17.8266,0 0,85.47 z m 22.7106,0 0,-15.873 -14.4078,0 14.4078,-53.724 0,-15.873 -17.8266,0 0,15.873 14.5299,0 -14.5299,53.724 0,15.873 z m 45.4212,0 0,-15.873 -14.4078,0 0,-18.9255 13.1868,0 0,-15.873 -13.1868,0 0,-18.9255 14.4078,0 0,-15.873 -17.8266,0 0,85.47 z m 14.4078,-85.47 -9.5238,0 0,85.47 3.4188,0 0,-69.597 3.2967,0 1.4652,69.597 9.6459,0 0,-85.47 -3.4188,0 0,69.597 -3.0525,0 z m 29.4261,50.6715 0,-15.873 -12.8205,0 0,-18.9255 14.4078,0 0,-15.873 -17.8266,0 0,85.47 3.4188,0 0,-34.7985 z m 24.2979,-34.7985 0,-15.873 -17.8266,0 0,15.873 7.2039,0 0,53.724 -7.2039,0 0,15.873 17.8266,0 0,-15.873 -7.2039,0 0,-53.724 z m 14.4078,-15.873 -9.5238,0 0,85.47 3.4188,0 0,-69.597 3.2967,0 1.4652,69.597 9.6459,0 0,-85.47 -3.4188,0 0,69.597 -3.0525,0 z" />
      </g>
      <g
         id="g22">
        <path
           style="fill:none;stroke:#000000;stroke-linecap:round;stroke-miterlimit:10;stroke-opacity:1;paint-order:fill stroke markers"
           id="path24"
           stroke-miterlimit="10"
           d="m 100.2686,772.20437 0,-50.6715 -14.4078,0 0,-18.9255 14.4078,0 0,-15.873 -17.8266,0 0,50.6715 14.4078,0 0,18.9255 -14.4078,0 0,15.873 z m 13.7973,-14.2857 c -3.7851,0 -5.4945,-2.3199 -5.4945,-6.105 l 0,-65.0793 -3.4188,0 0,74.1147 c 0,7.0818 1.8315,12.3321 8.9133,12.3321 7.0818,0 8.9133,-5.2503 8.9133,-12.3321 l 0,-74.1147 -3.4188,0 0,65.0793 c 0,3.7851 -1.7094,6.105 -5.4945,6.105 z m 17.2161,-20.5128 2.9304,0 7.8144,34.7985 3.663,0 -7.9365,-34.7985 c 6.2271,-0.4884 7.9365,-5.6166 7.9365,-12.3321 l 0,-26.0073 c 0,-7.0818 -1.8315,-12.3321 -8.9133,-12.3321 l -8.9133,0 0,85.47 3.4188,0 z m 5.4945,-15.873 -5.4945,0 0,-18.9255 5.4945,0 c 3.7851,0 5.4945,2.3199 5.4945,6.105 l 0,6.7155 c 0,3.7851 -1.7094,6.105 -5.4945,6.105 z m 45.4212,36.3858 c -3.7851,0 -5.4945,-2.3199 -5.4945,-6.105 l 0,-65.0793 -3.4188,0 0,74.1147 c 0,7.0818 1.8315,12.3321 8.9133,12.3321 7.0818,0 8.9133,-5.2503 8.9133,-12.3321 l 0,-74.1147 -3.4188,0 0,65.0793 c 0,3.7851 -1.7094,6.105 -5.4945,6.105 z m 23.3211,-71.1843 -9.5238,0 0,85.47 3.4188,0 0,-69.597 3.2967,0 1.4652,69.597 9.6459,0 0,-85.47 -3.4188,0 0,69.597 -3.0525,0 z m 44.8107,85.47 c 7.0818,0 8.9133,-5.2503 8.9133,-12.3321 l 0,-23.9316 c 0,-4.7619 -1.7094,-6.8376 -4.1514,-7.6923 2.0757,-1.3431 3.4188,-3.663 3.4188,-7.8144 l 0,-21.3675 c 0,-7.0818 -1.8315,-12.3321 -8.9133,-12.3321 l -8.1807,0 0,85.47 z m 4.7619,-57.9975 c 0,5.1282 -1.8315,7.326 -5.6166,7.326 l -4.6398,0 0,-18.9255 4.7619,0 c 3.7851,0 5.4945,2.3199 5.4945,6.105 z m -10.2564,23.199 5.3724,0 c 3.7851,0 5.6166,2.1978 5.6166,7.326 l 0,6.105 c 0,3.7851 -1.7094,6.105 -5.4945,6.105 l -5.4945,0 z m 28.2051,-51.6483 c -7.0818,0 -8.9133,5.2503 -8.9133,12.3321 l 0,62.7594 c 0,7.0818 1.8315,12.3321 8.9133,12.3321 7.0818,0 8.9133,-5.2503 8.9133,-12.3321 l 0,-62.7594 c 0,-7.0818 -1.8315,-12.3321 -8.9133,-12.3321 z m 0,15.2625 c 3.7851,0 5.4945,2.3199 5.4945,6.105 l 0,44.6886 c 0,3.7851 -1.7094,6.105 -5.4945,6.105 -3.7851,0 -5.4945,-2.3199 -5.4945,-6.105 l 0,-44.6886 c 0,-3.7851 1.7094,-6.105 5.4945,-6.105 z m 22.7106,56.8986 c -3.7851,0 -5.4945,-2.3199 -5.4945,-6.105 l 0,-65.0793 -3.4188,0 0,74.1147 c 0,7.0818 1.8315,12.3321 8.9133,12.3321 7.0818,0 8.9133,-5.2503 8.9133,-12.3321 l 0,-74.1147 -3.4188,0 0,65.0793 c 0,3.7851 -1.7094,6.105 -5.4945,6.105 z m 31.6239,-55.3113 0,-15.873 -17.8266,0 0,15.873 7.2039,0 0,69.597 3.4188,0 0,-69.597 z m 13.7973,-16.8498 c -7.0818,0 -8.9133,5.2503 -8.9133,12.3321 l 0,62.7594 c 0,7.0818 1.8315,12.3321 8.9133,12.3321 7.0818,0 8.9133,-5.2503 8.9133,-12.3321 l 0,-62.7594 c 0,-7.0818 -1.8315,-12.3321 -8.9133,-12.3321 z m 0,15.2625 c 3.7851,0 5.4945,2.3199 5.4945,6.105 l 0,44.6886 c 0,3.7851 -1.7094,6.105 -5.4945,6.105 -3.7851,0 -5.4945,-2.3199 -5.4945,-6.105 l 0,-44.6886 c 0,-3.7851 1.7094,-6.105 5.4945,-6.105 z m 23.3211,-14.2857 -9.5238,0 0,85.47 3.4188,0 0,-69.597 3.2967,0 1.4652,69.597 9.6459,0 0,-85.47 -3.4188,0 0,69.597 -3.0525,0 z m 44.8107,0 -8.9133,0 0,85.47 8.9133,0 c 7.0818,0 8.9133,-5.2503 8.9133,-12.3321 l 0,-60.8058 c 0,-7.0818 -1.8315,-12.3321 -8.9133,-12.3321 z m 0,69.597 -5.4945,0 0,-53.724 5.4945,0 c 3.7851,0 5.4945,2.3199 5.4945,6.105 l 0,41.514 c 0,3.7851 -1.7094,6.105 -5.4945,6.105 z m 22.7106,-70.5738 c -7.0818,0 -8.9133,5.2503 -8.9133,12.3321 l 0,62.7594 c 0,7.0818 1.8315,12.3321 8.9133,12.3321 7.0818,0 8.9133,-5.2503 8.9133,-12.3321 l 0,-62.7594 c 0,-7.0818 -1.8315,-12.3321 -8.9133,-12.3321 z m 0,15.2625 c 3.7851,0 5.4945,2.3199 5.4945,6.105 l 0,44.6886 c 0,3.7851 -1.7094,6.105 -5.4945,6.105 -3.7851,0 -5.4945,-2.3199 -5.4945,-6.105 l 0,-44.6886 c 0,-3.7851 1.7094,-6.105 5.4945,-6.105 z m 22.7106,56.8986 c -3.7851,0 -5.4945,-2.3199 -5.4945,-6.105 l 0,-65.0793 -3.4188,0 0,74.1147 c 0,7.0818 1.8315,12.3321 8.9133,12.3321 7.0818,0 8.9133,-5.2503 8.9133,-12.3321 l 0,-74.1147 -3.4188,0 0,65.0793 c 0,3.7851 -1.7094,6.105 -5.4945,6.105 z m 31.6239,-55.3113 0,-15.873 -17.8266,0 0,15.873 7.2039,0 0,69.597 3.4188,0 0,-69.597 z m 22.7106,69.597 0,-15.873 -14.4078,0 0,-18.9255 13.1868,0 0,-15.873 -13.1868,0 0,-18.9255 14.4078,0 0,-15.873 -17.8266,0 0,85.47 z m 13.7973,-14.2857 c -3.7851,0 -5.4945,-2.3199 -5.4945,-6.105 l 0,-65.0793 -3.4188,0 0,74.1147 c 0,7.0818 1.8315,12.3321 8.9133,12.3321 7.0818,0 8.9133,-5.2503 8.9133,-12.3321 l 0,-74.1147 -3.4188,0 0,65.0793 c 0,3.7851 -1.7094,6.105 -5.4945,6.105 z m 25.0305,-20.5128 4.1514,34.7985 3.663,0 -5.1282,-42.735 5.1282,-42.735 -3.663,0 -4.1514,34.7985 -4.6398,0 -4.1514,-34.7985 -3.663,0 5.0061,42.735 -5.0061,42.735 3.663,0 4.1514,-34.7985 z m 37.6068,0 5.4945,0 c 7.0818,0 8.9133,-5.2503 8.9133,-12.3321 l 0,-26.0073 c 0,-7.0818 -1.8315,-12.3321 -8.9133,-12.3321 l -8.9133,0 0,85.47 3.4188,0 z m 5.4945,-15.873 -5.4945,0 0,-18.9255 5.4945,0 c 3.7851,0 5.4945,2.3199 5.4945,6.105 l 0,6.7155 c 0,3.7851 -1.7094,6.105 -5.4945,6.105 z m 22.7106,-35.7753 c -7.0818,0 -8.9133,5.2503 -8.9133,12.3321 l 0,62.7594 c 0,7.0818 1.8315,12.3321 8.9133,12.3321 7.0818,0 8.9133,-5.2503 8.9133,-12.3321 l 0,-62.7594 c 0,-7.0818 -1.8315,-12.3321 -8.9133,-12.3321 z m 0,15.2625 c 3.7851,0 5.4945,2.3199 5.4945,6.105 l 0,44.6886 c 0,3.7851 -1.7094,6.105 -5.4945,6.105 -3.7851,0 -5.4945,-2.3199 -5.4945,-6.105 l 0,-44.6886 c 0,-3.7851 1.7094,-6.105 5.4945,-6.105 z m 22.7106,56.8986 c -3.7851,0 -5.4945,-2.3199 -5.4945,-6.105 l 0,-65.0793 -3.4188,0 0,74.1147 c 0,7.0818 1.8315,12.3321 8.9133,12.3321 7.0818,0 8.9133,-5.2503 8.9133,-12.3321 l 0,-74.1147 -3.4188,0 0,65.0793 c 0,3.7851 -1.7094,6.105 -5.4945,6.105 z m 17.2161,-20.5128 2.9304,0 7.8144,34.7985 3.663,0 -7.9365,-34.7985 c 6.2271,-0.4884 7.9365,-5.6166 7.9365,-12.3321 l 0,-26.0073 c 0,-7.0818 -1.8315,-12.3321 -8.9133,-12.3321 l -8.9133,0 0,85.47 3.4188,0 z m 5.4945,-15.873 -5.4945,0 0,-18.9255 5.4945,0 c 3.7851,0 5.4945,2.3199 5.4945,6.105 l 0,6.7155 c 0,3.7851 -1.7094,6.105 -5.4945,6.105 z" />
      </g>
      <g
         id="g26">
        <path
           style="fill:none;stroke:#000000;stroke-linecap:round;stroke-miterlimit:10;stroke-opacity:1;paint-order:fill stroke markers"
           id="path28"
           stroke-miterlimit="10"
           d="m 91.3553,838.38257 c -7.0818,0 -8.9133,5.2503 -8.9133,12.3321 l 0,62.7594 c 0,7.0818 1.8315,12.3321 8.9133,12.3321 7.0818,0 8.9133,-5.2503 8.9133,-12.3321 l 0,-62.7594 c 0,-7.0818 -1.8315,-12.3321 -8.9133,-12.3321 z m 0,15.2625 c 3.7851,0 5.4945,2.3199 5.4945,6.105 l 0,44.6886 c 0,3.7851 -1.7094,6.105 -5.4945,6.105 -3.7851,0 -5.4945,-2.3199 -5.4945,-6.105 l 0,-44.6886 c 0,-3.7851 1.7094,-6.105 5.4945,-6.105 z m 22.7106,71.1843 c 7.0818,0 8.9133,-5.2503 8.9133,-12.3321 l 0,-23.9316 c 0,-4.7619 -1.7094,-6.8376 -4.1514,-7.6923 2.0757,-1.3431 3.4188,-3.663 3.4188,-7.8144 l 0,-21.3675 c 0,-7.0818 -1.8315,-12.3321 -8.9133,-12.3321 l -8.1807,0 0,85.47 z m 4.7619,-57.9975 c 0,5.1282 -1.8315,7.326 -5.6166,7.326 l -4.6398,0 0,-18.9255 4.7619,0 c 3.7851,0 5.4945,2.3199 5.4945,6.105 z m -10.2564,23.199 5.3724,0 c 3.7851,0 5.6166,2.1978 5.6166,7.326 l 0,6.105 c 0,3.7851 -1.7094,6.105 -5.4945,6.105 l -5.4945,0 z m 37.1184,-34.7985 0,-15.873 -17.8266,0 0,15.873 7.2039,0 0,69.597 3.4188,0 0,-69.597 z m 22.7106,69.597 0,-15.873 -14.4078,0 0,-18.9255 13.1868,0 0,-15.873 -13.1868,0 0,-18.9255 14.4078,0 0,-15.873 -17.8266,0 0,85.47 z m 14.4078,-85.47 -9.5238,0 0,85.47 3.4188,0 0,-69.597 3.2967,0 1.4652,69.597 9.6459,0 0,-85.47 -3.4188,0 0,69.597 -3.0525,0 z m 31.0134,15.873 0,-15.873 -17.8266,0 0,15.873 7.2039,0 0,53.724 -7.2039,0 0,15.873 17.8266,0 0,-15.873 -7.2039,0 0,-53.724 z m 8.3028,34.7985 2.9304,0 7.8144,34.7985 3.663,0 -7.9365,-34.7985 c 6.2271,-0.4884 7.9365,-5.6166 7.9365,-12.3321 l 0,-26.0073 c 0,-7.0818 -1.8315,-12.3321 -8.9133,-12.3321 l -8.9133,0 0,85.47 3.4188,0 z m 5.4945,-15.873 -5.4945,0 0,-18.9255 5.4945,0 c 3.7851,0 5.4945,2.3199 5.4945,6.105 l 0,6.7155 c 0,3.7851 -1.7094,6.105 -5.4945,6.105 z m 45.4212,36.3858 c -3.7851,0 -5.4945,-2.3199 -5.4945,-6.105 l 0,-65.0793 -3.4188,0 0,74.1147 c 0,7.0818 1.8315,12.3321 8.9133,12.3321 7.0818,0 8.9133,-5.2503 8.9133,-12.3321 l 0,-74.1147 -3.4188,0 0,65.0793 c 0,3.7851 -1.7094,6.105 -5.4945,6.105 z m 23.3211,-71.1843 -9.5238,0 0,85.47 3.4188,0 0,-69.597 3.2967,0 1.4652,69.597 9.6459,0 0,-85.47 -3.4188,0 0,69.597 -3.0525,0 z m 35.8974,0 0,15.873 14.4078,0 0,49.2063 c 0,3.7851 -1.7094,6.105 -5.4945,6.105 -3.7851,0 -5.4945,-2.3199 -5.4945,-6.105 l 0,-30.2808 -3.4188,0 0,39.3162 c 0,7.0818 1.8315,12.3321 8.9133,12.3321 7.0818,0 8.9133,-5.2503 8.9133,-12.3321 l 0,-74.1147 z m 31.6239,-0.9768 c -7.0818,0 -8.9133,5.2503 -8.9133,12.3321 l 0,62.7594 c 0,7.0818 1.8315,12.3321 8.9133,12.3321 7.0818,0 8.9133,-5.2503 8.9133,-12.3321 l 0,-62.7594 c 0,-7.0818 -1.8315,-12.3321 -8.9133,-12.3321 z m 0,15.2625 c 3.7851,0 5.4945,2.3199 5.4945,6.105 l 0,44.6886 c 0,3.7851 -1.7094,6.105 -5.4945,6.105 -3.7851,0 -5.4945,-2.3199 -5.4945,-6.105 l 0,-44.6886 c 0,-3.7851 1.7094,-6.105 5.4945,-6.105 z m 13.7973,71.1843 17.8266,0 0,-15.873 -14.4078,0 0,-69.597 -3.4188,0 z m 40.5372,-69.597 0,-15.873 -17.8266,0 0,15.873 7.2039,0 0,53.724 -7.2039,0 0,15.873 17.8266,0 0,-15.873 -7.2039,0 0,-53.724 z m 45.4212,0 0,-15.873 -17.8266,0 0,15.873 7.2039,0 0,69.597 3.4188,0 0,-69.597 z m 19.7802,69.597 3.4188,0 -4.5177,-85.47 -9.6459,0 -4.6398,85.47 3.4188,0 0.9768,-18.9255 10.0122,0 z m -8.1807,-69.597 4.3956,0 1.9536,34.7985 -8.1807,0 z m 15.9951,-15.873 0,85.47 3.4188,0 0,-69.597 1.5873,0 0.8547,34.7985 6.105,0 0.8547,-34.7985 1.5873,0 0,69.597 3.4188,0 0,-85.47 -7.2039,0 -0.7326,34.7985 -1.9536,0 -0.7326,-34.7985 z m 26.1294,50.6715 5.4945,0 c 7.0818,0 8.9133,-5.2503 8.9133,-12.3321 l 0,-26.0073 c 0,-7.0818 -1.8315,-12.3321 -8.9133,-12.3321 l -8.9133,0 0,85.47 3.4188,0 z m 5.4945,-15.873 -5.4945,0 0,-18.9255 5.4945,0 c 3.7851,0 5.4945,2.3199 5.4945,6.105 l 0,6.7155 c 0,3.7851 -1.7094,6.105 -5.4945,6.105 z m 22.7106,-35.7753 c -7.0818,0 -8.9133,5.2503 -8.9133,12.3321 l 0,62.7594 c 0,7.0818 1.8315,12.3321 8.9133,12.3321 7.0818,0 8.9133,-5.2503 8.9133,-12.3321 l 0,-62.7594 c 0,-7.0818 -1.8315,-12.3321 -8.9133,-12.3321 z m 0,15.2625 c 3.7851,0 5.4945,2.3199 5.4945,6.105 l 0,44.6886 c 0,3.7851 -1.7094,6.105 -5.4945,6.105 -3.7851,0 -5.4945,-2.3199 -5.4945,-6.105 l 0,-44.6886 c 0,-3.7851 1.7094,-6.105 5.4945,-6.105 z m 23.3211,-14.2857 -9.5238,0 0,85.47 3.4188,0 0,-69.597 3.2967,0 1.4652,69.597 9.6459,0 0,-85.47 -3.4188,0 0,69.597 -3.0525,0 z m 44.8107,0 -8.9133,0 0,85.47 8.9133,0 c 7.0818,0 8.9133,-5.2503 8.9133,-12.3321 l 0,-60.8058 c 0,-7.0818 -1.8315,-12.3321 -8.9133,-12.3321 z m 0,69.597 -5.4945,0 0,-53.724 5.4945,0 c 3.7851,0 5.4945,2.3199 5.4945,6.105 l 0,41.514 c 0,3.7851 -1.7094,6.105 -5.4945,6.105 z m 31.6239,15.873 0,-15.873 -14.4078,0 0,-18.9255 13.1868,0 0,-15.873 -13.1868,0 0,-18.9255 14.4078,0 0,-15.873 -17.8266,0 0,85.47 z" />
      </g>
      <g
         id="g30">
        <path
           style="fill:none;stroke:#000000;stroke-linecap:round;stroke-miterlimit:10;stroke-opacity:1;paint-order:fill stroke markers"
           id="path32"
           stroke-miterlimit="10"
           d="m 86.5934,1077.4544 9.6459,0 4.5177,-85.47003 -3.4188,0 -3.7851,69.59703 -4.3956,0 -3.7851,-69.59703 -3.4188,0 z m 33.4554,0 3.4188,0 -4.5177,-85.47003 -9.6459,0 -4.6398,85.47003 3.4188,0 0.9768,-18.9255 10.0122,0 z m -8.1807,-69.597 4.3956,0 1.9536,34.7985 -8.1807,0 z m 15.9951,69.597 17.8266,0 0,-15.873 -14.4078,0 0,-69.59703 -3.4188,0 z m 40.5372,-69.597 0,-15.87303 -17.8266,0 0,15.87303 7.2039,0 0,53.724 -7.2039,0 0,15.873 17.8266,0 0,-15.873 -7.2039,0 0,-53.724 z m 13.7973,-15.87303 -8.9133,0 0,85.47003 8.9133,0 c 7.0818,0 8.9133,-5.2503 8.9133,-12.3321 l 0,-60.8058 c 0,-7.08183 -1.8315,-12.33213 -8.9133,-12.33213 z m 0,69.59703 -5.4945,0 0,-53.724 5.4945,0 c 3.7851,0 5.4945,2.3199 5.4945,6.105 l 0,41.514 c 0,3.7851 -1.7094,6.105 -5.4945,6.105 z m 28.6935,15.873 3.4188,0 -4.5177,-85.47003 -9.6459,0 -4.6398,85.47003 3.4188,0 0.9768,-18.9255 10.0122,0 z m -8.1807,-69.597 4.3956,0 1.9536,34.7985 -8.1807,0 z m 33.8217,0 0,-15.87303 -17.8266,0 0,15.87303 7.2039,0 0,69.597 3.4188,0 0,-69.597 z m 22.7106,0 0,-15.87303 -17.8266,0 0,15.87303 7.2039,0 0,53.724 -7.2039,0 0,15.873 17.8266,0 0,-15.873 -7.2039,0 0,-53.724 z m 13.7973,-16.84983 c -7.0818,0 -8.9133,5.2503 -8.9133,12.33213 l 0,62.7594 c 0,7.0818 1.8315,12.3321 8.9133,12.3321 7.0818,0 8.9133,-5.2503 8.9133,-12.3321 l 0,-62.7594 c 0,-7.08183 -1.8315,-12.33213 -8.9133,-12.33213 z m 0,15.26253 c 3.7851,0 5.4945,2.3199 5.4945,6.105 l 0,44.6886 c 0,3.7851 -1.7094,6.105 -5.4945,6.105 -3.7851,0 -5.4945,-2.3199 -5.4945,-6.105 l 0,-44.6886 c 0,-3.7851 1.7094,-6.105 5.4945,-6.105 z m 23.3211,-14.28573 -9.5238,0 0,85.47003 3.4188,0 0,-69.597 3.2967,0 1.4652,69.597 9.6459,0 0,-85.47003 -3.4188,0 0,69.59703 -3.0525,0 z m 22.1001,68.62023 c -5.7387,0 -8.9133,3.1746 -8.9133,8.9133 0,5.7387 3.1746,8.9133 8.9133,8.9133 5.7387,0 8.9133,-3.1746 8.9133,-8.9133 0,-5.7387 -3.1746,-8.9133 -8.9133,-8.9133 z" />
      </g>
    </g>
    <g
       id="g34">
      <g
         id="g36">
        <path
           id="rect38"
           d="m 0,0 800,0 0,1149.5145 -800,0 z"
           style="fill:#ffffff;fill-opacity:1;stroke:none" />
      </g>
      <g
         id="g40">
        <path
           style="fill:none;stroke:#000000;stroke-linecap:round;stroke-miterlimit:10;stroke-opacity:1;paint-order:fill stroke markers"
           id="path42"
           stroke-miterlimit="10"
           d="m 85.8608,432.15587 5.4945,0 c 7.0818,0 8.9133,-5.2503 8.9133,-12.3321 l 0,-26.0073 c 0,-7.0818 -1.8315,-12.3321 -8.9133,-12.3321 l -8.9133,0 0,85.47 3.4188,0 z m 5.4945,-15.873 -5.4945,0 0,-18.9255 5.4945,0 c 3.7851,0 5.4945,2.3199 5.4945,6.105 l 0,6.7155 c 0,3.7851 -1.7094,6.105 -5.4945,6.105 z m 22.7106,-35.7753 c -7.0818,0 -8.9133,5.2503 -8.9133,12.3321 l 0,62.7594 c 0,7.0818 1.8315,12.3321 8.9133,12.3321 7.0818,0 8.9133,-5.2503 8.9133,-12.3321 l 0,-62.7594 c 0,-7.0818 -1.8315,-12.3321 -8.9133,-12.3321 z m 0,15.2625 c 3.7851,0 5.4945,2.3199 5.4945,6.105 l 0,44.6886 c 0,3.7851 -1.7094,6.105 -5.4945,6.105 -3.7851,0 -5.4945,-2.3199 -5.4945,-6.105 l 0,-44.6886 c 0,-3.7851 1.7094,-6.105 5.4945,-6.105 z m 22.7106,56.8986 c -3.7851,0 -5.4945,-2.3199 -5.4945,-6.105 l 0,-65.0793 -3.4188,0 0,74.1147 c 0,7.0818 1.8315,12.3321 8.9133,12.3321 7.0818,0 8.9133,-5.2503 8.9133,-12.3321 l 0,-74.1147 -3.4188,0 0,65.0793 c 0,3.7851 -1.7094,6.105 -5.4945,6.105 z m 17.2161,-20.5128 2.9304,0 7.8144,34.7985 3.663,0 -7.9365,-34.7985 c 6.2271,-0.4884 7.9365,-5.6166 7.9365,-12.3321 l 0,-26.0073 c 0,-7.0818 -1.8315,-12.3321 -8.9133,-12.3321 l -8.9133,0 0,85.47 3.4188,0 z m 5.4945,-15.873 -5.4945,0 0,-18.9255 5.4945,0 c 3.7851,0 5.4945,2.3199 5.4945,6.105 l 0,6.7155 c 0,3.7851 -1.7094,6.105 -5.4945,6.105 z m 45.4212,36.3858 c -3.7851,0 -5.4945,-2.3199 -5.4945,-6.105 l 0,-65.0793 -3.4188,0 0,74.1147 c 0,7.0818 1.8315,12.3321 8.9133,12.3321 7.0818,0 8.9133,-5.2503 8.9133,-12.3321 l 0,-74.1147 -3.4188,0 0,65.0793 c 0,3.7851 -1.7094,6.105 -5.4945,6.105 z m 23.3211,-71.1843 -9.5238,0 0,85.47 3.4188,0 0,-69.597 3.2967,0 1.4652,69.597 9.6459,0 0,-85.47 -3.4188,0 0,69.597 -3.0525,0 z m 44.8107,0 -8.9133,0 0,85.47 8.9133,0 c 7.0818,0 8.9133,-5.2503 8.9133,-12.3321 l 0,-60.8058 c 0,-7.0818 -1.8315,-12.3321 -8.9133,-12.3321 z m 0,69.597 -5.4945,0 0,-53.724 5.4945,0 c 3.7851,0 5.4945,2.3199 5.4945,6.105 l 0,41.514 c 0,3.7851 -1.7094,6.105 -5.4945,6.105 z m 31.6239,-53.724 0,-15.873 -17.8266,0 0,15.873 7.2039,0 0,53.724 -7.2039,0 0,15.873 17.8266,0 0,-15.873 -7.2039,0 0,-53.724 z m 22.7106,69.597 0,-15.873 -14.4078,0 0,-18.9255 13.1868,0 0,-15.873 -13.1868,0 0,-18.9255 14.4078,0 0,-15.873 -17.8266,0 0,85.47 z m 13.7973,-14.2857 c -3.7851,0 -5.4945,-2.3199 -5.4945,-6.105 l 0,-65.0793 -3.4188,0 0,74.1147 c 0,7.0818 1.8315,12.3321 8.9133,12.3321 7.0818,0 8.9133,-5.2503 8.9133,-12.3321 l 0,-74.1147 -3.4188,0 0,65.0793 c 0,3.7851 -1.7094,6.105 -5.4945,6.105 z m 53.2356,14.2857 3.5409,0 -2.8083,-6.7155 c 0.2442,-1.3431 0.3663,-2.9304 0.3663,-4.6398 l 0,-62.7594 c 0,-7.0818 -1.8315,-12.3321 -8.9133,-12.3321 -7.0818,0 -8.9133,5.2503 -8.9133,12.3321 l 0,62.7594 c 0,7.0818 1.8315,12.3321 8.9133,12.3321 3.2967,0 5.4945,-1.221 6.8376,-3.1746 z m -13.3089,-65.0793 c 0,-3.7851 1.7094,-6.105 5.4945,-6.105 3.7851,0 5.4945,2.3199 5.4945,6.105 l 0,44.6886 c 0,1.7094 -0.3663,3.0525 -0.9768,4.0293 l -10.0122,-23.8095 z m 0,44.6886 0,-11.3553 7.2039,17.2161 c -0.4884,0.1221 -1.0989,0.2442 -1.7094,0.2442 -3.7851,0 -5.4945,-2.3199 -5.4945,-6.105 z m 28.2051,6.105 c -3.7851,0 -5.4945,-2.3199 -5.4945,-6.105 l 0,-65.0793 -3.4188,0 0,74.1147 c 0,7.0818 1.8315,12.3321 8.9133,12.3321 7.0818,0 8.9133,-5.2503 8.9133,-12.3321 l 0,-74.1147 -3.4188,0 0,65.0793 c 0,3.7851 -1.7094,6.105 -5.4945,6.105 z m 31.6239,14.2857 0,-15.873 -14.4078,0 0,-18.9255 13.1868,0 0,-15.873 -13.1868,0 0,-18.9255 14.4078,0 0,-15.873 -17.8266,0 0,85.47 z m 4.884,0 17.8266,0 0,-15.873 -14.4078,0 0,-69.597 -3.4188,0 z" />
      </g>
      <g
         id="g44">
        <path
           style="fill:none;stroke:#000000;stroke-linecap:round;stroke-miterlimit:10;stroke-opacity:1;paint-order:fill stroke markers"
           id="path46"
           stroke-miterlimit="10"
           d="m 97.3382,619.57937 3.4188,0 -4.5177,-85.47 -9.6459,0 -4.6398,85.47 3.4188,0 0.9768,-18.9255 10.0122,0 z m -8.1807,-69.597 4.3956,0 1.9536,34.7985 -8.1807,0 z m 24.9084,69.597 c 7.0818,0 8.9133,-5.2503 8.9133,-12.3321 l 0,-23.9316 c 0,-4.7619 -1.7094,-6.8376 -4.1514,-7.6923 2.0757,-1.3431 3.4188,-3.663 3.4188,-7.8144 l 0,-21.3675 c 0,-7.0818 -1.8315,-12.3321 -8.9133,-12.3321 l -8.1807,0 0,85.47 z m 4.7619,-57.9975 c 0,5.1282 -1.8315,7.326 -5.6166,7.326 l -4.6398,0 0,-18.9255 4.7619,0 c 3.7851,0 5.4945,2.3199 5.4945,6.105 z m -10.2564,23.199 5.3724,0 c 3.7851,0 5.6166,2.1978 5.6166,7.326 l 0,6.105 c 0,3.7851 -1.7094,6.105 -5.4945,6.105 l -5.4945,0 z m 34.188,34.7985 3.4188,0 -4.5177,-85.47 -9.6459,0 -4.6398,85.47 3.4188,0 0.9768,-18.9255 10.0122,0 z m -8.1807,-69.597 4.3956,0 1.9536,34.7985 -8.1807,0 z m 33.8217,0 0,-15.873 -17.8266,0 0,15.873 7.2039,0 0,53.724 -7.2039,0 0,15.873 17.8266,0 0,-15.873 -7.2039,0 0,-53.724 z m 22.7106,69.597 0,-50.6715 -14.4078,0 0,-18.9255 14.4078,0 0,-15.873 -17.8266,0 0,50.6715 14.4078,0 0,18.9255 -14.4078,0 0,15.873 z m 22.7106,0 0,-50.6715 -14.4078,0 0,-18.9255 14.4078,0 0,-15.873 -17.8266,0 0,50.6715 14.4078,0 0,18.9255 -14.4078,0 0,15.873 z m 22.7106,0 0,-15.873 -14.4078,0 0,-18.9255 13.1868,0 0,-15.873 -13.1868,0 0,-18.9255 14.4078,0 0,-15.873 -17.8266,0 0,85.47 z m 4.884,-85.47 0,85.47 3.4188,0 0,-69.597 1.5873,0 0.8547,34.7985 6.105,0 0.8547,-34.7985 1.5873,0 0,69.597 3.4188,0 0,-85.47 -7.2039,0 -0.7326,34.7985 -1.9536,0 -0.7326,-34.7985 z m 40.5372,85.47 0,-15.873 -14.4078,0 0,-18.9255 13.1868,0 0,-15.873 -13.1868,0 0,-18.9255 14.4078,0 0,-15.873 -17.8266,0 0,85.47 z m 14.4078,-85.47 -9.5238,0 0,85.47 3.4188,0 0,-69.597 3.2967,0 1.4652,69.597 9.6459,0 0,-85.47 -3.4188,0 0,69.597 -3.0525,0 z m 31.0134,15.873 0,-15.873 -17.8266,0 0,15.873 7.2039,0 0,69.597 3.4188,0 0,-69.597 z m 15.3846,44.8107 4.2735,-36.9963 0,-23.6874 -11.7216,0 0,23.6874 4.2735,36.9963 z m -1.5873,7.9365 c -5.7387,0 -8.9133,3.1746 -8.9133,8.9133 0,5.7387 3.1746,8.9133 8.9133,8.9133 5.7387,0 8.9133,-3.1746 8.9133,-8.9133 0,-5.7387 -3.1746,-8.9133 -8.9133,-8.9133 z m 51.4041,16.8498 3.4188,0 -4.5177,-85.47 -9.6459,0 -4.6398,85.47 3.4188,0 0.9768,-18.9255 10.0122,0 z m -8.1807,-69.597 4.3956,0 1.9536,34.7985 -8.1807,0 z m 19.4139,34.7985 5.4945,0 c 7.0818,0 8.9133,-5.2503 8.9133,-12.3321 l 0,-26.0073 c 0,-7.0818 -1.8315,-12.3321 -8.9133,-12.3321 l -8.9133,0 0,85.47 3.4188,0 z m 5.4945,-15.873 -5.4945,0 0,-18.9255 5.4945,0 c 3.7851,0 5.4945,2.3199 5.4945,6.105 l 0,6.7155 c 0,3.7851 -1.7094,6.105 -5.4945,6.105 z m 17.2161,15.873 5.4945,0 c 7.0818,0 8.9133,-5.2503 8.9133,-12.3321 l 0,-26.0073 c 0,-7.0818 -1.8315,-12.3321 -8.9133,-12.3321 l -8.9133,0 0,85.47 3.4188,0 z m 5.4945,-15.873 -5.4945,0 0,-18.9255 5.4945,0 c 3.7851,0 5.4945,2.3199 5.4945,6.105 l 0,6.7155 c 0,3.7851 -1.7094,6.105 -5.4945,6.105 z m 22.7106,36.3858 c -3.7851,0 -5.4945,-2.3199 -5.4945,-6.105 l 0,-65.0793 -3.4188,0 0,74.1147 c 0,7.0818 1.8315,12.3321 8.9133,12.3321 7.0818,0 8.9133,-5.2503 8.9133,-12.3321 l 0,-74.1147 -3.4188,0 0,65.0793 c 0,3.7851 -1.7094,6.105 -5.4945,6.105 z m 28.5714,-20.5128 4.2735,-50.6715 -3.663,0 -2.9304,34.7985 -7.0818,0 -2.9304,-34.7985 -3.663,0 4.2735,50.6715 4.1514,0 0,34.7985 3.4188,0 0,-34.7985 z m 25.7631,34.7985 0,-15.873 -14.4078,0 0,-18.9255 13.1868,0 0,-15.873 -13.1868,0 0,-18.9255 14.4078,0 0,-15.873 -17.8266,0 0,85.47 z m 22.7106,0 0,-15.873 -14.4078,0 14.4078,-53.724 0,-15.873 -17.8266,0 0,15.873 14.5299,0 -14.5299,53.724 0,15.873 z m 45.4212,0 0,-15.873 -14.4078,0 0,-18.9255 13.1868,0 0,-15.873 -13.1868,0 0,-18.9255 14.4078,0 0,-15.873 -17.8266,0 0,85.47 z m 14.4078,-85.47 -9.5238,0 0,85.47 3.4188,0 0,-69.597 3.2967,0 1.4652,69.597 9.6459,0 0,-85.47 -3.4188,0 0,69.597 -3.0525,0 z m 29.4261,50.6715 0,-15.873 -12.8205,0 0,-18.9255 14.4078,0 0,-15.873 -17.8266,0 0,85.47 3.4188,0 0,-34.7985 z m 24.2979,-34.7985 0,-15.873 -17.8266,0 0,15.873 7.2039,0 0,53.724 -7.2039,0 0,15.873 17.8266,0 0,-15.873 -7.2039,0 0,-53.724 z m 14.4078,-15.873 -9.5238,0 0,85.47 3.4188,0 0,-69.597 3.2967,0 1.4652,69.597 9.6459,0 0,-85.47 -3.4188,0 0,69.597 -3.0525,0 z" />
      </g>
      <g
         id="g48">
        <path
           style="fill:none;stroke:#000000;stroke-linecap:round;stroke-miterlimit:10;stroke-opacity:1;paint-order:fill stroke markers"
           id="path50"
           stroke-miterlimit="10"
           d="m 100.2686,772.20437 0,-50.6715 -14.4078,0 0,-18.9255 14.4078,0 0,-15.873 -17.8266,0 0,50.6715 14.4078,0 0,18.9255 -14.4078,0 0,15.873 z m 13.7973,-14.2857 c -3.7851,0 -5.4945,-2.3199 -5.4945,-6.105 l 0,-65.0793 -3.4188,0 0,74.1147 c 0,7.0818 1.8315,12.3321 8.9133,12.3321 7.0818,0 8.9133,-5.2503 8.9133,-12.3321 l 0,-74.1147 -3.4188,0 0,65.0793 c 0,3.7851 -1.7094,6.105 -5.4945,6.105 z m 17.2161,-20.5128 2.9304,0 7.8144,34.7985 3.663,0 -7.9365,-34.7985 c 6.2271,-0.4884 7.9365,-5.6166 7.9365,-12.3321 l 0,-26.0073 c 0,-7.0818 -1.8315,-12.3321 -8.9133,-12.3321 l -8.9133,0 0,85.47 3.4188,0 z m 5.4945,-15.873 -5.4945,0 0,-18.9255 5.4945,0 c 3.7851,0 5.4945,2.3199 5.4945,6.105 l 0,6.7155 c 0,3.7851 -1.7094,6.105 -5.4945,6.105 z m 45.4212,36.3858 c -3.7851,0 -5.4945,-2.3199 -5.4945,-6.105 l 0,-65.0793 -3.4188,0 0,74.1147 c 0,7.0818 1.8315,12.3321 8.9133,12.3321 7.0818,0 8.9133,-5.2503 8.9133,-12.3321 l 0,-74.1147 -3.4188,0 0,65.0793 c 0,3.7851 -1.7094,6.105 -5.4945,6.105 z m 23.3211,-71.1843 -9.5238,0 0,85.47 3.4188,0 0,-69.597 3.2967,0 1.4652,69.597 9.6459,0 0,-85.47 -3.4188,0 0,69.597 -3.0525,0 z m 44.8107,85.47 c 7.0818,0 8.9133,-5.2503 8.9133,-12.3321 l 0,-23.9316 c 0,-4.7619 -1.7094,-6.8376 -4.1514,-7.6923 2.0757,-1.3431 3.4188,-3.663 3.4188,-7.8144 l 0,-21.3675 c 0,-7.0818 -1.8315,-12.3321 -8.9133,-12.3321 l -8.1807,0 0,85.47 z m 4.7619,-57.9975 c 0,5.1282 -1.8315,7.326 -5.6166,7.326 l -4.6398,0 0,-18.9255 4.7619,0 c 3.7851,0 5.4945,2.3199 5.4945,6.105 z m -10.2564,23.199 5.3724,0 c 3.7851,0 5.6166,2.1978 5.6166,7.326 l 0,6.105 c 0,3.7851 -1.7094,6.105 -5.4945,6.105 l -5.4945,0 z m 28.2051,-51.6483 c -7.0818,0 -8.9133,5.2503 -8.9133,12.3321 l 0,62.7594 c 0,7.0818 1.8315,12.3321 8.9133,12.3321 7.0818,0 8.9133,-5.2503 8.9133,-12.3321 l 0,-62.7594 c 0,-7.0818 -1.8315,-12.3321 -8.9133,-12.3321 z m 0,15.2625 c 3.7851,0 5.4945,2.3199 5.4945,6.105 l 0,44.6886 c 0,3.7851 -1.7094,6.105 -5.4945,6.105 -3.7851,0 -5.4945,-2.3199 -5.4945,-6.105 l 0,-44.6886 c 0,-3.7851 1.7094,-6.105 5.4945,-6.105 z m 22.7106,56.8986 c -3.7851,0 -5.4945,-2.3199 -5.4945,-6.105 l 0,-65.0793 -3.4188,0 0,74.1147 c 0,7.0818 1.8315,12.3321 8.9133,12.3321 7.0818,0 8.9133,-5.2503 8.9133,-12.3321 l 0,-74.1147 -3.4188,0 0,65.0793 c 0,3.7851 -1.7094,6.105 -5.4945,6.105 z m 31.6239,-55.3113 0,-15.873 -17.8266,0 0,15.873 7.2039,0 0,69.597 3.4188,0 0,-69.597 z m 13.7973,-16.8498 c -7.0818,0 -8.9133,5.2503 -8.9133,12.3321 l 0,62.7594 c 0,7.0818 1.8315,12.3321 8.9133,12.3321 7.0818,0 8.9133,-5.2503 8.9133,-12.3321 l 0,-62.7594 c 0,-7.0818 -1.8315,-12.3321 -8.9133,-12.3321 z m 0,15.2625 c 3.7851,0 5.4945,2.3199 5.4945,6.105 l 0,44.6886 c 0,3.7851 -1.7094,6.105 -5.4945,6.105 -3.7851,0 -5.4945,-2.3199 -5.4945,-6.105 l 0,-44.6886 c 0,-3.7851 1.7094,-6.105 5.4945,-6.105 z m 23.3211,-14.2857 -9.5238,0 0,85.47 3.4188,0 0,-69.597 3.2967,0 1.4652,69.597 9.6459,0 0,-85.47 -3.4188,0 0,69.597 -3.0525,0 z m 44.8107,0 -8.9133,0 0,85.47 8.9133,0 c 7.0818,0 8.9133,-5.2503 8.9133,-12.3321 l 0,-60.8058 c 0,-7.0818 -1.8315,-12.3321 -8.9133,-12.3321 z m 0,69.597 -5.4945,0 0,-53.724 5.4945,0 c 3.7851,0 5.4945,2.3199 5.4945,6.105 l 0,41.514 c 0,3.7851 -1.7094,6.105 -5.4945,6.105 z m 22.7106,-70.5738 c -7.0818,0 -8.9133,5.2503 -8.9133,12.3321 l 0,62.7594 c 0,7.0818 1.8315,12.3321 8.9133,12.3321 7.0818,0 8.9133,-5.2503 8.9133,-12.3321 l 0,-62.7594 c 0,-7.0818 -1.8315,-12.3321 -8.9133,-12.3321 z m 0,15.2625 c 3.7851,0 5.4945,2.3199 5.4945,6.105 l 0,44.6886 c 0,3.7851 -1.7094,6.105 -5.4945,6.105 -3.7851,0 -5.4945,-2.3199 -5.4945,-6.105 l 0,-44.6886 c 0,-3.7851 1.7094,-6.105 5.4945,-6.105 z m 22.7106,56.8986 c -3.7851,0 -5.4945,-2.3199 -5.4945,-6.105 l 0,-65.0793 -3.4188,0 0,74.1147 c 0,7.0818 1.8315,12.3321 8.9133,12.3321 7.0818,0 8.9133,-5.2503 8.9133,-12.3321 l 0,-74.1147 -3.4188,0 0,65.0793 c 0,3.7851 -1.7094,6.105 -5.4945,6.105 z m 31.6239,-55.3113 0,-15.873 -17.8266,0 0,15.873 7.2039,0 0,69.597 3.4188,0 0,-69.597 z m 22.7106,69.597 0,-15.873 -14.4078,0 0,-18.9255 13.1868,0 0,-15.873 -13.1868,0 0,-18.9255 14.4078,0 0,-15.873 -17.8266,0 0,85.47 z m 13.7973,-14.2857 c -3.7851,0 -5.4945,-2.3199 -5.4945,-6.105 l 0,-65.0793 -3.4188,0 0,74.1147 c 0,7.0818 1.8315,12.3321 8.9133,12.3321 7.0818,0 8.9133,-5.2503 8.9133,-12.3321 l 0,-74.1147 -3.4188,0 0,65.0793 c 0,3.7851 -1.7094,6.105 -5.4945,6.105 z m 25.0305,-20.5128 4.1514,34.7985 3.663,0 -5.1282,-42.735 5.1282,-42.735 -3.663,0 -4.1514,34.7985 -4.6398,0 -4.1514,-34.7985 -3.663,0 5.0061,42.735 -5.0061,42.735 3.663,0 4.1514,-34.7985 z m 37.6068,0 5.4945,0 c 7.0818,0 8.9133,-5.2503 8.9133,-12.3321 l 0,-26.0073 c 0,-7.0818 -1.8315,-12.3321 -8.9133,-12.3321 l -8.9133,0 0,85.47 3.4188,0 z m 5.4945,-15.873 -5.4945,0 0,-18.9255 5.4945,0 c 3.7851,0 5.4945,2.3199 5.4945,6.105 l 0,6.7155 c 0,3.7851 -1.7094,6.105 -5.4945,6.105 z m 22.7106,-35.7753 c -7.0818,0 -8.9133,5.2503 -8.9133,12.3321 l 0,62.7594 c 0,7.0818 1.8315,12.3321 8.9133,12.3321 7.0818,0 8.9133,-5.2503 8.9133,-12.3321 l 0,-62.7594 c 0,-7.0818 -1.8315,-12.3321 -8.9133,-12.3321 z m 0,15.2625 c 3.7851,0 5.4945,2.3199 5.4945,6.105 l 0,44.6886 c 0,3.7851 -1.7094,6.105 -5.4945,6.105 -3.7851,0 -5.4945,-2.3199 -5.4945,-6.105 l 0,-44.6886 c 0,-3.7851 1.7094,-6.105 5.4945,-6.105 z m 22.7106,56.8986 c -3.7851,0 -5.4945,-2.3199 -5.4945,-6.105 l 0,-65.0793 -3.4188,0 0,74.1147 c 0,7.0818 1.8315,12.3321 8.9133,12.3321 7.0818,0 8.9133,-5.2503 8.9133,-12.3321 l 0,-74.1147 -3.4188,0 0,65.0793 c 0,3.7851 -1.7094,6.105 -5.4945,6.105 z m 17.2161,-20.5128 2.9304,0 7.8144,34.7985 3.663,0 -7.9365,-34.7985 c 6.2271,-0.4884 7.9365,-5.6166 7.9365,-12.3321 l 0,-26.0073 c 0,-7.0818 -1.8315,-12.3321 -8.9133,-12.3321 l -8.9133,0 0,85.47 3.4188,0 z m 5.4945,-15.873 -5.4945,0 0,-18.9255 5.4945,0 c 3.7851,0 5.4945,2.3199 5.4945,6.105 l 0,6.7155 c 0,3.7851 -1.7094,6.105 -5.4945,6.105 z" />
      </g>
      <g
         id="g52">
        <path
           style="fill:none;stroke:#000000;stroke-linecap:round;stroke-miterlimit:10;stroke-opacity:1;paint-order:fill stroke markers"
           id="path54"
           stroke-miterlimit="10"
           d="m 91.3553,838.38257 c -7.0818,0 -8.9133,5.2503 -8.9133,12.3321 l 0,62.7594 c 0,7.0818 1.8315,12.3321 8.9133,12.3321 7.0818,0 8.9133,-5.2503 8.9133,-12.3321 l 0,-62.7594 c 0,-7.0818 -1.8315,-12.3321 -8.9133,-12.3321 z m 0,15.2625 c 3.7851,0 5.4945,2.3199 5.4945,6.105 l 0,44.6886 c 0,3.7851 -1.7094,6.105 -5.4945,6.105 -3.7851,0 -5.4945,-2.3199 -5.4945,-6.105 l 0,-44.6886 c 0,-3.7851 1.7094,-6.105 5.4945,-6.105 z m 22.7106,71.1843 c 7.0818,0 8.9133,-5.2503 8.9133,-12.3321 l 0,-23.9316 c 0,-4.7619 -1.7094,-6.8376 -4.1514,-7.6923 2.0757,-1.3431 3.4188,-3.663 3.4188,-7.8144 l 0,-21.3675 c 0,-7.0818 -1.8315,-12.3321 -8.9133,-12.3321 l -8.1807,0 0,85.47 z m 4.7619,-57.9975 c 0,5.1282 -1.8315,7.326 -5.6166,7.326 l -4.6398,0 0,-18.9255 4.7619,0 c 3.7851,0 5.4945,2.3199 5.4945,6.105 z m -10.2564,23.199 5.3724,0 c 3.7851,0 5.6166,2.1978 5.6166,7.326 l 0,6.105 c 0,3.7851 -1.7094,6.105 -5.4945,6.105 l -5.4945,0 z m 37.1184,-34.7985 0,-15.873 -17.8266,0 0,15.873 7.2039,0 0,69.597 3.4188,0 0,-69.597 z m 22.7106,69.597 0,-15.873 -14.4078,0 0,-18.9255 13.1868,0 0,-15.873 -13.1868,0 0,-18.9255 14.4078,0 0,-15.873 -17.8266,0 0,85.47 z m 14.4078,-85.47 -9.5238,0 0,85.47 3.4188,0 0,-69.597 3.2967,0 1.4652,69.597 9.6459,0 0,-85.47 -3.4188,0 0,69.597 -3.0525,0 z m 31.0134,15.873 0,-15.873 -17.8266,0 0,15.873 7.2039,0 0,53.724 -7.2039,0 0,15.873 17.8266,0 0,-15.873 -7.2039,0 0,-53.724 z m 8.3028,34.7985 2.9304,0 7.8144,34.7985 3.663,0 -7.9365,-34.7985 c 6.2271,-0.4884 7.9365,-5.6166 7.9365,-12.3321 l 0,-26.0073 c 0,-7.0818 -1.8315,-12.3321 -8.9133,-12.3321 l -8.9133,0 0,85.47 3.4188,0 z m 5.4945,-15.873 -5.4945,0 0,-18.9255 5.4945,0 c 3.7851,0 5.4945,2.3199 5.4945,6.105 l 0,6.7155 c 0,3.7851 -1.7094,6.105 -5.4945,6.105 z m 45.4212,36.3858 c -3.7851,0 -5.4945,-2.3199 -5.4945,-6.105 l 0,-65.0793 -3.4188,0 0,74.1147 c 0,7.0818 1.8315,12.3321 8.9133,12.3321 7.0818,0 8.9133,-5.2503 8.9133,-12.3321 l 0,-74.1147 -3.4188,0 0,65.0793 c 0,3.7851 -1.7094,6.105 -5.4945,6.105 z m 23.3211,-71.1843 -9.5238,0 0,85.47 3.4188,0 0,-69.597 3.2967,0 1.4652,69.597 9.6459,0 0,-85.47 -3.4188,0 0,69.597 -3.0525,0 z m 35.8974,0 0,15.873 14.4078,0 0,49.2063 c 0,3.7851 -1.7094,6.105 -5.4945,6.105 -3.7851,0 -5.4945,-2.3199 -5.4945,-6.105 l 0,-30.2808 -3.4188,0 0,39.3162 c 0,7.0818 1.8315,12.3321 8.9133,12.3321 7.0818,0 8.9133,-5.2503 8.9133,-12.3321 l 0,-74.1147 z m 31.6239,-0.9768 c -7.0818,0 -8.9133,5.2503 -8.9133,12.3321 l 0,62.7594 c 0,7.0818 1.8315,12.3321 8.9133,12.3321 7.0818,0 8.9133,-5.2503 8.9133,-12.3321 l 0,-62.7594 c 0,-7.0818 -1.8315,-12.3321 -8.9133,-12.3321 z m 0,15.2625 c 3.7851,0 5.4945,2.3199 5.4945,6.105 l 0,44.6886 c 0,3.7851 -1.7094,6.105 -5.4945,6.105 -3.7851,0 -5.4945,-2.3199 -5.4945,-6.105 l 0,-44.6886 c 0,-3.7851 1.7094,-6.105 5.4945,-6.105 z m 13.7973,71.1843 17.8266,0 0,-15.873 -14.4078,0 0,-69.597 -3.4188,0 z m 40.5372,-69.597 0,-15.873 -17.8266,0 0,15.873 7.2039,0 0,53.724 -7.2039,0 0,15.873 17.8266,0 0,-15.873 -7.2039,0 0,-53.724 z m 45.4212,0 0,-15.873 -17.8266,0 0,15.873 7.2039,0 0,69.597 3.4188,0 0,-69.597 z m 19.7802,69.597 3.4188,0 -4.5177,-85.47 -9.6459,0 -4.6398,85.47 3.4188,0 0.9768,-18.9255 10.0122,0 z m -8.1807,-69.597 4.3956,0 1.9536,34.7985 -8.1807,0 z m 15.9951,-15.873 0,85.47 3.4188,0 0,-69.597 1.5873,0 0.8547,34.7985 6.105,0 0.8547,-34.7985 1.5873,0 0,69.597 3.4188,0 0,-85.47 -7.2039,0 -0.7326,34.7985 -1.9536,0 -0.7326,-34.7985 z m 26.1294,50.6715 5.4945,0 c 7.0818,0 8.9133,-5.2503 8.9133,-12.3321 l 0,-26.0073 c 0,-7.0818 -1.8315,-12.3321 -8.9133,-12.3321 l -8.9133,0 0,85.47 3.4188,0 z m 5.4945,-15.873 -5.4945,0 0,-18.9255 5.4945,0 c 3.7851,0 5.4945,2.3199 5.4945,6.105 l 0,6.7155 c 0,3.7851 -1.7094,6.105 -5.4945,6.105 z m 22.7106,-35.7753 c -7.0818,0 -8.9133,5.2503 -8.9133,12.3321 l 0,62.7594 c 0,7.0818 1.8315,12.3321 8.9133,12.3321 7.0818,0 8.9133,-5.2503 8.9133,-12.3321 l 0,-62.7594 c 0,-7.0818 -1.8315,-12.3321 -8.9133,-12.3321 z m 0,15.2625 c 3.7851,0 5.4945,2.3199 5.4945,6.105 l 0,44.6886 c 0,3.7851 -1.7094,6.105 -5.4945,6.105 -3.7851,0 -5.4945,-2.3199 -5.4945,-6.105 l 0,-44.6886 c 0,-3.7851 1.7094,-6.105 5.4945,-6.105 z m 23.3211,-14.2857 -9.5238,0 0,85.47 3.4188,0 0,-69.597 3.2967,0 1.4652,69.597 9.6459,0 0,-85.47 -3.4188,0 0,69.597 -3.0525,0 z m 44.8107,0 -8.9133,0 0,85.47 8.9133,0 c 7.0818,0 8.9133,-5.2503 8.9133,-12.3321 l 0,-60.8058 c 0,-7.0818 -1.8315,-12.3321 -8.9133,-12.3321 z m 0,69.597 -5.4945,0 0,-53.724 5.4945,0 c 3.7851,0 5.4945,2.3199 5.4945,6.105 l 0,41.514 c 0,3.7851 -1.7094,6.105 -5.4945,6.105 z m 31.6239,15.873 0,-15.873 -14.4078,0 0,-18.9255 13.1868,0 0,-15.873 -13.1868,0 0,-18.9255 14.4078,0 0,-15.873 -17.8266,0 0,85.47 z" />
      </g>
      <g
         id="g56">
        <path
           style="fill:none;stroke:#000000;stroke-linecap:round;stroke-miterlimit:10;stroke-opacity:1;paint-order:fill stroke markers"
           id="path58"
           stroke-miterlimit="10"
           d="m 86.5934,1077.4544 9.6459,0 4.5177,-85.47003 -3.4188,0 -3.7851,69.59703 -4.3956,0 -3.7851,-69.59703 -3.4188,0 z m 33.4554,0 3.4188,0 -4.5177,-85.47003 -9.6459,0 -4.6398,85.47003 3.4188,0 0.9768,-18.9255 10.0122,0 z m -8.1807,-69.597 4.3956,0 1.9536,34.7985 -8.1807,0 z m 15.9951,69.597 17.8266,0 0,-15.873 -14.4078,0 0,-69.59703 -3.4188,0 z m 40.5372,-69.597 0,-15.87303 -17.8266,0 0,15.87303 7.2039,0 0,53.724 -7.2039,0 0,15.873 17.8266,0 0,-15.873 -7.2039,0 0,-53.724 z m 13.7973,-15.87303 -8.9133,0 0,85.47003 8.9133,0 c 7.0818,0 8.9133,-5.2503 8.9133,-12.3321 l 0,-60.8058 c 0,-7.08183 -1.8315,-12.33213 -8.9133,-12.33213 z m 0,69.59703 -5.4945,0 0,-53.724 5.4945,0 c 3.7851,0 5.4945,2.3199 5.4945,6.105 l 0,41.514 c 0,3.7851 -1.7094,6.105 -5.4945,6.105 z m 28.6935,15.873 3.4188,0 -4.5177,-85.47003 -9.6459,0 -4.6398,85.47003 3.4188,0 0.9768,-18.9255 10.0122,0 z m -8.1807,-69.597 4.3956,0 1.9536,34.7985 -8.1807,0 z m 33.8217,0 0,-15.87303 -17.8266,0 0,15.87303 7.2039,0 0,69.597 3.4188,0 0,-69.597 z m 22.7106,0 0,-15.87303 -17.8266,0 0,15.87303 7.2039,0 0,53.724 -7.2039,0 0,15.873 17.8266,0 0,-15.873 -7.2039,0 0,-53.724 z m 13.7973,-16.84983 c -7.0818,0 -8.9133,5.2503 -8.9133,12.33213 l 0,62.7594 c 0,7.0818 1.8315,12.3321 8.9133,12.3321 7.0818,0 8.9133,-5.2503 8.9133,-12.3321 l 0,-62.7594 c 0,-7.08183 -1.8315,-12.33213 -8.9133,-12.33213 z m 0,15.26253 c 3.7851,0 5.4945,2.3199 5.4945,6.105 l 0,44.6886 c 0,3.7851 -1.7094,6.105 -5.4945,6.105 -3.7851,0 -5.4945,-2.3199 -5.4945,-6.105 l 0,-44.6886 c 0,-3.7851 1.7094,-6.105 5.4945,-6.105 z m 23.3211,-14.28573 -9.5238,0 0,85.47003 3.4188,0 0,-69.597 3.2967,0 1.4652,69.597 9.6459,0 0,-85.47003 -3.4188,0 0,69.59703 -3.0525,0 z m 22.1001,68.62023 c -5.7387,0 -8.9133,3.1746 -8.9133,8.9133 0,5.7387 3.1746,8.9133 8.9133,8.9133 5.7387,0 8.9133,-3.1746 8.9133,-8.9133 0,-5.7387 -3.1746,-8.9133 -8.9133,-8.9133 z" />
      </g>
    </g>
  </g>
</svg>
