<svg xmlns="http://www.w3.org/2000/svg" xmlns:xlink="http://www.w3.org/1999/xlink" width="144" height="72"><path fill="red" stroke="black" d="M13.99 16.21L19.48 16.21L19.48 25.49L27.95 25.49L27.95 30.66L19.48 30.66L19.48 52.45Q19.48 54.91 22.22 54.91Q25.56 54.91 28.44 54.35L28.44 59.73Q24.19 60.33 21.13 60.33Q13.99 60.33 13.99 53.19L13.99 30.66L7.21 30.66L7.21 25.49L13.99 25.49L13.99 16.21ZM67.68 49.08Q64.55 61.10 54.07 61.10Q47.57 61.10 43.77 55.69Q40.32 50.73 40.32 42.61Q40.32 34.84 43.56 29.88Q47.36 24.12 54 24.12Q66.97 24.12 67.82 43.70L45.74 43.70Q46.16 56.29 54.14 56.29Q60.47 56.29 62.05 49.08L67.68 49.08M62.05 39.09Q60.89 28.93 54 28.93Q47.36 28.93 45.95 39.09L62.05 39.09ZM82.02 49.08Q82.97 56.29 90.42 56.29Q97.91 56.29 97.91 51.01Q97.91 48.48 96.19 47.07Q94.36 45.56 89.65 43.91L88.63 43.52Q83.43 41.73 81.07 39.94Q77.70 37.30 77.70 33.57Q77.70 29.11 81.60 26.40Q84.97 24.08 89.79 24.08Q100.65 24.08 102.38 33.96L96.79 33.96Q95.91 28.69 89.72 28.69Q83.11 28.69 83.11 33.36Q83.11 36.42 91.97 39.55Q96.96 41.31 99.14 42.89Q103.39 45.91 103.39 50.87Q103.39 55.69 99.60 58.50Q96.01 61.10 90.28 61.10Q77.73 61.10 76.32 49.08L82.02 49.08ZM121.99 16.21L127.48 16.21L127.48 25.49L135.95 25.49L135.95 30.66L127.48 30.66L127.48 52.45Q127.48 54.91 130.22 54.91Q133.56 54.91 136.44 54.35L136.44 59.73Q132.19 60.33 129.13 60.33Q121.99 60.33 121.99 53.19L121.99 30.66L115.21 30.66L115.21 25.49L121.99 25.49L121.99 16.21Z"/></svg>
